G04 #@! TF.GenerationSoftware,KiCad,Pcbnew,(5.1.2)-1*
G04 #@! TF.CreationDate,2019-10-11T14:20:38-04:00*
G04 #@! TF.ProjectId,faceplate,66616365-706c-4617-9465-2e6b69636164,rev?*
G04 #@! TF.SameCoordinates,Original*
G04 #@! TF.FileFunction,Copper,L4,Inr*
G04 #@! TF.FilePolarity,Positive*
%FSLAX46Y46*%
G04 Gerber Fmt 4.6, Leading zero omitted, Abs format (unit mm)*
G04 Created by KiCad (PCBNEW (5.1.2)-1) date 2019-10-11 14:20:38*
%MOMM*%
%LPD*%
G04 APERTURE LIST*
%ADD10R,1.350000X1.350000*%
%ADD11O,1.350000X1.350000*%
%ADD12C,1.500000*%
%ADD13R,1.500000X1.500000*%
%ADD14C,3.000000*%
%ADD15C,1.200000*%
%ADD16O,4.000000X1.000000*%
%ADD17C,0.254000*%
G04 APERTURE END LIST*
D10*
X180594000Y-128206000D03*
D11*
X178594000Y-128206000D03*
X180594000Y-126206000D03*
X178594000Y-126206000D03*
X180594000Y-124206000D03*
X178594000Y-124206000D03*
X180594000Y-122206000D03*
X178594000Y-122206000D03*
D12*
X167132000Y-101092000D03*
X169672000Y-102362000D03*
X167132000Y-103632000D03*
X169672000Y-104902000D03*
X167132000Y-106172000D03*
X169672000Y-107442000D03*
X167132000Y-108712000D03*
D13*
X169672000Y-109982000D03*
D14*
X139424000Y-83736000D03*
X152564000Y-83736000D03*
D12*
X142494000Y-81026000D03*
X145034000Y-81026000D03*
X147034000Y-81026000D03*
X149494000Y-81026000D03*
D14*
X164824000Y-83736000D03*
X177964000Y-83736000D03*
D12*
X167894000Y-81026000D03*
X170434000Y-81026000D03*
X172434000Y-81026000D03*
X174894000Y-81026000D03*
D15*
X151502000Y-109474000D03*
D16*
X150127000Y-99574000D03*
D15*
X148752000Y-105974000D03*
X148752000Y-103974000D03*
D16*
X150127000Y-112374000D03*
D15*
X148752000Y-101974000D03*
X148752000Y-109974000D03*
X151502000Y-102474000D03*
X151502000Y-104974000D03*
X151502000Y-106974000D03*
X148752000Y-107974000D03*
X143002000Y-109474000D03*
X143002000Y-106974000D03*
X143002000Y-104974000D03*
X143002000Y-102474000D03*
X140252000Y-101974000D03*
X140252000Y-103974000D03*
X140252000Y-105974000D03*
X140252000Y-107974000D03*
X140252000Y-109974000D03*
D16*
X141627000Y-112374000D03*
X141627000Y-99574000D03*
D11*
X182324000Y-117226000D03*
X182324000Y-119226000D03*
X180324000Y-117226000D03*
X180324000Y-119226000D03*
X178324000Y-117226000D03*
X178324000Y-119226000D03*
X176324000Y-117226000D03*
X176324000Y-119226000D03*
X174324000Y-117226000D03*
X174324000Y-119226000D03*
X172324000Y-117226000D03*
X172324000Y-119226000D03*
X170324000Y-117226000D03*
X170324000Y-119226000D03*
X168324000Y-117226000D03*
X168324000Y-119226000D03*
X166324000Y-117226000D03*
X166324000Y-119226000D03*
X164324000Y-117226000D03*
X164324000Y-119226000D03*
X162324000Y-117226000D03*
X162324000Y-119226000D03*
X160324000Y-117226000D03*
X160324000Y-119226000D03*
X158324000Y-117226000D03*
X158324000Y-119226000D03*
X156324000Y-117226000D03*
X156324000Y-119226000D03*
X154324000Y-117226000D03*
X154324000Y-119226000D03*
X152324000Y-117226000D03*
X152324000Y-119226000D03*
X150324000Y-117226000D03*
X150324000Y-119226000D03*
X148324000Y-117226000D03*
X148324000Y-119226000D03*
X146324000Y-117226000D03*
X146324000Y-119226000D03*
X144324000Y-117226000D03*
X144324000Y-119226000D03*
X142324000Y-117226000D03*
X142324000Y-119226000D03*
X140324000Y-117226000D03*
X140324000Y-119226000D03*
X138324000Y-117226000D03*
X138324000Y-119226000D03*
X136324000Y-117226000D03*
X136324000Y-119226000D03*
X134324000Y-117226000D03*
D10*
X134324000Y-119226000D03*
D17*
G36*
X185404001Y-130246000D02*
G01*
X131724000Y-130246000D01*
X131724000Y-126206000D01*
X177277662Y-126206000D01*
X177302955Y-126462805D01*
X177377862Y-126709741D01*
X177499505Y-126937318D01*
X177663208Y-127136792D01*
X177747539Y-127206000D01*
X177663208Y-127275208D01*
X177499505Y-127474682D01*
X177377862Y-127702259D01*
X177302955Y-127949195D01*
X177277662Y-128206000D01*
X177302955Y-128462805D01*
X177377862Y-128709741D01*
X177499505Y-128937318D01*
X177663208Y-129136792D01*
X177862682Y-129300495D01*
X178090259Y-129422138D01*
X178337195Y-129497045D01*
X178529649Y-129516000D01*
X178658351Y-129516000D01*
X178850805Y-129497045D01*
X179097741Y-129422138D01*
X179325318Y-129300495D01*
X179394926Y-129243369D01*
X179467815Y-129332185D01*
X179564506Y-129411537D01*
X179674820Y-129470502D01*
X179794518Y-129506812D01*
X179919000Y-129519072D01*
X181269000Y-129519072D01*
X181393482Y-129506812D01*
X181513180Y-129470502D01*
X181623494Y-129411537D01*
X181720185Y-129332185D01*
X181799537Y-129235494D01*
X181858502Y-129125180D01*
X181894812Y-129005482D01*
X181907072Y-128881000D01*
X181907072Y-127531000D01*
X181894812Y-127406518D01*
X181858502Y-127286820D01*
X181799537Y-127176506D01*
X181720185Y-127079815D01*
X181631369Y-127006926D01*
X181688495Y-126937318D01*
X181810138Y-126709741D01*
X181885045Y-126462805D01*
X181910338Y-126206000D01*
X181885045Y-125949195D01*
X181810138Y-125702259D01*
X181688495Y-125474682D01*
X181524792Y-125275208D01*
X181436352Y-125202628D01*
X181572303Y-125077227D01*
X181723473Y-124869629D01*
X181831238Y-124636528D01*
X181861910Y-124535400D01*
X181738224Y-124333000D01*
X180721000Y-124333000D01*
X180721000Y-124353000D01*
X180467000Y-124353000D01*
X180467000Y-124333000D01*
X178721000Y-124333000D01*
X178721000Y-124353000D01*
X178467000Y-124353000D01*
X178467000Y-124333000D01*
X177449776Y-124333000D01*
X177326090Y-124535400D01*
X177356762Y-124636528D01*
X177464527Y-124869629D01*
X177615697Y-125077227D01*
X177751648Y-125202628D01*
X177663208Y-125275208D01*
X177499505Y-125474682D01*
X177377862Y-125702259D01*
X177302955Y-125949195D01*
X177277662Y-126206000D01*
X131724000Y-126206000D01*
X131724000Y-122206000D01*
X177277662Y-122206000D01*
X177302955Y-122462805D01*
X177377862Y-122709741D01*
X177499505Y-122937318D01*
X177663208Y-123136792D01*
X177751648Y-123209372D01*
X177615697Y-123334773D01*
X177464527Y-123542371D01*
X177356762Y-123775472D01*
X177326090Y-123876600D01*
X177449776Y-124079000D01*
X178467000Y-124079000D01*
X178467000Y-124059000D01*
X178721000Y-124059000D01*
X178721000Y-124079000D01*
X180467000Y-124079000D01*
X180467000Y-124059000D01*
X180721000Y-124059000D01*
X180721000Y-124079000D01*
X181738224Y-124079000D01*
X181861910Y-123876600D01*
X181831238Y-123775472D01*
X181723473Y-123542371D01*
X181572303Y-123334773D01*
X181436352Y-123209372D01*
X181524792Y-123136792D01*
X181688495Y-122937318D01*
X181810138Y-122709741D01*
X181885045Y-122462805D01*
X181910338Y-122206000D01*
X181885045Y-121949195D01*
X181810138Y-121702259D01*
X181688495Y-121474682D01*
X181524792Y-121275208D01*
X181325318Y-121111505D01*
X181097741Y-120989862D01*
X180850805Y-120914955D01*
X180658351Y-120896000D01*
X180529649Y-120896000D01*
X180337195Y-120914955D01*
X180090259Y-120989862D01*
X179862682Y-121111505D01*
X179663208Y-121275208D01*
X179594000Y-121359539D01*
X179524792Y-121275208D01*
X179325318Y-121111505D01*
X179097741Y-120989862D01*
X178850805Y-120914955D01*
X178658351Y-120896000D01*
X178529649Y-120896000D01*
X178337195Y-120914955D01*
X178090259Y-120989862D01*
X177862682Y-121111505D01*
X177663208Y-121275208D01*
X177499505Y-121474682D01*
X177377862Y-121702259D01*
X177302955Y-121949195D01*
X177277662Y-122206000D01*
X131724000Y-122206000D01*
X131724000Y-117226000D01*
X133007662Y-117226000D01*
X133032955Y-117482805D01*
X133107862Y-117729741D01*
X133229505Y-117957318D01*
X133286631Y-118026926D01*
X133197815Y-118099815D01*
X133118463Y-118196506D01*
X133059498Y-118306820D01*
X133023188Y-118426518D01*
X133010928Y-118551000D01*
X133010928Y-119901000D01*
X133023188Y-120025482D01*
X133059498Y-120145180D01*
X133118463Y-120255494D01*
X133197815Y-120352185D01*
X133294506Y-120431537D01*
X133404820Y-120490502D01*
X133524518Y-120526812D01*
X133649000Y-120539072D01*
X134999000Y-120539072D01*
X135123482Y-120526812D01*
X135243180Y-120490502D01*
X135353494Y-120431537D01*
X135450185Y-120352185D01*
X135523074Y-120263369D01*
X135592682Y-120320495D01*
X135820259Y-120442138D01*
X136067195Y-120517045D01*
X136259649Y-120536000D01*
X136388351Y-120536000D01*
X136580805Y-120517045D01*
X136827741Y-120442138D01*
X137055318Y-120320495D01*
X137254792Y-120156792D01*
X137324000Y-120072461D01*
X137393208Y-120156792D01*
X137592682Y-120320495D01*
X137820259Y-120442138D01*
X138067195Y-120517045D01*
X138259649Y-120536000D01*
X138388351Y-120536000D01*
X138580805Y-120517045D01*
X138827741Y-120442138D01*
X139055318Y-120320495D01*
X139254792Y-120156792D01*
X139327372Y-120068352D01*
X139452773Y-120204303D01*
X139660371Y-120355473D01*
X139893472Y-120463238D01*
X139994600Y-120493910D01*
X140197000Y-120370224D01*
X140197000Y-119353000D01*
X140177000Y-119353000D01*
X140177000Y-119099000D01*
X140197000Y-119099000D01*
X140197000Y-119079000D01*
X140451000Y-119079000D01*
X140451000Y-119099000D01*
X140471000Y-119099000D01*
X140471000Y-119353000D01*
X140451000Y-119353000D01*
X140451000Y-120370224D01*
X140653400Y-120493910D01*
X140754528Y-120463238D01*
X140987629Y-120355473D01*
X141195227Y-120204303D01*
X141320628Y-120068352D01*
X141393208Y-120156792D01*
X141592682Y-120320495D01*
X141820259Y-120442138D01*
X142067195Y-120517045D01*
X142259649Y-120536000D01*
X142388351Y-120536000D01*
X142580805Y-120517045D01*
X142827741Y-120442138D01*
X143055318Y-120320495D01*
X143254792Y-120156792D01*
X143324000Y-120072461D01*
X143393208Y-120156792D01*
X143592682Y-120320495D01*
X143820259Y-120442138D01*
X144067195Y-120517045D01*
X144259649Y-120536000D01*
X144388351Y-120536000D01*
X144580805Y-120517045D01*
X144827741Y-120442138D01*
X145055318Y-120320495D01*
X145254792Y-120156792D01*
X145327372Y-120068352D01*
X145452773Y-120204303D01*
X145660371Y-120355473D01*
X145893472Y-120463238D01*
X145994600Y-120493910D01*
X146197000Y-120370224D01*
X146197000Y-119353000D01*
X146177000Y-119353000D01*
X146177000Y-119099000D01*
X146197000Y-119099000D01*
X146197000Y-119079000D01*
X146451000Y-119079000D01*
X146451000Y-119099000D01*
X146471000Y-119099000D01*
X146471000Y-119353000D01*
X146451000Y-119353000D01*
X146451000Y-120370224D01*
X146653400Y-120493910D01*
X146754528Y-120463238D01*
X146987629Y-120355473D01*
X147195227Y-120204303D01*
X147320628Y-120068352D01*
X147393208Y-120156792D01*
X147592682Y-120320495D01*
X147820259Y-120442138D01*
X148067195Y-120517045D01*
X148259649Y-120536000D01*
X148388351Y-120536000D01*
X148580805Y-120517045D01*
X148827741Y-120442138D01*
X149055318Y-120320495D01*
X149254792Y-120156792D01*
X149324000Y-120072461D01*
X149393208Y-120156792D01*
X149592682Y-120320495D01*
X149820259Y-120442138D01*
X150067195Y-120517045D01*
X150259649Y-120536000D01*
X150388351Y-120536000D01*
X150580805Y-120517045D01*
X150827741Y-120442138D01*
X151055318Y-120320495D01*
X151254792Y-120156792D01*
X151324000Y-120072461D01*
X151393208Y-120156792D01*
X151592682Y-120320495D01*
X151820259Y-120442138D01*
X152067195Y-120517045D01*
X152259649Y-120536000D01*
X152388351Y-120536000D01*
X152580805Y-120517045D01*
X152827741Y-120442138D01*
X153055318Y-120320495D01*
X153254792Y-120156792D01*
X153324000Y-120072461D01*
X153393208Y-120156792D01*
X153592682Y-120320495D01*
X153820259Y-120442138D01*
X154067195Y-120517045D01*
X154259649Y-120536000D01*
X154388351Y-120536000D01*
X154580805Y-120517045D01*
X154827741Y-120442138D01*
X155055318Y-120320495D01*
X155254792Y-120156792D01*
X155324000Y-120072461D01*
X155393208Y-120156792D01*
X155592682Y-120320495D01*
X155820259Y-120442138D01*
X156067195Y-120517045D01*
X156259649Y-120536000D01*
X156388351Y-120536000D01*
X156580805Y-120517045D01*
X156827741Y-120442138D01*
X157055318Y-120320495D01*
X157254792Y-120156792D01*
X157324000Y-120072461D01*
X157393208Y-120156792D01*
X157592682Y-120320495D01*
X157820259Y-120442138D01*
X158067195Y-120517045D01*
X158259649Y-120536000D01*
X158388351Y-120536000D01*
X158580805Y-120517045D01*
X158827741Y-120442138D01*
X159055318Y-120320495D01*
X159254792Y-120156792D01*
X159327372Y-120068352D01*
X159452773Y-120204303D01*
X159660371Y-120355473D01*
X159893472Y-120463238D01*
X159994600Y-120493910D01*
X160197000Y-120370224D01*
X160197000Y-119353000D01*
X160177000Y-119353000D01*
X160177000Y-119099000D01*
X160197000Y-119099000D01*
X160197000Y-119079000D01*
X160451000Y-119079000D01*
X160451000Y-119099000D01*
X160471000Y-119099000D01*
X160471000Y-119353000D01*
X160451000Y-119353000D01*
X160451000Y-120370224D01*
X160653400Y-120493910D01*
X160754528Y-120463238D01*
X160987629Y-120355473D01*
X161195227Y-120204303D01*
X161320628Y-120068352D01*
X161393208Y-120156792D01*
X161592682Y-120320495D01*
X161820259Y-120442138D01*
X162067195Y-120517045D01*
X162259649Y-120536000D01*
X162388351Y-120536000D01*
X162580805Y-120517045D01*
X162827741Y-120442138D01*
X163055318Y-120320495D01*
X163254792Y-120156792D01*
X163324000Y-120072461D01*
X163393208Y-120156792D01*
X163592682Y-120320495D01*
X163820259Y-120442138D01*
X164067195Y-120517045D01*
X164259649Y-120536000D01*
X164388351Y-120536000D01*
X164580805Y-120517045D01*
X164827741Y-120442138D01*
X165055318Y-120320495D01*
X165254792Y-120156792D01*
X165324000Y-120072461D01*
X165393208Y-120156792D01*
X165592682Y-120320495D01*
X165820259Y-120442138D01*
X166067195Y-120517045D01*
X166259649Y-120536000D01*
X166388351Y-120536000D01*
X166580805Y-120517045D01*
X166827741Y-120442138D01*
X167055318Y-120320495D01*
X167254792Y-120156792D01*
X167327372Y-120068352D01*
X167452773Y-120204303D01*
X167660371Y-120355473D01*
X167893472Y-120463238D01*
X167994600Y-120493910D01*
X168197000Y-120370224D01*
X168197000Y-119353000D01*
X168177000Y-119353000D01*
X168177000Y-119099000D01*
X168197000Y-119099000D01*
X168197000Y-117353000D01*
X168177000Y-117353000D01*
X168177000Y-117099000D01*
X168197000Y-117099000D01*
X168197000Y-116081776D01*
X168451000Y-116081776D01*
X168451000Y-117099000D01*
X168471000Y-117099000D01*
X168471000Y-117353000D01*
X168451000Y-117353000D01*
X168451000Y-119099000D01*
X168471000Y-119099000D01*
X168471000Y-119353000D01*
X168451000Y-119353000D01*
X168451000Y-120370224D01*
X168653400Y-120493910D01*
X168754528Y-120463238D01*
X168987629Y-120355473D01*
X169195227Y-120204303D01*
X169320628Y-120068352D01*
X169393208Y-120156792D01*
X169592682Y-120320495D01*
X169820259Y-120442138D01*
X170067195Y-120517045D01*
X170259649Y-120536000D01*
X170388351Y-120536000D01*
X170580805Y-120517045D01*
X170827741Y-120442138D01*
X171055318Y-120320495D01*
X171254792Y-120156792D01*
X171324000Y-120072461D01*
X171393208Y-120156792D01*
X171592682Y-120320495D01*
X171820259Y-120442138D01*
X172067195Y-120517045D01*
X172259649Y-120536000D01*
X172388351Y-120536000D01*
X172580805Y-120517045D01*
X172827741Y-120442138D01*
X173055318Y-120320495D01*
X173254792Y-120156792D01*
X173324000Y-120072461D01*
X173393208Y-120156792D01*
X173592682Y-120320495D01*
X173820259Y-120442138D01*
X174067195Y-120517045D01*
X174259649Y-120536000D01*
X174388351Y-120536000D01*
X174580805Y-120517045D01*
X174827741Y-120442138D01*
X175055318Y-120320495D01*
X175254792Y-120156792D01*
X175324000Y-120072461D01*
X175393208Y-120156792D01*
X175592682Y-120320495D01*
X175820259Y-120442138D01*
X176067195Y-120517045D01*
X176259649Y-120536000D01*
X176388351Y-120536000D01*
X176580805Y-120517045D01*
X176827741Y-120442138D01*
X177055318Y-120320495D01*
X177254792Y-120156792D01*
X177327372Y-120068352D01*
X177452773Y-120204303D01*
X177660371Y-120355473D01*
X177893472Y-120463238D01*
X177994600Y-120493910D01*
X178197000Y-120370224D01*
X178197000Y-119353000D01*
X178177000Y-119353000D01*
X178177000Y-119099000D01*
X178197000Y-119099000D01*
X178197000Y-117353000D01*
X178177000Y-117353000D01*
X178177000Y-117099000D01*
X178197000Y-117099000D01*
X178197000Y-116081776D01*
X178451000Y-116081776D01*
X178451000Y-117099000D01*
X178471000Y-117099000D01*
X178471000Y-117353000D01*
X178451000Y-117353000D01*
X178451000Y-119099000D01*
X178471000Y-119099000D01*
X178471000Y-119353000D01*
X178451000Y-119353000D01*
X178451000Y-120370224D01*
X178653400Y-120493910D01*
X178754528Y-120463238D01*
X178987629Y-120355473D01*
X179195227Y-120204303D01*
X179320628Y-120068352D01*
X179393208Y-120156792D01*
X179592682Y-120320495D01*
X179820259Y-120442138D01*
X180067195Y-120517045D01*
X180259649Y-120536000D01*
X180388351Y-120536000D01*
X180580805Y-120517045D01*
X180827741Y-120442138D01*
X181055318Y-120320495D01*
X181254792Y-120156792D01*
X181324000Y-120072461D01*
X181393208Y-120156792D01*
X181592682Y-120320495D01*
X181820259Y-120442138D01*
X182067195Y-120517045D01*
X182259649Y-120536000D01*
X182388351Y-120536000D01*
X182580805Y-120517045D01*
X182827741Y-120442138D01*
X183055318Y-120320495D01*
X183254792Y-120156792D01*
X183418495Y-119957318D01*
X183540138Y-119729741D01*
X183615045Y-119482805D01*
X183640338Y-119226000D01*
X183615045Y-118969195D01*
X183540138Y-118722259D01*
X183418495Y-118494682D01*
X183254792Y-118295208D01*
X183170461Y-118226000D01*
X183254792Y-118156792D01*
X183418495Y-117957318D01*
X183540138Y-117729741D01*
X183615045Y-117482805D01*
X183640338Y-117226000D01*
X183615045Y-116969195D01*
X183540138Y-116722259D01*
X183418495Y-116494682D01*
X183254792Y-116295208D01*
X183055318Y-116131505D01*
X182827741Y-116009862D01*
X182580805Y-115934955D01*
X182388351Y-115916000D01*
X182259649Y-115916000D01*
X182067195Y-115934955D01*
X181820259Y-116009862D01*
X181592682Y-116131505D01*
X181393208Y-116295208D01*
X181324000Y-116379539D01*
X181254792Y-116295208D01*
X181055318Y-116131505D01*
X180827741Y-116009862D01*
X180580805Y-115934955D01*
X180388351Y-115916000D01*
X180259649Y-115916000D01*
X180067195Y-115934955D01*
X179820259Y-116009862D01*
X179592682Y-116131505D01*
X179393208Y-116295208D01*
X179320628Y-116383648D01*
X179195227Y-116247697D01*
X178987629Y-116096527D01*
X178754528Y-115988762D01*
X178653400Y-115958090D01*
X178451000Y-116081776D01*
X178197000Y-116081776D01*
X177994600Y-115958090D01*
X177893472Y-115988762D01*
X177660371Y-116096527D01*
X177452773Y-116247697D01*
X177327372Y-116383648D01*
X177254792Y-116295208D01*
X177055318Y-116131505D01*
X176827741Y-116009862D01*
X176580805Y-115934955D01*
X176388351Y-115916000D01*
X176259649Y-115916000D01*
X176067195Y-115934955D01*
X175820259Y-116009862D01*
X175592682Y-116131505D01*
X175393208Y-116295208D01*
X175324000Y-116379539D01*
X175254792Y-116295208D01*
X175055318Y-116131505D01*
X174827741Y-116009862D01*
X174580805Y-115934955D01*
X174388351Y-115916000D01*
X174259649Y-115916000D01*
X174067195Y-115934955D01*
X173820259Y-116009862D01*
X173592682Y-116131505D01*
X173393208Y-116295208D01*
X173324000Y-116379539D01*
X173254792Y-116295208D01*
X173055318Y-116131505D01*
X172827741Y-116009862D01*
X172580805Y-115934955D01*
X172388351Y-115916000D01*
X172259649Y-115916000D01*
X172067195Y-115934955D01*
X171820259Y-116009862D01*
X171592682Y-116131505D01*
X171393208Y-116295208D01*
X171324000Y-116379539D01*
X171254792Y-116295208D01*
X171055318Y-116131505D01*
X170827741Y-116009862D01*
X170580805Y-115934955D01*
X170388351Y-115916000D01*
X170259649Y-115916000D01*
X170067195Y-115934955D01*
X169820259Y-116009862D01*
X169592682Y-116131505D01*
X169393208Y-116295208D01*
X169320628Y-116383648D01*
X169195227Y-116247697D01*
X168987629Y-116096527D01*
X168754528Y-115988762D01*
X168653400Y-115958090D01*
X168451000Y-116081776D01*
X168197000Y-116081776D01*
X167994600Y-115958090D01*
X167893472Y-115988762D01*
X167660371Y-116096527D01*
X167452773Y-116247697D01*
X167327372Y-116383648D01*
X167254792Y-116295208D01*
X167055318Y-116131505D01*
X166827741Y-116009862D01*
X166580805Y-115934955D01*
X166388351Y-115916000D01*
X166259649Y-115916000D01*
X166067195Y-115934955D01*
X165820259Y-116009862D01*
X165592682Y-116131505D01*
X165393208Y-116295208D01*
X165324000Y-116379539D01*
X165254792Y-116295208D01*
X165055318Y-116131505D01*
X164827741Y-116009862D01*
X164580805Y-115934955D01*
X164388351Y-115916000D01*
X164259649Y-115916000D01*
X164067195Y-115934955D01*
X163820259Y-116009862D01*
X163592682Y-116131505D01*
X163393208Y-116295208D01*
X163324000Y-116379539D01*
X163254792Y-116295208D01*
X163055318Y-116131505D01*
X162827741Y-116009862D01*
X162580805Y-115934955D01*
X162388351Y-115916000D01*
X162259649Y-115916000D01*
X162067195Y-115934955D01*
X161820259Y-116009862D01*
X161592682Y-116131505D01*
X161393208Y-116295208D01*
X161324000Y-116379539D01*
X161254792Y-116295208D01*
X161055318Y-116131505D01*
X160827741Y-116009862D01*
X160580805Y-115934955D01*
X160388351Y-115916000D01*
X160259649Y-115916000D01*
X160067195Y-115934955D01*
X159820259Y-116009862D01*
X159592682Y-116131505D01*
X159393208Y-116295208D01*
X159324000Y-116379539D01*
X159254792Y-116295208D01*
X159055318Y-116131505D01*
X158827741Y-116009862D01*
X158580805Y-115934955D01*
X158388351Y-115916000D01*
X158259649Y-115916000D01*
X158067195Y-115934955D01*
X157820259Y-116009862D01*
X157592682Y-116131505D01*
X157393208Y-116295208D01*
X157324000Y-116379539D01*
X157254792Y-116295208D01*
X157055318Y-116131505D01*
X156827741Y-116009862D01*
X156580805Y-115934955D01*
X156388351Y-115916000D01*
X156259649Y-115916000D01*
X156067195Y-115934955D01*
X155820259Y-116009862D01*
X155592682Y-116131505D01*
X155393208Y-116295208D01*
X155324000Y-116379539D01*
X155254792Y-116295208D01*
X155055318Y-116131505D01*
X154827741Y-116009862D01*
X154580805Y-115934955D01*
X154388351Y-115916000D01*
X154259649Y-115916000D01*
X154067195Y-115934955D01*
X153820259Y-116009862D01*
X153592682Y-116131505D01*
X153393208Y-116295208D01*
X153324000Y-116379539D01*
X153254792Y-116295208D01*
X153055318Y-116131505D01*
X152827741Y-116009862D01*
X152580805Y-115934955D01*
X152388351Y-115916000D01*
X152259649Y-115916000D01*
X152067195Y-115934955D01*
X151820259Y-116009862D01*
X151592682Y-116131505D01*
X151393208Y-116295208D01*
X151324000Y-116379539D01*
X151254792Y-116295208D01*
X151055318Y-116131505D01*
X150827741Y-116009862D01*
X150580805Y-115934955D01*
X150388351Y-115916000D01*
X150259649Y-115916000D01*
X150067195Y-115934955D01*
X149820259Y-116009862D01*
X149592682Y-116131505D01*
X149393208Y-116295208D01*
X149320628Y-116383648D01*
X149195227Y-116247697D01*
X148987629Y-116096527D01*
X148754528Y-115988762D01*
X148653400Y-115958090D01*
X148451000Y-116081776D01*
X148451000Y-117099000D01*
X148471000Y-117099000D01*
X148471000Y-117353000D01*
X148451000Y-117353000D01*
X148451000Y-117373000D01*
X148197000Y-117373000D01*
X148197000Y-117353000D01*
X148177000Y-117353000D01*
X148177000Y-117099000D01*
X148197000Y-117099000D01*
X148197000Y-116081776D01*
X147994600Y-115958090D01*
X147893472Y-115988762D01*
X147660371Y-116096527D01*
X147452773Y-116247697D01*
X147327372Y-116383648D01*
X147254792Y-116295208D01*
X147055318Y-116131505D01*
X146827741Y-116009862D01*
X146580805Y-115934955D01*
X146388351Y-115916000D01*
X146259649Y-115916000D01*
X146067195Y-115934955D01*
X145820259Y-116009862D01*
X145592682Y-116131505D01*
X145393208Y-116295208D01*
X145324000Y-116379539D01*
X145254792Y-116295208D01*
X145055318Y-116131505D01*
X144827741Y-116009862D01*
X144580805Y-115934955D01*
X144388351Y-115916000D01*
X144259649Y-115916000D01*
X144067195Y-115934955D01*
X143820259Y-116009862D01*
X143592682Y-116131505D01*
X143393208Y-116295208D01*
X143324000Y-116379539D01*
X143254792Y-116295208D01*
X143055318Y-116131505D01*
X142827741Y-116009862D01*
X142580805Y-115934955D01*
X142388351Y-115916000D01*
X142259649Y-115916000D01*
X142067195Y-115934955D01*
X141820259Y-116009862D01*
X141592682Y-116131505D01*
X141393208Y-116295208D01*
X141324000Y-116379539D01*
X141254792Y-116295208D01*
X141055318Y-116131505D01*
X140827741Y-116009862D01*
X140580805Y-115934955D01*
X140388351Y-115916000D01*
X140259649Y-115916000D01*
X140067195Y-115934955D01*
X139820259Y-116009862D01*
X139592682Y-116131505D01*
X139393208Y-116295208D01*
X139324000Y-116379539D01*
X139254792Y-116295208D01*
X139055318Y-116131505D01*
X138827741Y-116009862D01*
X138580805Y-115934955D01*
X138388351Y-115916000D01*
X138259649Y-115916000D01*
X138067195Y-115934955D01*
X137820259Y-116009862D01*
X137592682Y-116131505D01*
X137393208Y-116295208D01*
X137320628Y-116383648D01*
X137195227Y-116247697D01*
X136987629Y-116096527D01*
X136754528Y-115988762D01*
X136653400Y-115958090D01*
X136451000Y-116081776D01*
X136451000Y-117099000D01*
X136471000Y-117099000D01*
X136471000Y-117353000D01*
X136451000Y-117353000D01*
X136451000Y-117373000D01*
X136197000Y-117373000D01*
X136197000Y-117353000D01*
X136177000Y-117353000D01*
X136177000Y-117099000D01*
X136197000Y-117099000D01*
X136197000Y-116081776D01*
X135994600Y-115958090D01*
X135893472Y-115988762D01*
X135660371Y-116096527D01*
X135452773Y-116247697D01*
X135327372Y-116383648D01*
X135254792Y-116295208D01*
X135055318Y-116131505D01*
X134827741Y-116009862D01*
X134580805Y-115934955D01*
X134388351Y-115916000D01*
X134259649Y-115916000D01*
X134067195Y-115934955D01*
X133820259Y-116009862D01*
X133592682Y-116131505D01*
X133393208Y-116295208D01*
X133229505Y-116494682D01*
X133107862Y-116722259D01*
X133032955Y-116969195D01*
X133007662Y-117226000D01*
X131724000Y-117226000D01*
X131724000Y-112675874D01*
X139032881Y-112675874D01*
X139112724Y-112898976D01*
X139234631Y-113086764D01*
X139390831Y-113247161D01*
X139575322Y-113374003D01*
X139781013Y-113462415D01*
X140000000Y-113509000D01*
X141500000Y-113509000D01*
X141500000Y-112501000D01*
X141754000Y-112501000D01*
X141754000Y-113509000D01*
X143254000Y-113509000D01*
X143472987Y-113462415D01*
X143678678Y-113374003D01*
X143863169Y-113247161D01*
X144019369Y-113086764D01*
X144141276Y-112898976D01*
X144221119Y-112675874D01*
X147532881Y-112675874D01*
X147612724Y-112898976D01*
X147734631Y-113086764D01*
X147890831Y-113247161D01*
X148075322Y-113374003D01*
X148281013Y-113462415D01*
X148500000Y-113509000D01*
X150000000Y-113509000D01*
X150000000Y-112501000D01*
X150254000Y-112501000D01*
X150254000Y-113509000D01*
X151754000Y-113509000D01*
X151972987Y-113462415D01*
X152178678Y-113374003D01*
X152363169Y-113247161D01*
X152519369Y-113086764D01*
X152641276Y-112898976D01*
X152721119Y-112675874D01*
X152594954Y-112501000D01*
X150254000Y-112501000D01*
X150000000Y-112501000D01*
X147659046Y-112501000D01*
X147532881Y-112675874D01*
X144221119Y-112675874D01*
X144094954Y-112501000D01*
X141754000Y-112501000D01*
X141500000Y-112501000D01*
X139159046Y-112501000D01*
X139032881Y-112675874D01*
X131724000Y-112675874D01*
X131724000Y-112072126D01*
X139032881Y-112072126D01*
X139159046Y-112247000D01*
X141500000Y-112247000D01*
X141500000Y-111239000D01*
X141754000Y-111239000D01*
X141754000Y-112247000D01*
X144094954Y-112247000D01*
X144221119Y-112072126D01*
X147532881Y-112072126D01*
X147659046Y-112247000D01*
X150000000Y-112247000D01*
X150000000Y-111239000D01*
X150254000Y-111239000D01*
X150254000Y-112247000D01*
X152594954Y-112247000D01*
X152721119Y-112072126D01*
X152641276Y-111849024D01*
X152519369Y-111661236D01*
X152363169Y-111500839D01*
X152178678Y-111373997D01*
X151972987Y-111285585D01*
X151754000Y-111239000D01*
X150254000Y-111239000D01*
X150000000Y-111239000D01*
X148500000Y-111239000D01*
X148281013Y-111285585D01*
X148075322Y-111373997D01*
X147890831Y-111500839D01*
X147734631Y-111661236D01*
X147612724Y-111849024D01*
X147532881Y-112072126D01*
X144221119Y-112072126D01*
X144141276Y-111849024D01*
X144019369Y-111661236D01*
X143863169Y-111500839D01*
X143678678Y-111373997D01*
X143472987Y-111285585D01*
X143254000Y-111239000D01*
X141754000Y-111239000D01*
X141500000Y-111239000D01*
X140000000Y-111239000D01*
X139781013Y-111285585D01*
X139575322Y-111373997D01*
X139390831Y-111500839D01*
X139234631Y-111661236D01*
X139112724Y-111849024D01*
X139032881Y-112072126D01*
X131724000Y-112072126D01*
X131724000Y-107852363D01*
X139017000Y-107852363D01*
X139017000Y-108095637D01*
X139064460Y-108334236D01*
X139157557Y-108558992D01*
X139292713Y-108761267D01*
X139464733Y-108933287D01*
X139525664Y-108974000D01*
X139464733Y-109014713D01*
X139292713Y-109186733D01*
X139157557Y-109389008D01*
X139064460Y-109613764D01*
X139017000Y-109852363D01*
X139017000Y-110095637D01*
X139064460Y-110334236D01*
X139157557Y-110558992D01*
X139292713Y-110761267D01*
X139464733Y-110933287D01*
X139667008Y-111068443D01*
X139891764Y-111161540D01*
X140130363Y-111209000D01*
X140373637Y-111209000D01*
X140612236Y-111161540D01*
X140836992Y-111068443D01*
X141039267Y-110933287D01*
X141211287Y-110761267D01*
X141346443Y-110558992D01*
X141439540Y-110334236D01*
X141487000Y-110095637D01*
X141487000Y-109852363D01*
X141439540Y-109613764D01*
X141346443Y-109389008D01*
X141321958Y-109352363D01*
X141767000Y-109352363D01*
X141767000Y-109595637D01*
X141814460Y-109834236D01*
X141907557Y-110058992D01*
X142042713Y-110261267D01*
X142214733Y-110433287D01*
X142417008Y-110568443D01*
X142641764Y-110661540D01*
X142880363Y-110709000D01*
X143123637Y-110709000D01*
X143362236Y-110661540D01*
X143586992Y-110568443D01*
X143789267Y-110433287D01*
X143961287Y-110261267D01*
X144096443Y-110058992D01*
X144189540Y-109834236D01*
X144237000Y-109595637D01*
X144237000Y-109352363D01*
X144189540Y-109113764D01*
X144096443Y-108889008D01*
X143961287Y-108686733D01*
X143789267Y-108514713D01*
X143586992Y-108379557D01*
X143362236Y-108286460D01*
X143123637Y-108239000D01*
X142880363Y-108239000D01*
X142641764Y-108286460D01*
X142417008Y-108379557D01*
X142214733Y-108514713D01*
X142042713Y-108686733D01*
X141907557Y-108889008D01*
X141814460Y-109113764D01*
X141767000Y-109352363D01*
X141321958Y-109352363D01*
X141211287Y-109186733D01*
X141039267Y-109014713D01*
X140978336Y-108974000D01*
X141039267Y-108933287D01*
X141211287Y-108761267D01*
X141346443Y-108558992D01*
X141439540Y-108334236D01*
X141487000Y-108095637D01*
X141487000Y-107852363D01*
X141439540Y-107613764D01*
X141346443Y-107389008D01*
X141211287Y-107186733D01*
X141039267Y-107014713D01*
X140901267Y-106922504D01*
X140922159Y-106823764D01*
X140252000Y-106153605D01*
X139581841Y-106823764D01*
X139602733Y-106922504D01*
X139464733Y-107014713D01*
X139292713Y-107186733D01*
X139157557Y-107389008D01*
X139064460Y-107613764D01*
X139017000Y-107852363D01*
X131724000Y-107852363D01*
X131724000Y-106052438D01*
X139013505Y-106052438D01*
X139052605Y-106292549D01*
X139137798Y-106520418D01*
X139178652Y-106596852D01*
X139402236Y-106644159D01*
X140072395Y-105974000D01*
X140431605Y-105974000D01*
X141101764Y-106644159D01*
X141325348Y-106596852D01*
X141426237Y-106375484D01*
X141482000Y-106138687D01*
X141490495Y-105895562D01*
X141451395Y-105655451D01*
X141366202Y-105427582D01*
X141325348Y-105351148D01*
X141101764Y-105303841D01*
X140431605Y-105974000D01*
X140072395Y-105974000D01*
X139402236Y-105303841D01*
X139178652Y-105351148D01*
X139077763Y-105572516D01*
X139022000Y-105809313D01*
X139013505Y-106052438D01*
X131724000Y-106052438D01*
X131724000Y-101852363D01*
X139017000Y-101852363D01*
X139017000Y-102095637D01*
X139064460Y-102334236D01*
X139157557Y-102558992D01*
X139292713Y-102761267D01*
X139464733Y-102933287D01*
X139525664Y-102974000D01*
X139464733Y-103014713D01*
X139292713Y-103186733D01*
X139157557Y-103389008D01*
X139064460Y-103613764D01*
X139017000Y-103852363D01*
X139017000Y-104095637D01*
X139064460Y-104334236D01*
X139157557Y-104558992D01*
X139292713Y-104761267D01*
X139464733Y-104933287D01*
X139602733Y-105025496D01*
X139581841Y-105124236D01*
X140252000Y-105794395D01*
X140922159Y-105124236D01*
X140901267Y-105025496D01*
X141039267Y-104933287D01*
X141120191Y-104852363D01*
X141767000Y-104852363D01*
X141767000Y-105095637D01*
X141814460Y-105334236D01*
X141907557Y-105558992D01*
X142042713Y-105761267D01*
X142214733Y-105933287D01*
X142275664Y-105974000D01*
X142214733Y-106014713D01*
X142042713Y-106186733D01*
X141907557Y-106389008D01*
X141814460Y-106613764D01*
X141767000Y-106852363D01*
X141767000Y-107095637D01*
X141814460Y-107334236D01*
X141907557Y-107558992D01*
X142042713Y-107761267D01*
X142214733Y-107933287D01*
X142417008Y-108068443D01*
X142641764Y-108161540D01*
X142880363Y-108209000D01*
X143123637Y-108209000D01*
X143362236Y-108161540D01*
X143586992Y-108068443D01*
X143789267Y-107933287D01*
X143870191Y-107852363D01*
X147517000Y-107852363D01*
X147517000Y-108095637D01*
X147564460Y-108334236D01*
X147657557Y-108558992D01*
X147792713Y-108761267D01*
X147964733Y-108933287D01*
X148025664Y-108974000D01*
X147964733Y-109014713D01*
X147792713Y-109186733D01*
X147657557Y-109389008D01*
X147564460Y-109613764D01*
X147517000Y-109852363D01*
X147517000Y-110095637D01*
X147564460Y-110334236D01*
X147657557Y-110558992D01*
X147792713Y-110761267D01*
X147964733Y-110933287D01*
X148167008Y-111068443D01*
X148391764Y-111161540D01*
X148630363Y-111209000D01*
X148873637Y-111209000D01*
X149112236Y-111161540D01*
X149336992Y-111068443D01*
X149539267Y-110933287D01*
X149711287Y-110761267D01*
X149846443Y-110558992D01*
X149939540Y-110334236D01*
X149987000Y-110095637D01*
X149987000Y-109852363D01*
X149939540Y-109613764D01*
X149846443Y-109389008D01*
X149821958Y-109352363D01*
X150267000Y-109352363D01*
X150267000Y-109595637D01*
X150314460Y-109834236D01*
X150407557Y-110058992D01*
X150542713Y-110261267D01*
X150714733Y-110433287D01*
X150917008Y-110568443D01*
X151141764Y-110661540D01*
X151380363Y-110709000D01*
X151623637Y-110709000D01*
X151862236Y-110661540D01*
X152086992Y-110568443D01*
X152289267Y-110433287D01*
X152461287Y-110261267D01*
X152596443Y-110058992D01*
X152689540Y-109834236D01*
X152737000Y-109595637D01*
X152737000Y-109352363D01*
X152689540Y-109113764D01*
X152596443Y-108889008D01*
X152461287Y-108686733D01*
X152289267Y-108514713D01*
X152086992Y-108379557D01*
X151862236Y-108286460D01*
X151623637Y-108239000D01*
X151380363Y-108239000D01*
X151141764Y-108286460D01*
X150917008Y-108379557D01*
X150714733Y-108514713D01*
X150542713Y-108686733D01*
X150407557Y-108889008D01*
X150314460Y-109113764D01*
X150267000Y-109352363D01*
X149821958Y-109352363D01*
X149711287Y-109186733D01*
X149539267Y-109014713D01*
X149478336Y-108974000D01*
X149539267Y-108933287D01*
X149711287Y-108761267D01*
X149846443Y-108558992D01*
X149939540Y-108334236D01*
X149987000Y-108095637D01*
X149987000Y-107852363D01*
X149939540Y-107613764D01*
X149846443Y-107389008D01*
X149711287Y-107186733D01*
X149539267Y-107014713D01*
X149401267Y-106922504D01*
X149422159Y-106823764D01*
X148752000Y-106153605D01*
X148081841Y-106823764D01*
X148102733Y-106922504D01*
X147964733Y-107014713D01*
X147792713Y-107186733D01*
X147657557Y-107389008D01*
X147564460Y-107613764D01*
X147517000Y-107852363D01*
X143870191Y-107852363D01*
X143961287Y-107761267D01*
X144096443Y-107558992D01*
X144189540Y-107334236D01*
X144237000Y-107095637D01*
X144237000Y-106852363D01*
X144189540Y-106613764D01*
X144096443Y-106389008D01*
X143961287Y-106186733D01*
X143826992Y-106052438D01*
X147513505Y-106052438D01*
X147552605Y-106292549D01*
X147637798Y-106520418D01*
X147678652Y-106596852D01*
X147902236Y-106644159D01*
X148572395Y-105974000D01*
X148931605Y-105974000D01*
X149601764Y-106644159D01*
X149825348Y-106596852D01*
X149926237Y-106375484D01*
X149982000Y-106138687D01*
X149990495Y-105895562D01*
X149951395Y-105655451D01*
X149866202Y-105427582D01*
X149825348Y-105351148D01*
X149601764Y-105303841D01*
X148931605Y-105974000D01*
X148572395Y-105974000D01*
X147902236Y-105303841D01*
X147678652Y-105351148D01*
X147577763Y-105572516D01*
X147522000Y-105809313D01*
X147513505Y-106052438D01*
X143826992Y-106052438D01*
X143789267Y-106014713D01*
X143728336Y-105974000D01*
X143789267Y-105933287D01*
X143961287Y-105761267D01*
X144096443Y-105558992D01*
X144189540Y-105334236D01*
X144237000Y-105095637D01*
X144237000Y-104852363D01*
X144189540Y-104613764D01*
X144096443Y-104389008D01*
X143961287Y-104186733D01*
X143789267Y-104014713D01*
X143586992Y-103879557D01*
X143362236Y-103786460D01*
X143123637Y-103739000D01*
X142880363Y-103739000D01*
X142641764Y-103786460D01*
X142417008Y-103879557D01*
X142214733Y-104014713D01*
X142042713Y-104186733D01*
X141907557Y-104389008D01*
X141814460Y-104613764D01*
X141767000Y-104852363D01*
X141120191Y-104852363D01*
X141211287Y-104761267D01*
X141346443Y-104558992D01*
X141439540Y-104334236D01*
X141487000Y-104095637D01*
X141487000Y-103852363D01*
X141439540Y-103613764D01*
X141346443Y-103389008D01*
X141302849Y-103323764D01*
X142331841Y-103323764D01*
X142379148Y-103547348D01*
X142600516Y-103648237D01*
X142837313Y-103704000D01*
X143080438Y-103712495D01*
X143320549Y-103673395D01*
X143548418Y-103588202D01*
X143624852Y-103547348D01*
X143672159Y-103323764D01*
X143002000Y-102653605D01*
X142331841Y-103323764D01*
X141302849Y-103323764D01*
X141211287Y-103186733D01*
X141039267Y-103014713D01*
X140978336Y-102974000D01*
X141039267Y-102933287D01*
X141211287Y-102761267D01*
X141346443Y-102558992D01*
X141349157Y-102552438D01*
X141763505Y-102552438D01*
X141802605Y-102792549D01*
X141887798Y-103020418D01*
X141928652Y-103096852D01*
X142152236Y-103144159D01*
X142822395Y-102474000D01*
X143181605Y-102474000D01*
X143851764Y-103144159D01*
X144075348Y-103096852D01*
X144176237Y-102875484D01*
X144232000Y-102638687D01*
X144240495Y-102395562D01*
X144201395Y-102155451D01*
X144116202Y-101927582D01*
X144075998Y-101852363D01*
X147517000Y-101852363D01*
X147517000Y-102095637D01*
X147564460Y-102334236D01*
X147657557Y-102558992D01*
X147792713Y-102761267D01*
X147964733Y-102933287D01*
X148025664Y-102974000D01*
X147964733Y-103014713D01*
X147792713Y-103186733D01*
X147657557Y-103389008D01*
X147564460Y-103613764D01*
X147517000Y-103852363D01*
X147517000Y-104095637D01*
X147564460Y-104334236D01*
X147657557Y-104558992D01*
X147792713Y-104761267D01*
X147964733Y-104933287D01*
X148102733Y-105025496D01*
X148081841Y-105124236D01*
X148752000Y-105794395D01*
X149422159Y-105124236D01*
X149401267Y-105025496D01*
X149539267Y-104933287D01*
X149620191Y-104852363D01*
X150267000Y-104852363D01*
X150267000Y-105095637D01*
X150314460Y-105334236D01*
X150407557Y-105558992D01*
X150542713Y-105761267D01*
X150714733Y-105933287D01*
X150775664Y-105974000D01*
X150714733Y-106014713D01*
X150542713Y-106186733D01*
X150407557Y-106389008D01*
X150314460Y-106613764D01*
X150267000Y-106852363D01*
X150267000Y-107095637D01*
X150314460Y-107334236D01*
X150407557Y-107558992D01*
X150542713Y-107761267D01*
X150714733Y-107933287D01*
X150917008Y-108068443D01*
X151141764Y-108161540D01*
X151380363Y-108209000D01*
X151623637Y-108209000D01*
X151862236Y-108161540D01*
X152086992Y-108068443D01*
X152289267Y-107933287D01*
X152461287Y-107761267D01*
X152596443Y-107558992D01*
X152689540Y-107334236D01*
X152737000Y-107095637D01*
X152737000Y-106852363D01*
X152689540Y-106613764D01*
X152596443Y-106389008D01*
X152461287Y-106186733D01*
X152289267Y-106014713D01*
X152228336Y-105974000D01*
X152289267Y-105933287D01*
X152461287Y-105761267D01*
X152596443Y-105558992D01*
X152689540Y-105334236D01*
X152737000Y-105095637D01*
X152737000Y-104852363D01*
X152689540Y-104613764D01*
X152596443Y-104389008D01*
X152461287Y-104186733D01*
X152289267Y-104014713D01*
X152086992Y-103879557D01*
X151862236Y-103786460D01*
X151623637Y-103739000D01*
X151380363Y-103739000D01*
X151141764Y-103786460D01*
X150917008Y-103879557D01*
X150714733Y-104014713D01*
X150542713Y-104186733D01*
X150407557Y-104389008D01*
X150314460Y-104613764D01*
X150267000Y-104852363D01*
X149620191Y-104852363D01*
X149711287Y-104761267D01*
X149846443Y-104558992D01*
X149939540Y-104334236D01*
X149987000Y-104095637D01*
X149987000Y-103852363D01*
X149939540Y-103613764D01*
X149846443Y-103389008D01*
X149802849Y-103323764D01*
X150831841Y-103323764D01*
X150879148Y-103547348D01*
X151100516Y-103648237D01*
X151337313Y-103704000D01*
X151580438Y-103712495D01*
X151820549Y-103673395D01*
X152048418Y-103588202D01*
X152124852Y-103547348D01*
X152172159Y-103323764D01*
X151502000Y-102653605D01*
X150831841Y-103323764D01*
X149802849Y-103323764D01*
X149711287Y-103186733D01*
X149539267Y-103014713D01*
X149478336Y-102974000D01*
X149539267Y-102933287D01*
X149711287Y-102761267D01*
X149846443Y-102558992D01*
X149849157Y-102552438D01*
X150263505Y-102552438D01*
X150302605Y-102792549D01*
X150387798Y-103020418D01*
X150428652Y-103096852D01*
X150652236Y-103144159D01*
X151322395Y-102474000D01*
X151681605Y-102474000D01*
X152351764Y-103144159D01*
X152575348Y-103096852D01*
X152676237Y-102875484D01*
X152732000Y-102638687D01*
X152740495Y-102395562D01*
X152701395Y-102155451D01*
X152616202Y-101927582D01*
X152575348Y-101851148D01*
X152351764Y-101803841D01*
X151681605Y-102474000D01*
X151322395Y-102474000D01*
X150652236Y-101803841D01*
X150428652Y-101851148D01*
X150327763Y-102072516D01*
X150272000Y-102309313D01*
X150263505Y-102552438D01*
X149849157Y-102552438D01*
X149939540Y-102334236D01*
X149987000Y-102095637D01*
X149987000Y-101852363D01*
X149941623Y-101624236D01*
X150831841Y-101624236D01*
X151502000Y-102294395D01*
X152172159Y-101624236D01*
X152124852Y-101400652D01*
X151903484Y-101299763D01*
X151666687Y-101244000D01*
X151423562Y-101235505D01*
X151183451Y-101274605D01*
X150955582Y-101359798D01*
X150879148Y-101400652D01*
X150831841Y-101624236D01*
X149941623Y-101624236D01*
X149939540Y-101613764D01*
X149846443Y-101389008D01*
X149711287Y-101186733D01*
X149539267Y-101014713D01*
X149450782Y-100955589D01*
X165747000Y-100955589D01*
X165747000Y-101228411D01*
X165800225Y-101495989D01*
X165904629Y-101748043D01*
X166056201Y-101974886D01*
X166249114Y-102167799D01*
X166475957Y-102319371D01*
X166578873Y-102362000D01*
X166475957Y-102404629D01*
X166249114Y-102556201D01*
X166056201Y-102749114D01*
X165904629Y-102975957D01*
X165800225Y-103228011D01*
X165747000Y-103495589D01*
X165747000Y-103768411D01*
X165800225Y-104035989D01*
X165904629Y-104288043D01*
X166056201Y-104514886D01*
X166249114Y-104707799D01*
X166475957Y-104859371D01*
X166578873Y-104902000D01*
X166475957Y-104944629D01*
X166249114Y-105096201D01*
X166056201Y-105289114D01*
X165904629Y-105515957D01*
X165800225Y-105768011D01*
X165747000Y-106035589D01*
X165747000Y-106308411D01*
X165800225Y-106575989D01*
X165904629Y-106828043D01*
X166056201Y-107054886D01*
X166249114Y-107247799D01*
X166475957Y-107399371D01*
X166578873Y-107442000D01*
X166475957Y-107484629D01*
X166249114Y-107636201D01*
X166056201Y-107829114D01*
X165904629Y-108055957D01*
X165800225Y-108308011D01*
X165747000Y-108575589D01*
X165747000Y-108848411D01*
X165800225Y-109115989D01*
X165904629Y-109368043D01*
X166056201Y-109594886D01*
X166249114Y-109787799D01*
X166475957Y-109939371D01*
X166728011Y-110043775D01*
X166995589Y-110097000D01*
X167268411Y-110097000D01*
X167535989Y-110043775D01*
X167788043Y-109939371D01*
X168014886Y-109787799D01*
X168207799Y-109594886D01*
X168283928Y-109480951D01*
X168283928Y-110732000D01*
X168296188Y-110856482D01*
X168332498Y-110976180D01*
X168391463Y-111086494D01*
X168470815Y-111183185D01*
X168567506Y-111262537D01*
X168677820Y-111321502D01*
X168797518Y-111357812D01*
X168922000Y-111370072D01*
X170259764Y-111370072D01*
X170231523Y-111398313D01*
X170045479Y-111676748D01*
X169917330Y-111986128D01*
X169852000Y-112314565D01*
X169852000Y-112649435D01*
X169917330Y-112977872D01*
X170045479Y-113287252D01*
X170231523Y-113565687D01*
X170468313Y-113802477D01*
X170746748Y-113988521D01*
X171056128Y-114116670D01*
X171384565Y-114182000D01*
X171719435Y-114182000D01*
X172047872Y-114116670D01*
X172357252Y-113988521D01*
X172635687Y-113802477D01*
X172872477Y-113565687D01*
X173058521Y-113287252D01*
X173186670Y-112977872D01*
X173252000Y-112649435D01*
X173252000Y-112314565D01*
X173186670Y-111986128D01*
X173058521Y-111676748D01*
X172872477Y-111398313D01*
X172635687Y-111161523D01*
X172357252Y-110975479D01*
X172047872Y-110847330D01*
X171719435Y-110782000D01*
X171384565Y-110782000D01*
X171056128Y-110847330D01*
X171048398Y-110850532D01*
X171060072Y-110732000D01*
X171060072Y-109232000D01*
X171047812Y-109107518D01*
X171011502Y-108987820D01*
X170952537Y-108877506D01*
X170873185Y-108780815D01*
X170776494Y-108701463D01*
X170666180Y-108642498D01*
X170546482Y-108606188D01*
X170438517Y-108595555D01*
X170554886Y-108517799D01*
X170747799Y-108324886D01*
X170899371Y-108098043D01*
X171003775Y-107845989D01*
X171057000Y-107578411D01*
X171057000Y-107305589D01*
X171003775Y-107038011D01*
X170899371Y-106785957D01*
X170747799Y-106559114D01*
X170554886Y-106366201D01*
X170328043Y-106214629D01*
X170225127Y-106172000D01*
X170328043Y-106129371D01*
X170554886Y-105977799D01*
X170747799Y-105784886D01*
X170899371Y-105558043D01*
X171003775Y-105305989D01*
X171057000Y-105038411D01*
X171057000Y-104765589D01*
X171003775Y-104498011D01*
X170899371Y-104245957D01*
X170747799Y-104019114D01*
X170554886Y-103826201D01*
X170328043Y-103674629D01*
X170225127Y-103632000D01*
X170328043Y-103589371D01*
X170554886Y-103437799D01*
X170747799Y-103244886D01*
X170899371Y-103018043D01*
X171003775Y-102765989D01*
X171057000Y-102498411D01*
X171057000Y-102225589D01*
X171003775Y-101958011D01*
X170899371Y-101705957D01*
X170747799Y-101479114D01*
X170554886Y-101286201D01*
X170328043Y-101134629D01*
X170075989Y-101030225D01*
X169808411Y-100977000D01*
X169535589Y-100977000D01*
X169268011Y-101030225D01*
X169015957Y-101134629D01*
X168789114Y-101286201D01*
X168596201Y-101479114D01*
X168444629Y-101705957D01*
X168340225Y-101958011D01*
X168287000Y-102225589D01*
X168287000Y-102498411D01*
X168340225Y-102765989D01*
X168444629Y-103018043D01*
X168596201Y-103244886D01*
X168789114Y-103437799D01*
X169015957Y-103589371D01*
X169118873Y-103632000D01*
X169015957Y-103674629D01*
X168789114Y-103826201D01*
X168596201Y-104019114D01*
X168444629Y-104245957D01*
X168340225Y-104498011D01*
X168287000Y-104765589D01*
X168287000Y-105038411D01*
X168340225Y-105305989D01*
X168444629Y-105558043D01*
X168596201Y-105784886D01*
X168789114Y-105977799D01*
X169015957Y-106129371D01*
X169118873Y-106172000D01*
X169015957Y-106214629D01*
X168789114Y-106366201D01*
X168596201Y-106559114D01*
X168444629Y-106785957D01*
X168340225Y-107038011D01*
X168287000Y-107305589D01*
X168287000Y-107578411D01*
X168340225Y-107845989D01*
X168444629Y-108098043D01*
X168596201Y-108324886D01*
X168789114Y-108517799D01*
X168905483Y-108595555D01*
X168797518Y-108606188D01*
X168677820Y-108642498D01*
X168567506Y-108701463D01*
X168517000Y-108742912D01*
X168517000Y-108575589D01*
X168463775Y-108308011D01*
X168359371Y-108055957D01*
X168207799Y-107829114D01*
X168014886Y-107636201D01*
X167788043Y-107484629D01*
X167685127Y-107442000D01*
X167788043Y-107399371D01*
X168014886Y-107247799D01*
X168207799Y-107054886D01*
X168359371Y-106828043D01*
X168463775Y-106575989D01*
X168517000Y-106308411D01*
X168517000Y-106035589D01*
X168463775Y-105768011D01*
X168359371Y-105515957D01*
X168207799Y-105289114D01*
X168014886Y-105096201D01*
X167788043Y-104944629D01*
X167685127Y-104902000D01*
X167788043Y-104859371D01*
X168014886Y-104707799D01*
X168207799Y-104514886D01*
X168359371Y-104288043D01*
X168463775Y-104035989D01*
X168517000Y-103768411D01*
X168517000Y-103495589D01*
X168463775Y-103228011D01*
X168359371Y-102975957D01*
X168207799Y-102749114D01*
X168014886Y-102556201D01*
X167788043Y-102404629D01*
X167685127Y-102362000D01*
X167788043Y-102319371D01*
X168014886Y-102167799D01*
X168207799Y-101974886D01*
X168359371Y-101748043D01*
X168463775Y-101495989D01*
X168517000Y-101228411D01*
X168517000Y-100955589D01*
X168463775Y-100688011D01*
X168359371Y-100435957D01*
X168207799Y-100209114D01*
X168014886Y-100016201D01*
X167788043Y-99864629D01*
X167535989Y-99760225D01*
X167268411Y-99707000D01*
X166995589Y-99707000D01*
X166728011Y-99760225D01*
X166475957Y-99864629D01*
X166249114Y-100016201D01*
X166056201Y-100209114D01*
X165904629Y-100435957D01*
X165800225Y-100688011D01*
X165747000Y-100955589D01*
X149450782Y-100955589D01*
X149336992Y-100879557D01*
X149112236Y-100786460D01*
X148873637Y-100739000D01*
X148630363Y-100739000D01*
X148391764Y-100786460D01*
X148167008Y-100879557D01*
X147964733Y-101014713D01*
X147792713Y-101186733D01*
X147657557Y-101389008D01*
X147564460Y-101613764D01*
X147517000Y-101852363D01*
X144075998Y-101852363D01*
X144075348Y-101851148D01*
X143851764Y-101803841D01*
X143181605Y-102474000D01*
X142822395Y-102474000D01*
X142152236Y-101803841D01*
X141928652Y-101851148D01*
X141827763Y-102072516D01*
X141772000Y-102309313D01*
X141763505Y-102552438D01*
X141349157Y-102552438D01*
X141439540Y-102334236D01*
X141487000Y-102095637D01*
X141487000Y-101852363D01*
X141441623Y-101624236D01*
X142331841Y-101624236D01*
X143002000Y-102294395D01*
X143672159Y-101624236D01*
X143624852Y-101400652D01*
X143403484Y-101299763D01*
X143166687Y-101244000D01*
X142923562Y-101235505D01*
X142683451Y-101274605D01*
X142455582Y-101359798D01*
X142379148Y-101400652D01*
X142331841Y-101624236D01*
X141441623Y-101624236D01*
X141439540Y-101613764D01*
X141346443Y-101389008D01*
X141211287Y-101186733D01*
X141039267Y-101014713D01*
X140836992Y-100879557D01*
X140612236Y-100786460D01*
X140373637Y-100739000D01*
X140130363Y-100739000D01*
X139891764Y-100786460D01*
X139667008Y-100879557D01*
X139464733Y-101014713D01*
X139292713Y-101186733D01*
X139157557Y-101389008D01*
X139064460Y-101613764D01*
X139017000Y-101852363D01*
X131724000Y-101852363D01*
X131724000Y-99875874D01*
X139032881Y-99875874D01*
X139112724Y-100098976D01*
X139234631Y-100286764D01*
X139390831Y-100447161D01*
X139575322Y-100574003D01*
X139781013Y-100662415D01*
X140000000Y-100709000D01*
X141500000Y-100709000D01*
X141500000Y-99701000D01*
X141754000Y-99701000D01*
X141754000Y-100709000D01*
X143254000Y-100709000D01*
X143472987Y-100662415D01*
X143678678Y-100574003D01*
X143863169Y-100447161D01*
X144019369Y-100286764D01*
X144141276Y-100098976D01*
X144221119Y-99875874D01*
X147532881Y-99875874D01*
X147612724Y-100098976D01*
X147734631Y-100286764D01*
X147890831Y-100447161D01*
X148075322Y-100574003D01*
X148281013Y-100662415D01*
X148500000Y-100709000D01*
X150000000Y-100709000D01*
X150000000Y-99701000D01*
X150254000Y-99701000D01*
X150254000Y-100709000D01*
X151754000Y-100709000D01*
X151972987Y-100662415D01*
X152178678Y-100574003D01*
X152363169Y-100447161D01*
X152519369Y-100286764D01*
X152641276Y-100098976D01*
X152721119Y-99875874D01*
X152594954Y-99701000D01*
X150254000Y-99701000D01*
X150000000Y-99701000D01*
X147659046Y-99701000D01*
X147532881Y-99875874D01*
X144221119Y-99875874D01*
X144094954Y-99701000D01*
X141754000Y-99701000D01*
X141500000Y-99701000D01*
X139159046Y-99701000D01*
X139032881Y-99875874D01*
X131724000Y-99875874D01*
X131724000Y-99272126D01*
X139032881Y-99272126D01*
X139159046Y-99447000D01*
X141500000Y-99447000D01*
X141500000Y-98439000D01*
X141754000Y-98439000D01*
X141754000Y-99447000D01*
X144094954Y-99447000D01*
X144221119Y-99272126D01*
X147532881Y-99272126D01*
X147659046Y-99447000D01*
X150000000Y-99447000D01*
X150000000Y-98439000D01*
X150254000Y-98439000D01*
X150254000Y-99447000D01*
X152594954Y-99447000D01*
X152721119Y-99272126D01*
X152641276Y-99049024D01*
X152519369Y-98861236D01*
X152363169Y-98700839D01*
X152178678Y-98573997D01*
X151972987Y-98485585D01*
X151754000Y-98439000D01*
X150254000Y-98439000D01*
X150000000Y-98439000D01*
X148500000Y-98439000D01*
X148281013Y-98485585D01*
X148075322Y-98573997D01*
X147890831Y-98700839D01*
X147734631Y-98861236D01*
X147612724Y-99049024D01*
X147532881Y-99272126D01*
X144221119Y-99272126D01*
X144141276Y-99049024D01*
X144019369Y-98861236D01*
X143863169Y-98700839D01*
X143678678Y-98573997D01*
X143472987Y-98485585D01*
X143254000Y-98439000D01*
X141754000Y-98439000D01*
X141500000Y-98439000D01*
X140000000Y-98439000D01*
X139781013Y-98485585D01*
X139575322Y-98573997D01*
X139390831Y-98700839D01*
X139234631Y-98861236D01*
X139112724Y-99049024D01*
X139032881Y-99272126D01*
X131724000Y-99272126D01*
X131724000Y-98414565D01*
X169852000Y-98414565D01*
X169852000Y-98749435D01*
X169917330Y-99077872D01*
X170045479Y-99387252D01*
X170231523Y-99665687D01*
X170468313Y-99902477D01*
X170746748Y-100088521D01*
X171056128Y-100216670D01*
X171384565Y-100282000D01*
X171719435Y-100282000D01*
X172047872Y-100216670D01*
X172357252Y-100088521D01*
X172635687Y-99902477D01*
X172872477Y-99665687D01*
X173058521Y-99387252D01*
X173186670Y-99077872D01*
X173252000Y-98749435D01*
X173252000Y-98414565D01*
X173186670Y-98086128D01*
X173058521Y-97776748D01*
X172872477Y-97498313D01*
X172635687Y-97261523D01*
X172357252Y-97075479D01*
X172047872Y-96947330D01*
X171719435Y-96882000D01*
X171384565Y-96882000D01*
X171056128Y-96947330D01*
X170746748Y-97075479D01*
X170468313Y-97261523D01*
X170231523Y-97498313D01*
X170045479Y-97776748D01*
X169917330Y-98086128D01*
X169852000Y-98414565D01*
X131724000Y-98414565D01*
X131724000Y-85227653D01*
X138111952Y-85227653D01*
X138267962Y-85543214D01*
X138642745Y-85734020D01*
X139047551Y-85848044D01*
X139466824Y-85880902D01*
X139884451Y-85831334D01*
X140284383Y-85701243D01*
X140580038Y-85543214D01*
X140736048Y-85227653D01*
X151251952Y-85227653D01*
X151407962Y-85543214D01*
X151782745Y-85734020D01*
X152187551Y-85848044D01*
X152606824Y-85880902D01*
X153024451Y-85831334D01*
X153424383Y-85701243D01*
X153720038Y-85543214D01*
X153876048Y-85227653D01*
X163511952Y-85227653D01*
X163667962Y-85543214D01*
X164042745Y-85734020D01*
X164447551Y-85848044D01*
X164866824Y-85880902D01*
X165284451Y-85831334D01*
X165684383Y-85701243D01*
X165980038Y-85543214D01*
X166136048Y-85227653D01*
X176651952Y-85227653D01*
X176807962Y-85543214D01*
X177182745Y-85734020D01*
X177587551Y-85848044D01*
X178006824Y-85880902D01*
X178424451Y-85831334D01*
X178824383Y-85701243D01*
X179120038Y-85543214D01*
X179276048Y-85227653D01*
X177964000Y-83915605D01*
X176651952Y-85227653D01*
X166136048Y-85227653D01*
X164824000Y-83915605D01*
X163511952Y-85227653D01*
X153876048Y-85227653D01*
X152564000Y-83915605D01*
X151251952Y-85227653D01*
X140736048Y-85227653D01*
X139424000Y-83915605D01*
X138111952Y-85227653D01*
X131724000Y-85227653D01*
X131724000Y-83778824D01*
X137279098Y-83778824D01*
X137328666Y-84196451D01*
X137458757Y-84596383D01*
X137616786Y-84892038D01*
X137932347Y-85048048D01*
X139244395Y-83736000D01*
X139603605Y-83736000D01*
X140915653Y-85048048D01*
X141231214Y-84892038D01*
X141422020Y-84517255D01*
X141536044Y-84112449D01*
X141562189Y-83778824D01*
X150419098Y-83778824D01*
X150468666Y-84196451D01*
X150598757Y-84596383D01*
X150756786Y-84892038D01*
X151072347Y-85048048D01*
X152384395Y-83736000D01*
X152743605Y-83736000D01*
X154055653Y-85048048D01*
X154371214Y-84892038D01*
X154562020Y-84517255D01*
X154676044Y-84112449D01*
X154702189Y-83778824D01*
X162679098Y-83778824D01*
X162728666Y-84196451D01*
X162858757Y-84596383D01*
X163016786Y-84892038D01*
X163332347Y-85048048D01*
X164644395Y-83736000D01*
X165003605Y-83736000D01*
X166315653Y-85048048D01*
X166631214Y-84892038D01*
X166822020Y-84517255D01*
X166936044Y-84112449D01*
X166962189Y-83778824D01*
X175819098Y-83778824D01*
X175868666Y-84196451D01*
X175998757Y-84596383D01*
X176156786Y-84892038D01*
X176472347Y-85048048D01*
X177784395Y-83736000D01*
X178143605Y-83736000D01*
X179455653Y-85048048D01*
X179771214Y-84892038D01*
X179962020Y-84517255D01*
X180076044Y-84112449D01*
X180108902Y-83693176D01*
X180059334Y-83275549D01*
X179929243Y-82875617D01*
X179771214Y-82579962D01*
X179455653Y-82423952D01*
X178143605Y-83736000D01*
X177784395Y-83736000D01*
X176472347Y-82423952D01*
X176156786Y-82579962D01*
X175965980Y-82954745D01*
X175851956Y-83359551D01*
X175819098Y-83778824D01*
X166962189Y-83778824D01*
X166968902Y-83693176D01*
X166919334Y-83275549D01*
X166789243Y-82875617D01*
X166631214Y-82579962D01*
X166315653Y-82423952D01*
X165003605Y-83736000D01*
X164644395Y-83736000D01*
X163332347Y-82423952D01*
X163016786Y-82579962D01*
X162825980Y-82954745D01*
X162711956Y-83359551D01*
X162679098Y-83778824D01*
X154702189Y-83778824D01*
X154708902Y-83693176D01*
X154659334Y-83275549D01*
X154529243Y-82875617D01*
X154371214Y-82579962D01*
X154055653Y-82423952D01*
X152743605Y-83736000D01*
X152384395Y-83736000D01*
X151072347Y-82423952D01*
X150756786Y-82579962D01*
X150565980Y-82954745D01*
X150451956Y-83359551D01*
X150419098Y-83778824D01*
X141562189Y-83778824D01*
X141568902Y-83693176D01*
X141519334Y-83275549D01*
X141389243Y-82875617D01*
X141231214Y-82579962D01*
X140915653Y-82423952D01*
X139603605Y-83736000D01*
X139244395Y-83736000D01*
X137932347Y-82423952D01*
X137616786Y-82579962D01*
X137425980Y-82954745D01*
X137311956Y-83359551D01*
X137279098Y-83778824D01*
X131724000Y-83778824D01*
X131724000Y-82244347D01*
X138111952Y-82244347D01*
X139424000Y-83556395D01*
X140736048Y-82244347D01*
X140580038Y-81928786D01*
X140205255Y-81737980D01*
X139800449Y-81623956D01*
X139381176Y-81591098D01*
X138963549Y-81640666D01*
X138563617Y-81770757D01*
X138267962Y-81928786D01*
X138111952Y-82244347D01*
X131724000Y-82244347D01*
X131724000Y-80889589D01*
X141109000Y-80889589D01*
X141109000Y-81162411D01*
X141162225Y-81429989D01*
X141266629Y-81682043D01*
X141418201Y-81908886D01*
X141611114Y-82101799D01*
X141837957Y-82253371D01*
X142090011Y-82357775D01*
X142357589Y-82411000D01*
X142630411Y-82411000D01*
X142897989Y-82357775D01*
X143150043Y-82253371D01*
X143376886Y-82101799D01*
X143569799Y-81908886D01*
X143721371Y-81682043D01*
X143764000Y-81579127D01*
X143806629Y-81682043D01*
X143958201Y-81908886D01*
X144151114Y-82101799D01*
X144377957Y-82253371D01*
X144630011Y-82357775D01*
X144897589Y-82411000D01*
X145170411Y-82411000D01*
X145437989Y-82357775D01*
X145690043Y-82253371D01*
X145916886Y-82101799D01*
X146034000Y-81984685D01*
X146151114Y-82101799D01*
X146377957Y-82253371D01*
X146630011Y-82357775D01*
X146897589Y-82411000D01*
X147170411Y-82411000D01*
X147437989Y-82357775D01*
X147690043Y-82253371D01*
X147916886Y-82101799D01*
X148035692Y-81982993D01*
X148716612Y-81982993D01*
X148782137Y-82221860D01*
X149029116Y-82337760D01*
X149293960Y-82403250D01*
X149566492Y-82415812D01*
X149836238Y-82374965D01*
X150092832Y-82282277D01*
X150163793Y-82244347D01*
X151251952Y-82244347D01*
X152564000Y-83556395D01*
X153876048Y-82244347D01*
X163511952Y-82244347D01*
X164824000Y-83556395D01*
X166136048Y-82244347D01*
X165980038Y-81928786D01*
X165605255Y-81737980D01*
X165200449Y-81623956D01*
X164781176Y-81591098D01*
X164363549Y-81640666D01*
X163963617Y-81770757D01*
X163667962Y-81928786D01*
X163511952Y-82244347D01*
X153876048Y-82244347D01*
X153720038Y-81928786D01*
X153345255Y-81737980D01*
X152940449Y-81623956D01*
X152521176Y-81591098D01*
X152103549Y-81640666D01*
X151703617Y-81770757D01*
X151407962Y-81928786D01*
X151251952Y-82244347D01*
X150163793Y-82244347D01*
X150205863Y-82221860D01*
X150271388Y-81982993D01*
X149494000Y-81205605D01*
X148716612Y-81982993D01*
X148035692Y-81982993D01*
X148109799Y-81908886D01*
X148261371Y-81682043D01*
X148264398Y-81674736D01*
X148298140Y-81737863D01*
X148537007Y-81803388D01*
X149314395Y-81026000D01*
X149673605Y-81026000D01*
X150450993Y-81803388D01*
X150689860Y-81737863D01*
X150805760Y-81490884D01*
X150871250Y-81226040D01*
X150883812Y-80953508D01*
X150874133Y-80889589D01*
X166509000Y-80889589D01*
X166509000Y-81162411D01*
X166562225Y-81429989D01*
X166666629Y-81682043D01*
X166818201Y-81908886D01*
X167011114Y-82101799D01*
X167237957Y-82253371D01*
X167490011Y-82357775D01*
X167757589Y-82411000D01*
X168030411Y-82411000D01*
X168297989Y-82357775D01*
X168550043Y-82253371D01*
X168776886Y-82101799D01*
X168969799Y-81908886D01*
X169121371Y-81682043D01*
X169164000Y-81579127D01*
X169206629Y-81682043D01*
X169358201Y-81908886D01*
X169551114Y-82101799D01*
X169777957Y-82253371D01*
X170030011Y-82357775D01*
X170297589Y-82411000D01*
X170570411Y-82411000D01*
X170837989Y-82357775D01*
X171090043Y-82253371D01*
X171316886Y-82101799D01*
X171434000Y-81984685D01*
X171551114Y-82101799D01*
X171777957Y-82253371D01*
X172030011Y-82357775D01*
X172297589Y-82411000D01*
X172570411Y-82411000D01*
X172837989Y-82357775D01*
X173090043Y-82253371D01*
X173316886Y-82101799D01*
X173435692Y-81982993D01*
X174116612Y-81982993D01*
X174182137Y-82221860D01*
X174429116Y-82337760D01*
X174693960Y-82403250D01*
X174966492Y-82415812D01*
X175236238Y-82374965D01*
X175492832Y-82282277D01*
X175563793Y-82244347D01*
X176651952Y-82244347D01*
X177964000Y-83556395D01*
X179276048Y-82244347D01*
X179120038Y-81928786D01*
X178745255Y-81737980D01*
X178340449Y-81623956D01*
X177921176Y-81591098D01*
X177503549Y-81640666D01*
X177103617Y-81770757D01*
X176807962Y-81928786D01*
X176651952Y-82244347D01*
X175563793Y-82244347D01*
X175605863Y-82221860D01*
X175671388Y-81982993D01*
X174894000Y-81205605D01*
X174116612Y-81982993D01*
X173435692Y-81982993D01*
X173509799Y-81908886D01*
X173661371Y-81682043D01*
X173664398Y-81674736D01*
X173698140Y-81737863D01*
X173937007Y-81803388D01*
X174714395Y-81026000D01*
X175073605Y-81026000D01*
X175850993Y-81803388D01*
X176089860Y-81737863D01*
X176205760Y-81490884D01*
X176271250Y-81226040D01*
X176283812Y-80953508D01*
X176242965Y-80683762D01*
X176150277Y-80427168D01*
X176089860Y-80314137D01*
X175850993Y-80248612D01*
X175073605Y-81026000D01*
X174714395Y-81026000D01*
X173937007Y-80248612D01*
X173698140Y-80314137D01*
X173666329Y-80381926D01*
X173661371Y-80369957D01*
X173509799Y-80143114D01*
X173435692Y-80069007D01*
X174116612Y-80069007D01*
X174894000Y-80846395D01*
X175671388Y-80069007D01*
X175605863Y-79830140D01*
X175358884Y-79714240D01*
X175094040Y-79648750D01*
X174821508Y-79636188D01*
X174551762Y-79677035D01*
X174295168Y-79769723D01*
X174182137Y-79830140D01*
X174116612Y-80069007D01*
X173435692Y-80069007D01*
X173316886Y-79950201D01*
X173090043Y-79798629D01*
X172837989Y-79694225D01*
X172570411Y-79641000D01*
X172297589Y-79641000D01*
X172030011Y-79694225D01*
X171777957Y-79798629D01*
X171551114Y-79950201D01*
X171434000Y-80067315D01*
X171316886Y-79950201D01*
X171090043Y-79798629D01*
X170837989Y-79694225D01*
X170570411Y-79641000D01*
X170297589Y-79641000D01*
X170030011Y-79694225D01*
X169777957Y-79798629D01*
X169551114Y-79950201D01*
X169358201Y-80143114D01*
X169206629Y-80369957D01*
X169164000Y-80472873D01*
X169121371Y-80369957D01*
X168969799Y-80143114D01*
X168776886Y-79950201D01*
X168550043Y-79798629D01*
X168297989Y-79694225D01*
X168030411Y-79641000D01*
X167757589Y-79641000D01*
X167490011Y-79694225D01*
X167237957Y-79798629D01*
X167011114Y-79950201D01*
X166818201Y-80143114D01*
X166666629Y-80369957D01*
X166562225Y-80622011D01*
X166509000Y-80889589D01*
X150874133Y-80889589D01*
X150842965Y-80683762D01*
X150750277Y-80427168D01*
X150689860Y-80314137D01*
X150450993Y-80248612D01*
X149673605Y-81026000D01*
X149314395Y-81026000D01*
X148537007Y-80248612D01*
X148298140Y-80314137D01*
X148266329Y-80381926D01*
X148261371Y-80369957D01*
X148109799Y-80143114D01*
X148035692Y-80069007D01*
X148716612Y-80069007D01*
X149494000Y-80846395D01*
X150271388Y-80069007D01*
X150205863Y-79830140D01*
X149958884Y-79714240D01*
X149694040Y-79648750D01*
X149421508Y-79636188D01*
X149151762Y-79677035D01*
X148895168Y-79769723D01*
X148782137Y-79830140D01*
X148716612Y-80069007D01*
X148035692Y-80069007D01*
X147916886Y-79950201D01*
X147690043Y-79798629D01*
X147437989Y-79694225D01*
X147170411Y-79641000D01*
X146897589Y-79641000D01*
X146630011Y-79694225D01*
X146377957Y-79798629D01*
X146151114Y-79950201D01*
X146034000Y-80067315D01*
X145916886Y-79950201D01*
X145690043Y-79798629D01*
X145437989Y-79694225D01*
X145170411Y-79641000D01*
X144897589Y-79641000D01*
X144630011Y-79694225D01*
X144377957Y-79798629D01*
X144151114Y-79950201D01*
X143958201Y-80143114D01*
X143806629Y-80369957D01*
X143764000Y-80472873D01*
X143721371Y-80369957D01*
X143569799Y-80143114D01*
X143376886Y-79950201D01*
X143150043Y-79798629D01*
X142897989Y-79694225D01*
X142630411Y-79641000D01*
X142357589Y-79641000D01*
X142090011Y-79694225D01*
X141837957Y-79798629D01*
X141611114Y-79950201D01*
X141418201Y-80143114D01*
X141266629Y-80369957D01*
X141162225Y-80622011D01*
X141109000Y-80889589D01*
X131724000Y-80889589D01*
X131724000Y-74066000D01*
X185404000Y-74066000D01*
X185404001Y-130246000D01*
X185404001Y-130246000D01*
G37*
X185404001Y-130246000D02*
X131724000Y-130246000D01*
X131724000Y-126206000D01*
X177277662Y-126206000D01*
X177302955Y-126462805D01*
X177377862Y-126709741D01*
X177499505Y-126937318D01*
X177663208Y-127136792D01*
X177747539Y-127206000D01*
X177663208Y-127275208D01*
X177499505Y-127474682D01*
X177377862Y-127702259D01*
X177302955Y-127949195D01*
X177277662Y-128206000D01*
X177302955Y-128462805D01*
X177377862Y-128709741D01*
X177499505Y-128937318D01*
X177663208Y-129136792D01*
X177862682Y-129300495D01*
X178090259Y-129422138D01*
X178337195Y-129497045D01*
X178529649Y-129516000D01*
X178658351Y-129516000D01*
X178850805Y-129497045D01*
X179097741Y-129422138D01*
X179325318Y-129300495D01*
X179394926Y-129243369D01*
X179467815Y-129332185D01*
X179564506Y-129411537D01*
X179674820Y-129470502D01*
X179794518Y-129506812D01*
X179919000Y-129519072D01*
X181269000Y-129519072D01*
X181393482Y-129506812D01*
X181513180Y-129470502D01*
X181623494Y-129411537D01*
X181720185Y-129332185D01*
X181799537Y-129235494D01*
X181858502Y-129125180D01*
X181894812Y-129005482D01*
X181907072Y-128881000D01*
X181907072Y-127531000D01*
X181894812Y-127406518D01*
X181858502Y-127286820D01*
X181799537Y-127176506D01*
X181720185Y-127079815D01*
X181631369Y-127006926D01*
X181688495Y-126937318D01*
X181810138Y-126709741D01*
X181885045Y-126462805D01*
X181910338Y-126206000D01*
X181885045Y-125949195D01*
X181810138Y-125702259D01*
X181688495Y-125474682D01*
X181524792Y-125275208D01*
X181436352Y-125202628D01*
X181572303Y-125077227D01*
X181723473Y-124869629D01*
X181831238Y-124636528D01*
X181861910Y-124535400D01*
X181738224Y-124333000D01*
X180721000Y-124333000D01*
X180721000Y-124353000D01*
X180467000Y-124353000D01*
X180467000Y-124333000D01*
X178721000Y-124333000D01*
X178721000Y-124353000D01*
X178467000Y-124353000D01*
X178467000Y-124333000D01*
X177449776Y-124333000D01*
X177326090Y-124535400D01*
X177356762Y-124636528D01*
X177464527Y-124869629D01*
X177615697Y-125077227D01*
X177751648Y-125202628D01*
X177663208Y-125275208D01*
X177499505Y-125474682D01*
X177377862Y-125702259D01*
X177302955Y-125949195D01*
X177277662Y-126206000D01*
X131724000Y-126206000D01*
X131724000Y-122206000D01*
X177277662Y-122206000D01*
X177302955Y-122462805D01*
X177377862Y-122709741D01*
X177499505Y-122937318D01*
X177663208Y-123136792D01*
X177751648Y-123209372D01*
X177615697Y-123334773D01*
X177464527Y-123542371D01*
X177356762Y-123775472D01*
X177326090Y-123876600D01*
X177449776Y-124079000D01*
X178467000Y-124079000D01*
X178467000Y-124059000D01*
X178721000Y-124059000D01*
X178721000Y-124079000D01*
X180467000Y-124079000D01*
X180467000Y-124059000D01*
X180721000Y-124059000D01*
X180721000Y-124079000D01*
X181738224Y-124079000D01*
X181861910Y-123876600D01*
X181831238Y-123775472D01*
X181723473Y-123542371D01*
X181572303Y-123334773D01*
X181436352Y-123209372D01*
X181524792Y-123136792D01*
X181688495Y-122937318D01*
X181810138Y-122709741D01*
X181885045Y-122462805D01*
X181910338Y-122206000D01*
X181885045Y-121949195D01*
X181810138Y-121702259D01*
X181688495Y-121474682D01*
X181524792Y-121275208D01*
X181325318Y-121111505D01*
X181097741Y-120989862D01*
X180850805Y-120914955D01*
X180658351Y-120896000D01*
X180529649Y-120896000D01*
X180337195Y-120914955D01*
X180090259Y-120989862D01*
X179862682Y-121111505D01*
X179663208Y-121275208D01*
X179594000Y-121359539D01*
X179524792Y-121275208D01*
X179325318Y-121111505D01*
X179097741Y-120989862D01*
X178850805Y-120914955D01*
X178658351Y-120896000D01*
X178529649Y-120896000D01*
X178337195Y-120914955D01*
X178090259Y-120989862D01*
X177862682Y-121111505D01*
X177663208Y-121275208D01*
X177499505Y-121474682D01*
X177377862Y-121702259D01*
X177302955Y-121949195D01*
X177277662Y-122206000D01*
X131724000Y-122206000D01*
X131724000Y-117226000D01*
X133007662Y-117226000D01*
X133032955Y-117482805D01*
X133107862Y-117729741D01*
X133229505Y-117957318D01*
X133286631Y-118026926D01*
X133197815Y-118099815D01*
X133118463Y-118196506D01*
X133059498Y-118306820D01*
X133023188Y-118426518D01*
X133010928Y-118551000D01*
X133010928Y-119901000D01*
X133023188Y-120025482D01*
X133059498Y-120145180D01*
X133118463Y-120255494D01*
X133197815Y-120352185D01*
X133294506Y-120431537D01*
X133404820Y-120490502D01*
X133524518Y-120526812D01*
X133649000Y-120539072D01*
X134999000Y-120539072D01*
X135123482Y-120526812D01*
X135243180Y-120490502D01*
X135353494Y-120431537D01*
X135450185Y-120352185D01*
X135523074Y-120263369D01*
X135592682Y-120320495D01*
X135820259Y-120442138D01*
X136067195Y-120517045D01*
X136259649Y-120536000D01*
X136388351Y-120536000D01*
X136580805Y-120517045D01*
X136827741Y-120442138D01*
X137055318Y-120320495D01*
X137254792Y-120156792D01*
X137324000Y-120072461D01*
X137393208Y-120156792D01*
X137592682Y-120320495D01*
X137820259Y-120442138D01*
X138067195Y-120517045D01*
X138259649Y-120536000D01*
X138388351Y-120536000D01*
X138580805Y-120517045D01*
X138827741Y-120442138D01*
X139055318Y-120320495D01*
X139254792Y-120156792D01*
X139327372Y-120068352D01*
X139452773Y-120204303D01*
X139660371Y-120355473D01*
X139893472Y-120463238D01*
X139994600Y-120493910D01*
X140197000Y-120370224D01*
X140197000Y-119353000D01*
X140177000Y-119353000D01*
X140177000Y-119099000D01*
X140197000Y-119099000D01*
X140197000Y-119079000D01*
X140451000Y-119079000D01*
X140451000Y-119099000D01*
X140471000Y-119099000D01*
X140471000Y-119353000D01*
X140451000Y-119353000D01*
X140451000Y-120370224D01*
X140653400Y-120493910D01*
X140754528Y-120463238D01*
X140987629Y-120355473D01*
X141195227Y-120204303D01*
X141320628Y-120068352D01*
X141393208Y-120156792D01*
X141592682Y-120320495D01*
X141820259Y-120442138D01*
X142067195Y-120517045D01*
X142259649Y-120536000D01*
X142388351Y-120536000D01*
X142580805Y-120517045D01*
X142827741Y-120442138D01*
X143055318Y-120320495D01*
X143254792Y-120156792D01*
X143324000Y-120072461D01*
X143393208Y-120156792D01*
X143592682Y-120320495D01*
X143820259Y-120442138D01*
X144067195Y-120517045D01*
X144259649Y-120536000D01*
X144388351Y-120536000D01*
X144580805Y-120517045D01*
X144827741Y-120442138D01*
X145055318Y-120320495D01*
X145254792Y-120156792D01*
X145327372Y-120068352D01*
X145452773Y-120204303D01*
X145660371Y-120355473D01*
X145893472Y-120463238D01*
X145994600Y-120493910D01*
X146197000Y-120370224D01*
X146197000Y-119353000D01*
X146177000Y-119353000D01*
X146177000Y-119099000D01*
X146197000Y-119099000D01*
X146197000Y-119079000D01*
X146451000Y-119079000D01*
X146451000Y-119099000D01*
X146471000Y-119099000D01*
X146471000Y-119353000D01*
X146451000Y-119353000D01*
X146451000Y-120370224D01*
X146653400Y-120493910D01*
X146754528Y-120463238D01*
X146987629Y-120355473D01*
X147195227Y-120204303D01*
X147320628Y-120068352D01*
X147393208Y-120156792D01*
X147592682Y-120320495D01*
X147820259Y-120442138D01*
X148067195Y-120517045D01*
X148259649Y-120536000D01*
X148388351Y-120536000D01*
X148580805Y-120517045D01*
X148827741Y-120442138D01*
X149055318Y-120320495D01*
X149254792Y-120156792D01*
X149324000Y-120072461D01*
X149393208Y-120156792D01*
X149592682Y-120320495D01*
X149820259Y-120442138D01*
X150067195Y-120517045D01*
X150259649Y-120536000D01*
X150388351Y-120536000D01*
X150580805Y-120517045D01*
X150827741Y-120442138D01*
X151055318Y-120320495D01*
X151254792Y-120156792D01*
X151324000Y-120072461D01*
X151393208Y-120156792D01*
X151592682Y-120320495D01*
X151820259Y-120442138D01*
X152067195Y-120517045D01*
X152259649Y-120536000D01*
X152388351Y-120536000D01*
X152580805Y-120517045D01*
X152827741Y-120442138D01*
X153055318Y-120320495D01*
X153254792Y-120156792D01*
X153324000Y-120072461D01*
X153393208Y-120156792D01*
X153592682Y-120320495D01*
X153820259Y-120442138D01*
X154067195Y-120517045D01*
X154259649Y-120536000D01*
X154388351Y-120536000D01*
X154580805Y-120517045D01*
X154827741Y-120442138D01*
X155055318Y-120320495D01*
X155254792Y-120156792D01*
X155324000Y-120072461D01*
X155393208Y-120156792D01*
X155592682Y-120320495D01*
X155820259Y-120442138D01*
X156067195Y-120517045D01*
X156259649Y-120536000D01*
X156388351Y-120536000D01*
X156580805Y-120517045D01*
X156827741Y-120442138D01*
X157055318Y-120320495D01*
X157254792Y-120156792D01*
X157324000Y-120072461D01*
X157393208Y-120156792D01*
X157592682Y-120320495D01*
X157820259Y-120442138D01*
X158067195Y-120517045D01*
X158259649Y-120536000D01*
X158388351Y-120536000D01*
X158580805Y-120517045D01*
X158827741Y-120442138D01*
X159055318Y-120320495D01*
X159254792Y-120156792D01*
X159327372Y-120068352D01*
X159452773Y-120204303D01*
X159660371Y-120355473D01*
X159893472Y-120463238D01*
X159994600Y-120493910D01*
X160197000Y-120370224D01*
X160197000Y-119353000D01*
X160177000Y-119353000D01*
X160177000Y-119099000D01*
X160197000Y-119099000D01*
X160197000Y-119079000D01*
X160451000Y-119079000D01*
X160451000Y-119099000D01*
X160471000Y-119099000D01*
X160471000Y-119353000D01*
X160451000Y-119353000D01*
X160451000Y-120370224D01*
X160653400Y-120493910D01*
X160754528Y-120463238D01*
X160987629Y-120355473D01*
X161195227Y-120204303D01*
X161320628Y-120068352D01*
X161393208Y-120156792D01*
X161592682Y-120320495D01*
X161820259Y-120442138D01*
X162067195Y-120517045D01*
X162259649Y-120536000D01*
X162388351Y-120536000D01*
X162580805Y-120517045D01*
X162827741Y-120442138D01*
X163055318Y-120320495D01*
X163254792Y-120156792D01*
X163324000Y-120072461D01*
X163393208Y-120156792D01*
X163592682Y-120320495D01*
X163820259Y-120442138D01*
X164067195Y-120517045D01*
X164259649Y-120536000D01*
X164388351Y-120536000D01*
X164580805Y-120517045D01*
X164827741Y-120442138D01*
X165055318Y-120320495D01*
X165254792Y-120156792D01*
X165324000Y-120072461D01*
X165393208Y-120156792D01*
X165592682Y-120320495D01*
X165820259Y-120442138D01*
X166067195Y-120517045D01*
X166259649Y-120536000D01*
X166388351Y-120536000D01*
X166580805Y-120517045D01*
X166827741Y-120442138D01*
X167055318Y-120320495D01*
X167254792Y-120156792D01*
X167327372Y-120068352D01*
X167452773Y-120204303D01*
X167660371Y-120355473D01*
X167893472Y-120463238D01*
X167994600Y-120493910D01*
X168197000Y-120370224D01*
X168197000Y-119353000D01*
X168177000Y-119353000D01*
X168177000Y-119099000D01*
X168197000Y-119099000D01*
X168197000Y-117353000D01*
X168177000Y-117353000D01*
X168177000Y-117099000D01*
X168197000Y-117099000D01*
X168197000Y-116081776D01*
X168451000Y-116081776D01*
X168451000Y-117099000D01*
X168471000Y-117099000D01*
X168471000Y-117353000D01*
X168451000Y-117353000D01*
X168451000Y-119099000D01*
X168471000Y-119099000D01*
X168471000Y-119353000D01*
X168451000Y-119353000D01*
X168451000Y-120370224D01*
X168653400Y-120493910D01*
X168754528Y-120463238D01*
X168987629Y-120355473D01*
X169195227Y-120204303D01*
X169320628Y-120068352D01*
X169393208Y-120156792D01*
X169592682Y-120320495D01*
X169820259Y-120442138D01*
X170067195Y-120517045D01*
X170259649Y-120536000D01*
X170388351Y-120536000D01*
X170580805Y-120517045D01*
X170827741Y-120442138D01*
X171055318Y-120320495D01*
X171254792Y-120156792D01*
X171324000Y-120072461D01*
X171393208Y-120156792D01*
X171592682Y-120320495D01*
X171820259Y-120442138D01*
X172067195Y-120517045D01*
X172259649Y-120536000D01*
X172388351Y-120536000D01*
X172580805Y-120517045D01*
X172827741Y-120442138D01*
X173055318Y-120320495D01*
X173254792Y-120156792D01*
X173324000Y-120072461D01*
X173393208Y-120156792D01*
X173592682Y-120320495D01*
X173820259Y-120442138D01*
X174067195Y-120517045D01*
X174259649Y-120536000D01*
X174388351Y-120536000D01*
X174580805Y-120517045D01*
X174827741Y-120442138D01*
X175055318Y-120320495D01*
X175254792Y-120156792D01*
X175324000Y-120072461D01*
X175393208Y-120156792D01*
X175592682Y-120320495D01*
X175820259Y-120442138D01*
X176067195Y-120517045D01*
X176259649Y-120536000D01*
X176388351Y-120536000D01*
X176580805Y-120517045D01*
X176827741Y-120442138D01*
X177055318Y-120320495D01*
X177254792Y-120156792D01*
X177327372Y-120068352D01*
X177452773Y-120204303D01*
X177660371Y-120355473D01*
X177893472Y-120463238D01*
X177994600Y-120493910D01*
X178197000Y-120370224D01*
X178197000Y-119353000D01*
X178177000Y-119353000D01*
X178177000Y-119099000D01*
X178197000Y-119099000D01*
X178197000Y-117353000D01*
X178177000Y-117353000D01*
X178177000Y-117099000D01*
X178197000Y-117099000D01*
X178197000Y-116081776D01*
X178451000Y-116081776D01*
X178451000Y-117099000D01*
X178471000Y-117099000D01*
X178471000Y-117353000D01*
X178451000Y-117353000D01*
X178451000Y-119099000D01*
X178471000Y-119099000D01*
X178471000Y-119353000D01*
X178451000Y-119353000D01*
X178451000Y-120370224D01*
X178653400Y-120493910D01*
X178754528Y-120463238D01*
X178987629Y-120355473D01*
X179195227Y-120204303D01*
X179320628Y-120068352D01*
X179393208Y-120156792D01*
X179592682Y-120320495D01*
X179820259Y-120442138D01*
X180067195Y-120517045D01*
X180259649Y-120536000D01*
X180388351Y-120536000D01*
X180580805Y-120517045D01*
X180827741Y-120442138D01*
X181055318Y-120320495D01*
X181254792Y-120156792D01*
X181324000Y-120072461D01*
X181393208Y-120156792D01*
X181592682Y-120320495D01*
X181820259Y-120442138D01*
X182067195Y-120517045D01*
X182259649Y-120536000D01*
X182388351Y-120536000D01*
X182580805Y-120517045D01*
X182827741Y-120442138D01*
X183055318Y-120320495D01*
X183254792Y-120156792D01*
X183418495Y-119957318D01*
X183540138Y-119729741D01*
X183615045Y-119482805D01*
X183640338Y-119226000D01*
X183615045Y-118969195D01*
X183540138Y-118722259D01*
X183418495Y-118494682D01*
X183254792Y-118295208D01*
X183170461Y-118226000D01*
X183254792Y-118156792D01*
X183418495Y-117957318D01*
X183540138Y-117729741D01*
X183615045Y-117482805D01*
X183640338Y-117226000D01*
X183615045Y-116969195D01*
X183540138Y-116722259D01*
X183418495Y-116494682D01*
X183254792Y-116295208D01*
X183055318Y-116131505D01*
X182827741Y-116009862D01*
X182580805Y-115934955D01*
X182388351Y-115916000D01*
X182259649Y-115916000D01*
X182067195Y-115934955D01*
X181820259Y-116009862D01*
X181592682Y-116131505D01*
X181393208Y-116295208D01*
X181324000Y-116379539D01*
X181254792Y-116295208D01*
X181055318Y-116131505D01*
X180827741Y-116009862D01*
X180580805Y-115934955D01*
X180388351Y-115916000D01*
X180259649Y-115916000D01*
X180067195Y-115934955D01*
X179820259Y-116009862D01*
X179592682Y-116131505D01*
X179393208Y-116295208D01*
X179320628Y-116383648D01*
X179195227Y-116247697D01*
X178987629Y-116096527D01*
X178754528Y-115988762D01*
X178653400Y-115958090D01*
X178451000Y-116081776D01*
X178197000Y-116081776D01*
X177994600Y-115958090D01*
X177893472Y-115988762D01*
X177660371Y-116096527D01*
X177452773Y-116247697D01*
X177327372Y-116383648D01*
X177254792Y-116295208D01*
X177055318Y-116131505D01*
X176827741Y-116009862D01*
X176580805Y-115934955D01*
X176388351Y-115916000D01*
X176259649Y-115916000D01*
X176067195Y-115934955D01*
X175820259Y-116009862D01*
X175592682Y-116131505D01*
X175393208Y-116295208D01*
X175324000Y-116379539D01*
X175254792Y-116295208D01*
X175055318Y-116131505D01*
X174827741Y-116009862D01*
X174580805Y-115934955D01*
X174388351Y-115916000D01*
X174259649Y-115916000D01*
X174067195Y-115934955D01*
X173820259Y-116009862D01*
X173592682Y-116131505D01*
X173393208Y-116295208D01*
X173324000Y-116379539D01*
X173254792Y-116295208D01*
X173055318Y-116131505D01*
X172827741Y-116009862D01*
X172580805Y-115934955D01*
X172388351Y-115916000D01*
X172259649Y-115916000D01*
X172067195Y-115934955D01*
X171820259Y-116009862D01*
X171592682Y-116131505D01*
X171393208Y-116295208D01*
X171324000Y-116379539D01*
X171254792Y-116295208D01*
X171055318Y-116131505D01*
X170827741Y-116009862D01*
X170580805Y-115934955D01*
X170388351Y-115916000D01*
X170259649Y-115916000D01*
X170067195Y-115934955D01*
X169820259Y-116009862D01*
X169592682Y-116131505D01*
X169393208Y-116295208D01*
X169320628Y-116383648D01*
X169195227Y-116247697D01*
X168987629Y-116096527D01*
X168754528Y-115988762D01*
X168653400Y-115958090D01*
X168451000Y-116081776D01*
X168197000Y-116081776D01*
X167994600Y-115958090D01*
X167893472Y-115988762D01*
X167660371Y-116096527D01*
X167452773Y-116247697D01*
X167327372Y-116383648D01*
X167254792Y-116295208D01*
X167055318Y-116131505D01*
X166827741Y-116009862D01*
X166580805Y-115934955D01*
X166388351Y-115916000D01*
X166259649Y-115916000D01*
X166067195Y-115934955D01*
X165820259Y-116009862D01*
X165592682Y-116131505D01*
X165393208Y-116295208D01*
X165324000Y-116379539D01*
X165254792Y-116295208D01*
X165055318Y-116131505D01*
X164827741Y-116009862D01*
X164580805Y-115934955D01*
X164388351Y-115916000D01*
X164259649Y-115916000D01*
X164067195Y-115934955D01*
X163820259Y-116009862D01*
X163592682Y-116131505D01*
X163393208Y-116295208D01*
X163324000Y-116379539D01*
X163254792Y-116295208D01*
X163055318Y-116131505D01*
X162827741Y-116009862D01*
X162580805Y-115934955D01*
X162388351Y-115916000D01*
X162259649Y-115916000D01*
X162067195Y-115934955D01*
X161820259Y-116009862D01*
X161592682Y-116131505D01*
X161393208Y-116295208D01*
X161324000Y-116379539D01*
X161254792Y-116295208D01*
X161055318Y-116131505D01*
X160827741Y-116009862D01*
X160580805Y-115934955D01*
X160388351Y-115916000D01*
X160259649Y-115916000D01*
X160067195Y-115934955D01*
X159820259Y-116009862D01*
X159592682Y-116131505D01*
X159393208Y-116295208D01*
X159324000Y-116379539D01*
X159254792Y-116295208D01*
X159055318Y-116131505D01*
X158827741Y-116009862D01*
X158580805Y-115934955D01*
X158388351Y-115916000D01*
X158259649Y-115916000D01*
X158067195Y-115934955D01*
X157820259Y-116009862D01*
X157592682Y-116131505D01*
X157393208Y-116295208D01*
X157324000Y-116379539D01*
X157254792Y-116295208D01*
X157055318Y-116131505D01*
X156827741Y-116009862D01*
X156580805Y-115934955D01*
X156388351Y-115916000D01*
X156259649Y-115916000D01*
X156067195Y-115934955D01*
X155820259Y-116009862D01*
X155592682Y-116131505D01*
X155393208Y-116295208D01*
X155324000Y-116379539D01*
X155254792Y-116295208D01*
X155055318Y-116131505D01*
X154827741Y-116009862D01*
X154580805Y-115934955D01*
X154388351Y-115916000D01*
X154259649Y-115916000D01*
X154067195Y-115934955D01*
X153820259Y-116009862D01*
X153592682Y-116131505D01*
X153393208Y-116295208D01*
X153324000Y-116379539D01*
X153254792Y-116295208D01*
X153055318Y-116131505D01*
X152827741Y-116009862D01*
X152580805Y-115934955D01*
X152388351Y-115916000D01*
X152259649Y-115916000D01*
X152067195Y-115934955D01*
X151820259Y-116009862D01*
X151592682Y-116131505D01*
X151393208Y-116295208D01*
X151324000Y-116379539D01*
X151254792Y-116295208D01*
X151055318Y-116131505D01*
X150827741Y-116009862D01*
X150580805Y-115934955D01*
X150388351Y-115916000D01*
X150259649Y-115916000D01*
X150067195Y-115934955D01*
X149820259Y-116009862D01*
X149592682Y-116131505D01*
X149393208Y-116295208D01*
X149320628Y-116383648D01*
X149195227Y-116247697D01*
X148987629Y-116096527D01*
X148754528Y-115988762D01*
X148653400Y-115958090D01*
X148451000Y-116081776D01*
X148451000Y-117099000D01*
X148471000Y-117099000D01*
X148471000Y-117353000D01*
X148451000Y-117353000D01*
X148451000Y-117373000D01*
X148197000Y-117373000D01*
X148197000Y-117353000D01*
X148177000Y-117353000D01*
X148177000Y-117099000D01*
X148197000Y-117099000D01*
X148197000Y-116081776D01*
X147994600Y-115958090D01*
X147893472Y-115988762D01*
X147660371Y-116096527D01*
X147452773Y-116247697D01*
X147327372Y-116383648D01*
X147254792Y-116295208D01*
X147055318Y-116131505D01*
X146827741Y-116009862D01*
X146580805Y-115934955D01*
X146388351Y-115916000D01*
X146259649Y-115916000D01*
X146067195Y-115934955D01*
X145820259Y-116009862D01*
X145592682Y-116131505D01*
X145393208Y-116295208D01*
X145324000Y-116379539D01*
X145254792Y-116295208D01*
X145055318Y-116131505D01*
X144827741Y-116009862D01*
X144580805Y-115934955D01*
X144388351Y-115916000D01*
X144259649Y-115916000D01*
X144067195Y-115934955D01*
X143820259Y-116009862D01*
X143592682Y-116131505D01*
X143393208Y-116295208D01*
X143324000Y-116379539D01*
X143254792Y-116295208D01*
X143055318Y-116131505D01*
X142827741Y-116009862D01*
X142580805Y-115934955D01*
X142388351Y-115916000D01*
X142259649Y-115916000D01*
X142067195Y-115934955D01*
X141820259Y-116009862D01*
X141592682Y-116131505D01*
X141393208Y-116295208D01*
X141324000Y-116379539D01*
X141254792Y-116295208D01*
X141055318Y-116131505D01*
X140827741Y-116009862D01*
X140580805Y-115934955D01*
X140388351Y-115916000D01*
X140259649Y-115916000D01*
X140067195Y-115934955D01*
X139820259Y-116009862D01*
X139592682Y-116131505D01*
X139393208Y-116295208D01*
X139324000Y-116379539D01*
X139254792Y-116295208D01*
X139055318Y-116131505D01*
X138827741Y-116009862D01*
X138580805Y-115934955D01*
X138388351Y-115916000D01*
X138259649Y-115916000D01*
X138067195Y-115934955D01*
X137820259Y-116009862D01*
X137592682Y-116131505D01*
X137393208Y-116295208D01*
X137320628Y-116383648D01*
X137195227Y-116247697D01*
X136987629Y-116096527D01*
X136754528Y-115988762D01*
X136653400Y-115958090D01*
X136451000Y-116081776D01*
X136451000Y-117099000D01*
X136471000Y-117099000D01*
X136471000Y-117353000D01*
X136451000Y-117353000D01*
X136451000Y-117373000D01*
X136197000Y-117373000D01*
X136197000Y-117353000D01*
X136177000Y-117353000D01*
X136177000Y-117099000D01*
X136197000Y-117099000D01*
X136197000Y-116081776D01*
X135994600Y-115958090D01*
X135893472Y-115988762D01*
X135660371Y-116096527D01*
X135452773Y-116247697D01*
X135327372Y-116383648D01*
X135254792Y-116295208D01*
X135055318Y-116131505D01*
X134827741Y-116009862D01*
X134580805Y-115934955D01*
X134388351Y-115916000D01*
X134259649Y-115916000D01*
X134067195Y-115934955D01*
X133820259Y-116009862D01*
X133592682Y-116131505D01*
X133393208Y-116295208D01*
X133229505Y-116494682D01*
X133107862Y-116722259D01*
X133032955Y-116969195D01*
X133007662Y-117226000D01*
X131724000Y-117226000D01*
X131724000Y-112675874D01*
X139032881Y-112675874D01*
X139112724Y-112898976D01*
X139234631Y-113086764D01*
X139390831Y-113247161D01*
X139575322Y-113374003D01*
X139781013Y-113462415D01*
X140000000Y-113509000D01*
X141500000Y-113509000D01*
X141500000Y-112501000D01*
X141754000Y-112501000D01*
X141754000Y-113509000D01*
X143254000Y-113509000D01*
X143472987Y-113462415D01*
X143678678Y-113374003D01*
X143863169Y-113247161D01*
X144019369Y-113086764D01*
X144141276Y-112898976D01*
X144221119Y-112675874D01*
X147532881Y-112675874D01*
X147612724Y-112898976D01*
X147734631Y-113086764D01*
X147890831Y-113247161D01*
X148075322Y-113374003D01*
X148281013Y-113462415D01*
X148500000Y-113509000D01*
X150000000Y-113509000D01*
X150000000Y-112501000D01*
X150254000Y-112501000D01*
X150254000Y-113509000D01*
X151754000Y-113509000D01*
X151972987Y-113462415D01*
X152178678Y-113374003D01*
X152363169Y-113247161D01*
X152519369Y-113086764D01*
X152641276Y-112898976D01*
X152721119Y-112675874D01*
X152594954Y-112501000D01*
X150254000Y-112501000D01*
X150000000Y-112501000D01*
X147659046Y-112501000D01*
X147532881Y-112675874D01*
X144221119Y-112675874D01*
X144094954Y-112501000D01*
X141754000Y-112501000D01*
X141500000Y-112501000D01*
X139159046Y-112501000D01*
X139032881Y-112675874D01*
X131724000Y-112675874D01*
X131724000Y-112072126D01*
X139032881Y-112072126D01*
X139159046Y-112247000D01*
X141500000Y-112247000D01*
X141500000Y-111239000D01*
X141754000Y-111239000D01*
X141754000Y-112247000D01*
X144094954Y-112247000D01*
X144221119Y-112072126D01*
X147532881Y-112072126D01*
X147659046Y-112247000D01*
X150000000Y-112247000D01*
X150000000Y-111239000D01*
X150254000Y-111239000D01*
X150254000Y-112247000D01*
X152594954Y-112247000D01*
X152721119Y-112072126D01*
X152641276Y-111849024D01*
X152519369Y-111661236D01*
X152363169Y-111500839D01*
X152178678Y-111373997D01*
X151972987Y-111285585D01*
X151754000Y-111239000D01*
X150254000Y-111239000D01*
X150000000Y-111239000D01*
X148500000Y-111239000D01*
X148281013Y-111285585D01*
X148075322Y-111373997D01*
X147890831Y-111500839D01*
X147734631Y-111661236D01*
X147612724Y-111849024D01*
X147532881Y-112072126D01*
X144221119Y-112072126D01*
X144141276Y-111849024D01*
X144019369Y-111661236D01*
X143863169Y-111500839D01*
X143678678Y-111373997D01*
X143472987Y-111285585D01*
X143254000Y-111239000D01*
X141754000Y-111239000D01*
X141500000Y-111239000D01*
X140000000Y-111239000D01*
X139781013Y-111285585D01*
X139575322Y-111373997D01*
X139390831Y-111500839D01*
X139234631Y-111661236D01*
X139112724Y-111849024D01*
X139032881Y-112072126D01*
X131724000Y-112072126D01*
X131724000Y-107852363D01*
X139017000Y-107852363D01*
X139017000Y-108095637D01*
X139064460Y-108334236D01*
X139157557Y-108558992D01*
X139292713Y-108761267D01*
X139464733Y-108933287D01*
X139525664Y-108974000D01*
X139464733Y-109014713D01*
X139292713Y-109186733D01*
X139157557Y-109389008D01*
X139064460Y-109613764D01*
X139017000Y-109852363D01*
X139017000Y-110095637D01*
X139064460Y-110334236D01*
X139157557Y-110558992D01*
X139292713Y-110761267D01*
X139464733Y-110933287D01*
X139667008Y-111068443D01*
X139891764Y-111161540D01*
X140130363Y-111209000D01*
X140373637Y-111209000D01*
X140612236Y-111161540D01*
X140836992Y-111068443D01*
X141039267Y-110933287D01*
X141211287Y-110761267D01*
X141346443Y-110558992D01*
X141439540Y-110334236D01*
X141487000Y-110095637D01*
X141487000Y-109852363D01*
X141439540Y-109613764D01*
X141346443Y-109389008D01*
X141321958Y-109352363D01*
X141767000Y-109352363D01*
X141767000Y-109595637D01*
X141814460Y-109834236D01*
X141907557Y-110058992D01*
X142042713Y-110261267D01*
X142214733Y-110433287D01*
X142417008Y-110568443D01*
X142641764Y-110661540D01*
X142880363Y-110709000D01*
X143123637Y-110709000D01*
X143362236Y-110661540D01*
X143586992Y-110568443D01*
X143789267Y-110433287D01*
X143961287Y-110261267D01*
X144096443Y-110058992D01*
X144189540Y-109834236D01*
X144237000Y-109595637D01*
X144237000Y-109352363D01*
X144189540Y-109113764D01*
X144096443Y-108889008D01*
X143961287Y-108686733D01*
X143789267Y-108514713D01*
X143586992Y-108379557D01*
X143362236Y-108286460D01*
X143123637Y-108239000D01*
X142880363Y-108239000D01*
X142641764Y-108286460D01*
X142417008Y-108379557D01*
X142214733Y-108514713D01*
X142042713Y-108686733D01*
X141907557Y-108889008D01*
X141814460Y-109113764D01*
X141767000Y-109352363D01*
X141321958Y-109352363D01*
X141211287Y-109186733D01*
X141039267Y-109014713D01*
X140978336Y-108974000D01*
X141039267Y-108933287D01*
X141211287Y-108761267D01*
X141346443Y-108558992D01*
X141439540Y-108334236D01*
X141487000Y-108095637D01*
X141487000Y-107852363D01*
X141439540Y-107613764D01*
X141346443Y-107389008D01*
X141211287Y-107186733D01*
X141039267Y-107014713D01*
X140901267Y-106922504D01*
X140922159Y-106823764D01*
X140252000Y-106153605D01*
X139581841Y-106823764D01*
X139602733Y-106922504D01*
X139464733Y-107014713D01*
X139292713Y-107186733D01*
X139157557Y-107389008D01*
X139064460Y-107613764D01*
X139017000Y-107852363D01*
X131724000Y-107852363D01*
X131724000Y-106052438D01*
X139013505Y-106052438D01*
X139052605Y-106292549D01*
X139137798Y-106520418D01*
X139178652Y-106596852D01*
X139402236Y-106644159D01*
X140072395Y-105974000D01*
X140431605Y-105974000D01*
X141101764Y-106644159D01*
X141325348Y-106596852D01*
X141426237Y-106375484D01*
X141482000Y-106138687D01*
X141490495Y-105895562D01*
X141451395Y-105655451D01*
X141366202Y-105427582D01*
X141325348Y-105351148D01*
X141101764Y-105303841D01*
X140431605Y-105974000D01*
X140072395Y-105974000D01*
X139402236Y-105303841D01*
X139178652Y-105351148D01*
X139077763Y-105572516D01*
X139022000Y-105809313D01*
X139013505Y-106052438D01*
X131724000Y-106052438D01*
X131724000Y-101852363D01*
X139017000Y-101852363D01*
X139017000Y-102095637D01*
X139064460Y-102334236D01*
X139157557Y-102558992D01*
X139292713Y-102761267D01*
X139464733Y-102933287D01*
X139525664Y-102974000D01*
X139464733Y-103014713D01*
X139292713Y-103186733D01*
X139157557Y-103389008D01*
X139064460Y-103613764D01*
X139017000Y-103852363D01*
X139017000Y-104095637D01*
X139064460Y-104334236D01*
X139157557Y-104558992D01*
X139292713Y-104761267D01*
X139464733Y-104933287D01*
X139602733Y-105025496D01*
X139581841Y-105124236D01*
X140252000Y-105794395D01*
X140922159Y-105124236D01*
X140901267Y-105025496D01*
X141039267Y-104933287D01*
X141120191Y-104852363D01*
X141767000Y-104852363D01*
X141767000Y-105095637D01*
X141814460Y-105334236D01*
X141907557Y-105558992D01*
X142042713Y-105761267D01*
X142214733Y-105933287D01*
X142275664Y-105974000D01*
X142214733Y-106014713D01*
X142042713Y-106186733D01*
X141907557Y-106389008D01*
X141814460Y-106613764D01*
X141767000Y-106852363D01*
X141767000Y-107095637D01*
X141814460Y-107334236D01*
X141907557Y-107558992D01*
X142042713Y-107761267D01*
X142214733Y-107933287D01*
X142417008Y-108068443D01*
X142641764Y-108161540D01*
X142880363Y-108209000D01*
X143123637Y-108209000D01*
X143362236Y-108161540D01*
X143586992Y-108068443D01*
X143789267Y-107933287D01*
X143870191Y-107852363D01*
X147517000Y-107852363D01*
X147517000Y-108095637D01*
X147564460Y-108334236D01*
X147657557Y-108558992D01*
X147792713Y-108761267D01*
X147964733Y-108933287D01*
X148025664Y-108974000D01*
X147964733Y-109014713D01*
X147792713Y-109186733D01*
X147657557Y-109389008D01*
X147564460Y-109613764D01*
X147517000Y-109852363D01*
X147517000Y-110095637D01*
X147564460Y-110334236D01*
X147657557Y-110558992D01*
X147792713Y-110761267D01*
X147964733Y-110933287D01*
X148167008Y-111068443D01*
X148391764Y-111161540D01*
X148630363Y-111209000D01*
X148873637Y-111209000D01*
X149112236Y-111161540D01*
X149336992Y-111068443D01*
X149539267Y-110933287D01*
X149711287Y-110761267D01*
X149846443Y-110558992D01*
X149939540Y-110334236D01*
X149987000Y-110095637D01*
X149987000Y-109852363D01*
X149939540Y-109613764D01*
X149846443Y-109389008D01*
X149821958Y-109352363D01*
X150267000Y-109352363D01*
X150267000Y-109595637D01*
X150314460Y-109834236D01*
X150407557Y-110058992D01*
X150542713Y-110261267D01*
X150714733Y-110433287D01*
X150917008Y-110568443D01*
X151141764Y-110661540D01*
X151380363Y-110709000D01*
X151623637Y-110709000D01*
X151862236Y-110661540D01*
X152086992Y-110568443D01*
X152289267Y-110433287D01*
X152461287Y-110261267D01*
X152596443Y-110058992D01*
X152689540Y-109834236D01*
X152737000Y-109595637D01*
X152737000Y-109352363D01*
X152689540Y-109113764D01*
X152596443Y-108889008D01*
X152461287Y-108686733D01*
X152289267Y-108514713D01*
X152086992Y-108379557D01*
X151862236Y-108286460D01*
X151623637Y-108239000D01*
X151380363Y-108239000D01*
X151141764Y-108286460D01*
X150917008Y-108379557D01*
X150714733Y-108514713D01*
X150542713Y-108686733D01*
X150407557Y-108889008D01*
X150314460Y-109113764D01*
X150267000Y-109352363D01*
X149821958Y-109352363D01*
X149711287Y-109186733D01*
X149539267Y-109014713D01*
X149478336Y-108974000D01*
X149539267Y-108933287D01*
X149711287Y-108761267D01*
X149846443Y-108558992D01*
X149939540Y-108334236D01*
X149987000Y-108095637D01*
X149987000Y-107852363D01*
X149939540Y-107613764D01*
X149846443Y-107389008D01*
X149711287Y-107186733D01*
X149539267Y-107014713D01*
X149401267Y-106922504D01*
X149422159Y-106823764D01*
X148752000Y-106153605D01*
X148081841Y-106823764D01*
X148102733Y-106922504D01*
X147964733Y-107014713D01*
X147792713Y-107186733D01*
X147657557Y-107389008D01*
X147564460Y-107613764D01*
X147517000Y-107852363D01*
X143870191Y-107852363D01*
X143961287Y-107761267D01*
X144096443Y-107558992D01*
X144189540Y-107334236D01*
X144237000Y-107095637D01*
X144237000Y-106852363D01*
X144189540Y-106613764D01*
X144096443Y-106389008D01*
X143961287Y-106186733D01*
X143826992Y-106052438D01*
X147513505Y-106052438D01*
X147552605Y-106292549D01*
X147637798Y-106520418D01*
X147678652Y-106596852D01*
X147902236Y-106644159D01*
X148572395Y-105974000D01*
X148931605Y-105974000D01*
X149601764Y-106644159D01*
X149825348Y-106596852D01*
X149926237Y-106375484D01*
X149982000Y-106138687D01*
X149990495Y-105895562D01*
X149951395Y-105655451D01*
X149866202Y-105427582D01*
X149825348Y-105351148D01*
X149601764Y-105303841D01*
X148931605Y-105974000D01*
X148572395Y-105974000D01*
X147902236Y-105303841D01*
X147678652Y-105351148D01*
X147577763Y-105572516D01*
X147522000Y-105809313D01*
X147513505Y-106052438D01*
X143826992Y-106052438D01*
X143789267Y-106014713D01*
X143728336Y-105974000D01*
X143789267Y-105933287D01*
X143961287Y-105761267D01*
X144096443Y-105558992D01*
X144189540Y-105334236D01*
X144237000Y-105095637D01*
X144237000Y-104852363D01*
X144189540Y-104613764D01*
X144096443Y-104389008D01*
X143961287Y-104186733D01*
X143789267Y-104014713D01*
X143586992Y-103879557D01*
X143362236Y-103786460D01*
X143123637Y-103739000D01*
X142880363Y-103739000D01*
X142641764Y-103786460D01*
X142417008Y-103879557D01*
X142214733Y-104014713D01*
X142042713Y-104186733D01*
X141907557Y-104389008D01*
X141814460Y-104613764D01*
X141767000Y-104852363D01*
X141120191Y-104852363D01*
X141211287Y-104761267D01*
X141346443Y-104558992D01*
X141439540Y-104334236D01*
X141487000Y-104095637D01*
X141487000Y-103852363D01*
X141439540Y-103613764D01*
X141346443Y-103389008D01*
X141302849Y-103323764D01*
X142331841Y-103323764D01*
X142379148Y-103547348D01*
X142600516Y-103648237D01*
X142837313Y-103704000D01*
X143080438Y-103712495D01*
X143320549Y-103673395D01*
X143548418Y-103588202D01*
X143624852Y-103547348D01*
X143672159Y-103323764D01*
X143002000Y-102653605D01*
X142331841Y-103323764D01*
X141302849Y-103323764D01*
X141211287Y-103186733D01*
X141039267Y-103014713D01*
X140978336Y-102974000D01*
X141039267Y-102933287D01*
X141211287Y-102761267D01*
X141346443Y-102558992D01*
X141349157Y-102552438D01*
X141763505Y-102552438D01*
X141802605Y-102792549D01*
X141887798Y-103020418D01*
X141928652Y-103096852D01*
X142152236Y-103144159D01*
X142822395Y-102474000D01*
X143181605Y-102474000D01*
X143851764Y-103144159D01*
X144075348Y-103096852D01*
X144176237Y-102875484D01*
X144232000Y-102638687D01*
X144240495Y-102395562D01*
X144201395Y-102155451D01*
X144116202Y-101927582D01*
X144075998Y-101852363D01*
X147517000Y-101852363D01*
X147517000Y-102095637D01*
X147564460Y-102334236D01*
X147657557Y-102558992D01*
X147792713Y-102761267D01*
X147964733Y-102933287D01*
X148025664Y-102974000D01*
X147964733Y-103014713D01*
X147792713Y-103186733D01*
X147657557Y-103389008D01*
X147564460Y-103613764D01*
X147517000Y-103852363D01*
X147517000Y-104095637D01*
X147564460Y-104334236D01*
X147657557Y-104558992D01*
X147792713Y-104761267D01*
X147964733Y-104933287D01*
X148102733Y-105025496D01*
X148081841Y-105124236D01*
X148752000Y-105794395D01*
X149422159Y-105124236D01*
X149401267Y-105025496D01*
X149539267Y-104933287D01*
X149620191Y-104852363D01*
X150267000Y-104852363D01*
X150267000Y-105095637D01*
X150314460Y-105334236D01*
X150407557Y-105558992D01*
X150542713Y-105761267D01*
X150714733Y-105933287D01*
X150775664Y-105974000D01*
X150714733Y-106014713D01*
X150542713Y-106186733D01*
X150407557Y-106389008D01*
X150314460Y-106613764D01*
X150267000Y-106852363D01*
X150267000Y-107095637D01*
X150314460Y-107334236D01*
X150407557Y-107558992D01*
X150542713Y-107761267D01*
X150714733Y-107933287D01*
X150917008Y-108068443D01*
X151141764Y-108161540D01*
X151380363Y-108209000D01*
X151623637Y-108209000D01*
X151862236Y-108161540D01*
X152086992Y-108068443D01*
X152289267Y-107933287D01*
X152461287Y-107761267D01*
X152596443Y-107558992D01*
X152689540Y-107334236D01*
X152737000Y-107095637D01*
X152737000Y-106852363D01*
X152689540Y-106613764D01*
X152596443Y-106389008D01*
X152461287Y-106186733D01*
X152289267Y-106014713D01*
X152228336Y-105974000D01*
X152289267Y-105933287D01*
X152461287Y-105761267D01*
X152596443Y-105558992D01*
X152689540Y-105334236D01*
X152737000Y-105095637D01*
X152737000Y-104852363D01*
X152689540Y-104613764D01*
X152596443Y-104389008D01*
X152461287Y-104186733D01*
X152289267Y-104014713D01*
X152086992Y-103879557D01*
X151862236Y-103786460D01*
X151623637Y-103739000D01*
X151380363Y-103739000D01*
X151141764Y-103786460D01*
X150917008Y-103879557D01*
X150714733Y-104014713D01*
X150542713Y-104186733D01*
X150407557Y-104389008D01*
X150314460Y-104613764D01*
X150267000Y-104852363D01*
X149620191Y-104852363D01*
X149711287Y-104761267D01*
X149846443Y-104558992D01*
X149939540Y-104334236D01*
X149987000Y-104095637D01*
X149987000Y-103852363D01*
X149939540Y-103613764D01*
X149846443Y-103389008D01*
X149802849Y-103323764D01*
X150831841Y-103323764D01*
X150879148Y-103547348D01*
X151100516Y-103648237D01*
X151337313Y-103704000D01*
X151580438Y-103712495D01*
X151820549Y-103673395D01*
X152048418Y-103588202D01*
X152124852Y-103547348D01*
X152172159Y-103323764D01*
X151502000Y-102653605D01*
X150831841Y-103323764D01*
X149802849Y-103323764D01*
X149711287Y-103186733D01*
X149539267Y-103014713D01*
X149478336Y-102974000D01*
X149539267Y-102933287D01*
X149711287Y-102761267D01*
X149846443Y-102558992D01*
X149849157Y-102552438D01*
X150263505Y-102552438D01*
X150302605Y-102792549D01*
X150387798Y-103020418D01*
X150428652Y-103096852D01*
X150652236Y-103144159D01*
X151322395Y-102474000D01*
X151681605Y-102474000D01*
X152351764Y-103144159D01*
X152575348Y-103096852D01*
X152676237Y-102875484D01*
X152732000Y-102638687D01*
X152740495Y-102395562D01*
X152701395Y-102155451D01*
X152616202Y-101927582D01*
X152575348Y-101851148D01*
X152351764Y-101803841D01*
X151681605Y-102474000D01*
X151322395Y-102474000D01*
X150652236Y-101803841D01*
X150428652Y-101851148D01*
X150327763Y-102072516D01*
X150272000Y-102309313D01*
X150263505Y-102552438D01*
X149849157Y-102552438D01*
X149939540Y-102334236D01*
X149987000Y-102095637D01*
X149987000Y-101852363D01*
X149941623Y-101624236D01*
X150831841Y-101624236D01*
X151502000Y-102294395D01*
X152172159Y-101624236D01*
X152124852Y-101400652D01*
X151903484Y-101299763D01*
X151666687Y-101244000D01*
X151423562Y-101235505D01*
X151183451Y-101274605D01*
X150955582Y-101359798D01*
X150879148Y-101400652D01*
X150831841Y-101624236D01*
X149941623Y-101624236D01*
X149939540Y-101613764D01*
X149846443Y-101389008D01*
X149711287Y-101186733D01*
X149539267Y-101014713D01*
X149450782Y-100955589D01*
X165747000Y-100955589D01*
X165747000Y-101228411D01*
X165800225Y-101495989D01*
X165904629Y-101748043D01*
X166056201Y-101974886D01*
X166249114Y-102167799D01*
X166475957Y-102319371D01*
X166578873Y-102362000D01*
X166475957Y-102404629D01*
X166249114Y-102556201D01*
X166056201Y-102749114D01*
X165904629Y-102975957D01*
X165800225Y-103228011D01*
X165747000Y-103495589D01*
X165747000Y-103768411D01*
X165800225Y-104035989D01*
X165904629Y-104288043D01*
X166056201Y-104514886D01*
X166249114Y-104707799D01*
X166475957Y-104859371D01*
X166578873Y-104902000D01*
X166475957Y-104944629D01*
X166249114Y-105096201D01*
X166056201Y-105289114D01*
X165904629Y-105515957D01*
X165800225Y-105768011D01*
X165747000Y-106035589D01*
X165747000Y-106308411D01*
X165800225Y-106575989D01*
X165904629Y-106828043D01*
X166056201Y-107054886D01*
X166249114Y-107247799D01*
X166475957Y-107399371D01*
X166578873Y-107442000D01*
X166475957Y-107484629D01*
X166249114Y-107636201D01*
X166056201Y-107829114D01*
X165904629Y-108055957D01*
X165800225Y-108308011D01*
X165747000Y-108575589D01*
X165747000Y-108848411D01*
X165800225Y-109115989D01*
X165904629Y-109368043D01*
X166056201Y-109594886D01*
X166249114Y-109787799D01*
X166475957Y-109939371D01*
X166728011Y-110043775D01*
X166995589Y-110097000D01*
X167268411Y-110097000D01*
X167535989Y-110043775D01*
X167788043Y-109939371D01*
X168014886Y-109787799D01*
X168207799Y-109594886D01*
X168283928Y-109480951D01*
X168283928Y-110732000D01*
X168296188Y-110856482D01*
X168332498Y-110976180D01*
X168391463Y-111086494D01*
X168470815Y-111183185D01*
X168567506Y-111262537D01*
X168677820Y-111321502D01*
X168797518Y-111357812D01*
X168922000Y-111370072D01*
X170259764Y-111370072D01*
X170231523Y-111398313D01*
X170045479Y-111676748D01*
X169917330Y-111986128D01*
X169852000Y-112314565D01*
X169852000Y-112649435D01*
X169917330Y-112977872D01*
X170045479Y-113287252D01*
X170231523Y-113565687D01*
X170468313Y-113802477D01*
X170746748Y-113988521D01*
X171056128Y-114116670D01*
X171384565Y-114182000D01*
X171719435Y-114182000D01*
X172047872Y-114116670D01*
X172357252Y-113988521D01*
X172635687Y-113802477D01*
X172872477Y-113565687D01*
X173058521Y-113287252D01*
X173186670Y-112977872D01*
X173252000Y-112649435D01*
X173252000Y-112314565D01*
X173186670Y-111986128D01*
X173058521Y-111676748D01*
X172872477Y-111398313D01*
X172635687Y-111161523D01*
X172357252Y-110975479D01*
X172047872Y-110847330D01*
X171719435Y-110782000D01*
X171384565Y-110782000D01*
X171056128Y-110847330D01*
X171048398Y-110850532D01*
X171060072Y-110732000D01*
X171060072Y-109232000D01*
X171047812Y-109107518D01*
X171011502Y-108987820D01*
X170952537Y-108877506D01*
X170873185Y-108780815D01*
X170776494Y-108701463D01*
X170666180Y-108642498D01*
X170546482Y-108606188D01*
X170438517Y-108595555D01*
X170554886Y-108517799D01*
X170747799Y-108324886D01*
X170899371Y-108098043D01*
X171003775Y-107845989D01*
X171057000Y-107578411D01*
X171057000Y-107305589D01*
X171003775Y-107038011D01*
X170899371Y-106785957D01*
X170747799Y-106559114D01*
X170554886Y-106366201D01*
X170328043Y-106214629D01*
X170225127Y-106172000D01*
X170328043Y-106129371D01*
X170554886Y-105977799D01*
X170747799Y-105784886D01*
X170899371Y-105558043D01*
X171003775Y-105305989D01*
X171057000Y-105038411D01*
X171057000Y-104765589D01*
X171003775Y-104498011D01*
X170899371Y-104245957D01*
X170747799Y-104019114D01*
X170554886Y-103826201D01*
X170328043Y-103674629D01*
X170225127Y-103632000D01*
X170328043Y-103589371D01*
X170554886Y-103437799D01*
X170747799Y-103244886D01*
X170899371Y-103018043D01*
X171003775Y-102765989D01*
X171057000Y-102498411D01*
X171057000Y-102225589D01*
X171003775Y-101958011D01*
X170899371Y-101705957D01*
X170747799Y-101479114D01*
X170554886Y-101286201D01*
X170328043Y-101134629D01*
X170075989Y-101030225D01*
X169808411Y-100977000D01*
X169535589Y-100977000D01*
X169268011Y-101030225D01*
X169015957Y-101134629D01*
X168789114Y-101286201D01*
X168596201Y-101479114D01*
X168444629Y-101705957D01*
X168340225Y-101958011D01*
X168287000Y-102225589D01*
X168287000Y-102498411D01*
X168340225Y-102765989D01*
X168444629Y-103018043D01*
X168596201Y-103244886D01*
X168789114Y-103437799D01*
X169015957Y-103589371D01*
X169118873Y-103632000D01*
X169015957Y-103674629D01*
X168789114Y-103826201D01*
X168596201Y-104019114D01*
X168444629Y-104245957D01*
X168340225Y-104498011D01*
X168287000Y-104765589D01*
X168287000Y-105038411D01*
X168340225Y-105305989D01*
X168444629Y-105558043D01*
X168596201Y-105784886D01*
X168789114Y-105977799D01*
X169015957Y-106129371D01*
X169118873Y-106172000D01*
X169015957Y-106214629D01*
X168789114Y-106366201D01*
X168596201Y-106559114D01*
X168444629Y-106785957D01*
X168340225Y-107038011D01*
X168287000Y-107305589D01*
X168287000Y-107578411D01*
X168340225Y-107845989D01*
X168444629Y-108098043D01*
X168596201Y-108324886D01*
X168789114Y-108517799D01*
X168905483Y-108595555D01*
X168797518Y-108606188D01*
X168677820Y-108642498D01*
X168567506Y-108701463D01*
X168517000Y-108742912D01*
X168517000Y-108575589D01*
X168463775Y-108308011D01*
X168359371Y-108055957D01*
X168207799Y-107829114D01*
X168014886Y-107636201D01*
X167788043Y-107484629D01*
X167685127Y-107442000D01*
X167788043Y-107399371D01*
X168014886Y-107247799D01*
X168207799Y-107054886D01*
X168359371Y-106828043D01*
X168463775Y-106575989D01*
X168517000Y-106308411D01*
X168517000Y-106035589D01*
X168463775Y-105768011D01*
X168359371Y-105515957D01*
X168207799Y-105289114D01*
X168014886Y-105096201D01*
X167788043Y-104944629D01*
X167685127Y-104902000D01*
X167788043Y-104859371D01*
X168014886Y-104707799D01*
X168207799Y-104514886D01*
X168359371Y-104288043D01*
X168463775Y-104035989D01*
X168517000Y-103768411D01*
X168517000Y-103495589D01*
X168463775Y-103228011D01*
X168359371Y-102975957D01*
X168207799Y-102749114D01*
X168014886Y-102556201D01*
X167788043Y-102404629D01*
X167685127Y-102362000D01*
X167788043Y-102319371D01*
X168014886Y-102167799D01*
X168207799Y-101974886D01*
X168359371Y-101748043D01*
X168463775Y-101495989D01*
X168517000Y-101228411D01*
X168517000Y-100955589D01*
X168463775Y-100688011D01*
X168359371Y-100435957D01*
X168207799Y-100209114D01*
X168014886Y-100016201D01*
X167788043Y-99864629D01*
X167535989Y-99760225D01*
X167268411Y-99707000D01*
X166995589Y-99707000D01*
X166728011Y-99760225D01*
X166475957Y-99864629D01*
X166249114Y-100016201D01*
X166056201Y-100209114D01*
X165904629Y-100435957D01*
X165800225Y-100688011D01*
X165747000Y-100955589D01*
X149450782Y-100955589D01*
X149336992Y-100879557D01*
X149112236Y-100786460D01*
X148873637Y-100739000D01*
X148630363Y-100739000D01*
X148391764Y-100786460D01*
X148167008Y-100879557D01*
X147964733Y-101014713D01*
X147792713Y-101186733D01*
X147657557Y-101389008D01*
X147564460Y-101613764D01*
X147517000Y-101852363D01*
X144075998Y-101852363D01*
X144075348Y-101851148D01*
X143851764Y-101803841D01*
X143181605Y-102474000D01*
X142822395Y-102474000D01*
X142152236Y-101803841D01*
X141928652Y-101851148D01*
X141827763Y-102072516D01*
X141772000Y-102309313D01*
X141763505Y-102552438D01*
X141349157Y-102552438D01*
X141439540Y-102334236D01*
X141487000Y-102095637D01*
X141487000Y-101852363D01*
X141441623Y-101624236D01*
X142331841Y-101624236D01*
X143002000Y-102294395D01*
X143672159Y-101624236D01*
X143624852Y-101400652D01*
X143403484Y-101299763D01*
X143166687Y-101244000D01*
X142923562Y-101235505D01*
X142683451Y-101274605D01*
X142455582Y-101359798D01*
X142379148Y-101400652D01*
X142331841Y-101624236D01*
X141441623Y-101624236D01*
X141439540Y-101613764D01*
X141346443Y-101389008D01*
X141211287Y-101186733D01*
X141039267Y-101014713D01*
X140836992Y-100879557D01*
X140612236Y-100786460D01*
X140373637Y-100739000D01*
X140130363Y-100739000D01*
X139891764Y-100786460D01*
X139667008Y-100879557D01*
X139464733Y-101014713D01*
X139292713Y-101186733D01*
X139157557Y-101389008D01*
X139064460Y-101613764D01*
X139017000Y-101852363D01*
X131724000Y-101852363D01*
X131724000Y-99875874D01*
X139032881Y-99875874D01*
X139112724Y-100098976D01*
X139234631Y-100286764D01*
X139390831Y-100447161D01*
X139575322Y-100574003D01*
X139781013Y-100662415D01*
X140000000Y-100709000D01*
X141500000Y-100709000D01*
X141500000Y-99701000D01*
X141754000Y-99701000D01*
X141754000Y-100709000D01*
X143254000Y-100709000D01*
X143472987Y-100662415D01*
X143678678Y-100574003D01*
X143863169Y-100447161D01*
X144019369Y-100286764D01*
X144141276Y-100098976D01*
X144221119Y-99875874D01*
X147532881Y-99875874D01*
X147612724Y-100098976D01*
X147734631Y-100286764D01*
X147890831Y-100447161D01*
X148075322Y-100574003D01*
X148281013Y-100662415D01*
X148500000Y-100709000D01*
X150000000Y-100709000D01*
X150000000Y-99701000D01*
X150254000Y-99701000D01*
X150254000Y-100709000D01*
X151754000Y-100709000D01*
X151972987Y-100662415D01*
X152178678Y-100574003D01*
X152363169Y-100447161D01*
X152519369Y-100286764D01*
X152641276Y-100098976D01*
X152721119Y-99875874D01*
X152594954Y-99701000D01*
X150254000Y-99701000D01*
X150000000Y-99701000D01*
X147659046Y-99701000D01*
X147532881Y-99875874D01*
X144221119Y-99875874D01*
X144094954Y-99701000D01*
X141754000Y-99701000D01*
X141500000Y-99701000D01*
X139159046Y-99701000D01*
X139032881Y-99875874D01*
X131724000Y-99875874D01*
X131724000Y-99272126D01*
X139032881Y-99272126D01*
X139159046Y-99447000D01*
X141500000Y-99447000D01*
X141500000Y-98439000D01*
X141754000Y-98439000D01*
X141754000Y-99447000D01*
X144094954Y-99447000D01*
X144221119Y-99272126D01*
X147532881Y-99272126D01*
X147659046Y-99447000D01*
X150000000Y-99447000D01*
X150000000Y-98439000D01*
X150254000Y-98439000D01*
X150254000Y-99447000D01*
X152594954Y-99447000D01*
X152721119Y-99272126D01*
X152641276Y-99049024D01*
X152519369Y-98861236D01*
X152363169Y-98700839D01*
X152178678Y-98573997D01*
X151972987Y-98485585D01*
X151754000Y-98439000D01*
X150254000Y-98439000D01*
X150000000Y-98439000D01*
X148500000Y-98439000D01*
X148281013Y-98485585D01*
X148075322Y-98573997D01*
X147890831Y-98700839D01*
X147734631Y-98861236D01*
X147612724Y-99049024D01*
X147532881Y-99272126D01*
X144221119Y-99272126D01*
X144141276Y-99049024D01*
X144019369Y-98861236D01*
X143863169Y-98700839D01*
X143678678Y-98573997D01*
X143472987Y-98485585D01*
X143254000Y-98439000D01*
X141754000Y-98439000D01*
X141500000Y-98439000D01*
X140000000Y-98439000D01*
X139781013Y-98485585D01*
X139575322Y-98573997D01*
X139390831Y-98700839D01*
X139234631Y-98861236D01*
X139112724Y-99049024D01*
X139032881Y-99272126D01*
X131724000Y-99272126D01*
X131724000Y-98414565D01*
X169852000Y-98414565D01*
X169852000Y-98749435D01*
X169917330Y-99077872D01*
X170045479Y-99387252D01*
X170231523Y-99665687D01*
X170468313Y-99902477D01*
X170746748Y-100088521D01*
X171056128Y-100216670D01*
X171384565Y-100282000D01*
X171719435Y-100282000D01*
X172047872Y-100216670D01*
X172357252Y-100088521D01*
X172635687Y-99902477D01*
X172872477Y-99665687D01*
X173058521Y-99387252D01*
X173186670Y-99077872D01*
X173252000Y-98749435D01*
X173252000Y-98414565D01*
X173186670Y-98086128D01*
X173058521Y-97776748D01*
X172872477Y-97498313D01*
X172635687Y-97261523D01*
X172357252Y-97075479D01*
X172047872Y-96947330D01*
X171719435Y-96882000D01*
X171384565Y-96882000D01*
X171056128Y-96947330D01*
X170746748Y-97075479D01*
X170468313Y-97261523D01*
X170231523Y-97498313D01*
X170045479Y-97776748D01*
X169917330Y-98086128D01*
X169852000Y-98414565D01*
X131724000Y-98414565D01*
X131724000Y-85227653D01*
X138111952Y-85227653D01*
X138267962Y-85543214D01*
X138642745Y-85734020D01*
X139047551Y-85848044D01*
X139466824Y-85880902D01*
X139884451Y-85831334D01*
X140284383Y-85701243D01*
X140580038Y-85543214D01*
X140736048Y-85227653D01*
X151251952Y-85227653D01*
X151407962Y-85543214D01*
X151782745Y-85734020D01*
X152187551Y-85848044D01*
X152606824Y-85880902D01*
X153024451Y-85831334D01*
X153424383Y-85701243D01*
X153720038Y-85543214D01*
X153876048Y-85227653D01*
X163511952Y-85227653D01*
X163667962Y-85543214D01*
X164042745Y-85734020D01*
X164447551Y-85848044D01*
X164866824Y-85880902D01*
X165284451Y-85831334D01*
X165684383Y-85701243D01*
X165980038Y-85543214D01*
X166136048Y-85227653D01*
X176651952Y-85227653D01*
X176807962Y-85543214D01*
X177182745Y-85734020D01*
X177587551Y-85848044D01*
X178006824Y-85880902D01*
X178424451Y-85831334D01*
X178824383Y-85701243D01*
X179120038Y-85543214D01*
X179276048Y-85227653D01*
X177964000Y-83915605D01*
X176651952Y-85227653D01*
X166136048Y-85227653D01*
X164824000Y-83915605D01*
X163511952Y-85227653D01*
X153876048Y-85227653D01*
X152564000Y-83915605D01*
X151251952Y-85227653D01*
X140736048Y-85227653D01*
X139424000Y-83915605D01*
X138111952Y-85227653D01*
X131724000Y-85227653D01*
X131724000Y-83778824D01*
X137279098Y-83778824D01*
X137328666Y-84196451D01*
X137458757Y-84596383D01*
X137616786Y-84892038D01*
X137932347Y-85048048D01*
X139244395Y-83736000D01*
X139603605Y-83736000D01*
X140915653Y-85048048D01*
X141231214Y-84892038D01*
X141422020Y-84517255D01*
X141536044Y-84112449D01*
X141562189Y-83778824D01*
X150419098Y-83778824D01*
X150468666Y-84196451D01*
X150598757Y-84596383D01*
X150756786Y-84892038D01*
X151072347Y-85048048D01*
X152384395Y-83736000D01*
X152743605Y-83736000D01*
X154055653Y-85048048D01*
X154371214Y-84892038D01*
X154562020Y-84517255D01*
X154676044Y-84112449D01*
X154702189Y-83778824D01*
X162679098Y-83778824D01*
X162728666Y-84196451D01*
X162858757Y-84596383D01*
X163016786Y-84892038D01*
X163332347Y-85048048D01*
X164644395Y-83736000D01*
X165003605Y-83736000D01*
X166315653Y-85048048D01*
X166631214Y-84892038D01*
X166822020Y-84517255D01*
X166936044Y-84112449D01*
X166962189Y-83778824D01*
X175819098Y-83778824D01*
X175868666Y-84196451D01*
X175998757Y-84596383D01*
X176156786Y-84892038D01*
X176472347Y-85048048D01*
X177784395Y-83736000D01*
X178143605Y-83736000D01*
X179455653Y-85048048D01*
X179771214Y-84892038D01*
X179962020Y-84517255D01*
X180076044Y-84112449D01*
X180108902Y-83693176D01*
X180059334Y-83275549D01*
X179929243Y-82875617D01*
X179771214Y-82579962D01*
X179455653Y-82423952D01*
X178143605Y-83736000D01*
X177784395Y-83736000D01*
X176472347Y-82423952D01*
X176156786Y-82579962D01*
X175965980Y-82954745D01*
X175851956Y-83359551D01*
X175819098Y-83778824D01*
X166962189Y-83778824D01*
X166968902Y-83693176D01*
X166919334Y-83275549D01*
X166789243Y-82875617D01*
X166631214Y-82579962D01*
X166315653Y-82423952D01*
X165003605Y-83736000D01*
X164644395Y-83736000D01*
X163332347Y-82423952D01*
X163016786Y-82579962D01*
X162825980Y-82954745D01*
X162711956Y-83359551D01*
X162679098Y-83778824D01*
X154702189Y-83778824D01*
X154708902Y-83693176D01*
X154659334Y-83275549D01*
X154529243Y-82875617D01*
X154371214Y-82579962D01*
X154055653Y-82423952D01*
X152743605Y-83736000D01*
X152384395Y-83736000D01*
X151072347Y-82423952D01*
X150756786Y-82579962D01*
X150565980Y-82954745D01*
X150451956Y-83359551D01*
X150419098Y-83778824D01*
X141562189Y-83778824D01*
X141568902Y-83693176D01*
X141519334Y-83275549D01*
X141389243Y-82875617D01*
X141231214Y-82579962D01*
X140915653Y-82423952D01*
X139603605Y-83736000D01*
X139244395Y-83736000D01*
X137932347Y-82423952D01*
X137616786Y-82579962D01*
X137425980Y-82954745D01*
X137311956Y-83359551D01*
X137279098Y-83778824D01*
X131724000Y-83778824D01*
X131724000Y-82244347D01*
X138111952Y-82244347D01*
X139424000Y-83556395D01*
X140736048Y-82244347D01*
X140580038Y-81928786D01*
X140205255Y-81737980D01*
X139800449Y-81623956D01*
X139381176Y-81591098D01*
X138963549Y-81640666D01*
X138563617Y-81770757D01*
X138267962Y-81928786D01*
X138111952Y-82244347D01*
X131724000Y-82244347D01*
X131724000Y-80889589D01*
X141109000Y-80889589D01*
X141109000Y-81162411D01*
X141162225Y-81429989D01*
X141266629Y-81682043D01*
X141418201Y-81908886D01*
X141611114Y-82101799D01*
X141837957Y-82253371D01*
X142090011Y-82357775D01*
X142357589Y-82411000D01*
X142630411Y-82411000D01*
X142897989Y-82357775D01*
X143150043Y-82253371D01*
X143376886Y-82101799D01*
X143569799Y-81908886D01*
X143721371Y-81682043D01*
X143764000Y-81579127D01*
X143806629Y-81682043D01*
X143958201Y-81908886D01*
X144151114Y-82101799D01*
X144377957Y-82253371D01*
X144630011Y-82357775D01*
X144897589Y-82411000D01*
X145170411Y-82411000D01*
X145437989Y-82357775D01*
X145690043Y-82253371D01*
X145916886Y-82101799D01*
X146034000Y-81984685D01*
X146151114Y-82101799D01*
X146377957Y-82253371D01*
X146630011Y-82357775D01*
X146897589Y-82411000D01*
X147170411Y-82411000D01*
X147437989Y-82357775D01*
X147690043Y-82253371D01*
X147916886Y-82101799D01*
X148035692Y-81982993D01*
X148716612Y-81982993D01*
X148782137Y-82221860D01*
X149029116Y-82337760D01*
X149293960Y-82403250D01*
X149566492Y-82415812D01*
X149836238Y-82374965D01*
X150092832Y-82282277D01*
X150163793Y-82244347D01*
X151251952Y-82244347D01*
X152564000Y-83556395D01*
X153876048Y-82244347D01*
X163511952Y-82244347D01*
X164824000Y-83556395D01*
X166136048Y-82244347D01*
X165980038Y-81928786D01*
X165605255Y-81737980D01*
X165200449Y-81623956D01*
X164781176Y-81591098D01*
X164363549Y-81640666D01*
X163963617Y-81770757D01*
X163667962Y-81928786D01*
X163511952Y-82244347D01*
X153876048Y-82244347D01*
X153720038Y-81928786D01*
X153345255Y-81737980D01*
X152940449Y-81623956D01*
X152521176Y-81591098D01*
X152103549Y-81640666D01*
X151703617Y-81770757D01*
X151407962Y-81928786D01*
X151251952Y-82244347D01*
X150163793Y-82244347D01*
X150205863Y-82221860D01*
X150271388Y-81982993D01*
X149494000Y-81205605D01*
X148716612Y-81982993D01*
X148035692Y-81982993D01*
X148109799Y-81908886D01*
X148261371Y-81682043D01*
X148264398Y-81674736D01*
X148298140Y-81737863D01*
X148537007Y-81803388D01*
X149314395Y-81026000D01*
X149673605Y-81026000D01*
X150450993Y-81803388D01*
X150689860Y-81737863D01*
X150805760Y-81490884D01*
X150871250Y-81226040D01*
X150883812Y-80953508D01*
X150874133Y-80889589D01*
X166509000Y-80889589D01*
X166509000Y-81162411D01*
X166562225Y-81429989D01*
X166666629Y-81682043D01*
X166818201Y-81908886D01*
X167011114Y-82101799D01*
X167237957Y-82253371D01*
X167490011Y-82357775D01*
X167757589Y-82411000D01*
X168030411Y-82411000D01*
X168297989Y-82357775D01*
X168550043Y-82253371D01*
X168776886Y-82101799D01*
X168969799Y-81908886D01*
X169121371Y-81682043D01*
X169164000Y-81579127D01*
X169206629Y-81682043D01*
X169358201Y-81908886D01*
X169551114Y-82101799D01*
X169777957Y-82253371D01*
X170030011Y-82357775D01*
X170297589Y-82411000D01*
X170570411Y-82411000D01*
X170837989Y-82357775D01*
X171090043Y-82253371D01*
X171316886Y-82101799D01*
X171434000Y-81984685D01*
X171551114Y-82101799D01*
X171777957Y-82253371D01*
X172030011Y-82357775D01*
X172297589Y-82411000D01*
X172570411Y-82411000D01*
X172837989Y-82357775D01*
X173090043Y-82253371D01*
X173316886Y-82101799D01*
X173435692Y-81982993D01*
X174116612Y-81982993D01*
X174182137Y-82221860D01*
X174429116Y-82337760D01*
X174693960Y-82403250D01*
X174966492Y-82415812D01*
X175236238Y-82374965D01*
X175492832Y-82282277D01*
X175563793Y-82244347D01*
X176651952Y-82244347D01*
X177964000Y-83556395D01*
X179276048Y-82244347D01*
X179120038Y-81928786D01*
X178745255Y-81737980D01*
X178340449Y-81623956D01*
X177921176Y-81591098D01*
X177503549Y-81640666D01*
X177103617Y-81770757D01*
X176807962Y-81928786D01*
X176651952Y-82244347D01*
X175563793Y-82244347D01*
X175605863Y-82221860D01*
X175671388Y-81982993D01*
X174894000Y-81205605D01*
X174116612Y-81982993D01*
X173435692Y-81982993D01*
X173509799Y-81908886D01*
X173661371Y-81682043D01*
X173664398Y-81674736D01*
X173698140Y-81737863D01*
X173937007Y-81803388D01*
X174714395Y-81026000D01*
X175073605Y-81026000D01*
X175850993Y-81803388D01*
X176089860Y-81737863D01*
X176205760Y-81490884D01*
X176271250Y-81226040D01*
X176283812Y-80953508D01*
X176242965Y-80683762D01*
X176150277Y-80427168D01*
X176089860Y-80314137D01*
X175850993Y-80248612D01*
X175073605Y-81026000D01*
X174714395Y-81026000D01*
X173937007Y-80248612D01*
X173698140Y-80314137D01*
X173666329Y-80381926D01*
X173661371Y-80369957D01*
X173509799Y-80143114D01*
X173435692Y-80069007D01*
X174116612Y-80069007D01*
X174894000Y-80846395D01*
X175671388Y-80069007D01*
X175605863Y-79830140D01*
X175358884Y-79714240D01*
X175094040Y-79648750D01*
X174821508Y-79636188D01*
X174551762Y-79677035D01*
X174295168Y-79769723D01*
X174182137Y-79830140D01*
X174116612Y-80069007D01*
X173435692Y-80069007D01*
X173316886Y-79950201D01*
X173090043Y-79798629D01*
X172837989Y-79694225D01*
X172570411Y-79641000D01*
X172297589Y-79641000D01*
X172030011Y-79694225D01*
X171777957Y-79798629D01*
X171551114Y-79950201D01*
X171434000Y-80067315D01*
X171316886Y-79950201D01*
X171090043Y-79798629D01*
X170837989Y-79694225D01*
X170570411Y-79641000D01*
X170297589Y-79641000D01*
X170030011Y-79694225D01*
X169777957Y-79798629D01*
X169551114Y-79950201D01*
X169358201Y-80143114D01*
X169206629Y-80369957D01*
X169164000Y-80472873D01*
X169121371Y-80369957D01*
X168969799Y-80143114D01*
X168776886Y-79950201D01*
X168550043Y-79798629D01*
X168297989Y-79694225D01*
X168030411Y-79641000D01*
X167757589Y-79641000D01*
X167490011Y-79694225D01*
X167237957Y-79798629D01*
X167011114Y-79950201D01*
X166818201Y-80143114D01*
X166666629Y-80369957D01*
X166562225Y-80622011D01*
X166509000Y-80889589D01*
X150874133Y-80889589D01*
X150842965Y-80683762D01*
X150750277Y-80427168D01*
X150689860Y-80314137D01*
X150450993Y-80248612D01*
X149673605Y-81026000D01*
X149314395Y-81026000D01*
X148537007Y-80248612D01*
X148298140Y-80314137D01*
X148266329Y-80381926D01*
X148261371Y-80369957D01*
X148109799Y-80143114D01*
X148035692Y-80069007D01*
X148716612Y-80069007D01*
X149494000Y-80846395D01*
X150271388Y-80069007D01*
X150205863Y-79830140D01*
X149958884Y-79714240D01*
X149694040Y-79648750D01*
X149421508Y-79636188D01*
X149151762Y-79677035D01*
X148895168Y-79769723D01*
X148782137Y-79830140D01*
X148716612Y-80069007D01*
X148035692Y-80069007D01*
X147916886Y-79950201D01*
X147690043Y-79798629D01*
X147437989Y-79694225D01*
X147170411Y-79641000D01*
X146897589Y-79641000D01*
X146630011Y-79694225D01*
X146377957Y-79798629D01*
X146151114Y-79950201D01*
X146034000Y-80067315D01*
X145916886Y-79950201D01*
X145690043Y-79798629D01*
X145437989Y-79694225D01*
X145170411Y-79641000D01*
X144897589Y-79641000D01*
X144630011Y-79694225D01*
X144377957Y-79798629D01*
X144151114Y-79950201D01*
X143958201Y-80143114D01*
X143806629Y-80369957D01*
X143764000Y-80472873D01*
X143721371Y-80369957D01*
X143569799Y-80143114D01*
X143376886Y-79950201D01*
X143150043Y-79798629D01*
X142897989Y-79694225D01*
X142630411Y-79641000D01*
X142357589Y-79641000D01*
X142090011Y-79694225D01*
X141837957Y-79798629D01*
X141611114Y-79950201D01*
X141418201Y-80143114D01*
X141266629Y-80369957D01*
X141162225Y-80622011D01*
X141109000Y-80889589D01*
X131724000Y-80889589D01*
X131724000Y-74066000D01*
X185404000Y-74066000D01*
X185404001Y-130246000D01*
M02*
