G04 #@! TF.GenerationSoftware,KiCad,Pcbnew,(5.1.2)-1*
G04 #@! TF.CreationDate,2019-10-11T14:20:38-04:00*
G04 #@! TF.ProjectId,faceplate,66616365-706c-4617-9465-2e6b69636164,rev?*
G04 #@! TF.SameCoordinates,Original*
G04 #@! TF.FileFunction,Soldermask,Top*
G04 #@! TF.FilePolarity,Negative*
%FSLAX46Y46*%
G04 Gerber Fmt 4.6, Leading zero omitted, Abs format (unit mm)*
G04 Created by KiCad (PCBNEW (5.1.2)-1) date 2019-10-11 14:20:38*
%MOMM*%
%LPD*%
G04 APERTURE LIST*
%ADD10C,0.100000*%
G04 APERTURE END LIST*
D10*
G36*
X181320000Y-128932000D02*
G01*
X179868000Y-128932000D01*
X179868000Y-127480000D01*
X181320000Y-127480000D01*
X181320000Y-128932000D01*
X181320000Y-128932000D01*
G37*
G36*
X178665213Y-127483502D02*
G01*
X178736321Y-127490505D01*
X178873172Y-127532019D01*
X178873175Y-127532020D01*
X178999294Y-127599432D01*
X179109843Y-127690157D01*
X179200568Y-127800706D01*
X179267980Y-127926825D01*
X179267981Y-127926828D01*
X179309495Y-128063679D01*
X179323512Y-128206000D01*
X179309495Y-128348321D01*
X179267981Y-128485172D01*
X179267980Y-128485175D01*
X179200568Y-128611294D01*
X179109843Y-128721843D01*
X178999294Y-128812568D01*
X178873175Y-128879980D01*
X178873172Y-128879981D01*
X178736321Y-128921495D01*
X178665213Y-128928498D01*
X178629660Y-128932000D01*
X178558340Y-128932000D01*
X178522787Y-128928498D01*
X178451679Y-128921495D01*
X178314828Y-128879981D01*
X178314825Y-128879980D01*
X178188706Y-128812568D01*
X178078157Y-128721843D01*
X177987432Y-128611294D01*
X177920020Y-128485175D01*
X177920019Y-128485172D01*
X177878505Y-128348321D01*
X177864488Y-128206000D01*
X177878505Y-128063679D01*
X177920019Y-127926828D01*
X177920020Y-127926825D01*
X177987432Y-127800706D01*
X178078157Y-127690157D01*
X178188706Y-127599432D01*
X178314825Y-127532020D01*
X178314828Y-127532019D01*
X178451679Y-127490505D01*
X178522787Y-127483502D01*
X178558340Y-127480000D01*
X178629660Y-127480000D01*
X178665213Y-127483502D01*
X178665213Y-127483502D01*
G37*
G36*
X178665213Y-125483502D02*
G01*
X178736321Y-125490505D01*
X178873172Y-125532019D01*
X178873175Y-125532020D01*
X178999294Y-125599432D01*
X179109843Y-125690157D01*
X179200568Y-125800706D01*
X179267980Y-125926825D01*
X179267981Y-125926828D01*
X179309495Y-126063679D01*
X179323512Y-126206000D01*
X179309495Y-126348321D01*
X179267981Y-126485172D01*
X179267980Y-126485175D01*
X179200568Y-126611294D01*
X179109843Y-126721843D01*
X178999294Y-126812568D01*
X178873175Y-126879980D01*
X178873172Y-126879981D01*
X178736321Y-126921495D01*
X178665213Y-126928498D01*
X178629660Y-126932000D01*
X178558340Y-126932000D01*
X178522787Y-126928498D01*
X178451679Y-126921495D01*
X178314828Y-126879981D01*
X178314825Y-126879980D01*
X178188706Y-126812568D01*
X178078157Y-126721843D01*
X177987432Y-126611294D01*
X177920020Y-126485175D01*
X177920019Y-126485172D01*
X177878505Y-126348321D01*
X177864488Y-126206000D01*
X177878505Y-126063679D01*
X177920019Y-125926828D01*
X177920020Y-125926825D01*
X177987432Y-125800706D01*
X178078157Y-125690157D01*
X178188706Y-125599432D01*
X178314825Y-125532020D01*
X178314828Y-125532019D01*
X178451679Y-125490505D01*
X178522787Y-125483502D01*
X178558340Y-125480000D01*
X178629660Y-125480000D01*
X178665213Y-125483502D01*
X178665213Y-125483502D01*
G37*
G36*
X180665213Y-125483502D02*
G01*
X180736321Y-125490505D01*
X180873172Y-125532019D01*
X180873175Y-125532020D01*
X180999294Y-125599432D01*
X181109843Y-125690157D01*
X181200568Y-125800706D01*
X181267980Y-125926825D01*
X181267981Y-125926828D01*
X181309495Y-126063679D01*
X181323512Y-126206000D01*
X181309495Y-126348321D01*
X181267981Y-126485172D01*
X181267980Y-126485175D01*
X181200568Y-126611294D01*
X181109843Y-126721843D01*
X180999294Y-126812568D01*
X180873175Y-126879980D01*
X180873172Y-126879981D01*
X180736321Y-126921495D01*
X180665213Y-126928498D01*
X180629660Y-126932000D01*
X180558340Y-126932000D01*
X180522787Y-126928498D01*
X180451679Y-126921495D01*
X180314828Y-126879981D01*
X180314825Y-126879980D01*
X180188706Y-126812568D01*
X180078157Y-126721843D01*
X179987432Y-126611294D01*
X179920020Y-126485175D01*
X179920019Y-126485172D01*
X179878505Y-126348321D01*
X179864488Y-126206000D01*
X179878505Y-126063679D01*
X179920019Y-125926828D01*
X179920020Y-125926825D01*
X179987432Y-125800706D01*
X180078157Y-125690157D01*
X180188706Y-125599432D01*
X180314825Y-125532020D01*
X180314828Y-125532019D01*
X180451679Y-125490505D01*
X180522787Y-125483502D01*
X180558340Y-125480000D01*
X180629660Y-125480000D01*
X180665213Y-125483502D01*
X180665213Y-125483502D01*
G37*
G36*
X180665213Y-123483502D02*
G01*
X180736321Y-123490505D01*
X180873172Y-123532019D01*
X180873175Y-123532020D01*
X180999294Y-123599432D01*
X181109843Y-123690157D01*
X181200568Y-123800706D01*
X181267980Y-123926825D01*
X181267981Y-123926828D01*
X181309495Y-124063679D01*
X181323512Y-124206000D01*
X181309495Y-124348321D01*
X181267981Y-124485172D01*
X181267980Y-124485175D01*
X181200568Y-124611294D01*
X181109843Y-124721843D01*
X180999294Y-124812568D01*
X180873175Y-124879980D01*
X180873172Y-124879981D01*
X180736321Y-124921495D01*
X180665213Y-124928498D01*
X180629660Y-124932000D01*
X180558340Y-124932000D01*
X180522787Y-124928498D01*
X180451679Y-124921495D01*
X180314828Y-124879981D01*
X180314825Y-124879980D01*
X180188706Y-124812568D01*
X180078157Y-124721843D01*
X179987432Y-124611294D01*
X179920020Y-124485175D01*
X179920019Y-124485172D01*
X179878505Y-124348321D01*
X179864488Y-124206000D01*
X179878505Y-124063679D01*
X179920019Y-123926828D01*
X179920020Y-123926825D01*
X179987432Y-123800706D01*
X180078157Y-123690157D01*
X180188706Y-123599432D01*
X180314825Y-123532020D01*
X180314828Y-123532019D01*
X180451679Y-123490505D01*
X180522787Y-123483502D01*
X180558340Y-123480000D01*
X180629660Y-123480000D01*
X180665213Y-123483502D01*
X180665213Y-123483502D01*
G37*
G36*
X178665213Y-123483502D02*
G01*
X178736321Y-123490505D01*
X178873172Y-123532019D01*
X178873175Y-123532020D01*
X178999294Y-123599432D01*
X179109843Y-123690157D01*
X179200568Y-123800706D01*
X179267980Y-123926825D01*
X179267981Y-123926828D01*
X179309495Y-124063679D01*
X179323512Y-124206000D01*
X179309495Y-124348321D01*
X179267981Y-124485172D01*
X179267980Y-124485175D01*
X179200568Y-124611294D01*
X179109843Y-124721843D01*
X178999294Y-124812568D01*
X178873175Y-124879980D01*
X178873172Y-124879981D01*
X178736321Y-124921495D01*
X178665213Y-124928498D01*
X178629660Y-124932000D01*
X178558340Y-124932000D01*
X178522787Y-124928498D01*
X178451679Y-124921495D01*
X178314828Y-124879981D01*
X178314825Y-124879980D01*
X178188706Y-124812568D01*
X178078157Y-124721843D01*
X177987432Y-124611294D01*
X177920020Y-124485175D01*
X177920019Y-124485172D01*
X177878505Y-124348321D01*
X177864488Y-124206000D01*
X177878505Y-124063679D01*
X177920019Y-123926828D01*
X177920020Y-123926825D01*
X177987432Y-123800706D01*
X178078157Y-123690157D01*
X178188706Y-123599432D01*
X178314825Y-123532020D01*
X178314828Y-123532019D01*
X178451679Y-123490505D01*
X178522787Y-123483502D01*
X178558340Y-123480000D01*
X178629660Y-123480000D01*
X178665213Y-123483502D01*
X178665213Y-123483502D01*
G37*
G36*
X178665213Y-121483502D02*
G01*
X178736321Y-121490505D01*
X178873172Y-121532019D01*
X178873175Y-121532020D01*
X178999294Y-121599432D01*
X179109843Y-121690157D01*
X179200568Y-121800706D01*
X179267980Y-121926825D01*
X179267981Y-121926828D01*
X179309495Y-122063679D01*
X179323512Y-122206000D01*
X179309495Y-122348321D01*
X179267981Y-122485172D01*
X179267980Y-122485175D01*
X179200568Y-122611294D01*
X179109843Y-122721843D01*
X178999294Y-122812568D01*
X178873175Y-122879980D01*
X178873172Y-122879981D01*
X178736321Y-122921495D01*
X178665213Y-122928498D01*
X178629660Y-122932000D01*
X178558340Y-122932000D01*
X178522787Y-122928498D01*
X178451679Y-122921495D01*
X178314828Y-122879981D01*
X178314825Y-122879980D01*
X178188706Y-122812568D01*
X178078157Y-122721843D01*
X177987432Y-122611294D01*
X177920020Y-122485175D01*
X177920019Y-122485172D01*
X177878505Y-122348321D01*
X177864488Y-122206000D01*
X177878505Y-122063679D01*
X177920019Y-121926828D01*
X177920020Y-121926825D01*
X177987432Y-121800706D01*
X178078157Y-121690157D01*
X178188706Y-121599432D01*
X178314825Y-121532020D01*
X178314828Y-121532019D01*
X178451679Y-121490505D01*
X178522787Y-121483502D01*
X178558340Y-121480000D01*
X178629660Y-121480000D01*
X178665213Y-121483502D01*
X178665213Y-121483502D01*
G37*
G36*
X180665213Y-121483502D02*
G01*
X180736321Y-121490505D01*
X180873172Y-121532019D01*
X180873175Y-121532020D01*
X180999294Y-121599432D01*
X181109843Y-121690157D01*
X181200568Y-121800706D01*
X181267980Y-121926825D01*
X181267981Y-121926828D01*
X181309495Y-122063679D01*
X181323512Y-122206000D01*
X181309495Y-122348321D01*
X181267981Y-122485172D01*
X181267980Y-122485175D01*
X181200568Y-122611294D01*
X181109843Y-122721843D01*
X180999294Y-122812568D01*
X180873175Y-122879980D01*
X180873172Y-122879981D01*
X180736321Y-122921495D01*
X180665213Y-122928498D01*
X180629660Y-122932000D01*
X180558340Y-122932000D01*
X180522787Y-122928498D01*
X180451679Y-122921495D01*
X180314828Y-122879981D01*
X180314825Y-122879980D01*
X180188706Y-122812568D01*
X180078157Y-122721843D01*
X179987432Y-122611294D01*
X179920020Y-122485175D01*
X179920019Y-122485172D01*
X179878505Y-122348321D01*
X179864488Y-122206000D01*
X179878505Y-122063679D01*
X179920019Y-121926828D01*
X179920020Y-121926825D01*
X179987432Y-121800706D01*
X180078157Y-121690157D01*
X180188706Y-121599432D01*
X180314825Y-121532020D01*
X180314828Y-121532019D01*
X180451679Y-121490505D01*
X180522787Y-121483502D01*
X180558340Y-121480000D01*
X180629660Y-121480000D01*
X180665213Y-121483502D01*
X180665213Y-121483502D01*
G37*
G36*
X142395213Y-118503502D02*
G01*
X142466321Y-118510505D01*
X142603172Y-118552019D01*
X142603175Y-118552020D01*
X142729294Y-118619432D01*
X142839843Y-118710157D01*
X142930568Y-118820706D01*
X142997980Y-118946825D01*
X142997981Y-118946828D01*
X143039495Y-119083679D01*
X143053512Y-119226000D01*
X143039495Y-119368321D01*
X142997981Y-119505172D01*
X142997980Y-119505175D01*
X142930568Y-119631294D01*
X142839843Y-119741843D01*
X142729294Y-119832568D01*
X142603175Y-119899980D01*
X142603172Y-119899981D01*
X142466321Y-119941495D01*
X142395213Y-119948498D01*
X142359660Y-119952000D01*
X142288340Y-119952000D01*
X142252787Y-119948498D01*
X142181679Y-119941495D01*
X142044828Y-119899981D01*
X142044825Y-119899980D01*
X141918706Y-119832568D01*
X141808157Y-119741843D01*
X141717432Y-119631294D01*
X141650020Y-119505175D01*
X141650019Y-119505172D01*
X141608505Y-119368321D01*
X141594488Y-119226000D01*
X141608505Y-119083679D01*
X141650019Y-118946828D01*
X141650020Y-118946825D01*
X141717432Y-118820706D01*
X141808157Y-118710157D01*
X141918706Y-118619432D01*
X142044825Y-118552020D01*
X142044828Y-118552019D01*
X142181679Y-118510505D01*
X142252787Y-118503502D01*
X142288340Y-118500000D01*
X142359660Y-118500000D01*
X142395213Y-118503502D01*
X142395213Y-118503502D01*
G37*
G36*
X144395213Y-118503502D02*
G01*
X144466321Y-118510505D01*
X144603172Y-118552019D01*
X144603175Y-118552020D01*
X144729294Y-118619432D01*
X144839843Y-118710157D01*
X144930568Y-118820706D01*
X144997980Y-118946825D01*
X144997981Y-118946828D01*
X145039495Y-119083679D01*
X145053512Y-119226000D01*
X145039495Y-119368321D01*
X144997981Y-119505172D01*
X144997980Y-119505175D01*
X144930568Y-119631294D01*
X144839843Y-119741843D01*
X144729294Y-119832568D01*
X144603175Y-119899980D01*
X144603172Y-119899981D01*
X144466321Y-119941495D01*
X144395213Y-119948498D01*
X144359660Y-119952000D01*
X144288340Y-119952000D01*
X144252787Y-119948498D01*
X144181679Y-119941495D01*
X144044828Y-119899981D01*
X144044825Y-119899980D01*
X143918706Y-119832568D01*
X143808157Y-119741843D01*
X143717432Y-119631294D01*
X143650020Y-119505175D01*
X143650019Y-119505172D01*
X143608505Y-119368321D01*
X143594488Y-119226000D01*
X143608505Y-119083679D01*
X143650019Y-118946828D01*
X143650020Y-118946825D01*
X143717432Y-118820706D01*
X143808157Y-118710157D01*
X143918706Y-118619432D01*
X144044825Y-118552020D01*
X144044828Y-118552019D01*
X144181679Y-118510505D01*
X144252787Y-118503502D01*
X144288340Y-118500000D01*
X144359660Y-118500000D01*
X144395213Y-118503502D01*
X144395213Y-118503502D01*
G37*
G36*
X146395213Y-118503502D02*
G01*
X146466321Y-118510505D01*
X146603172Y-118552019D01*
X146603175Y-118552020D01*
X146729294Y-118619432D01*
X146839843Y-118710157D01*
X146930568Y-118820706D01*
X146997980Y-118946825D01*
X146997981Y-118946828D01*
X147039495Y-119083679D01*
X147053512Y-119226000D01*
X147039495Y-119368321D01*
X146997981Y-119505172D01*
X146997980Y-119505175D01*
X146930568Y-119631294D01*
X146839843Y-119741843D01*
X146729294Y-119832568D01*
X146603175Y-119899980D01*
X146603172Y-119899981D01*
X146466321Y-119941495D01*
X146395213Y-119948498D01*
X146359660Y-119952000D01*
X146288340Y-119952000D01*
X146252787Y-119948498D01*
X146181679Y-119941495D01*
X146044828Y-119899981D01*
X146044825Y-119899980D01*
X145918706Y-119832568D01*
X145808157Y-119741843D01*
X145717432Y-119631294D01*
X145650020Y-119505175D01*
X145650019Y-119505172D01*
X145608505Y-119368321D01*
X145594488Y-119226000D01*
X145608505Y-119083679D01*
X145650019Y-118946828D01*
X145650020Y-118946825D01*
X145717432Y-118820706D01*
X145808157Y-118710157D01*
X145918706Y-118619432D01*
X146044825Y-118552020D01*
X146044828Y-118552019D01*
X146181679Y-118510505D01*
X146252787Y-118503502D01*
X146288340Y-118500000D01*
X146359660Y-118500000D01*
X146395213Y-118503502D01*
X146395213Y-118503502D01*
G37*
G36*
X148395213Y-118503502D02*
G01*
X148466321Y-118510505D01*
X148603172Y-118552019D01*
X148603175Y-118552020D01*
X148729294Y-118619432D01*
X148839843Y-118710157D01*
X148930568Y-118820706D01*
X148997980Y-118946825D01*
X148997981Y-118946828D01*
X149039495Y-119083679D01*
X149053512Y-119226000D01*
X149039495Y-119368321D01*
X148997981Y-119505172D01*
X148997980Y-119505175D01*
X148930568Y-119631294D01*
X148839843Y-119741843D01*
X148729294Y-119832568D01*
X148603175Y-119899980D01*
X148603172Y-119899981D01*
X148466321Y-119941495D01*
X148395213Y-119948498D01*
X148359660Y-119952000D01*
X148288340Y-119952000D01*
X148252787Y-119948498D01*
X148181679Y-119941495D01*
X148044828Y-119899981D01*
X148044825Y-119899980D01*
X147918706Y-119832568D01*
X147808157Y-119741843D01*
X147717432Y-119631294D01*
X147650020Y-119505175D01*
X147650019Y-119505172D01*
X147608505Y-119368321D01*
X147594488Y-119226000D01*
X147608505Y-119083679D01*
X147650019Y-118946828D01*
X147650020Y-118946825D01*
X147717432Y-118820706D01*
X147808157Y-118710157D01*
X147918706Y-118619432D01*
X148044825Y-118552020D01*
X148044828Y-118552019D01*
X148181679Y-118510505D01*
X148252787Y-118503502D01*
X148288340Y-118500000D01*
X148359660Y-118500000D01*
X148395213Y-118503502D01*
X148395213Y-118503502D01*
G37*
G36*
X135050000Y-119952000D02*
G01*
X133598000Y-119952000D01*
X133598000Y-118500000D01*
X135050000Y-118500000D01*
X135050000Y-119952000D01*
X135050000Y-119952000D01*
G37*
G36*
X152395213Y-118503502D02*
G01*
X152466321Y-118510505D01*
X152603172Y-118552019D01*
X152603175Y-118552020D01*
X152729294Y-118619432D01*
X152839843Y-118710157D01*
X152930568Y-118820706D01*
X152997980Y-118946825D01*
X152997981Y-118946828D01*
X153039495Y-119083679D01*
X153053512Y-119226000D01*
X153039495Y-119368321D01*
X152997981Y-119505172D01*
X152997980Y-119505175D01*
X152930568Y-119631294D01*
X152839843Y-119741843D01*
X152729294Y-119832568D01*
X152603175Y-119899980D01*
X152603172Y-119899981D01*
X152466321Y-119941495D01*
X152395213Y-119948498D01*
X152359660Y-119952000D01*
X152288340Y-119952000D01*
X152252787Y-119948498D01*
X152181679Y-119941495D01*
X152044828Y-119899981D01*
X152044825Y-119899980D01*
X151918706Y-119832568D01*
X151808157Y-119741843D01*
X151717432Y-119631294D01*
X151650020Y-119505175D01*
X151650019Y-119505172D01*
X151608505Y-119368321D01*
X151594488Y-119226000D01*
X151608505Y-119083679D01*
X151650019Y-118946828D01*
X151650020Y-118946825D01*
X151717432Y-118820706D01*
X151808157Y-118710157D01*
X151918706Y-118619432D01*
X152044825Y-118552020D01*
X152044828Y-118552019D01*
X152181679Y-118510505D01*
X152252787Y-118503502D01*
X152288340Y-118500000D01*
X152359660Y-118500000D01*
X152395213Y-118503502D01*
X152395213Y-118503502D01*
G37*
G36*
X154395213Y-118503502D02*
G01*
X154466321Y-118510505D01*
X154603172Y-118552019D01*
X154603175Y-118552020D01*
X154729294Y-118619432D01*
X154839843Y-118710157D01*
X154930568Y-118820706D01*
X154997980Y-118946825D01*
X154997981Y-118946828D01*
X155039495Y-119083679D01*
X155053512Y-119226000D01*
X155039495Y-119368321D01*
X154997981Y-119505172D01*
X154997980Y-119505175D01*
X154930568Y-119631294D01*
X154839843Y-119741843D01*
X154729294Y-119832568D01*
X154603175Y-119899980D01*
X154603172Y-119899981D01*
X154466321Y-119941495D01*
X154395213Y-119948498D01*
X154359660Y-119952000D01*
X154288340Y-119952000D01*
X154252787Y-119948498D01*
X154181679Y-119941495D01*
X154044828Y-119899981D01*
X154044825Y-119899980D01*
X153918706Y-119832568D01*
X153808157Y-119741843D01*
X153717432Y-119631294D01*
X153650020Y-119505175D01*
X153650019Y-119505172D01*
X153608505Y-119368321D01*
X153594488Y-119226000D01*
X153608505Y-119083679D01*
X153650019Y-118946828D01*
X153650020Y-118946825D01*
X153717432Y-118820706D01*
X153808157Y-118710157D01*
X153918706Y-118619432D01*
X154044825Y-118552020D01*
X154044828Y-118552019D01*
X154181679Y-118510505D01*
X154252787Y-118503502D01*
X154288340Y-118500000D01*
X154359660Y-118500000D01*
X154395213Y-118503502D01*
X154395213Y-118503502D01*
G37*
G36*
X156395213Y-118503502D02*
G01*
X156466321Y-118510505D01*
X156603172Y-118552019D01*
X156603175Y-118552020D01*
X156729294Y-118619432D01*
X156839843Y-118710157D01*
X156930568Y-118820706D01*
X156997980Y-118946825D01*
X156997981Y-118946828D01*
X157039495Y-119083679D01*
X157053512Y-119226000D01*
X157039495Y-119368321D01*
X156997981Y-119505172D01*
X156997980Y-119505175D01*
X156930568Y-119631294D01*
X156839843Y-119741843D01*
X156729294Y-119832568D01*
X156603175Y-119899980D01*
X156603172Y-119899981D01*
X156466321Y-119941495D01*
X156395213Y-119948498D01*
X156359660Y-119952000D01*
X156288340Y-119952000D01*
X156252787Y-119948498D01*
X156181679Y-119941495D01*
X156044828Y-119899981D01*
X156044825Y-119899980D01*
X155918706Y-119832568D01*
X155808157Y-119741843D01*
X155717432Y-119631294D01*
X155650020Y-119505175D01*
X155650019Y-119505172D01*
X155608505Y-119368321D01*
X155594488Y-119226000D01*
X155608505Y-119083679D01*
X155650019Y-118946828D01*
X155650020Y-118946825D01*
X155717432Y-118820706D01*
X155808157Y-118710157D01*
X155918706Y-118619432D01*
X156044825Y-118552020D01*
X156044828Y-118552019D01*
X156181679Y-118510505D01*
X156252787Y-118503502D01*
X156288340Y-118500000D01*
X156359660Y-118500000D01*
X156395213Y-118503502D01*
X156395213Y-118503502D01*
G37*
G36*
X158395213Y-118503502D02*
G01*
X158466321Y-118510505D01*
X158603172Y-118552019D01*
X158603175Y-118552020D01*
X158729294Y-118619432D01*
X158839843Y-118710157D01*
X158930568Y-118820706D01*
X158997980Y-118946825D01*
X158997981Y-118946828D01*
X159039495Y-119083679D01*
X159053512Y-119226000D01*
X159039495Y-119368321D01*
X158997981Y-119505172D01*
X158997980Y-119505175D01*
X158930568Y-119631294D01*
X158839843Y-119741843D01*
X158729294Y-119832568D01*
X158603175Y-119899980D01*
X158603172Y-119899981D01*
X158466321Y-119941495D01*
X158395213Y-119948498D01*
X158359660Y-119952000D01*
X158288340Y-119952000D01*
X158252787Y-119948498D01*
X158181679Y-119941495D01*
X158044828Y-119899981D01*
X158044825Y-119899980D01*
X157918706Y-119832568D01*
X157808157Y-119741843D01*
X157717432Y-119631294D01*
X157650020Y-119505175D01*
X157650019Y-119505172D01*
X157608505Y-119368321D01*
X157594488Y-119226000D01*
X157608505Y-119083679D01*
X157650019Y-118946828D01*
X157650020Y-118946825D01*
X157717432Y-118820706D01*
X157808157Y-118710157D01*
X157918706Y-118619432D01*
X158044825Y-118552020D01*
X158044828Y-118552019D01*
X158181679Y-118510505D01*
X158252787Y-118503502D01*
X158288340Y-118500000D01*
X158359660Y-118500000D01*
X158395213Y-118503502D01*
X158395213Y-118503502D01*
G37*
G36*
X160395213Y-118503502D02*
G01*
X160466321Y-118510505D01*
X160603172Y-118552019D01*
X160603175Y-118552020D01*
X160729294Y-118619432D01*
X160839843Y-118710157D01*
X160930568Y-118820706D01*
X160997980Y-118946825D01*
X160997981Y-118946828D01*
X161039495Y-119083679D01*
X161053512Y-119226000D01*
X161039495Y-119368321D01*
X160997981Y-119505172D01*
X160997980Y-119505175D01*
X160930568Y-119631294D01*
X160839843Y-119741843D01*
X160729294Y-119832568D01*
X160603175Y-119899980D01*
X160603172Y-119899981D01*
X160466321Y-119941495D01*
X160395213Y-119948498D01*
X160359660Y-119952000D01*
X160288340Y-119952000D01*
X160252787Y-119948498D01*
X160181679Y-119941495D01*
X160044828Y-119899981D01*
X160044825Y-119899980D01*
X159918706Y-119832568D01*
X159808157Y-119741843D01*
X159717432Y-119631294D01*
X159650020Y-119505175D01*
X159650019Y-119505172D01*
X159608505Y-119368321D01*
X159594488Y-119226000D01*
X159608505Y-119083679D01*
X159650019Y-118946828D01*
X159650020Y-118946825D01*
X159717432Y-118820706D01*
X159808157Y-118710157D01*
X159918706Y-118619432D01*
X160044825Y-118552020D01*
X160044828Y-118552019D01*
X160181679Y-118510505D01*
X160252787Y-118503502D01*
X160288340Y-118500000D01*
X160359660Y-118500000D01*
X160395213Y-118503502D01*
X160395213Y-118503502D01*
G37*
G36*
X162395213Y-118503502D02*
G01*
X162466321Y-118510505D01*
X162603172Y-118552019D01*
X162603175Y-118552020D01*
X162729294Y-118619432D01*
X162839843Y-118710157D01*
X162930568Y-118820706D01*
X162997980Y-118946825D01*
X162997981Y-118946828D01*
X163039495Y-119083679D01*
X163053512Y-119226000D01*
X163039495Y-119368321D01*
X162997981Y-119505172D01*
X162997980Y-119505175D01*
X162930568Y-119631294D01*
X162839843Y-119741843D01*
X162729294Y-119832568D01*
X162603175Y-119899980D01*
X162603172Y-119899981D01*
X162466321Y-119941495D01*
X162395213Y-119948498D01*
X162359660Y-119952000D01*
X162288340Y-119952000D01*
X162252787Y-119948498D01*
X162181679Y-119941495D01*
X162044828Y-119899981D01*
X162044825Y-119899980D01*
X161918706Y-119832568D01*
X161808157Y-119741843D01*
X161717432Y-119631294D01*
X161650020Y-119505175D01*
X161650019Y-119505172D01*
X161608505Y-119368321D01*
X161594488Y-119226000D01*
X161608505Y-119083679D01*
X161650019Y-118946828D01*
X161650020Y-118946825D01*
X161717432Y-118820706D01*
X161808157Y-118710157D01*
X161918706Y-118619432D01*
X162044825Y-118552020D01*
X162044828Y-118552019D01*
X162181679Y-118510505D01*
X162252787Y-118503502D01*
X162288340Y-118500000D01*
X162359660Y-118500000D01*
X162395213Y-118503502D01*
X162395213Y-118503502D01*
G37*
G36*
X164395213Y-118503502D02*
G01*
X164466321Y-118510505D01*
X164603172Y-118552019D01*
X164603175Y-118552020D01*
X164729294Y-118619432D01*
X164839843Y-118710157D01*
X164930568Y-118820706D01*
X164997980Y-118946825D01*
X164997981Y-118946828D01*
X165039495Y-119083679D01*
X165053512Y-119226000D01*
X165039495Y-119368321D01*
X164997981Y-119505172D01*
X164997980Y-119505175D01*
X164930568Y-119631294D01*
X164839843Y-119741843D01*
X164729294Y-119832568D01*
X164603175Y-119899980D01*
X164603172Y-119899981D01*
X164466321Y-119941495D01*
X164395213Y-119948498D01*
X164359660Y-119952000D01*
X164288340Y-119952000D01*
X164252787Y-119948498D01*
X164181679Y-119941495D01*
X164044828Y-119899981D01*
X164044825Y-119899980D01*
X163918706Y-119832568D01*
X163808157Y-119741843D01*
X163717432Y-119631294D01*
X163650020Y-119505175D01*
X163650019Y-119505172D01*
X163608505Y-119368321D01*
X163594488Y-119226000D01*
X163608505Y-119083679D01*
X163650019Y-118946828D01*
X163650020Y-118946825D01*
X163717432Y-118820706D01*
X163808157Y-118710157D01*
X163918706Y-118619432D01*
X164044825Y-118552020D01*
X164044828Y-118552019D01*
X164181679Y-118510505D01*
X164252787Y-118503502D01*
X164288340Y-118500000D01*
X164359660Y-118500000D01*
X164395213Y-118503502D01*
X164395213Y-118503502D01*
G37*
G36*
X138395213Y-118503502D02*
G01*
X138466321Y-118510505D01*
X138603172Y-118552019D01*
X138603175Y-118552020D01*
X138729294Y-118619432D01*
X138839843Y-118710157D01*
X138930568Y-118820706D01*
X138997980Y-118946825D01*
X138997981Y-118946828D01*
X139039495Y-119083679D01*
X139053512Y-119226000D01*
X139039495Y-119368321D01*
X138997981Y-119505172D01*
X138997980Y-119505175D01*
X138930568Y-119631294D01*
X138839843Y-119741843D01*
X138729294Y-119832568D01*
X138603175Y-119899980D01*
X138603172Y-119899981D01*
X138466321Y-119941495D01*
X138395213Y-119948498D01*
X138359660Y-119952000D01*
X138288340Y-119952000D01*
X138252787Y-119948498D01*
X138181679Y-119941495D01*
X138044828Y-119899981D01*
X138044825Y-119899980D01*
X137918706Y-119832568D01*
X137808157Y-119741843D01*
X137717432Y-119631294D01*
X137650020Y-119505175D01*
X137650019Y-119505172D01*
X137608505Y-119368321D01*
X137594488Y-119226000D01*
X137608505Y-119083679D01*
X137650019Y-118946828D01*
X137650020Y-118946825D01*
X137717432Y-118820706D01*
X137808157Y-118710157D01*
X137918706Y-118619432D01*
X138044825Y-118552020D01*
X138044828Y-118552019D01*
X138181679Y-118510505D01*
X138252787Y-118503502D01*
X138288340Y-118500000D01*
X138359660Y-118500000D01*
X138395213Y-118503502D01*
X138395213Y-118503502D01*
G37*
G36*
X168395213Y-118503502D02*
G01*
X168466321Y-118510505D01*
X168603172Y-118552019D01*
X168603175Y-118552020D01*
X168729294Y-118619432D01*
X168839843Y-118710157D01*
X168930568Y-118820706D01*
X168997980Y-118946825D01*
X168997981Y-118946828D01*
X169039495Y-119083679D01*
X169053512Y-119226000D01*
X169039495Y-119368321D01*
X168997981Y-119505172D01*
X168997980Y-119505175D01*
X168930568Y-119631294D01*
X168839843Y-119741843D01*
X168729294Y-119832568D01*
X168603175Y-119899980D01*
X168603172Y-119899981D01*
X168466321Y-119941495D01*
X168395213Y-119948498D01*
X168359660Y-119952000D01*
X168288340Y-119952000D01*
X168252787Y-119948498D01*
X168181679Y-119941495D01*
X168044828Y-119899981D01*
X168044825Y-119899980D01*
X167918706Y-119832568D01*
X167808157Y-119741843D01*
X167717432Y-119631294D01*
X167650020Y-119505175D01*
X167650019Y-119505172D01*
X167608505Y-119368321D01*
X167594488Y-119226000D01*
X167608505Y-119083679D01*
X167650019Y-118946828D01*
X167650020Y-118946825D01*
X167717432Y-118820706D01*
X167808157Y-118710157D01*
X167918706Y-118619432D01*
X168044825Y-118552020D01*
X168044828Y-118552019D01*
X168181679Y-118510505D01*
X168252787Y-118503502D01*
X168288340Y-118500000D01*
X168359660Y-118500000D01*
X168395213Y-118503502D01*
X168395213Y-118503502D01*
G37*
G36*
X166395213Y-118503502D02*
G01*
X166466321Y-118510505D01*
X166603172Y-118552019D01*
X166603175Y-118552020D01*
X166729294Y-118619432D01*
X166839843Y-118710157D01*
X166930568Y-118820706D01*
X166997980Y-118946825D01*
X166997981Y-118946828D01*
X167039495Y-119083679D01*
X167053512Y-119226000D01*
X167039495Y-119368321D01*
X166997981Y-119505172D01*
X166997980Y-119505175D01*
X166930568Y-119631294D01*
X166839843Y-119741843D01*
X166729294Y-119832568D01*
X166603175Y-119899980D01*
X166603172Y-119899981D01*
X166466321Y-119941495D01*
X166395213Y-119948498D01*
X166359660Y-119952000D01*
X166288340Y-119952000D01*
X166252787Y-119948498D01*
X166181679Y-119941495D01*
X166044828Y-119899981D01*
X166044825Y-119899980D01*
X165918706Y-119832568D01*
X165808157Y-119741843D01*
X165717432Y-119631294D01*
X165650020Y-119505175D01*
X165650019Y-119505172D01*
X165608505Y-119368321D01*
X165594488Y-119226000D01*
X165608505Y-119083679D01*
X165650019Y-118946828D01*
X165650020Y-118946825D01*
X165717432Y-118820706D01*
X165808157Y-118710157D01*
X165918706Y-118619432D01*
X166044825Y-118552020D01*
X166044828Y-118552019D01*
X166181679Y-118510505D01*
X166252787Y-118503502D01*
X166288340Y-118500000D01*
X166359660Y-118500000D01*
X166395213Y-118503502D01*
X166395213Y-118503502D01*
G37*
G36*
X170395213Y-118503502D02*
G01*
X170466321Y-118510505D01*
X170603172Y-118552019D01*
X170603175Y-118552020D01*
X170729294Y-118619432D01*
X170839843Y-118710157D01*
X170930568Y-118820706D01*
X170997980Y-118946825D01*
X170997981Y-118946828D01*
X171039495Y-119083679D01*
X171053512Y-119226000D01*
X171039495Y-119368321D01*
X170997981Y-119505172D01*
X170997980Y-119505175D01*
X170930568Y-119631294D01*
X170839843Y-119741843D01*
X170729294Y-119832568D01*
X170603175Y-119899980D01*
X170603172Y-119899981D01*
X170466321Y-119941495D01*
X170395213Y-119948498D01*
X170359660Y-119952000D01*
X170288340Y-119952000D01*
X170252787Y-119948498D01*
X170181679Y-119941495D01*
X170044828Y-119899981D01*
X170044825Y-119899980D01*
X169918706Y-119832568D01*
X169808157Y-119741843D01*
X169717432Y-119631294D01*
X169650020Y-119505175D01*
X169650019Y-119505172D01*
X169608505Y-119368321D01*
X169594488Y-119226000D01*
X169608505Y-119083679D01*
X169650019Y-118946828D01*
X169650020Y-118946825D01*
X169717432Y-118820706D01*
X169808157Y-118710157D01*
X169918706Y-118619432D01*
X170044825Y-118552020D01*
X170044828Y-118552019D01*
X170181679Y-118510505D01*
X170252787Y-118503502D01*
X170288340Y-118500000D01*
X170359660Y-118500000D01*
X170395213Y-118503502D01*
X170395213Y-118503502D01*
G37*
G36*
X172395213Y-118503502D02*
G01*
X172466321Y-118510505D01*
X172603172Y-118552019D01*
X172603175Y-118552020D01*
X172729294Y-118619432D01*
X172839843Y-118710157D01*
X172930568Y-118820706D01*
X172997980Y-118946825D01*
X172997981Y-118946828D01*
X173039495Y-119083679D01*
X173053512Y-119226000D01*
X173039495Y-119368321D01*
X172997981Y-119505172D01*
X172997980Y-119505175D01*
X172930568Y-119631294D01*
X172839843Y-119741843D01*
X172729294Y-119832568D01*
X172603175Y-119899980D01*
X172603172Y-119899981D01*
X172466321Y-119941495D01*
X172395213Y-119948498D01*
X172359660Y-119952000D01*
X172288340Y-119952000D01*
X172252787Y-119948498D01*
X172181679Y-119941495D01*
X172044828Y-119899981D01*
X172044825Y-119899980D01*
X171918706Y-119832568D01*
X171808157Y-119741843D01*
X171717432Y-119631294D01*
X171650020Y-119505175D01*
X171650019Y-119505172D01*
X171608505Y-119368321D01*
X171594488Y-119226000D01*
X171608505Y-119083679D01*
X171650019Y-118946828D01*
X171650020Y-118946825D01*
X171717432Y-118820706D01*
X171808157Y-118710157D01*
X171918706Y-118619432D01*
X172044825Y-118552020D01*
X172044828Y-118552019D01*
X172181679Y-118510505D01*
X172252787Y-118503502D01*
X172288340Y-118500000D01*
X172359660Y-118500000D01*
X172395213Y-118503502D01*
X172395213Y-118503502D01*
G37*
G36*
X174395213Y-118503502D02*
G01*
X174466321Y-118510505D01*
X174603172Y-118552019D01*
X174603175Y-118552020D01*
X174729294Y-118619432D01*
X174839843Y-118710157D01*
X174930568Y-118820706D01*
X174997980Y-118946825D01*
X174997981Y-118946828D01*
X175039495Y-119083679D01*
X175053512Y-119226000D01*
X175039495Y-119368321D01*
X174997981Y-119505172D01*
X174997980Y-119505175D01*
X174930568Y-119631294D01*
X174839843Y-119741843D01*
X174729294Y-119832568D01*
X174603175Y-119899980D01*
X174603172Y-119899981D01*
X174466321Y-119941495D01*
X174395213Y-119948498D01*
X174359660Y-119952000D01*
X174288340Y-119952000D01*
X174252787Y-119948498D01*
X174181679Y-119941495D01*
X174044828Y-119899981D01*
X174044825Y-119899980D01*
X173918706Y-119832568D01*
X173808157Y-119741843D01*
X173717432Y-119631294D01*
X173650020Y-119505175D01*
X173650019Y-119505172D01*
X173608505Y-119368321D01*
X173594488Y-119226000D01*
X173608505Y-119083679D01*
X173650019Y-118946828D01*
X173650020Y-118946825D01*
X173717432Y-118820706D01*
X173808157Y-118710157D01*
X173918706Y-118619432D01*
X174044825Y-118552020D01*
X174044828Y-118552019D01*
X174181679Y-118510505D01*
X174252787Y-118503502D01*
X174288340Y-118500000D01*
X174359660Y-118500000D01*
X174395213Y-118503502D01*
X174395213Y-118503502D01*
G37*
G36*
X176395213Y-118503502D02*
G01*
X176466321Y-118510505D01*
X176603172Y-118552019D01*
X176603175Y-118552020D01*
X176729294Y-118619432D01*
X176839843Y-118710157D01*
X176930568Y-118820706D01*
X176997980Y-118946825D01*
X176997981Y-118946828D01*
X177039495Y-119083679D01*
X177053512Y-119226000D01*
X177039495Y-119368321D01*
X176997981Y-119505172D01*
X176997980Y-119505175D01*
X176930568Y-119631294D01*
X176839843Y-119741843D01*
X176729294Y-119832568D01*
X176603175Y-119899980D01*
X176603172Y-119899981D01*
X176466321Y-119941495D01*
X176395213Y-119948498D01*
X176359660Y-119952000D01*
X176288340Y-119952000D01*
X176252787Y-119948498D01*
X176181679Y-119941495D01*
X176044828Y-119899981D01*
X176044825Y-119899980D01*
X175918706Y-119832568D01*
X175808157Y-119741843D01*
X175717432Y-119631294D01*
X175650020Y-119505175D01*
X175650019Y-119505172D01*
X175608505Y-119368321D01*
X175594488Y-119226000D01*
X175608505Y-119083679D01*
X175650019Y-118946828D01*
X175650020Y-118946825D01*
X175717432Y-118820706D01*
X175808157Y-118710157D01*
X175918706Y-118619432D01*
X176044825Y-118552020D01*
X176044828Y-118552019D01*
X176181679Y-118510505D01*
X176252787Y-118503502D01*
X176288340Y-118500000D01*
X176359660Y-118500000D01*
X176395213Y-118503502D01*
X176395213Y-118503502D01*
G37*
G36*
X180395213Y-118503502D02*
G01*
X180466321Y-118510505D01*
X180603172Y-118552019D01*
X180603175Y-118552020D01*
X180729294Y-118619432D01*
X180839843Y-118710157D01*
X180930568Y-118820706D01*
X180997980Y-118946825D01*
X180997981Y-118946828D01*
X181039495Y-119083679D01*
X181053512Y-119226000D01*
X181039495Y-119368321D01*
X180997981Y-119505172D01*
X180997980Y-119505175D01*
X180930568Y-119631294D01*
X180839843Y-119741843D01*
X180729294Y-119832568D01*
X180603175Y-119899980D01*
X180603172Y-119899981D01*
X180466321Y-119941495D01*
X180395213Y-119948498D01*
X180359660Y-119952000D01*
X180288340Y-119952000D01*
X180252787Y-119948498D01*
X180181679Y-119941495D01*
X180044828Y-119899981D01*
X180044825Y-119899980D01*
X179918706Y-119832568D01*
X179808157Y-119741843D01*
X179717432Y-119631294D01*
X179650020Y-119505175D01*
X179650019Y-119505172D01*
X179608505Y-119368321D01*
X179594488Y-119226000D01*
X179608505Y-119083679D01*
X179650019Y-118946828D01*
X179650020Y-118946825D01*
X179717432Y-118820706D01*
X179808157Y-118710157D01*
X179918706Y-118619432D01*
X180044825Y-118552020D01*
X180044828Y-118552019D01*
X180181679Y-118510505D01*
X180252787Y-118503502D01*
X180288340Y-118500000D01*
X180359660Y-118500000D01*
X180395213Y-118503502D01*
X180395213Y-118503502D01*
G37*
G36*
X182395213Y-118503502D02*
G01*
X182466321Y-118510505D01*
X182603172Y-118552019D01*
X182603175Y-118552020D01*
X182729294Y-118619432D01*
X182839843Y-118710157D01*
X182930568Y-118820706D01*
X182997980Y-118946825D01*
X182997981Y-118946828D01*
X183039495Y-119083679D01*
X183053512Y-119226000D01*
X183039495Y-119368321D01*
X182997981Y-119505172D01*
X182997980Y-119505175D01*
X182930568Y-119631294D01*
X182839843Y-119741843D01*
X182729294Y-119832568D01*
X182603175Y-119899980D01*
X182603172Y-119899981D01*
X182466321Y-119941495D01*
X182395213Y-119948498D01*
X182359660Y-119952000D01*
X182288340Y-119952000D01*
X182252787Y-119948498D01*
X182181679Y-119941495D01*
X182044828Y-119899981D01*
X182044825Y-119899980D01*
X181918706Y-119832568D01*
X181808157Y-119741843D01*
X181717432Y-119631294D01*
X181650020Y-119505175D01*
X181650019Y-119505172D01*
X181608505Y-119368321D01*
X181594488Y-119226000D01*
X181608505Y-119083679D01*
X181650019Y-118946828D01*
X181650020Y-118946825D01*
X181717432Y-118820706D01*
X181808157Y-118710157D01*
X181918706Y-118619432D01*
X182044825Y-118552020D01*
X182044828Y-118552019D01*
X182181679Y-118510505D01*
X182252787Y-118503502D01*
X182288340Y-118500000D01*
X182359660Y-118500000D01*
X182395213Y-118503502D01*
X182395213Y-118503502D01*
G37*
G36*
X150395213Y-118503502D02*
G01*
X150466321Y-118510505D01*
X150603172Y-118552019D01*
X150603175Y-118552020D01*
X150729294Y-118619432D01*
X150839843Y-118710157D01*
X150930568Y-118820706D01*
X150997980Y-118946825D01*
X150997981Y-118946828D01*
X151039495Y-119083679D01*
X151053512Y-119226000D01*
X151039495Y-119368321D01*
X150997981Y-119505172D01*
X150997980Y-119505175D01*
X150930568Y-119631294D01*
X150839843Y-119741843D01*
X150729294Y-119832568D01*
X150603175Y-119899980D01*
X150603172Y-119899981D01*
X150466321Y-119941495D01*
X150395213Y-119948498D01*
X150359660Y-119952000D01*
X150288340Y-119952000D01*
X150252787Y-119948498D01*
X150181679Y-119941495D01*
X150044828Y-119899981D01*
X150044825Y-119899980D01*
X149918706Y-119832568D01*
X149808157Y-119741843D01*
X149717432Y-119631294D01*
X149650020Y-119505175D01*
X149650019Y-119505172D01*
X149608505Y-119368321D01*
X149594488Y-119226000D01*
X149608505Y-119083679D01*
X149650019Y-118946828D01*
X149650020Y-118946825D01*
X149717432Y-118820706D01*
X149808157Y-118710157D01*
X149918706Y-118619432D01*
X150044825Y-118552020D01*
X150044828Y-118552019D01*
X150181679Y-118510505D01*
X150252787Y-118503502D01*
X150288340Y-118500000D01*
X150359660Y-118500000D01*
X150395213Y-118503502D01*
X150395213Y-118503502D01*
G37*
G36*
X136395213Y-118503502D02*
G01*
X136466321Y-118510505D01*
X136603172Y-118552019D01*
X136603175Y-118552020D01*
X136729294Y-118619432D01*
X136839843Y-118710157D01*
X136930568Y-118820706D01*
X136997980Y-118946825D01*
X136997981Y-118946828D01*
X137039495Y-119083679D01*
X137053512Y-119226000D01*
X137039495Y-119368321D01*
X136997981Y-119505172D01*
X136997980Y-119505175D01*
X136930568Y-119631294D01*
X136839843Y-119741843D01*
X136729294Y-119832568D01*
X136603175Y-119899980D01*
X136603172Y-119899981D01*
X136466321Y-119941495D01*
X136395213Y-119948498D01*
X136359660Y-119952000D01*
X136288340Y-119952000D01*
X136252787Y-119948498D01*
X136181679Y-119941495D01*
X136044828Y-119899981D01*
X136044825Y-119899980D01*
X135918706Y-119832568D01*
X135808157Y-119741843D01*
X135717432Y-119631294D01*
X135650020Y-119505175D01*
X135650019Y-119505172D01*
X135608505Y-119368321D01*
X135594488Y-119226000D01*
X135608505Y-119083679D01*
X135650019Y-118946828D01*
X135650020Y-118946825D01*
X135717432Y-118820706D01*
X135808157Y-118710157D01*
X135918706Y-118619432D01*
X136044825Y-118552020D01*
X136044828Y-118552019D01*
X136181679Y-118510505D01*
X136252787Y-118503502D01*
X136288340Y-118500000D01*
X136359660Y-118500000D01*
X136395213Y-118503502D01*
X136395213Y-118503502D01*
G37*
G36*
X178395213Y-118503502D02*
G01*
X178466321Y-118510505D01*
X178603172Y-118552019D01*
X178603175Y-118552020D01*
X178729294Y-118619432D01*
X178839843Y-118710157D01*
X178930568Y-118820706D01*
X178997980Y-118946825D01*
X178997981Y-118946828D01*
X179039495Y-119083679D01*
X179053512Y-119226000D01*
X179039495Y-119368321D01*
X178997981Y-119505172D01*
X178997980Y-119505175D01*
X178930568Y-119631294D01*
X178839843Y-119741843D01*
X178729294Y-119832568D01*
X178603175Y-119899980D01*
X178603172Y-119899981D01*
X178466321Y-119941495D01*
X178395213Y-119948498D01*
X178359660Y-119952000D01*
X178288340Y-119952000D01*
X178252787Y-119948498D01*
X178181679Y-119941495D01*
X178044828Y-119899981D01*
X178044825Y-119899980D01*
X177918706Y-119832568D01*
X177808157Y-119741843D01*
X177717432Y-119631294D01*
X177650020Y-119505175D01*
X177650019Y-119505172D01*
X177608505Y-119368321D01*
X177594488Y-119226000D01*
X177608505Y-119083679D01*
X177650019Y-118946828D01*
X177650020Y-118946825D01*
X177717432Y-118820706D01*
X177808157Y-118710157D01*
X177918706Y-118619432D01*
X178044825Y-118552020D01*
X178044828Y-118552019D01*
X178181679Y-118510505D01*
X178252787Y-118503502D01*
X178288340Y-118500000D01*
X178359660Y-118500000D01*
X178395213Y-118503502D01*
X178395213Y-118503502D01*
G37*
G36*
X140395213Y-118503502D02*
G01*
X140466321Y-118510505D01*
X140603172Y-118552019D01*
X140603175Y-118552020D01*
X140729294Y-118619432D01*
X140839843Y-118710157D01*
X140930568Y-118820706D01*
X140997980Y-118946825D01*
X140997981Y-118946828D01*
X141039495Y-119083679D01*
X141053512Y-119226000D01*
X141039495Y-119368321D01*
X140997981Y-119505172D01*
X140997980Y-119505175D01*
X140930568Y-119631294D01*
X140839843Y-119741843D01*
X140729294Y-119832568D01*
X140603175Y-119899980D01*
X140603172Y-119899981D01*
X140466321Y-119941495D01*
X140395213Y-119948498D01*
X140359660Y-119952000D01*
X140288340Y-119952000D01*
X140252787Y-119948498D01*
X140181679Y-119941495D01*
X140044828Y-119899981D01*
X140044825Y-119899980D01*
X139918706Y-119832568D01*
X139808157Y-119741843D01*
X139717432Y-119631294D01*
X139650020Y-119505175D01*
X139650019Y-119505172D01*
X139608505Y-119368321D01*
X139594488Y-119226000D01*
X139608505Y-119083679D01*
X139650019Y-118946828D01*
X139650020Y-118946825D01*
X139717432Y-118820706D01*
X139808157Y-118710157D01*
X139918706Y-118619432D01*
X140044825Y-118552020D01*
X140044828Y-118552019D01*
X140181679Y-118510505D01*
X140252787Y-118503502D01*
X140288340Y-118500000D01*
X140359660Y-118500000D01*
X140395213Y-118503502D01*
X140395213Y-118503502D01*
G37*
G36*
X148395213Y-116503502D02*
G01*
X148466321Y-116510505D01*
X148603172Y-116552019D01*
X148603175Y-116552020D01*
X148729294Y-116619432D01*
X148839843Y-116710157D01*
X148930568Y-116820706D01*
X148997980Y-116946825D01*
X148997981Y-116946828D01*
X149039495Y-117083679D01*
X149053512Y-117226000D01*
X149039495Y-117368321D01*
X148997981Y-117505172D01*
X148997980Y-117505175D01*
X148930568Y-117631294D01*
X148839843Y-117741843D01*
X148729294Y-117832568D01*
X148603175Y-117899980D01*
X148603172Y-117899981D01*
X148466321Y-117941495D01*
X148395213Y-117948498D01*
X148359660Y-117952000D01*
X148288340Y-117952000D01*
X148252787Y-117948498D01*
X148181679Y-117941495D01*
X148044828Y-117899981D01*
X148044825Y-117899980D01*
X147918706Y-117832568D01*
X147808157Y-117741843D01*
X147717432Y-117631294D01*
X147650020Y-117505175D01*
X147650019Y-117505172D01*
X147608505Y-117368321D01*
X147594488Y-117226000D01*
X147608505Y-117083679D01*
X147650019Y-116946828D01*
X147650020Y-116946825D01*
X147717432Y-116820706D01*
X147808157Y-116710157D01*
X147918706Y-116619432D01*
X148044825Y-116552020D01*
X148044828Y-116552019D01*
X148181679Y-116510505D01*
X148252787Y-116503502D01*
X148288340Y-116500000D01*
X148359660Y-116500000D01*
X148395213Y-116503502D01*
X148395213Y-116503502D01*
G37*
G36*
X150395213Y-116503502D02*
G01*
X150466321Y-116510505D01*
X150603172Y-116552019D01*
X150603175Y-116552020D01*
X150729294Y-116619432D01*
X150839843Y-116710157D01*
X150930568Y-116820706D01*
X150997980Y-116946825D01*
X150997981Y-116946828D01*
X151039495Y-117083679D01*
X151053512Y-117226000D01*
X151039495Y-117368321D01*
X150997981Y-117505172D01*
X150997980Y-117505175D01*
X150930568Y-117631294D01*
X150839843Y-117741843D01*
X150729294Y-117832568D01*
X150603175Y-117899980D01*
X150603172Y-117899981D01*
X150466321Y-117941495D01*
X150395213Y-117948498D01*
X150359660Y-117952000D01*
X150288340Y-117952000D01*
X150252787Y-117948498D01*
X150181679Y-117941495D01*
X150044828Y-117899981D01*
X150044825Y-117899980D01*
X149918706Y-117832568D01*
X149808157Y-117741843D01*
X149717432Y-117631294D01*
X149650020Y-117505175D01*
X149650019Y-117505172D01*
X149608505Y-117368321D01*
X149594488Y-117226000D01*
X149608505Y-117083679D01*
X149650019Y-116946828D01*
X149650020Y-116946825D01*
X149717432Y-116820706D01*
X149808157Y-116710157D01*
X149918706Y-116619432D01*
X150044825Y-116552020D01*
X150044828Y-116552019D01*
X150181679Y-116510505D01*
X150252787Y-116503502D01*
X150288340Y-116500000D01*
X150359660Y-116500000D01*
X150395213Y-116503502D01*
X150395213Y-116503502D01*
G37*
G36*
X144395213Y-116503502D02*
G01*
X144466321Y-116510505D01*
X144603172Y-116552019D01*
X144603175Y-116552020D01*
X144729294Y-116619432D01*
X144839843Y-116710157D01*
X144930568Y-116820706D01*
X144997980Y-116946825D01*
X144997981Y-116946828D01*
X145039495Y-117083679D01*
X145053512Y-117226000D01*
X145039495Y-117368321D01*
X144997981Y-117505172D01*
X144997980Y-117505175D01*
X144930568Y-117631294D01*
X144839843Y-117741843D01*
X144729294Y-117832568D01*
X144603175Y-117899980D01*
X144603172Y-117899981D01*
X144466321Y-117941495D01*
X144395213Y-117948498D01*
X144359660Y-117952000D01*
X144288340Y-117952000D01*
X144252787Y-117948498D01*
X144181679Y-117941495D01*
X144044828Y-117899981D01*
X144044825Y-117899980D01*
X143918706Y-117832568D01*
X143808157Y-117741843D01*
X143717432Y-117631294D01*
X143650020Y-117505175D01*
X143650019Y-117505172D01*
X143608505Y-117368321D01*
X143594488Y-117226000D01*
X143608505Y-117083679D01*
X143650019Y-116946828D01*
X143650020Y-116946825D01*
X143717432Y-116820706D01*
X143808157Y-116710157D01*
X143918706Y-116619432D01*
X144044825Y-116552020D01*
X144044828Y-116552019D01*
X144181679Y-116510505D01*
X144252787Y-116503502D01*
X144288340Y-116500000D01*
X144359660Y-116500000D01*
X144395213Y-116503502D01*
X144395213Y-116503502D01*
G37*
G36*
X152395213Y-116503502D02*
G01*
X152466321Y-116510505D01*
X152603172Y-116552019D01*
X152603175Y-116552020D01*
X152729294Y-116619432D01*
X152839843Y-116710157D01*
X152930568Y-116820706D01*
X152997980Y-116946825D01*
X152997981Y-116946828D01*
X153039495Y-117083679D01*
X153053512Y-117226000D01*
X153039495Y-117368321D01*
X152997981Y-117505172D01*
X152997980Y-117505175D01*
X152930568Y-117631294D01*
X152839843Y-117741843D01*
X152729294Y-117832568D01*
X152603175Y-117899980D01*
X152603172Y-117899981D01*
X152466321Y-117941495D01*
X152395213Y-117948498D01*
X152359660Y-117952000D01*
X152288340Y-117952000D01*
X152252787Y-117948498D01*
X152181679Y-117941495D01*
X152044828Y-117899981D01*
X152044825Y-117899980D01*
X151918706Y-117832568D01*
X151808157Y-117741843D01*
X151717432Y-117631294D01*
X151650020Y-117505175D01*
X151650019Y-117505172D01*
X151608505Y-117368321D01*
X151594488Y-117226000D01*
X151608505Y-117083679D01*
X151650019Y-116946828D01*
X151650020Y-116946825D01*
X151717432Y-116820706D01*
X151808157Y-116710157D01*
X151918706Y-116619432D01*
X152044825Y-116552020D01*
X152044828Y-116552019D01*
X152181679Y-116510505D01*
X152252787Y-116503502D01*
X152288340Y-116500000D01*
X152359660Y-116500000D01*
X152395213Y-116503502D01*
X152395213Y-116503502D01*
G37*
G36*
X154395213Y-116503502D02*
G01*
X154466321Y-116510505D01*
X154603172Y-116552019D01*
X154603175Y-116552020D01*
X154729294Y-116619432D01*
X154839843Y-116710157D01*
X154930568Y-116820706D01*
X154997980Y-116946825D01*
X154997981Y-116946828D01*
X155039495Y-117083679D01*
X155053512Y-117226000D01*
X155039495Y-117368321D01*
X154997981Y-117505172D01*
X154997980Y-117505175D01*
X154930568Y-117631294D01*
X154839843Y-117741843D01*
X154729294Y-117832568D01*
X154603175Y-117899980D01*
X154603172Y-117899981D01*
X154466321Y-117941495D01*
X154395213Y-117948498D01*
X154359660Y-117952000D01*
X154288340Y-117952000D01*
X154252787Y-117948498D01*
X154181679Y-117941495D01*
X154044828Y-117899981D01*
X154044825Y-117899980D01*
X153918706Y-117832568D01*
X153808157Y-117741843D01*
X153717432Y-117631294D01*
X153650020Y-117505175D01*
X153650019Y-117505172D01*
X153608505Y-117368321D01*
X153594488Y-117226000D01*
X153608505Y-117083679D01*
X153650019Y-116946828D01*
X153650020Y-116946825D01*
X153717432Y-116820706D01*
X153808157Y-116710157D01*
X153918706Y-116619432D01*
X154044825Y-116552020D01*
X154044828Y-116552019D01*
X154181679Y-116510505D01*
X154252787Y-116503502D01*
X154288340Y-116500000D01*
X154359660Y-116500000D01*
X154395213Y-116503502D01*
X154395213Y-116503502D01*
G37*
G36*
X158395213Y-116503502D02*
G01*
X158466321Y-116510505D01*
X158603172Y-116552019D01*
X158603175Y-116552020D01*
X158729294Y-116619432D01*
X158839843Y-116710157D01*
X158930568Y-116820706D01*
X158997980Y-116946825D01*
X158997981Y-116946828D01*
X159039495Y-117083679D01*
X159053512Y-117226000D01*
X159039495Y-117368321D01*
X158997981Y-117505172D01*
X158997980Y-117505175D01*
X158930568Y-117631294D01*
X158839843Y-117741843D01*
X158729294Y-117832568D01*
X158603175Y-117899980D01*
X158603172Y-117899981D01*
X158466321Y-117941495D01*
X158395213Y-117948498D01*
X158359660Y-117952000D01*
X158288340Y-117952000D01*
X158252787Y-117948498D01*
X158181679Y-117941495D01*
X158044828Y-117899981D01*
X158044825Y-117899980D01*
X157918706Y-117832568D01*
X157808157Y-117741843D01*
X157717432Y-117631294D01*
X157650020Y-117505175D01*
X157650019Y-117505172D01*
X157608505Y-117368321D01*
X157594488Y-117226000D01*
X157608505Y-117083679D01*
X157650019Y-116946828D01*
X157650020Y-116946825D01*
X157717432Y-116820706D01*
X157808157Y-116710157D01*
X157918706Y-116619432D01*
X158044825Y-116552020D01*
X158044828Y-116552019D01*
X158181679Y-116510505D01*
X158252787Y-116503502D01*
X158288340Y-116500000D01*
X158359660Y-116500000D01*
X158395213Y-116503502D01*
X158395213Y-116503502D01*
G37*
G36*
X134395213Y-116503502D02*
G01*
X134466321Y-116510505D01*
X134603172Y-116552019D01*
X134603175Y-116552020D01*
X134729294Y-116619432D01*
X134839843Y-116710157D01*
X134930568Y-116820706D01*
X134997980Y-116946825D01*
X134997981Y-116946828D01*
X135039495Y-117083679D01*
X135053512Y-117226000D01*
X135039495Y-117368321D01*
X134997981Y-117505172D01*
X134997980Y-117505175D01*
X134930568Y-117631294D01*
X134839843Y-117741843D01*
X134729294Y-117832568D01*
X134603175Y-117899980D01*
X134603172Y-117899981D01*
X134466321Y-117941495D01*
X134395213Y-117948498D01*
X134359660Y-117952000D01*
X134288340Y-117952000D01*
X134252787Y-117948498D01*
X134181679Y-117941495D01*
X134044828Y-117899981D01*
X134044825Y-117899980D01*
X133918706Y-117832568D01*
X133808157Y-117741843D01*
X133717432Y-117631294D01*
X133650020Y-117505175D01*
X133650019Y-117505172D01*
X133608505Y-117368321D01*
X133594488Y-117226000D01*
X133608505Y-117083679D01*
X133650019Y-116946828D01*
X133650020Y-116946825D01*
X133717432Y-116820706D01*
X133808157Y-116710157D01*
X133918706Y-116619432D01*
X134044825Y-116552020D01*
X134044828Y-116552019D01*
X134181679Y-116510505D01*
X134252787Y-116503502D01*
X134288340Y-116500000D01*
X134359660Y-116500000D01*
X134395213Y-116503502D01*
X134395213Y-116503502D01*
G37*
G36*
X160395213Y-116503502D02*
G01*
X160466321Y-116510505D01*
X160603172Y-116552019D01*
X160603175Y-116552020D01*
X160729294Y-116619432D01*
X160839843Y-116710157D01*
X160930568Y-116820706D01*
X160997980Y-116946825D01*
X160997981Y-116946828D01*
X161039495Y-117083679D01*
X161053512Y-117226000D01*
X161039495Y-117368321D01*
X160997981Y-117505172D01*
X160997980Y-117505175D01*
X160930568Y-117631294D01*
X160839843Y-117741843D01*
X160729294Y-117832568D01*
X160603175Y-117899980D01*
X160603172Y-117899981D01*
X160466321Y-117941495D01*
X160395213Y-117948498D01*
X160359660Y-117952000D01*
X160288340Y-117952000D01*
X160252787Y-117948498D01*
X160181679Y-117941495D01*
X160044828Y-117899981D01*
X160044825Y-117899980D01*
X159918706Y-117832568D01*
X159808157Y-117741843D01*
X159717432Y-117631294D01*
X159650020Y-117505175D01*
X159650019Y-117505172D01*
X159608505Y-117368321D01*
X159594488Y-117226000D01*
X159608505Y-117083679D01*
X159650019Y-116946828D01*
X159650020Y-116946825D01*
X159717432Y-116820706D01*
X159808157Y-116710157D01*
X159918706Y-116619432D01*
X160044825Y-116552020D01*
X160044828Y-116552019D01*
X160181679Y-116510505D01*
X160252787Y-116503502D01*
X160288340Y-116500000D01*
X160359660Y-116500000D01*
X160395213Y-116503502D01*
X160395213Y-116503502D01*
G37*
G36*
X138395213Y-116503502D02*
G01*
X138466321Y-116510505D01*
X138603172Y-116552019D01*
X138603175Y-116552020D01*
X138729294Y-116619432D01*
X138839843Y-116710157D01*
X138930568Y-116820706D01*
X138997980Y-116946825D01*
X138997981Y-116946828D01*
X139039495Y-117083679D01*
X139053512Y-117226000D01*
X139039495Y-117368321D01*
X138997981Y-117505172D01*
X138997980Y-117505175D01*
X138930568Y-117631294D01*
X138839843Y-117741843D01*
X138729294Y-117832568D01*
X138603175Y-117899980D01*
X138603172Y-117899981D01*
X138466321Y-117941495D01*
X138395213Y-117948498D01*
X138359660Y-117952000D01*
X138288340Y-117952000D01*
X138252787Y-117948498D01*
X138181679Y-117941495D01*
X138044828Y-117899981D01*
X138044825Y-117899980D01*
X137918706Y-117832568D01*
X137808157Y-117741843D01*
X137717432Y-117631294D01*
X137650020Y-117505175D01*
X137650019Y-117505172D01*
X137608505Y-117368321D01*
X137594488Y-117226000D01*
X137608505Y-117083679D01*
X137650019Y-116946828D01*
X137650020Y-116946825D01*
X137717432Y-116820706D01*
X137808157Y-116710157D01*
X137918706Y-116619432D01*
X138044825Y-116552020D01*
X138044828Y-116552019D01*
X138181679Y-116510505D01*
X138252787Y-116503502D01*
X138288340Y-116500000D01*
X138359660Y-116500000D01*
X138395213Y-116503502D01*
X138395213Y-116503502D01*
G37*
G36*
X136395213Y-116503502D02*
G01*
X136466321Y-116510505D01*
X136603172Y-116552019D01*
X136603175Y-116552020D01*
X136729294Y-116619432D01*
X136839843Y-116710157D01*
X136930568Y-116820706D01*
X136997980Y-116946825D01*
X136997981Y-116946828D01*
X137039495Y-117083679D01*
X137053512Y-117226000D01*
X137039495Y-117368321D01*
X136997981Y-117505172D01*
X136997980Y-117505175D01*
X136930568Y-117631294D01*
X136839843Y-117741843D01*
X136729294Y-117832568D01*
X136603175Y-117899980D01*
X136603172Y-117899981D01*
X136466321Y-117941495D01*
X136395213Y-117948498D01*
X136359660Y-117952000D01*
X136288340Y-117952000D01*
X136252787Y-117948498D01*
X136181679Y-117941495D01*
X136044828Y-117899981D01*
X136044825Y-117899980D01*
X135918706Y-117832568D01*
X135808157Y-117741843D01*
X135717432Y-117631294D01*
X135650020Y-117505175D01*
X135650019Y-117505172D01*
X135608505Y-117368321D01*
X135594488Y-117226000D01*
X135608505Y-117083679D01*
X135650019Y-116946828D01*
X135650020Y-116946825D01*
X135717432Y-116820706D01*
X135808157Y-116710157D01*
X135918706Y-116619432D01*
X136044825Y-116552020D01*
X136044828Y-116552019D01*
X136181679Y-116510505D01*
X136252787Y-116503502D01*
X136288340Y-116500000D01*
X136359660Y-116500000D01*
X136395213Y-116503502D01*
X136395213Y-116503502D01*
G37*
G36*
X146395213Y-116503502D02*
G01*
X146466321Y-116510505D01*
X146603172Y-116552019D01*
X146603175Y-116552020D01*
X146729294Y-116619432D01*
X146839843Y-116710157D01*
X146930568Y-116820706D01*
X146997980Y-116946825D01*
X146997981Y-116946828D01*
X147039495Y-117083679D01*
X147053512Y-117226000D01*
X147039495Y-117368321D01*
X146997981Y-117505172D01*
X146997980Y-117505175D01*
X146930568Y-117631294D01*
X146839843Y-117741843D01*
X146729294Y-117832568D01*
X146603175Y-117899980D01*
X146603172Y-117899981D01*
X146466321Y-117941495D01*
X146395213Y-117948498D01*
X146359660Y-117952000D01*
X146288340Y-117952000D01*
X146252787Y-117948498D01*
X146181679Y-117941495D01*
X146044828Y-117899981D01*
X146044825Y-117899980D01*
X145918706Y-117832568D01*
X145808157Y-117741843D01*
X145717432Y-117631294D01*
X145650020Y-117505175D01*
X145650019Y-117505172D01*
X145608505Y-117368321D01*
X145594488Y-117226000D01*
X145608505Y-117083679D01*
X145650019Y-116946828D01*
X145650020Y-116946825D01*
X145717432Y-116820706D01*
X145808157Y-116710157D01*
X145918706Y-116619432D01*
X146044825Y-116552020D01*
X146044828Y-116552019D01*
X146181679Y-116510505D01*
X146252787Y-116503502D01*
X146288340Y-116500000D01*
X146359660Y-116500000D01*
X146395213Y-116503502D01*
X146395213Y-116503502D01*
G37*
G36*
X142395213Y-116503502D02*
G01*
X142466321Y-116510505D01*
X142603172Y-116552019D01*
X142603175Y-116552020D01*
X142729294Y-116619432D01*
X142839843Y-116710157D01*
X142930568Y-116820706D01*
X142997980Y-116946825D01*
X142997981Y-116946828D01*
X143039495Y-117083679D01*
X143053512Y-117226000D01*
X143039495Y-117368321D01*
X142997981Y-117505172D01*
X142997980Y-117505175D01*
X142930568Y-117631294D01*
X142839843Y-117741843D01*
X142729294Y-117832568D01*
X142603175Y-117899980D01*
X142603172Y-117899981D01*
X142466321Y-117941495D01*
X142395213Y-117948498D01*
X142359660Y-117952000D01*
X142288340Y-117952000D01*
X142252787Y-117948498D01*
X142181679Y-117941495D01*
X142044828Y-117899981D01*
X142044825Y-117899980D01*
X141918706Y-117832568D01*
X141808157Y-117741843D01*
X141717432Y-117631294D01*
X141650020Y-117505175D01*
X141650019Y-117505172D01*
X141608505Y-117368321D01*
X141594488Y-117226000D01*
X141608505Y-117083679D01*
X141650019Y-116946828D01*
X141650020Y-116946825D01*
X141717432Y-116820706D01*
X141808157Y-116710157D01*
X141918706Y-116619432D01*
X142044825Y-116552020D01*
X142044828Y-116552019D01*
X142181679Y-116510505D01*
X142252787Y-116503502D01*
X142288340Y-116500000D01*
X142359660Y-116500000D01*
X142395213Y-116503502D01*
X142395213Y-116503502D01*
G37*
G36*
X162395213Y-116503502D02*
G01*
X162466321Y-116510505D01*
X162603172Y-116552019D01*
X162603175Y-116552020D01*
X162729294Y-116619432D01*
X162839843Y-116710157D01*
X162930568Y-116820706D01*
X162997980Y-116946825D01*
X162997981Y-116946828D01*
X163039495Y-117083679D01*
X163053512Y-117226000D01*
X163039495Y-117368321D01*
X162997981Y-117505172D01*
X162997980Y-117505175D01*
X162930568Y-117631294D01*
X162839843Y-117741843D01*
X162729294Y-117832568D01*
X162603175Y-117899980D01*
X162603172Y-117899981D01*
X162466321Y-117941495D01*
X162395213Y-117948498D01*
X162359660Y-117952000D01*
X162288340Y-117952000D01*
X162252787Y-117948498D01*
X162181679Y-117941495D01*
X162044828Y-117899981D01*
X162044825Y-117899980D01*
X161918706Y-117832568D01*
X161808157Y-117741843D01*
X161717432Y-117631294D01*
X161650020Y-117505175D01*
X161650019Y-117505172D01*
X161608505Y-117368321D01*
X161594488Y-117226000D01*
X161608505Y-117083679D01*
X161650019Y-116946828D01*
X161650020Y-116946825D01*
X161717432Y-116820706D01*
X161808157Y-116710157D01*
X161918706Y-116619432D01*
X162044825Y-116552020D01*
X162044828Y-116552019D01*
X162181679Y-116510505D01*
X162252787Y-116503502D01*
X162288340Y-116500000D01*
X162359660Y-116500000D01*
X162395213Y-116503502D01*
X162395213Y-116503502D01*
G37*
G36*
X140395213Y-116503502D02*
G01*
X140466321Y-116510505D01*
X140603172Y-116552019D01*
X140603175Y-116552020D01*
X140729294Y-116619432D01*
X140839843Y-116710157D01*
X140930568Y-116820706D01*
X140997980Y-116946825D01*
X140997981Y-116946828D01*
X141039495Y-117083679D01*
X141053512Y-117226000D01*
X141039495Y-117368321D01*
X140997981Y-117505172D01*
X140997980Y-117505175D01*
X140930568Y-117631294D01*
X140839843Y-117741843D01*
X140729294Y-117832568D01*
X140603175Y-117899980D01*
X140603172Y-117899981D01*
X140466321Y-117941495D01*
X140395213Y-117948498D01*
X140359660Y-117952000D01*
X140288340Y-117952000D01*
X140252787Y-117948498D01*
X140181679Y-117941495D01*
X140044828Y-117899981D01*
X140044825Y-117899980D01*
X139918706Y-117832568D01*
X139808157Y-117741843D01*
X139717432Y-117631294D01*
X139650020Y-117505175D01*
X139650019Y-117505172D01*
X139608505Y-117368321D01*
X139594488Y-117226000D01*
X139608505Y-117083679D01*
X139650019Y-116946828D01*
X139650020Y-116946825D01*
X139717432Y-116820706D01*
X139808157Y-116710157D01*
X139918706Y-116619432D01*
X140044825Y-116552020D01*
X140044828Y-116552019D01*
X140181679Y-116510505D01*
X140252787Y-116503502D01*
X140288340Y-116500000D01*
X140359660Y-116500000D01*
X140395213Y-116503502D01*
X140395213Y-116503502D01*
G37*
G36*
X176395213Y-116503502D02*
G01*
X176466321Y-116510505D01*
X176603172Y-116552019D01*
X176603175Y-116552020D01*
X176729294Y-116619432D01*
X176839843Y-116710157D01*
X176930568Y-116820706D01*
X176997980Y-116946825D01*
X176997981Y-116946828D01*
X177039495Y-117083679D01*
X177053512Y-117226000D01*
X177039495Y-117368321D01*
X176997981Y-117505172D01*
X176997980Y-117505175D01*
X176930568Y-117631294D01*
X176839843Y-117741843D01*
X176729294Y-117832568D01*
X176603175Y-117899980D01*
X176603172Y-117899981D01*
X176466321Y-117941495D01*
X176395213Y-117948498D01*
X176359660Y-117952000D01*
X176288340Y-117952000D01*
X176252787Y-117948498D01*
X176181679Y-117941495D01*
X176044828Y-117899981D01*
X176044825Y-117899980D01*
X175918706Y-117832568D01*
X175808157Y-117741843D01*
X175717432Y-117631294D01*
X175650020Y-117505175D01*
X175650019Y-117505172D01*
X175608505Y-117368321D01*
X175594488Y-117226000D01*
X175608505Y-117083679D01*
X175650019Y-116946828D01*
X175650020Y-116946825D01*
X175717432Y-116820706D01*
X175808157Y-116710157D01*
X175918706Y-116619432D01*
X176044825Y-116552020D01*
X176044828Y-116552019D01*
X176181679Y-116510505D01*
X176252787Y-116503502D01*
X176288340Y-116500000D01*
X176359660Y-116500000D01*
X176395213Y-116503502D01*
X176395213Y-116503502D01*
G37*
G36*
X172395213Y-116503502D02*
G01*
X172466321Y-116510505D01*
X172603172Y-116552019D01*
X172603175Y-116552020D01*
X172729294Y-116619432D01*
X172839843Y-116710157D01*
X172930568Y-116820706D01*
X172997980Y-116946825D01*
X172997981Y-116946828D01*
X173039495Y-117083679D01*
X173053512Y-117226000D01*
X173039495Y-117368321D01*
X172997981Y-117505172D01*
X172997980Y-117505175D01*
X172930568Y-117631294D01*
X172839843Y-117741843D01*
X172729294Y-117832568D01*
X172603175Y-117899980D01*
X172603172Y-117899981D01*
X172466321Y-117941495D01*
X172395213Y-117948498D01*
X172359660Y-117952000D01*
X172288340Y-117952000D01*
X172252787Y-117948498D01*
X172181679Y-117941495D01*
X172044828Y-117899981D01*
X172044825Y-117899980D01*
X171918706Y-117832568D01*
X171808157Y-117741843D01*
X171717432Y-117631294D01*
X171650020Y-117505175D01*
X171650019Y-117505172D01*
X171608505Y-117368321D01*
X171594488Y-117226000D01*
X171608505Y-117083679D01*
X171650019Y-116946828D01*
X171650020Y-116946825D01*
X171717432Y-116820706D01*
X171808157Y-116710157D01*
X171918706Y-116619432D01*
X172044825Y-116552020D01*
X172044828Y-116552019D01*
X172181679Y-116510505D01*
X172252787Y-116503502D01*
X172288340Y-116500000D01*
X172359660Y-116500000D01*
X172395213Y-116503502D01*
X172395213Y-116503502D01*
G37*
G36*
X156395213Y-116503502D02*
G01*
X156466321Y-116510505D01*
X156603172Y-116552019D01*
X156603175Y-116552020D01*
X156729294Y-116619432D01*
X156839843Y-116710157D01*
X156930568Y-116820706D01*
X156997980Y-116946825D01*
X156997981Y-116946828D01*
X157039495Y-117083679D01*
X157053512Y-117226000D01*
X157039495Y-117368321D01*
X156997981Y-117505172D01*
X156997980Y-117505175D01*
X156930568Y-117631294D01*
X156839843Y-117741843D01*
X156729294Y-117832568D01*
X156603175Y-117899980D01*
X156603172Y-117899981D01*
X156466321Y-117941495D01*
X156395213Y-117948498D01*
X156359660Y-117952000D01*
X156288340Y-117952000D01*
X156252787Y-117948498D01*
X156181679Y-117941495D01*
X156044828Y-117899981D01*
X156044825Y-117899980D01*
X155918706Y-117832568D01*
X155808157Y-117741843D01*
X155717432Y-117631294D01*
X155650020Y-117505175D01*
X155650019Y-117505172D01*
X155608505Y-117368321D01*
X155594488Y-117226000D01*
X155608505Y-117083679D01*
X155650019Y-116946828D01*
X155650020Y-116946825D01*
X155717432Y-116820706D01*
X155808157Y-116710157D01*
X155918706Y-116619432D01*
X156044825Y-116552020D01*
X156044828Y-116552019D01*
X156181679Y-116510505D01*
X156252787Y-116503502D01*
X156288340Y-116500000D01*
X156359660Y-116500000D01*
X156395213Y-116503502D01*
X156395213Y-116503502D01*
G37*
G36*
X174395213Y-116503502D02*
G01*
X174466321Y-116510505D01*
X174603172Y-116552019D01*
X174603175Y-116552020D01*
X174729294Y-116619432D01*
X174839843Y-116710157D01*
X174930568Y-116820706D01*
X174997980Y-116946825D01*
X174997981Y-116946828D01*
X175039495Y-117083679D01*
X175053512Y-117226000D01*
X175039495Y-117368321D01*
X174997981Y-117505172D01*
X174997980Y-117505175D01*
X174930568Y-117631294D01*
X174839843Y-117741843D01*
X174729294Y-117832568D01*
X174603175Y-117899980D01*
X174603172Y-117899981D01*
X174466321Y-117941495D01*
X174395213Y-117948498D01*
X174359660Y-117952000D01*
X174288340Y-117952000D01*
X174252787Y-117948498D01*
X174181679Y-117941495D01*
X174044828Y-117899981D01*
X174044825Y-117899980D01*
X173918706Y-117832568D01*
X173808157Y-117741843D01*
X173717432Y-117631294D01*
X173650020Y-117505175D01*
X173650019Y-117505172D01*
X173608505Y-117368321D01*
X173594488Y-117226000D01*
X173608505Y-117083679D01*
X173650019Y-116946828D01*
X173650020Y-116946825D01*
X173717432Y-116820706D01*
X173808157Y-116710157D01*
X173918706Y-116619432D01*
X174044825Y-116552020D01*
X174044828Y-116552019D01*
X174181679Y-116510505D01*
X174252787Y-116503502D01*
X174288340Y-116500000D01*
X174359660Y-116500000D01*
X174395213Y-116503502D01*
X174395213Y-116503502D01*
G37*
G36*
X182395213Y-116503502D02*
G01*
X182466321Y-116510505D01*
X182603172Y-116552019D01*
X182603175Y-116552020D01*
X182729294Y-116619432D01*
X182839843Y-116710157D01*
X182930568Y-116820706D01*
X182997980Y-116946825D01*
X182997981Y-116946828D01*
X183039495Y-117083679D01*
X183053512Y-117226000D01*
X183039495Y-117368321D01*
X182997981Y-117505172D01*
X182997980Y-117505175D01*
X182930568Y-117631294D01*
X182839843Y-117741843D01*
X182729294Y-117832568D01*
X182603175Y-117899980D01*
X182603172Y-117899981D01*
X182466321Y-117941495D01*
X182395213Y-117948498D01*
X182359660Y-117952000D01*
X182288340Y-117952000D01*
X182252787Y-117948498D01*
X182181679Y-117941495D01*
X182044828Y-117899981D01*
X182044825Y-117899980D01*
X181918706Y-117832568D01*
X181808157Y-117741843D01*
X181717432Y-117631294D01*
X181650020Y-117505175D01*
X181650019Y-117505172D01*
X181608505Y-117368321D01*
X181594488Y-117226000D01*
X181608505Y-117083679D01*
X181650019Y-116946828D01*
X181650020Y-116946825D01*
X181717432Y-116820706D01*
X181808157Y-116710157D01*
X181918706Y-116619432D01*
X182044825Y-116552020D01*
X182044828Y-116552019D01*
X182181679Y-116510505D01*
X182252787Y-116503502D01*
X182288340Y-116500000D01*
X182359660Y-116500000D01*
X182395213Y-116503502D01*
X182395213Y-116503502D01*
G37*
G36*
X178395213Y-116503502D02*
G01*
X178466321Y-116510505D01*
X178603172Y-116552019D01*
X178603175Y-116552020D01*
X178729294Y-116619432D01*
X178839843Y-116710157D01*
X178930568Y-116820706D01*
X178997980Y-116946825D01*
X178997981Y-116946828D01*
X179039495Y-117083679D01*
X179053512Y-117226000D01*
X179039495Y-117368321D01*
X178997981Y-117505172D01*
X178997980Y-117505175D01*
X178930568Y-117631294D01*
X178839843Y-117741843D01*
X178729294Y-117832568D01*
X178603175Y-117899980D01*
X178603172Y-117899981D01*
X178466321Y-117941495D01*
X178395213Y-117948498D01*
X178359660Y-117952000D01*
X178288340Y-117952000D01*
X178252787Y-117948498D01*
X178181679Y-117941495D01*
X178044828Y-117899981D01*
X178044825Y-117899980D01*
X177918706Y-117832568D01*
X177808157Y-117741843D01*
X177717432Y-117631294D01*
X177650020Y-117505175D01*
X177650019Y-117505172D01*
X177608505Y-117368321D01*
X177594488Y-117226000D01*
X177608505Y-117083679D01*
X177650019Y-116946828D01*
X177650020Y-116946825D01*
X177717432Y-116820706D01*
X177808157Y-116710157D01*
X177918706Y-116619432D01*
X178044825Y-116552020D01*
X178044828Y-116552019D01*
X178181679Y-116510505D01*
X178252787Y-116503502D01*
X178288340Y-116500000D01*
X178359660Y-116500000D01*
X178395213Y-116503502D01*
X178395213Y-116503502D01*
G37*
G36*
X168395213Y-116503502D02*
G01*
X168466321Y-116510505D01*
X168603172Y-116552019D01*
X168603175Y-116552020D01*
X168729294Y-116619432D01*
X168839843Y-116710157D01*
X168930568Y-116820706D01*
X168997980Y-116946825D01*
X168997981Y-116946828D01*
X169039495Y-117083679D01*
X169053512Y-117226000D01*
X169039495Y-117368321D01*
X168997981Y-117505172D01*
X168997980Y-117505175D01*
X168930568Y-117631294D01*
X168839843Y-117741843D01*
X168729294Y-117832568D01*
X168603175Y-117899980D01*
X168603172Y-117899981D01*
X168466321Y-117941495D01*
X168395213Y-117948498D01*
X168359660Y-117952000D01*
X168288340Y-117952000D01*
X168252787Y-117948498D01*
X168181679Y-117941495D01*
X168044828Y-117899981D01*
X168044825Y-117899980D01*
X167918706Y-117832568D01*
X167808157Y-117741843D01*
X167717432Y-117631294D01*
X167650020Y-117505175D01*
X167650019Y-117505172D01*
X167608505Y-117368321D01*
X167594488Y-117226000D01*
X167608505Y-117083679D01*
X167650019Y-116946828D01*
X167650020Y-116946825D01*
X167717432Y-116820706D01*
X167808157Y-116710157D01*
X167918706Y-116619432D01*
X168044825Y-116552020D01*
X168044828Y-116552019D01*
X168181679Y-116510505D01*
X168252787Y-116503502D01*
X168288340Y-116500000D01*
X168359660Y-116500000D01*
X168395213Y-116503502D01*
X168395213Y-116503502D01*
G37*
G36*
X170395213Y-116503502D02*
G01*
X170466321Y-116510505D01*
X170603172Y-116552019D01*
X170603175Y-116552020D01*
X170729294Y-116619432D01*
X170839843Y-116710157D01*
X170930568Y-116820706D01*
X170997980Y-116946825D01*
X170997981Y-116946828D01*
X171039495Y-117083679D01*
X171053512Y-117226000D01*
X171039495Y-117368321D01*
X170997981Y-117505172D01*
X170997980Y-117505175D01*
X170930568Y-117631294D01*
X170839843Y-117741843D01*
X170729294Y-117832568D01*
X170603175Y-117899980D01*
X170603172Y-117899981D01*
X170466321Y-117941495D01*
X170395213Y-117948498D01*
X170359660Y-117952000D01*
X170288340Y-117952000D01*
X170252787Y-117948498D01*
X170181679Y-117941495D01*
X170044828Y-117899981D01*
X170044825Y-117899980D01*
X169918706Y-117832568D01*
X169808157Y-117741843D01*
X169717432Y-117631294D01*
X169650020Y-117505175D01*
X169650019Y-117505172D01*
X169608505Y-117368321D01*
X169594488Y-117226000D01*
X169608505Y-117083679D01*
X169650019Y-116946828D01*
X169650020Y-116946825D01*
X169717432Y-116820706D01*
X169808157Y-116710157D01*
X169918706Y-116619432D01*
X170044825Y-116552020D01*
X170044828Y-116552019D01*
X170181679Y-116510505D01*
X170252787Y-116503502D01*
X170288340Y-116500000D01*
X170359660Y-116500000D01*
X170395213Y-116503502D01*
X170395213Y-116503502D01*
G37*
G36*
X166395213Y-116503502D02*
G01*
X166466321Y-116510505D01*
X166603172Y-116552019D01*
X166603175Y-116552020D01*
X166729294Y-116619432D01*
X166839843Y-116710157D01*
X166930568Y-116820706D01*
X166997980Y-116946825D01*
X166997981Y-116946828D01*
X167039495Y-117083679D01*
X167053512Y-117226000D01*
X167039495Y-117368321D01*
X166997981Y-117505172D01*
X166997980Y-117505175D01*
X166930568Y-117631294D01*
X166839843Y-117741843D01*
X166729294Y-117832568D01*
X166603175Y-117899980D01*
X166603172Y-117899981D01*
X166466321Y-117941495D01*
X166395213Y-117948498D01*
X166359660Y-117952000D01*
X166288340Y-117952000D01*
X166252787Y-117948498D01*
X166181679Y-117941495D01*
X166044828Y-117899981D01*
X166044825Y-117899980D01*
X165918706Y-117832568D01*
X165808157Y-117741843D01*
X165717432Y-117631294D01*
X165650020Y-117505175D01*
X165650019Y-117505172D01*
X165608505Y-117368321D01*
X165594488Y-117226000D01*
X165608505Y-117083679D01*
X165650019Y-116946828D01*
X165650020Y-116946825D01*
X165717432Y-116820706D01*
X165808157Y-116710157D01*
X165918706Y-116619432D01*
X166044825Y-116552020D01*
X166044828Y-116552019D01*
X166181679Y-116510505D01*
X166252787Y-116503502D01*
X166288340Y-116500000D01*
X166359660Y-116500000D01*
X166395213Y-116503502D01*
X166395213Y-116503502D01*
G37*
G36*
X164395213Y-116503502D02*
G01*
X164466321Y-116510505D01*
X164603172Y-116552019D01*
X164603175Y-116552020D01*
X164729294Y-116619432D01*
X164839843Y-116710157D01*
X164930568Y-116820706D01*
X164997980Y-116946825D01*
X164997981Y-116946828D01*
X165039495Y-117083679D01*
X165053512Y-117226000D01*
X165039495Y-117368321D01*
X164997981Y-117505172D01*
X164997980Y-117505175D01*
X164930568Y-117631294D01*
X164839843Y-117741843D01*
X164729294Y-117832568D01*
X164603175Y-117899980D01*
X164603172Y-117899981D01*
X164466321Y-117941495D01*
X164395213Y-117948498D01*
X164359660Y-117952000D01*
X164288340Y-117952000D01*
X164252787Y-117948498D01*
X164181679Y-117941495D01*
X164044828Y-117899981D01*
X164044825Y-117899980D01*
X163918706Y-117832568D01*
X163808157Y-117741843D01*
X163717432Y-117631294D01*
X163650020Y-117505175D01*
X163650019Y-117505172D01*
X163608505Y-117368321D01*
X163594488Y-117226000D01*
X163608505Y-117083679D01*
X163650019Y-116946828D01*
X163650020Y-116946825D01*
X163717432Y-116820706D01*
X163808157Y-116710157D01*
X163918706Y-116619432D01*
X164044825Y-116552020D01*
X164044828Y-116552019D01*
X164181679Y-116510505D01*
X164252787Y-116503502D01*
X164288340Y-116500000D01*
X164359660Y-116500000D01*
X164395213Y-116503502D01*
X164395213Y-116503502D01*
G37*
G36*
X180395213Y-116503502D02*
G01*
X180466321Y-116510505D01*
X180603172Y-116552019D01*
X180603175Y-116552020D01*
X180729294Y-116619432D01*
X180839843Y-116710157D01*
X180930568Y-116820706D01*
X180997980Y-116946825D01*
X180997981Y-116946828D01*
X181039495Y-117083679D01*
X181053512Y-117226000D01*
X181039495Y-117368321D01*
X180997981Y-117505172D01*
X180997980Y-117505175D01*
X180930568Y-117631294D01*
X180839843Y-117741843D01*
X180729294Y-117832568D01*
X180603175Y-117899980D01*
X180603172Y-117899981D01*
X180466321Y-117941495D01*
X180395213Y-117948498D01*
X180359660Y-117952000D01*
X180288340Y-117952000D01*
X180252787Y-117948498D01*
X180181679Y-117941495D01*
X180044828Y-117899981D01*
X180044825Y-117899980D01*
X179918706Y-117832568D01*
X179808157Y-117741843D01*
X179717432Y-117631294D01*
X179650020Y-117505175D01*
X179650019Y-117505172D01*
X179608505Y-117368321D01*
X179594488Y-117226000D01*
X179608505Y-117083679D01*
X179650019Y-116946828D01*
X179650020Y-116946825D01*
X179717432Y-116820706D01*
X179808157Y-116710157D01*
X179918706Y-116619432D01*
X180044825Y-116552020D01*
X180044828Y-116552019D01*
X180181679Y-116510505D01*
X180252787Y-116503502D01*
X180288340Y-116500000D01*
X180359660Y-116500000D01*
X180395213Y-116503502D01*
X180395213Y-116503502D01*
G37*
G36*
X171805655Y-111394591D02*
G01*
X171877525Y-111408887D01*
X172080624Y-111493013D01*
X172263409Y-111615146D01*
X172418854Y-111770591D01*
X172540987Y-111953376D01*
X172625113Y-112156475D01*
X172668000Y-112372084D01*
X172668000Y-112591916D01*
X172625113Y-112807525D01*
X172540987Y-113010624D01*
X172418854Y-113193409D01*
X172263409Y-113348854D01*
X172080624Y-113470987D01*
X171877525Y-113555113D01*
X171805655Y-113569409D01*
X171661918Y-113598000D01*
X171442082Y-113598000D01*
X171298345Y-113569409D01*
X171226475Y-113555113D01*
X171023376Y-113470987D01*
X170840591Y-113348854D01*
X170685146Y-113193409D01*
X170563013Y-113010624D01*
X170478887Y-112807525D01*
X170436000Y-112591916D01*
X170436000Y-112372084D01*
X170478887Y-112156475D01*
X170563013Y-111953376D01*
X170685146Y-111770591D01*
X170840591Y-111615146D01*
X171023376Y-111493013D01*
X171226475Y-111408887D01*
X171298345Y-111394591D01*
X171442082Y-111366000D01*
X171661918Y-111366000D01*
X171805655Y-111394591D01*
X171805655Y-111394591D01*
G37*
G36*
X143235015Y-111830973D02*
G01*
X143338879Y-111862479D01*
X143366055Y-111877005D01*
X143434600Y-111913643D01*
X143518501Y-111982499D01*
X143587357Y-112066400D01*
X143623995Y-112134945D01*
X143638521Y-112162121D01*
X143670027Y-112265985D01*
X143680666Y-112374000D01*
X143670027Y-112482015D01*
X143638521Y-112585879D01*
X143638519Y-112585882D01*
X143587357Y-112681600D01*
X143518501Y-112765501D01*
X143434600Y-112834357D01*
X143366055Y-112870995D01*
X143338879Y-112885521D01*
X143235015Y-112917027D01*
X143154067Y-112925000D01*
X140099933Y-112925000D01*
X140018985Y-112917027D01*
X139915121Y-112885521D01*
X139887945Y-112870995D01*
X139819400Y-112834357D01*
X139735499Y-112765501D01*
X139666643Y-112681600D01*
X139615481Y-112585882D01*
X139615479Y-112585879D01*
X139583973Y-112482015D01*
X139573334Y-112374000D01*
X139583973Y-112265985D01*
X139615479Y-112162121D01*
X139630005Y-112134945D01*
X139666643Y-112066400D01*
X139735499Y-111982499D01*
X139819400Y-111913643D01*
X139887945Y-111877005D01*
X139915121Y-111862479D01*
X140018985Y-111830973D01*
X140099933Y-111823000D01*
X143154067Y-111823000D01*
X143235015Y-111830973D01*
X143235015Y-111830973D01*
G37*
G36*
X151735015Y-111830973D02*
G01*
X151838879Y-111862479D01*
X151866055Y-111877005D01*
X151934600Y-111913643D01*
X152018501Y-111982499D01*
X152087357Y-112066400D01*
X152123995Y-112134945D01*
X152138521Y-112162121D01*
X152170027Y-112265985D01*
X152180666Y-112374000D01*
X152170027Y-112482015D01*
X152138521Y-112585879D01*
X152138519Y-112585882D01*
X152087357Y-112681600D01*
X152018501Y-112765501D01*
X151934600Y-112834357D01*
X151866055Y-112870995D01*
X151838879Y-112885521D01*
X151735015Y-112917027D01*
X151654067Y-112925000D01*
X148599933Y-112925000D01*
X148518985Y-112917027D01*
X148415121Y-112885521D01*
X148387945Y-112870995D01*
X148319400Y-112834357D01*
X148235499Y-112765501D01*
X148166643Y-112681600D01*
X148115481Y-112585882D01*
X148115479Y-112585879D01*
X148083973Y-112482015D01*
X148073334Y-112374000D01*
X148083973Y-112265985D01*
X148115479Y-112162121D01*
X148130005Y-112134945D01*
X148166643Y-112066400D01*
X148235499Y-111982499D01*
X148319400Y-111913643D01*
X148387945Y-111877005D01*
X148415121Y-111862479D01*
X148518985Y-111830973D01*
X148599933Y-111823000D01*
X151654067Y-111823000D01*
X151735015Y-111830973D01*
X151735015Y-111830973D01*
G37*
G36*
X170473000Y-110783000D02*
G01*
X168871000Y-110783000D01*
X168871000Y-109181000D01*
X170473000Y-109181000D01*
X170473000Y-110783000D01*
X170473000Y-110783000D01*
G37*
G36*
X148941890Y-109348017D02*
G01*
X149060364Y-109397091D01*
X149166988Y-109468335D01*
X149257665Y-109559012D01*
X149328909Y-109665636D01*
X149377983Y-109784110D01*
X149403000Y-109909882D01*
X149403000Y-110038118D01*
X149377983Y-110163890D01*
X149328909Y-110282364D01*
X149257665Y-110388988D01*
X149166988Y-110479665D01*
X149060364Y-110550909D01*
X149060363Y-110550910D01*
X149060362Y-110550910D01*
X148941890Y-110599983D01*
X148816119Y-110625000D01*
X148687881Y-110625000D01*
X148562110Y-110599983D01*
X148443638Y-110550910D01*
X148443637Y-110550910D01*
X148443636Y-110550909D01*
X148337012Y-110479665D01*
X148246335Y-110388988D01*
X148175091Y-110282364D01*
X148126017Y-110163890D01*
X148101000Y-110038118D01*
X148101000Y-109909882D01*
X148126017Y-109784110D01*
X148175091Y-109665636D01*
X148246335Y-109559012D01*
X148337012Y-109468335D01*
X148443636Y-109397091D01*
X148562110Y-109348017D01*
X148687881Y-109323000D01*
X148816119Y-109323000D01*
X148941890Y-109348017D01*
X148941890Y-109348017D01*
G37*
G36*
X140441890Y-109348017D02*
G01*
X140560364Y-109397091D01*
X140666988Y-109468335D01*
X140757665Y-109559012D01*
X140828909Y-109665636D01*
X140877983Y-109784110D01*
X140903000Y-109909882D01*
X140903000Y-110038118D01*
X140877983Y-110163890D01*
X140828909Y-110282364D01*
X140757665Y-110388988D01*
X140666988Y-110479665D01*
X140560364Y-110550909D01*
X140560363Y-110550910D01*
X140560362Y-110550910D01*
X140441890Y-110599983D01*
X140316119Y-110625000D01*
X140187881Y-110625000D01*
X140062110Y-110599983D01*
X139943638Y-110550910D01*
X139943637Y-110550910D01*
X139943636Y-110550909D01*
X139837012Y-110479665D01*
X139746335Y-110388988D01*
X139675091Y-110282364D01*
X139626017Y-110163890D01*
X139601000Y-110038118D01*
X139601000Y-109909882D01*
X139626017Y-109784110D01*
X139675091Y-109665636D01*
X139746335Y-109559012D01*
X139837012Y-109468335D01*
X139943636Y-109397091D01*
X140062110Y-109348017D01*
X140187881Y-109323000D01*
X140316119Y-109323000D01*
X140441890Y-109348017D01*
X140441890Y-109348017D01*
G37*
G36*
X143191890Y-108848017D02*
G01*
X143310364Y-108897091D01*
X143416988Y-108968335D01*
X143507665Y-109059012D01*
X143578909Y-109165636D01*
X143627983Y-109284110D01*
X143653000Y-109409882D01*
X143653000Y-109538118D01*
X143627983Y-109663890D01*
X143578909Y-109782364D01*
X143507665Y-109888988D01*
X143416988Y-109979665D01*
X143310364Y-110050909D01*
X143310363Y-110050910D01*
X143310362Y-110050910D01*
X143191890Y-110099983D01*
X143066119Y-110125000D01*
X142937881Y-110125000D01*
X142812110Y-110099983D01*
X142693638Y-110050910D01*
X142693637Y-110050910D01*
X142693636Y-110050909D01*
X142587012Y-109979665D01*
X142496335Y-109888988D01*
X142425091Y-109782364D01*
X142376017Y-109663890D01*
X142351000Y-109538118D01*
X142351000Y-109409882D01*
X142376017Y-109284110D01*
X142425091Y-109165636D01*
X142496335Y-109059012D01*
X142587012Y-108968335D01*
X142693636Y-108897091D01*
X142812110Y-108848017D01*
X142937881Y-108823000D01*
X143066119Y-108823000D01*
X143191890Y-108848017D01*
X143191890Y-108848017D01*
G37*
G36*
X151691890Y-108848017D02*
G01*
X151810364Y-108897091D01*
X151916988Y-108968335D01*
X152007665Y-109059012D01*
X152078909Y-109165636D01*
X152127983Y-109284110D01*
X152153000Y-109409882D01*
X152153000Y-109538118D01*
X152127983Y-109663890D01*
X152078909Y-109782364D01*
X152007665Y-109888988D01*
X151916988Y-109979665D01*
X151810364Y-110050909D01*
X151810363Y-110050910D01*
X151810362Y-110050910D01*
X151691890Y-110099983D01*
X151566119Y-110125000D01*
X151437881Y-110125000D01*
X151312110Y-110099983D01*
X151193638Y-110050910D01*
X151193637Y-110050910D01*
X151193636Y-110050909D01*
X151087012Y-109979665D01*
X150996335Y-109888988D01*
X150925091Y-109782364D01*
X150876017Y-109663890D01*
X150851000Y-109538118D01*
X150851000Y-109409882D01*
X150876017Y-109284110D01*
X150925091Y-109165636D01*
X150996335Y-109059012D01*
X151087012Y-108968335D01*
X151193636Y-108897091D01*
X151312110Y-108848017D01*
X151437881Y-108823000D01*
X151566119Y-108823000D01*
X151691890Y-108848017D01*
X151691890Y-108848017D01*
G37*
G36*
X167365642Y-107941781D02*
G01*
X167511414Y-108002162D01*
X167511416Y-108002163D01*
X167642608Y-108089822D01*
X167754178Y-108201392D01*
X167761412Y-108212219D01*
X167841838Y-108332586D01*
X167902219Y-108478358D01*
X167933000Y-108633107D01*
X167933000Y-108790893D01*
X167902219Y-108945642D01*
X167892819Y-108968335D01*
X167841837Y-109091416D01*
X167754178Y-109222608D01*
X167642608Y-109334178D01*
X167511416Y-109421837D01*
X167511415Y-109421838D01*
X167511414Y-109421838D01*
X167365642Y-109482219D01*
X167210893Y-109513000D01*
X167053107Y-109513000D01*
X166898358Y-109482219D01*
X166752586Y-109421838D01*
X166752585Y-109421838D01*
X166752584Y-109421837D01*
X166621392Y-109334178D01*
X166509822Y-109222608D01*
X166422163Y-109091416D01*
X166371181Y-108968335D01*
X166361781Y-108945642D01*
X166331000Y-108790893D01*
X166331000Y-108633107D01*
X166361781Y-108478358D01*
X166422162Y-108332586D01*
X166502588Y-108212219D01*
X166509822Y-108201392D01*
X166621392Y-108089822D01*
X166752584Y-108002163D01*
X166752586Y-108002162D01*
X166898358Y-107941781D01*
X167053107Y-107911000D01*
X167210893Y-107911000D01*
X167365642Y-107941781D01*
X167365642Y-107941781D01*
G37*
G36*
X140441890Y-107348017D02*
G01*
X140560364Y-107397091D01*
X140666988Y-107468335D01*
X140757665Y-107559012D01*
X140828910Y-107665638D01*
X140877983Y-107784110D01*
X140903000Y-107909881D01*
X140903000Y-108038119D01*
X140892716Y-108089822D01*
X140877983Y-108163890D01*
X140828909Y-108282364D01*
X140757665Y-108388988D01*
X140666988Y-108479665D01*
X140560364Y-108550909D01*
X140560363Y-108550910D01*
X140560362Y-108550910D01*
X140441890Y-108599983D01*
X140316119Y-108625000D01*
X140187881Y-108625000D01*
X140062110Y-108599983D01*
X139943638Y-108550910D01*
X139943637Y-108550910D01*
X139943636Y-108550909D01*
X139837012Y-108479665D01*
X139746335Y-108388988D01*
X139675091Y-108282364D01*
X139626017Y-108163890D01*
X139611284Y-108089822D01*
X139601000Y-108038119D01*
X139601000Y-107909881D01*
X139626017Y-107784110D01*
X139675090Y-107665638D01*
X139746335Y-107559012D01*
X139837012Y-107468335D01*
X139943636Y-107397091D01*
X140062110Y-107348017D01*
X140187881Y-107323000D01*
X140316119Y-107323000D01*
X140441890Y-107348017D01*
X140441890Y-107348017D01*
G37*
G36*
X148941890Y-107348017D02*
G01*
X149060364Y-107397091D01*
X149166988Y-107468335D01*
X149257665Y-107559012D01*
X149328910Y-107665638D01*
X149377983Y-107784110D01*
X149403000Y-107909881D01*
X149403000Y-108038119D01*
X149392716Y-108089822D01*
X149377983Y-108163890D01*
X149328909Y-108282364D01*
X149257665Y-108388988D01*
X149166988Y-108479665D01*
X149060364Y-108550909D01*
X149060363Y-108550910D01*
X149060362Y-108550910D01*
X148941890Y-108599983D01*
X148816119Y-108625000D01*
X148687881Y-108625000D01*
X148562110Y-108599983D01*
X148443638Y-108550910D01*
X148443637Y-108550910D01*
X148443636Y-108550909D01*
X148337012Y-108479665D01*
X148246335Y-108388988D01*
X148175091Y-108282364D01*
X148126017Y-108163890D01*
X148111284Y-108089822D01*
X148101000Y-108038119D01*
X148101000Y-107909881D01*
X148126017Y-107784110D01*
X148175090Y-107665638D01*
X148246335Y-107559012D01*
X148337012Y-107468335D01*
X148443636Y-107397091D01*
X148562110Y-107348017D01*
X148687881Y-107323000D01*
X148816119Y-107323000D01*
X148941890Y-107348017D01*
X148941890Y-107348017D01*
G37*
G36*
X169905642Y-106671781D02*
G01*
X170051414Y-106732162D01*
X170051416Y-106732163D01*
X170182608Y-106819822D01*
X170294178Y-106931392D01*
X170301412Y-106942219D01*
X170381838Y-107062586D01*
X170442219Y-107208358D01*
X170473000Y-107363107D01*
X170473000Y-107520893D01*
X170442219Y-107675642D01*
X170397290Y-107784110D01*
X170381837Y-107821416D01*
X170294178Y-107952608D01*
X170182608Y-108064178D01*
X170051416Y-108151837D01*
X170051415Y-108151838D01*
X170051414Y-108151838D01*
X169905642Y-108212219D01*
X169750893Y-108243000D01*
X169593107Y-108243000D01*
X169438358Y-108212219D01*
X169292586Y-108151838D01*
X169292585Y-108151838D01*
X169292584Y-108151837D01*
X169161392Y-108064178D01*
X169049822Y-107952608D01*
X168962163Y-107821416D01*
X168946710Y-107784110D01*
X168901781Y-107675642D01*
X168871000Y-107520893D01*
X168871000Y-107363107D01*
X168901781Y-107208358D01*
X168962162Y-107062586D01*
X169042588Y-106942219D01*
X169049822Y-106931392D01*
X169161392Y-106819822D01*
X169292584Y-106732163D01*
X169292586Y-106732162D01*
X169438358Y-106671781D01*
X169593107Y-106641000D01*
X169750893Y-106641000D01*
X169905642Y-106671781D01*
X169905642Y-106671781D01*
G37*
G36*
X151691890Y-106348017D02*
G01*
X151810364Y-106397091D01*
X151916988Y-106468335D01*
X152007665Y-106559012D01*
X152062448Y-106641000D01*
X152078910Y-106665638D01*
X152081455Y-106671782D01*
X152127983Y-106784110D01*
X152153000Y-106909882D01*
X152153000Y-107038118D01*
X152127983Y-107163890D01*
X152078909Y-107282364D01*
X152007665Y-107388988D01*
X151916988Y-107479665D01*
X151810364Y-107550909D01*
X151810363Y-107550910D01*
X151810362Y-107550910D01*
X151691890Y-107599983D01*
X151566119Y-107625000D01*
X151437881Y-107625000D01*
X151312110Y-107599983D01*
X151193638Y-107550910D01*
X151193637Y-107550910D01*
X151193636Y-107550909D01*
X151087012Y-107479665D01*
X150996335Y-107388988D01*
X150925091Y-107282364D01*
X150876017Y-107163890D01*
X150851000Y-107038118D01*
X150851000Y-106909882D01*
X150876017Y-106784110D01*
X150922545Y-106671782D01*
X150925090Y-106665638D01*
X150941553Y-106641000D01*
X150996335Y-106559012D01*
X151087012Y-106468335D01*
X151193636Y-106397091D01*
X151312110Y-106348017D01*
X151437881Y-106323000D01*
X151566119Y-106323000D01*
X151691890Y-106348017D01*
X151691890Y-106348017D01*
G37*
G36*
X143191890Y-106348017D02*
G01*
X143310364Y-106397091D01*
X143416988Y-106468335D01*
X143507665Y-106559012D01*
X143562448Y-106641000D01*
X143578910Y-106665638D01*
X143581455Y-106671782D01*
X143627983Y-106784110D01*
X143653000Y-106909882D01*
X143653000Y-107038118D01*
X143627983Y-107163890D01*
X143578909Y-107282364D01*
X143507665Y-107388988D01*
X143416988Y-107479665D01*
X143310364Y-107550909D01*
X143310363Y-107550910D01*
X143310362Y-107550910D01*
X143191890Y-107599983D01*
X143066119Y-107625000D01*
X142937881Y-107625000D01*
X142812110Y-107599983D01*
X142693638Y-107550910D01*
X142693637Y-107550910D01*
X142693636Y-107550909D01*
X142587012Y-107479665D01*
X142496335Y-107388988D01*
X142425091Y-107282364D01*
X142376017Y-107163890D01*
X142351000Y-107038118D01*
X142351000Y-106909882D01*
X142376017Y-106784110D01*
X142422545Y-106671782D01*
X142425090Y-106665638D01*
X142441553Y-106641000D01*
X142496335Y-106559012D01*
X142587012Y-106468335D01*
X142693636Y-106397091D01*
X142812110Y-106348017D01*
X142937881Y-106323000D01*
X143066119Y-106323000D01*
X143191890Y-106348017D01*
X143191890Y-106348017D01*
G37*
G36*
X167365642Y-105401781D02*
G01*
X167511414Y-105462162D01*
X167511416Y-105462163D01*
X167642608Y-105549822D01*
X167754178Y-105661392D01*
X167761412Y-105672219D01*
X167841838Y-105792586D01*
X167902219Y-105938358D01*
X167933000Y-106093107D01*
X167933000Y-106250893D01*
X167902219Y-106405642D01*
X167842047Y-106550909D01*
X167841837Y-106551416D01*
X167754178Y-106682608D01*
X167642608Y-106794178D01*
X167511416Y-106881837D01*
X167511415Y-106881838D01*
X167511414Y-106881838D01*
X167365642Y-106942219D01*
X167210893Y-106973000D01*
X167053107Y-106973000D01*
X166898358Y-106942219D01*
X166752586Y-106881838D01*
X166752585Y-106881838D01*
X166752584Y-106881837D01*
X166621392Y-106794178D01*
X166509822Y-106682608D01*
X166422163Y-106551416D01*
X166421953Y-106550909D01*
X166361781Y-106405642D01*
X166331000Y-106250893D01*
X166331000Y-106093107D01*
X166361781Y-105938358D01*
X166422162Y-105792586D01*
X166502588Y-105672219D01*
X166509822Y-105661392D01*
X166621392Y-105549822D01*
X166752584Y-105462163D01*
X166752586Y-105462162D01*
X166898358Y-105401781D01*
X167053107Y-105371000D01*
X167210893Y-105371000D01*
X167365642Y-105401781D01*
X167365642Y-105401781D01*
G37*
G36*
X148941890Y-105348017D02*
G01*
X148997376Y-105371000D01*
X149060364Y-105397091D01*
X149166988Y-105468335D01*
X149257665Y-105559012D01*
X149292962Y-105611837D01*
X149328910Y-105665638D01*
X149331636Y-105672219D01*
X149377983Y-105784110D01*
X149403000Y-105909882D01*
X149403000Y-106038118D01*
X149377983Y-106163890D01*
X149328909Y-106282364D01*
X149257665Y-106388988D01*
X149166988Y-106479665D01*
X149060364Y-106550909D01*
X149060363Y-106550910D01*
X149060362Y-106550910D01*
X148941890Y-106599983D01*
X148816119Y-106625000D01*
X148687881Y-106625000D01*
X148562110Y-106599983D01*
X148443638Y-106550910D01*
X148443637Y-106550910D01*
X148443636Y-106550909D01*
X148337012Y-106479665D01*
X148246335Y-106388988D01*
X148175091Y-106282364D01*
X148126017Y-106163890D01*
X148101000Y-106038118D01*
X148101000Y-105909882D01*
X148126017Y-105784110D01*
X148172364Y-105672219D01*
X148175090Y-105665638D01*
X148211039Y-105611837D01*
X148246335Y-105559012D01*
X148337012Y-105468335D01*
X148443636Y-105397091D01*
X148506625Y-105371000D01*
X148562110Y-105348017D01*
X148687881Y-105323000D01*
X148816119Y-105323000D01*
X148941890Y-105348017D01*
X148941890Y-105348017D01*
G37*
G36*
X140441890Y-105348017D02*
G01*
X140497376Y-105371000D01*
X140560364Y-105397091D01*
X140666988Y-105468335D01*
X140757665Y-105559012D01*
X140792962Y-105611837D01*
X140828910Y-105665638D01*
X140831636Y-105672219D01*
X140877983Y-105784110D01*
X140903000Y-105909882D01*
X140903000Y-106038118D01*
X140877983Y-106163890D01*
X140828909Y-106282364D01*
X140757665Y-106388988D01*
X140666988Y-106479665D01*
X140560364Y-106550909D01*
X140560363Y-106550910D01*
X140560362Y-106550910D01*
X140441890Y-106599983D01*
X140316119Y-106625000D01*
X140187881Y-106625000D01*
X140062110Y-106599983D01*
X139943638Y-106550910D01*
X139943637Y-106550910D01*
X139943636Y-106550909D01*
X139837012Y-106479665D01*
X139746335Y-106388988D01*
X139675091Y-106282364D01*
X139626017Y-106163890D01*
X139601000Y-106038118D01*
X139601000Y-105909882D01*
X139626017Y-105784110D01*
X139672364Y-105672219D01*
X139675090Y-105665638D01*
X139711039Y-105611837D01*
X139746335Y-105559012D01*
X139837012Y-105468335D01*
X139943636Y-105397091D01*
X140006625Y-105371000D01*
X140062110Y-105348017D01*
X140187881Y-105323000D01*
X140316119Y-105323000D01*
X140441890Y-105348017D01*
X140441890Y-105348017D01*
G37*
G36*
X169905642Y-104131781D02*
G01*
X170051414Y-104192162D01*
X170051416Y-104192163D01*
X170182608Y-104279822D01*
X170294178Y-104391392D01*
X170381837Y-104522584D01*
X170381838Y-104522586D01*
X170442219Y-104668358D01*
X170473000Y-104823107D01*
X170473000Y-104980893D01*
X170442219Y-105135642D01*
X170430518Y-105163890D01*
X170381837Y-105281416D01*
X170294178Y-105412608D01*
X170182608Y-105524178D01*
X170051416Y-105611837D01*
X170051415Y-105611838D01*
X170051414Y-105611838D01*
X169905642Y-105672219D01*
X169750893Y-105703000D01*
X169593107Y-105703000D01*
X169438358Y-105672219D01*
X169292586Y-105611838D01*
X169292585Y-105611838D01*
X169292584Y-105611837D01*
X169161392Y-105524178D01*
X169049822Y-105412608D01*
X168962163Y-105281416D01*
X168913482Y-105163890D01*
X168901781Y-105135642D01*
X168871000Y-104980893D01*
X168871000Y-104823107D01*
X168901781Y-104668358D01*
X168962162Y-104522586D01*
X168962163Y-104522584D01*
X169049822Y-104391392D01*
X169161392Y-104279822D01*
X169292584Y-104192163D01*
X169292586Y-104192162D01*
X169438358Y-104131781D01*
X169593107Y-104101000D01*
X169750893Y-104101000D01*
X169905642Y-104131781D01*
X169905642Y-104131781D01*
G37*
G36*
X151691890Y-104348017D02*
G01*
X151810364Y-104397091D01*
X151916988Y-104468335D01*
X152007665Y-104559012D01*
X152078910Y-104665638D01*
X152127983Y-104784110D01*
X152153000Y-104909882D01*
X152153000Y-105038118D01*
X152127983Y-105163890D01*
X152078909Y-105282364D01*
X152007665Y-105388988D01*
X151916988Y-105479665D01*
X151810364Y-105550909D01*
X151810363Y-105550910D01*
X151810362Y-105550910D01*
X151691890Y-105599983D01*
X151566119Y-105625000D01*
X151437881Y-105625000D01*
X151312110Y-105599983D01*
X151193638Y-105550910D01*
X151193637Y-105550910D01*
X151193636Y-105550909D01*
X151087012Y-105479665D01*
X150996335Y-105388988D01*
X150925091Y-105282364D01*
X150876017Y-105163890D01*
X150851000Y-105038118D01*
X150851000Y-104909882D01*
X150876017Y-104784110D01*
X150925090Y-104665638D01*
X150996335Y-104559012D01*
X151087012Y-104468335D01*
X151193636Y-104397091D01*
X151312110Y-104348017D01*
X151437881Y-104323000D01*
X151566119Y-104323000D01*
X151691890Y-104348017D01*
X151691890Y-104348017D01*
G37*
G36*
X143191890Y-104348017D02*
G01*
X143310364Y-104397091D01*
X143416988Y-104468335D01*
X143507665Y-104559012D01*
X143578910Y-104665638D01*
X143627983Y-104784110D01*
X143653000Y-104909882D01*
X143653000Y-105038118D01*
X143627983Y-105163890D01*
X143578909Y-105282364D01*
X143507665Y-105388988D01*
X143416988Y-105479665D01*
X143310364Y-105550909D01*
X143310363Y-105550910D01*
X143310362Y-105550910D01*
X143191890Y-105599983D01*
X143066119Y-105625000D01*
X142937881Y-105625000D01*
X142812110Y-105599983D01*
X142693638Y-105550910D01*
X142693637Y-105550910D01*
X142693636Y-105550909D01*
X142587012Y-105479665D01*
X142496335Y-105388988D01*
X142425091Y-105282364D01*
X142376017Y-105163890D01*
X142351000Y-105038118D01*
X142351000Y-104909882D01*
X142376017Y-104784110D01*
X142425090Y-104665638D01*
X142496335Y-104559012D01*
X142587012Y-104468335D01*
X142693636Y-104397091D01*
X142812110Y-104348017D01*
X142937881Y-104323000D01*
X143066119Y-104323000D01*
X143191890Y-104348017D01*
X143191890Y-104348017D01*
G37*
G36*
X148941890Y-103348017D02*
G01*
X149060364Y-103397091D01*
X149166988Y-103468335D01*
X149257665Y-103559012D01*
X149328909Y-103665636D01*
X149377983Y-103784110D01*
X149403000Y-103909882D01*
X149403000Y-104038118D01*
X149377983Y-104163890D01*
X149328909Y-104282364D01*
X149257665Y-104388988D01*
X149166988Y-104479665D01*
X149060364Y-104550909D01*
X149060363Y-104550910D01*
X149060362Y-104550910D01*
X148941890Y-104599983D01*
X148816119Y-104625000D01*
X148687881Y-104625000D01*
X148562110Y-104599983D01*
X148443638Y-104550910D01*
X148443637Y-104550910D01*
X148443636Y-104550909D01*
X148337012Y-104479665D01*
X148246335Y-104388988D01*
X148175091Y-104282364D01*
X148126017Y-104163890D01*
X148101000Y-104038118D01*
X148101000Y-103909882D01*
X148126017Y-103784110D01*
X148175091Y-103665636D01*
X148246335Y-103559012D01*
X148337012Y-103468335D01*
X148443636Y-103397091D01*
X148562110Y-103348017D01*
X148687881Y-103323000D01*
X148816119Y-103323000D01*
X148941890Y-103348017D01*
X148941890Y-103348017D01*
G37*
G36*
X140441890Y-103348017D02*
G01*
X140560364Y-103397091D01*
X140666988Y-103468335D01*
X140757665Y-103559012D01*
X140828909Y-103665636D01*
X140877983Y-103784110D01*
X140903000Y-103909882D01*
X140903000Y-104038118D01*
X140877983Y-104163890D01*
X140828909Y-104282364D01*
X140757665Y-104388988D01*
X140666988Y-104479665D01*
X140560364Y-104550909D01*
X140560363Y-104550910D01*
X140560362Y-104550910D01*
X140441890Y-104599983D01*
X140316119Y-104625000D01*
X140187881Y-104625000D01*
X140062110Y-104599983D01*
X139943638Y-104550910D01*
X139943637Y-104550910D01*
X139943636Y-104550909D01*
X139837012Y-104479665D01*
X139746335Y-104388988D01*
X139675091Y-104282364D01*
X139626017Y-104163890D01*
X139601000Y-104038118D01*
X139601000Y-103909882D01*
X139626017Y-103784110D01*
X139675091Y-103665636D01*
X139746335Y-103559012D01*
X139837012Y-103468335D01*
X139943636Y-103397091D01*
X140062110Y-103348017D01*
X140187881Y-103323000D01*
X140316119Y-103323000D01*
X140441890Y-103348017D01*
X140441890Y-103348017D01*
G37*
G36*
X167365642Y-102861781D02*
G01*
X167511414Y-102922162D01*
X167511416Y-102922163D01*
X167642608Y-103009822D01*
X167754178Y-103121392D01*
X167761412Y-103132219D01*
X167841838Y-103252586D01*
X167902219Y-103398358D01*
X167933000Y-103553107D01*
X167933000Y-103710893D01*
X167902219Y-103865642D01*
X167883894Y-103909882D01*
X167841837Y-104011416D01*
X167754178Y-104142608D01*
X167642608Y-104254178D01*
X167511416Y-104341837D01*
X167511415Y-104341838D01*
X167511414Y-104341838D01*
X167365642Y-104402219D01*
X167210893Y-104433000D01*
X167053107Y-104433000D01*
X166898358Y-104402219D01*
X166752586Y-104341838D01*
X166752585Y-104341838D01*
X166752584Y-104341837D01*
X166621392Y-104254178D01*
X166509822Y-104142608D01*
X166422163Y-104011416D01*
X166380106Y-103909882D01*
X166361781Y-103865642D01*
X166331000Y-103710893D01*
X166331000Y-103553107D01*
X166361781Y-103398358D01*
X166422162Y-103252586D01*
X166502588Y-103132219D01*
X166509822Y-103121392D01*
X166621392Y-103009822D01*
X166752584Y-102922163D01*
X166752586Y-102922162D01*
X166898358Y-102861781D01*
X167053107Y-102831000D01*
X167210893Y-102831000D01*
X167365642Y-102861781D01*
X167365642Y-102861781D01*
G37*
G36*
X169905642Y-101591781D02*
G01*
X170051414Y-101652162D01*
X170051416Y-101652163D01*
X170182608Y-101739822D01*
X170294178Y-101851392D01*
X170333259Y-101909882D01*
X170381838Y-101982586D01*
X170442219Y-102128358D01*
X170473000Y-102283107D01*
X170473000Y-102440893D01*
X170442219Y-102595642D01*
X170381838Y-102741414D01*
X170381837Y-102741416D01*
X170294178Y-102872608D01*
X170182608Y-102984178D01*
X170051416Y-103071837D01*
X170051415Y-103071838D01*
X170051414Y-103071838D01*
X169905642Y-103132219D01*
X169750893Y-103163000D01*
X169593107Y-103163000D01*
X169438358Y-103132219D01*
X169292586Y-103071838D01*
X169292585Y-103071838D01*
X169292584Y-103071837D01*
X169161392Y-102984178D01*
X169049822Y-102872608D01*
X168962163Y-102741416D01*
X168962162Y-102741414D01*
X168901781Y-102595642D01*
X168871000Y-102440893D01*
X168871000Y-102283107D01*
X168901781Y-102128358D01*
X168962162Y-101982586D01*
X169010741Y-101909882D01*
X169049822Y-101851392D01*
X169161392Y-101739822D01*
X169292584Y-101652163D01*
X169292586Y-101652162D01*
X169438358Y-101591781D01*
X169593107Y-101561000D01*
X169750893Y-101561000D01*
X169905642Y-101591781D01*
X169905642Y-101591781D01*
G37*
G36*
X151691890Y-101848017D02*
G01*
X151810364Y-101897091D01*
X151916988Y-101968335D01*
X152007665Y-102059012D01*
X152078909Y-102165636D01*
X152127983Y-102284110D01*
X152153000Y-102409882D01*
X152153000Y-102538118D01*
X152127983Y-102663890D01*
X152078909Y-102782364D01*
X152007665Y-102888988D01*
X151916988Y-102979665D01*
X151810364Y-103050909D01*
X151810363Y-103050910D01*
X151810362Y-103050910D01*
X151691890Y-103099983D01*
X151566119Y-103125000D01*
X151437881Y-103125000D01*
X151312110Y-103099983D01*
X151193638Y-103050910D01*
X151193637Y-103050910D01*
X151193636Y-103050909D01*
X151087012Y-102979665D01*
X150996335Y-102888988D01*
X150925091Y-102782364D01*
X150876017Y-102663890D01*
X150851000Y-102538118D01*
X150851000Y-102409882D01*
X150876017Y-102284110D01*
X150925091Y-102165636D01*
X150996335Y-102059012D01*
X151087012Y-101968335D01*
X151193636Y-101897091D01*
X151312110Y-101848017D01*
X151437881Y-101823000D01*
X151566119Y-101823000D01*
X151691890Y-101848017D01*
X151691890Y-101848017D01*
G37*
G36*
X143191890Y-101848017D02*
G01*
X143310364Y-101897091D01*
X143416988Y-101968335D01*
X143507665Y-102059012D01*
X143578909Y-102165636D01*
X143627983Y-102284110D01*
X143653000Y-102409882D01*
X143653000Y-102538118D01*
X143627983Y-102663890D01*
X143578909Y-102782364D01*
X143507665Y-102888988D01*
X143416988Y-102979665D01*
X143310364Y-103050909D01*
X143310363Y-103050910D01*
X143310362Y-103050910D01*
X143191890Y-103099983D01*
X143066119Y-103125000D01*
X142937881Y-103125000D01*
X142812110Y-103099983D01*
X142693638Y-103050910D01*
X142693637Y-103050910D01*
X142693636Y-103050909D01*
X142587012Y-102979665D01*
X142496335Y-102888988D01*
X142425091Y-102782364D01*
X142376017Y-102663890D01*
X142351000Y-102538118D01*
X142351000Y-102409882D01*
X142376017Y-102284110D01*
X142425091Y-102165636D01*
X142496335Y-102059012D01*
X142587012Y-101968335D01*
X142693636Y-101897091D01*
X142812110Y-101848017D01*
X142937881Y-101823000D01*
X143066119Y-101823000D01*
X143191890Y-101848017D01*
X143191890Y-101848017D01*
G37*
G36*
X140329401Y-101325642D02*
G01*
X140441890Y-101348017D01*
X140560364Y-101397091D01*
X140666988Y-101468335D01*
X140757665Y-101559012D01*
X140819907Y-101652163D01*
X140828910Y-101665638D01*
X140877983Y-101784110D01*
X140893520Y-101862219D01*
X140903000Y-101909882D01*
X140903000Y-102038118D01*
X140877983Y-102163890D01*
X140828909Y-102282364D01*
X140757665Y-102388988D01*
X140666988Y-102479665D01*
X140560364Y-102550909D01*
X140560363Y-102550910D01*
X140560362Y-102550910D01*
X140441890Y-102599983D01*
X140316119Y-102625000D01*
X140187881Y-102625000D01*
X140062110Y-102599983D01*
X139943638Y-102550910D01*
X139943637Y-102550910D01*
X139943636Y-102550909D01*
X139837012Y-102479665D01*
X139746335Y-102388988D01*
X139675091Y-102282364D01*
X139626017Y-102163890D01*
X139601000Y-102038118D01*
X139601000Y-101909882D01*
X139610481Y-101862219D01*
X139626017Y-101784110D01*
X139675090Y-101665638D01*
X139684094Y-101652163D01*
X139746335Y-101559012D01*
X139837012Y-101468335D01*
X139943636Y-101397091D01*
X140062110Y-101348017D01*
X140174599Y-101325642D01*
X140187881Y-101323000D01*
X140316119Y-101323000D01*
X140329401Y-101325642D01*
X140329401Y-101325642D01*
G37*
G36*
X148829401Y-101325642D02*
G01*
X148941890Y-101348017D01*
X149060364Y-101397091D01*
X149166988Y-101468335D01*
X149257665Y-101559012D01*
X149319907Y-101652163D01*
X149328910Y-101665638D01*
X149377983Y-101784110D01*
X149393520Y-101862219D01*
X149403000Y-101909882D01*
X149403000Y-102038118D01*
X149377983Y-102163890D01*
X149328909Y-102282364D01*
X149257665Y-102388988D01*
X149166988Y-102479665D01*
X149060364Y-102550909D01*
X149060363Y-102550910D01*
X149060362Y-102550910D01*
X148941890Y-102599983D01*
X148816119Y-102625000D01*
X148687881Y-102625000D01*
X148562110Y-102599983D01*
X148443638Y-102550910D01*
X148443637Y-102550910D01*
X148443636Y-102550909D01*
X148337012Y-102479665D01*
X148246335Y-102388988D01*
X148175091Y-102282364D01*
X148126017Y-102163890D01*
X148101000Y-102038118D01*
X148101000Y-101909882D01*
X148110481Y-101862219D01*
X148126017Y-101784110D01*
X148175090Y-101665638D01*
X148184094Y-101652163D01*
X148246335Y-101559012D01*
X148337012Y-101468335D01*
X148443636Y-101397091D01*
X148562110Y-101348017D01*
X148674599Y-101325642D01*
X148687881Y-101323000D01*
X148816119Y-101323000D01*
X148829401Y-101325642D01*
X148829401Y-101325642D01*
G37*
G36*
X167365642Y-100321781D02*
G01*
X167511414Y-100382162D01*
X167511416Y-100382163D01*
X167642608Y-100469822D01*
X167754178Y-100581392D01*
X167841837Y-100712584D01*
X167841838Y-100712586D01*
X167902219Y-100858358D01*
X167933000Y-101013107D01*
X167933000Y-101170893D01*
X167902219Y-101325642D01*
X167843113Y-101468335D01*
X167841837Y-101471416D01*
X167754178Y-101602608D01*
X167642608Y-101714178D01*
X167511416Y-101801837D01*
X167511415Y-101801838D01*
X167511414Y-101801838D01*
X167365642Y-101862219D01*
X167210893Y-101893000D01*
X167053107Y-101893000D01*
X166898358Y-101862219D01*
X166752586Y-101801838D01*
X166752585Y-101801838D01*
X166752584Y-101801837D01*
X166621392Y-101714178D01*
X166509822Y-101602608D01*
X166422163Y-101471416D01*
X166420887Y-101468335D01*
X166361781Y-101325642D01*
X166331000Y-101170893D01*
X166331000Y-101013107D01*
X166361781Y-100858358D01*
X166422162Y-100712586D01*
X166422163Y-100712584D01*
X166509822Y-100581392D01*
X166621392Y-100469822D01*
X166752584Y-100382163D01*
X166752586Y-100382162D01*
X166898358Y-100321781D01*
X167053107Y-100291000D01*
X167210893Y-100291000D01*
X167365642Y-100321781D01*
X167365642Y-100321781D01*
G37*
G36*
X151735015Y-99030973D02*
G01*
X151838879Y-99062479D01*
X151866055Y-99077005D01*
X151934600Y-99113643D01*
X152018501Y-99182499D01*
X152087357Y-99266400D01*
X152123995Y-99334945D01*
X152138521Y-99362121D01*
X152170027Y-99465985D01*
X152180666Y-99574000D01*
X152170027Y-99682015D01*
X152138521Y-99785879D01*
X152138519Y-99785882D01*
X152087357Y-99881600D01*
X152018501Y-99965501D01*
X151934600Y-100034357D01*
X151866055Y-100070995D01*
X151838879Y-100085521D01*
X151735015Y-100117027D01*
X151654067Y-100125000D01*
X148599933Y-100125000D01*
X148518985Y-100117027D01*
X148415121Y-100085521D01*
X148387945Y-100070995D01*
X148319400Y-100034357D01*
X148235499Y-99965501D01*
X148166643Y-99881600D01*
X148115481Y-99785882D01*
X148115479Y-99785879D01*
X148083973Y-99682015D01*
X148073334Y-99574000D01*
X148083973Y-99465985D01*
X148115479Y-99362121D01*
X148130005Y-99334945D01*
X148166643Y-99266400D01*
X148235499Y-99182499D01*
X148319400Y-99113643D01*
X148387945Y-99077005D01*
X148415121Y-99062479D01*
X148518985Y-99030973D01*
X148599933Y-99023000D01*
X151654067Y-99023000D01*
X151735015Y-99030973D01*
X151735015Y-99030973D01*
G37*
G36*
X143235015Y-99030973D02*
G01*
X143338879Y-99062479D01*
X143366055Y-99077005D01*
X143434600Y-99113643D01*
X143518501Y-99182499D01*
X143587357Y-99266400D01*
X143623995Y-99334945D01*
X143638521Y-99362121D01*
X143670027Y-99465985D01*
X143680666Y-99574000D01*
X143670027Y-99682015D01*
X143638521Y-99785879D01*
X143638519Y-99785882D01*
X143587357Y-99881600D01*
X143518501Y-99965501D01*
X143434600Y-100034357D01*
X143366055Y-100070995D01*
X143338879Y-100085521D01*
X143235015Y-100117027D01*
X143154067Y-100125000D01*
X140099933Y-100125000D01*
X140018985Y-100117027D01*
X139915121Y-100085521D01*
X139887945Y-100070995D01*
X139819400Y-100034357D01*
X139735499Y-99965501D01*
X139666643Y-99881600D01*
X139615481Y-99785882D01*
X139615479Y-99785879D01*
X139583973Y-99682015D01*
X139573334Y-99574000D01*
X139583973Y-99465985D01*
X139615479Y-99362121D01*
X139630005Y-99334945D01*
X139666643Y-99266400D01*
X139735499Y-99182499D01*
X139819400Y-99113643D01*
X139887945Y-99077005D01*
X139915121Y-99062479D01*
X140018985Y-99030973D01*
X140099933Y-99023000D01*
X143154067Y-99023000D01*
X143235015Y-99030973D01*
X143235015Y-99030973D01*
G37*
G36*
X171805655Y-97494591D02*
G01*
X171877525Y-97508887D01*
X172080624Y-97593013D01*
X172263409Y-97715146D01*
X172418854Y-97870591D01*
X172540987Y-98053376D01*
X172625113Y-98256475D01*
X172668000Y-98472084D01*
X172668000Y-98691916D01*
X172625113Y-98907525D01*
X172540987Y-99110624D01*
X172418854Y-99293409D01*
X172263409Y-99448854D01*
X172080624Y-99570987D01*
X171877525Y-99655113D01*
X171805655Y-99669409D01*
X171661918Y-99698000D01*
X171442082Y-99698000D01*
X171298345Y-99669409D01*
X171226475Y-99655113D01*
X171023376Y-99570987D01*
X170840591Y-99448854D01*
X170685146Y-99293409D01*
X170563013Y-99110624D01*
X170478887Y-98907525D01*
X170436000Y-98691916D01*
X170436000Y-98472084D01*
X170478887Y-98256475D01*
X170563013Y-98053376D01*
X170685146Y-97870591D01*
X170840591Y-97715146D01*
X171023376Y-97593013D01*
X171226475Y-97508887D01*
X171298345Y-97494591D01*
X171442082Y-97466000D01*
X171661918Y-97466000D01*
X171805655Y-97494591D01*
X171805655Y-97494591D01*
G37*
G36*
X178266585Y-82214802D02*
G01*
X178416410Y-82244604D01*
X178698674Y-82361521D01*
X178952705Y-82531259D01*
X179168741Y-82747295D01*
X179338479Y-83001326D01*
X179455396Y-83283590D01*
X179515000Y-83583240D01*
X179515000Y-83888760D01*
X179455396Y-84188410D01*
X179338479Y-84470674D01*
X179168741Y-84724705D01*
X178952705Y-84940741D01*
X178698674Y-85110479D01*
X178416410Y-85227396D01*
X178266585Y-85257198D01*
X178116761Y-85287000D01*
X177811239Y-85287000D01*
X177661415Y-85257198D01*
X177511590Y-85227396D01*
X177229326Y-85110479D01*
X176975295Y-84940741D01*
X176759259Y-84724705D01*
X176589521Y-84470674D01*
X176472604Y-84188410D01*
X176413000Y-83888760D01*
X176413000Y-83583240D01*
X176472604Y-83283590D01*
X176589521Y-83001326D01*
X176759259Y-82747295D01*
X176975295Y-82531259D01*
X177229326Y-82361521D01*
X177511590Y-82244604D01*
X177661415Y-82214802D01*
X177811239Y-82185000D01*
X178116761Y-82185000D01*
X178266585Y-82214802D01*
X178266585Y-82214802D01*
G37*
G36*
X139726585Y-82214802D02*
G01*
X139876410Y-82244604D01*
X140158674Y-82361521D01*
X140412705Y-82531259D01*
X140628741Y-82747295D01*
X140798479Y-83001326D01*
X140915396Y-83283590D01*
X140975000Y-83583240D01*
X140975000Y-83888760D01*
X140915396Y-84188410D01*
X140798479Y-84470674D01*
X140628741Y-84724705D01*
X140412705Y-84940741D01*
X140158674Y-85110479D01*
X139876410Y-85227396D01*
X139726585Y-85257198D01*
X139576761Y-85287000D01*
X139271239Y-85287000D01*
X139121415Y-85257198D01*
X138971590Y-85227396D01*
X138689326Y-85110479D01*
X138435295Y-84940741D01*
X138219259Y-84724705D01*
X138049521Y-84470674D01*
X137932604Y-84188410D01*
X137873000Y-83888760D01*
X137873000Y-83583240D01*
X137932604Y-83283590D01*
X138049521Y-83001326D01*
X138219259Y-82747295D01*
X138435295Y-82531259D01*
X138689326Y-82361521D01*
X138971590Y-82244604D01*
X139121415Y-82214802D01*
X139271239Y-82185000D01*
X139576761Y-82185000D01*
X139726585Y-82214802D01*
X139726585Y-82214802D01*
G37*
G36*
X152866585Y-82214802D02*
G01*
X153016410Y-82244604D01*
X153298674Y-82361521D01*
X153552705Y-82531259D01*
X153768741Y-82747295D01*
X153938479Y-83001326D01*
X154055396Y-83283590D01*
X154115000Y-83583240D01*
X154115000Y-83888760D01*
X154055396Y-84188410D01*
X153938479Y-84470674D01*
X153768741Y-84724705D01*
X153552705Y-84940741D01*
X153298674Y-85110479D01*
X153016410Y-85227396D01*
X152866585Y-85257198D01*
X152716761Y-85287000D01*
X152411239Y-85287000D01*
X152261415Y-85257198D01*
X152111590Y-85227396D01*
X151829326Y-85110479D01*
X151575295Y-84940741D01*
X151359259Y-84724705D01*
X151189521Y-84470674D01*
X151072604Y-84188410D01*
X151013000Y-83888760D01*
X151013000Y-83583240D01*
X151072604Y-83283590D01*
X151189521Y-83001326D01*
X151359259Y-82747295D01*
X151575295Y-82531259D01*
X151829326Y-82361521D01*
X152111590Y-82244604D01*
X152261415Y-82214802D01*
X152411239Y-82185000D01*
X152716761Y-82185000D01*
X152866585Y-82214802D01*
X152866585Y-82214802D01*
G37*
G36*
X165126585Y-82214802D02*
G01*
X165276410Y-82244604D01*
X165558674Y-82361521D01*
X165812705Y-82531259D01*
X166028741Y-82747295D01*
X166198479Y-83001326D01*
X166315396Y-83283590D01*
X166375000Y-83583240D01*
X166375000Y-83888760D01*
X166315396Y-84188410D01*
X166198479Y-84470674D01*
X166028741Y-84724705D01*
X165812705Y-84940741D01*
X165558674Y-85110479D01*
X165276410Y-85227396D01*
X165126585Y-85257198D01*
X164976761Y-85287000D01*
X164671239Y-85287000D01*
X164521415Y-85257198D01*
X164371590Y-85227396D01*
X164089326Y-85110479D01*
X163835295Y-84940741D01*
X163619259Y-84724705D01*
X163449521Y-84470674D01*
X163332604Y-84188410D01*
X163273000Y-83888760D01*
X163273000Y-83583240D01*
X163332604Y-83283590D01*
X163449521Y-83001326D01*
X163619259Y-82747295D01*
X163835295Y-82531259D01*
X164089326Y-82361521D01*
X164371590Y-82244604D01*
X164521415Y-82214802D01*
X164671239Y-82185000D01*
X164976761Y-82185000D01*
X165126585Y-82214802D01*
X165126585Y-82214802D01*
G37*
G36*
X142727642Y-80255781D02*
G01*
X142873414Y-80316162D01*
X142873416Y-80316163D01*
X143004608Y-80403822D01*
X143116178Y-80515392D01*
X143203837Y-80646584D01*
X143203838Y-80646586D01*
X143264219Y-80792358D01*
X143295000Y-80947107D01*
X143295000Y-81104893D01*
X143264219Y-81259642D01*
X143203838Y-81405414D01*
X143203837Y-81405416D01*
X143116178Y-81536608D01*
X143004608Y-81648178D01*
X142873416Y-81735837D01*
X142873415Y-81735838D01*
X142873414Y-81735838D01*
X142727642Y-81796219D01*
X142572893Y-81827000D01*
X142415107Y-81827000D01*
X142260358Y-81796219D01*
X142114586Y-81735838D01*
X142114585Y-81735838D01*
X142114584Y-81735837D01*
X141983392Y-81648178D01*
X141871822Y-81536608D01*
X141784163Y-81405416D01*
X141784162Y-81405414D01*
X141723781Y-81259642D01*
X141693000Y-81104893D01*
X141693000Y-80947107D01*
X141723781Y-80792358D01*
X141784162Y-80646586D01*
X141784163Y-80646584D01*
X141871822Y-80515392D01*
X141983392Y-80403822D01*
X142114584Y-80316163D01*
X142114586Y-80316162D01*
X142260358Y-80255781D01*
X142415107Y-80225000D01*
X142572893Y-80225000D01*
X142727642Y-80255781D01*
X142727642Y-80255781D01*
G37*
G36*
X145267642Y-80255781D02*
G01*
X145413414Y-80316162D01*
X145413416Y-80316163D01*
X145544608Y-80403822D01*
X145656178Y-80515392D01*
X145743837Y-80646584D01*
X145743838Y-80646586D01*
X145804219Y-80792358D01*
X145835000Y-80947107D01*
X145835000Y-81104893D01*
X145804219Y-81259642D01*
X145743838Y-81405414D01*
X145743837Y-81405416D01*
X145656178Y-81536608D01*
X145544608Y-81648178D01*
X145413416Y-81735837D01*
X145413415Y-81735838D01*
X145413414Y-81735838D01*
X145267642Y-81796219D01*
X145112893Y-81827000D01*
X144955107Y-81827000D01*
X144800358Y-81796219D01*
X144654586Y-81735838D01*
X144654585Y-81735838D01*
X144654584Y-81735837D01*
X144523392Y-81648178D01*
X144411822Y-81536608D01*
X144324163Y-81405416D01*
X144324162Y-81405414D01*
X144263781Y-81259642D01*
X144233000Y-81104893D01*
X144233000Y-80947107D01*
X144263781Y-80792358D01*
X144324162Y-80646586D01*
X144324163Y-80646584D01*
X144411822Y-80515392D01*
X144523392Y-80403822D01*
X144654584Y-80316163D01*
X144654586Y-80316162D01*
X144800358Y-80255781D01*
X144955107Y-80225000D01*
X145112893Y-80225000D01*
X145267642Y-80255781D01*
X145267642Y-80255781D01*
G37*
G36*
X147267642Y-80255781D02*
G01*
X147413414Y-80316162D01*
X147413416Y-80316163D01*
X147544608Y-80403822D01*
X147656178Y-80515392D01*
X147743837Y-80646584D01*
X147743838Y-80646586D01*
X147804219Y-80792358D01*
X147835000Y-80947107D01*
X147835000Y-81104893D01*
X147804219Y-81259642D01*
X147743838Y-81405414D01*
X147743837Y-81405416D01*
X147656178Y-81536608D01*
X147544608Y-81648178D01*
X147413416Y-81735837D01*
X147413415Y-81735838D01*
X147413414Y-81735838D01*
X147267642Y-81796219D01*
X147112893Y-81827000D01*
X146955107Y-81827000D01*
X146800358Y-81796219D01*
X146654586Y-81735838D01*
X146654585Y-81735838D01*
X146654584Y-81735837D01*
X146523392Y-81648178D01*
X146411822Y-81536608D01*
X146324163Y-81405416D01*
X146324162Y-81405414D01*
X146263781Y-81259642D01*
X146233000Y-81104893D01*
X146233000Y-80947107D01*
X146263781Y-80792358D01*
X146324162Y-80646586D01*
X146324163Y-80646584D01*
X146411822Y-80515392D01*
X146523392Y-80403822D01*
X146654584Y-80316163D01*
X146654586Y-80316162D01*
X146800358Y-80255781D01*
X146955107Y-80225000D01*
X147112893Y-80225000D01*
X147267642Y-80255781D01*
X147267642Y-80255781D01*
G37*
G36*
X149727642Y-80255781D02*
G01*
X149873414Y-80316162D01*
X149873416Y-80316163D01*
X150004608Y-80403822D01*
X150116178Y-80515392D01*
X150203837Y-80646584D01*
X150203838Y-80646586D01*
X150264219Y-80792358D01*
X150295000Y-80947107D01*
X150295000Y-81104893D01*
X150264219Y-81259642D01*
X150203838Y-81405414D01*
X150203837Y-81405416D01*
X150116178Y-81536608D01*
X150004608Y-81648178D01*
X149873416Y-81735837D01*
X149873415Y-81735838D01*
X149873414Y-81735838D01*
X149727642Y-81796219D01*
X149572893Y-81827000D01*
X149415107Y-81827000D01*
X149260358Y-81796219D01*
X149114586Y-81735838D01*
X149114585Y-81735838D01*
X149114584Y-81735837D01*
X148983392Y-81648178D01*
X148871822Y-81536608D01*
X148784163Y-81405416D01*
X148784162Y-81405414D01*
X148723781Y-81259642D01*
X148693000Y-81104893D01*
X148693000Y-80947107D01*
X148723781Y-80792358D01*
X148784162Y-80646586D01*
X148784163Y-80646584D01*
X148871822Y-80515392D01*
X148983392Y-80403822D01*
X149114584Y-80316163D01*
X149114586Y-80316162D01*
X149260358Y-80255781D01*
X149415107Y-80225000D01*
X149572893Y-80225000D01*
X149727642Y-80255781D01*
X149727642Y-80255781D01*
G37*
G36*
X168127642Y-80255781D02*
G01*
X168273414Y-80316162D01*
X168273416Y-80316163D01*
X168404608Y-80403822D01*
X168516178Y-80515392D01*
X168603837Y-80646584D01*
X168603838Y-80646586D01*
X168664219Y-80792358D01*
X168695000Y-80947107D01*
X168695000Y-81104893D01*
X168664219Y-81259642D01*
X168603838Y-81405414D01*
X168603837Y-81405416D01*
X168516178Y-81536608D01*
X168404608Y-81648178D01*
X168273416Y-81735837D01*
X168273415Y-81735838D01*
X168273414Y-81735838D01*
X168127642Y-81796219D01*
X167972893Y-81827000D01*
X167815107Y-81827000D01*
X167660358Y-81796219D01*
X167514586Y-81735838D01*
X167514585Y-81735838D01*
X167514584Y-81735837D01*
X167383392Y-81648178D01*
X167271822Y-81536608D01*
X167184163Y-81405416D01*
X167184162Y-81405414D01*
X167123781Y-81259642D01*
X167093000Y-81104893D01*
X167093000Y-80947107D01*
X167123781Y-80792358D01*
X167184162Y-80646586D01*
X167184163Y-80646584D01*
X167271822Y-80515392D01*
X167383392Y-80403822D01*
X167514584Y-80316163D01*
X167514586Y-80316162D01*
X167660358Y-80255781D01*
X167815107Y-80225000D01*
X167972893Y-80225000D01*
X168127642Y-80255781D01*
X168127642Y-80255781D01*
G37*
G36*
X170667642Y-80255781D02*
G01*
X170813414Y-80316162D01*
X170813416Y-80316163D01*
X170944608Y-80403822D01*
X171056178Y-80515392D01*
X171143837Y-80646584D01*
X171143838Y-80646586D01*
X171204219Y-80792358D01*
X171235000Y-80947107D01*
X171235000Y-81104893D01*
X171204219Y-81259642D01*
X171143838Y-81405414D01*
X171143837Y-81405416D01*
X171056178Y-81536608D01*
X170944608Y-81648178D01*
X170813416Y-81735837D01*
X170813415Y-81735838D01*
X170813414Y-81735838D01*
X170667642Y-81796219D01*
X170512893Y-81827000D01*
X170355107Y-81827000D01*
X170200358Y-81796219D01*
X170054586Y-81735838D01*
X170054585Y-81735838D01*
X170054584Y-81735837D01*
X169923392Y-81648178D01*
X169811822Y-81536608D01*
X169724163Y-81405416D01*
X169724162Y-81405414D01*
X169663781Y-81259642D01*
X169633000Y-81104893D01*
X169633000Y-80947107D01*
X169663781Y-80792358D01*
X169724162Y-80646586D01*
X169724163Y-80646584D01*
X169811822Y-80515392D01*
X169923392Y-80403822D01*
X170054584Y-80316163D01*
X170054586Y-80316162D01*
X170200358Y-80255781D01*
X170355107Y-80225000D01*
X170512893Y-80225000D01*
X170667642Y-80255781D01*
X170667642Y-80255781D01*
G37*
G36*
X172667642Y-80255781D02*
G01*
X172813414Y-80316162D01*
X172813416Y-80316163D01*
X172944608Y-80403822D01*
X173056178Y-80515392D01*
X173143837Y-80646584D01*
X173143838Y-80646586D01*
X173204219Y-80792358D01*
X173235000Y-80947107D01*
X173235000Y-81104893D01*
X173204219Y-81259642D01*
X173143838Y-81405414D01*
X173143837Y-81405416D01*
X173056178Y-81536608D01*
X172944608Y-81648178D01*
X172813416Y-81735837D01*
X172813415Y-81735838D01*
X172813414Y-81735838D01*
X172667642Y-81796219D01*
X172512893Y-81827000D01*
X172355107Y-81827000D01*
X172200358Y-81796219D01*
X172054586Y-81735838D01*
X172054585Y-81735838D01*
X172054584Y-81735837D01*
X171923392Y-81648178D01*
X171811822Y-81536608D01*
X171724163Y-81405416D01*
X171724162Y-81405414D01*
X171663781Y-81259642D01*
X171633000Y-81104893D01*
X171633000Y-80947107D01*
X171663781Y-80792358D01*
X171724162Y-80646586D01*
X171724163Y-80646584D01*
X171811822Y-80515392D01*
X171923392Y-80403822D01*
X172054584Y-80316163D01*
X172054586Y-80316162D01*
X172200358Y-80255781D01*
X172355107Y-80225000D01*
X172512893Y-80225000D01*
X172667642Y-80255781D01*
X172667642Y-80255781D01*
G37*
G36*
X175127642Y-80255781D02*
G01*
X175273414Y-80316162D01*
X175273416Y-80316163D01*
X175404608Y-80403822D01*
X175516178Y-80515392D01*
X175603837Y-80646584D01*
X175603838Y-80646586D01*
X175664219Y-80792358D01*
X175695000Y-80947107D01*
X175695000Y-81104893D01*
X175664219Y-81259642D01*
X175603838Y-81405414D01*
X175603837Y-81405416D01*
X175516178Y-81536608D01*
X175404608Y-81648178D01*
X175273416Y-81735837D01*
X175273415Y-81735838D01*
X175273414Y-81735838D01*
X175127642Y-81796219D01*
X174972893Y-81827000D01*
X174815107Y-81827000D01*
X174660358Y-81796219D01*
X174514586Y-81735838D01*
X174514585Y-81735838D01*
X174514584Y-81735837D01*
X174383392Y-81648178D01*
X174271822Y-81536608D01*
X174184163Y-81405416D01*
X174184162Y-81405414D01*
X174123781Y-81259642D01*
X174093000Y-81104893D01*
X174093000Y-80947107D01*
X174123781Y-80792358D01*
X174184162Y-80646586D01*
X174184163Y-80646584D01*
X174271822Y-80515392D01*
X174383392Y-80403822D01*
X174514584Y-80316163D01*
X174514586Y-80316162D01*
X174660358Y-80255781D01*
X174815107Y-80225000D01*
X174972893Y-80225000D01*
X175127642Y-80255781D01*
X175127642Y-80255781D01*
G37*
M02*
