G04 #@! TF.GenerationSoftware,KiCad,Pcbnew,(5.1.2)-1*
G04 #@! TF.CreationDate,2019-10-11T14:20:38-04:00*
G04 #@! TF.ProjectId,faceplate,66616365-706c-4617-9465-2e6b69636164,rev?*
G04 #@! TF.SameCoordinates,Original*
G04 #@! TF.FileFunction,Copper,L3,Inr*
G04 #@! TF.FilePolarity,Positive*
%FSLAX46Y46*%
G04 Gerber Fmt 4.6, Leading zero omitted, Abs format (unit mm)*
G04 Created by KiCad (PCBNEW (5.1.2)-1) date 2019-10-11 14:20:38*
%MOMM*%
%LPD*%
G04 APERTURE LIST*
%ADD10R,1.350000X1.350000*%
%ADD11O,1.350000X1.350000*%
%ADD12C,1.500000*%
%ADD13R,1.500000X1.500000*%
%ADD14C,3.000000*%
%ADD15C,1.200000*%
%ADD16O,4.000000X1.000000*%
%ADD17C,0.200000*%
G04 APERTURE END LIST*
D10*
X180594000Y-128206000D03*
D11*
X178594000Y-128206000D03*
X180594000Y-126206000D03*
X178594000Y-126206000D03*
X180594000Y-124206000D03*
X178594000Y-124206000D03*
X180594000Y-122206000D03*
X178594000Y-122206000D03*
D12*
X167132000Y-101092000D03*
X169672000Y-102362000D03*
X167132000Y-103632000D03*
X169672000Y-104902000D03*
X167132000Y-106172000D03*
X169672000Y-107442000D03*
X167132000Y-108712000D03*
D13*
X169672000Y-109982000D03*
D14*
X139424000Y-83736000D03*
X152564000Y-83736000D03*
D12*
X142494000Y-81026000D03*
X145034000Y-81026000D03*
X147034000Y-81026000D03*
X149494000Y-81026000D03*
D14*
X164824000Y-83736000D03*
X177964000Y-83736000D03*
D12*
X167894000Y-81026000D03*
X170434000Y-81026000D03*
X172434000Y-81026000D03*
X174894000Y-81026000D03*
D15*
X151502000Y-109474000D03*
D16*
X150127000Y-99574000D03*
D15*
X148752000Y-105974000D03*
X148752000Y-103974000D03*
D16*
X150127000Y-112374000D03*
D15*
X148752000Y-101974000D03*
X148752000Y-109974000D03*
X151502000Y-102474000D03*
X151502000Y-104974000D03*
X151502000Y-106974000D03*
X148752000Y-107974000D03*
X143002000Y-109474000D03*
X143002000Y-106974000D03*
X143002000Y-104974000D03*
X143002000Y-102474000D03*
X140252000Y-101974000D03*
X140252000Y-103974000D03*
X140252000Y-105974000D03*
X140252000Y-107974000D03*
X140252000Y-109974000D03*
D16*
X141627000Y-112374000D03*
X141627000Y-99574000D03*
D11*
X182324000Y-117226000D03*
X182324000Y-119226000D03*
X180324000Y-117226000D03*
X180324000Y-119226000D03*
X178324000Y-117226000D03*
X178324000Y-119226000D03*
X176324000Y-117226000D03*
X176324000Y-119226000D03*
X174324000Y-117226000D03*
X174324000Y-119226000D03*
X172324000Y-117226000D03*
X172324000Y-119226000D03*
X170324000Y-117226000D03*
X170324000Y-119226000D03*
X168324000Y-117226000D03*
X168324000Y-119226000D03*
X166324000Y-117226000D03*
X166324000Y-119226000D03*
X164324000Y-117226000D03*
X164324000Y-119226000D03*
X162324000Y-117226000D03*
X162324000Y-119226000D03*
X160324000Y-117226000D03*
X160324000Y-119226000D03*
X158324000Y-117226000D03*
X158324000Y-119226000D03*
X156324000Y-117226000D03*
X156324000Y-119226000D03*
X154324000Y-117226000D03*
X154324000Y-119226000D03*
X152324000Y-117226000D03*
X152324000Y-119226000D03*
X150324000Y-117226000D03*
X150324000Y-119226000D03*
X148324000Y-117226000D03*
X148324000Y-119226000D03*
X146324000Y-117226000D03*
X146324000Y-119226000D03*
X144324000Y-117226000D03*
X144324000Y-119226000D03*
X142324000Y-117226000D03*
X142324000Y-119226000D03*
X140324000Y-117226000D03*
X140324000Y-119226000D03*
X138324000Y-117226000D03*
X138324000Y-119226000D03*
X136324000Y-117226000D03*
X136324000Y-119226000D03*
X134324000Y-117226000D03*
D10*
X134324000Y-119226000D03*
D17*
X171659000Y-81801000D02*
X172434000Y-81026000D01*
X171659000Y-87231200D02*
X171659000Y-81801000D01*
X158324000Y-118669002D02*
X159299001Y-117694001D01*
X158324000Y-119226000D02*
X158324000Y-118669002D01*
X159299001Y-117694001D02*
X159299001Y-116355199D01*
X159299001Y-116355199D02*
X163801000Y-111853200D01*
X163801000Y-111853200D02*
X163801000Y-95089200D01*
X163801000Y-95089200D02*
X171659000Y-87231200D01*
X171209000Y-81801000D02*
X170434000Y-81026000D01*
X171209000Y-87044800D02*
X171209000Y-81801000D01*
X163351000Y-94902800D02*
X171209000Y-87044800D01*
X157348999Y-118201001D02*
X157348999Y-116757999D01*
X156324000Y-119226000D02*
X157348999Y-118201001D01*
X157348999Y-116757999D02*
X157855999Y-116250999D01*
X157855999Y-116250999D02*
X158766801Y-116250999D01*
X158766801Y-116250999D02*
X163351000Y-111666800D01*
X163351000Y-111666800D02*
X163351000Y-94902800D01*
X153653989Y-102755989D02*
X153653989Y-99451689D01*
X153353989Y-103055989D02*
X153420746Y-103048467D01*
X152910259Y-103063510D02*
X152977015Y-103055989D01*
X153646468Y-104022745D02*
X153653989Y-103955989D01*
X152706725Y-103486154D02*
X152684537Y-103422745D01*
X153624280Y-104086154D02*
X153646468Y-104022745D01*
X152742466Y-103543035D02*
X152706725Y-103486154D01*
X153588539Y-104143035D02*
X153624280Y-104086154D01*
X153541036Y-104190538D02*
X153588539Y-104143035D01*
X153484155Y-104226279D02*
X153541036Y-104190538D01*
X152684537Y-103289232D02*
X152706725Y-103225823D01*
X153420746Y-104248467D02*
X153484155Y-104226279D01*
X152977015Y-103655989D02*
X152910259Y-103648467D01*
X153353989Y-104255989D02*
X153420746Y-104248467D01*
X153646468Y-102822745D02*
X153653989Y-102755989D01*
X152977015Y-104255989D02*
X153353989Y-104255989D01*
X152910259Y-103648467D02*
X152846850Y-103626279D01*
X152910259Y-104263510D02*
X152977015Y-104255989D01*
X152846850Y-104285698D02*
X152910259Y-104263510D01*
X152789969Y-104321439D02*
X152846850Y-104285698D01*
X152742466Y-104368942D02*
X152789969Y-104321439D01*
X152677015Y-103355989D02*
X152684537Y-103289232D01*
X152706725Y-104425823D02*
X152742466Y-104368942D01*
X152684537Y-104489232D02*
X152706725Y-104425823D01*
X153484155Y-103685698D02*
X153420746Y-103663510D01*
X152677015Y-104555989D02*
X152684537Y-104489232D01*
X153653989Y-103955989D02*
X153646468Y-103889232D01*
X153646468Y-106289232D02*
X153624280Y-106225823D01*
X153624280Y-106486154D02*
X153646468Y-106422745D01*
X153646468Y-107489232D02*
X153624280Y-107425823D01*
X152706725Y-103225823D02*
X152742466Y-103168942D01*
X153420746Y-106648467D02*
X153484155Y-106626279D01*
X152977015Y-106655989D02*
X153353989Y-106655989D01*
X152742466Y-105943035D02*
X152706725Y-105886154D01*
X153624280Y-103825823D02*
X153588539Y-103768942D01*
X152706725Y-106825823D02*
X152742466Y-106768942D01*
X153541036Y-102990538D02*
X153588539Y-102943035D01*
X152684537Y-106889232D02*
X152706725Y-106825823D01*
X152846850Y-104826279D02*
X152789969Y-104790538D01*
X153420746Y-103048467D02*
X153484155Y-103026279D01*
X152677015Y-106955989D02*
X152684537Y-106889232D01*
X152684537Y-103422745D02*
X152677015Y-103355989D01*
X152684537Y-107022745D02*
X152677015Y-106955989D01*
X152789969Y-106721439D02*
X152846850Y-106685698D01*
X153653989Y-99451689D02*
X151709300Y-97507000D01*
X152684537Y-104622745D02*
X152677015Y-104555989D01*
X152706725Y-107086154D02*
X152684537Y-107022745D01*
X153484155Y-104885698D02*
X153420746Y-104863510D01*
X152846850Y-106685698D02*
X152910259Y-106663510D01*
X153353989Y-104855989D02*
X152977015Y-104855989D01*
X153624280Y-107425823D02*
X153588539Y-107368942D01*
X153484155Y-106626279D02*
X153541036Y-106590538D01*
X153353989Y-107255989D02*
X152977015Y-107255989D01*
X152742466Y-106768942D02*
X152789969Y-106721439D01*
X153588539Y-105343035D02*
X153624280Y-105286154D01*
X153653989Y-107555989D02*
X153646468Y-107489232D01*
X153420746Y-103663510D02*
X153353989Y-103655989D01*
X153653989Y-106355989D02*
X153646468Y-106289232D01*
X153653989Y-112620311D02*
X153653989Y-107555989D01*
X150324000Y-115950300D02*
X153653989Y-112620311D01*
X148758700Y-97507000D02*
X147037000Y-99228700D01*
X153420746Y-106063510D02*
X153353989Y-106055989D01*
X152910259Y-106663510D02*
X152977015Y-106655989D01*
X152977015Y-104855989D02*
X152910259Y-104848467D01*
X153588539Y-107368942D02*
X153541036Y-107321439D01*
X147037000Y-100259000D02*
X148752000Y-101974000D01*
X152977015Y-106055989D02*
X152910259Y-106048467D01*
X150324000Y-117226000D02*
X150324000Y-115950300D01*
X152846850Y-103085698D02*
X152910259Y-103063510D01*
X153484155Y-106085698D02*
X153420746Y-106063510D01*
X153541036Y-107321439D02*
X153484155Y-107285698D01*
X153588539Y-103768942D02*
X153541036Y-103721439D01*
X153588539Y-106543035D02*
X153624280Y-106486154D01*
X152910259Y-107248467D02*
X152846850Y-107226279D01*
X153420746Y-105448467D02*
X153484155Y-105426279D01*
X153484155Y-107285698D02*
X153420746Y-107263510D01*
X152742466Y-103168942D02*
X152789969Y-103121439D01*
X152846850Y-106026279D02*
X152789969Y-105990538D01*
X153420746Y-107263510D02*
X153353989Y-107255989D01*
X151709300Y-97507000D02*
X148758700Y-97507000D01*
X153646468Y-106422745D02*
X153653989Y-106355989D01*
X153353989Y-106655989D02*
X153420746Y-106648467D01*
X152910259Y-104848467D02*
X152846850Y-104826279D01*
X152977015Y-107255989D02*
X152910259Y-107248467D01*
X152706725Y-105886154D02*
X152684537Y-105822745D01*
X152846850Y-107226279D02*
X152789969Y-107190538D01*
X153541036Y-106590538D02*
X153588539Y-106543035D01*
X153624280Y-106225823D02*
X153588539Y-106168942D01*
X152789969Y-107190538D02*
X152742466Y-107143035D01*
X153353989Y-105455989D02*
X153420746Y-105448467D01*
X152742466Y-107143035D02*
X152706725Y-107086154D01*
X153646468Y-105222745D02*
X153653989Y-105155989D01*
X153588539Y-106168942D02*
X153541036Y-106121439D01*
X153588539Y-102943035D02*
X153624280Y-102886154D01*
X153541036Y-106121439D02*
X153484155Y-106085698D01*
X153353989Y-106055989D02*
X152977015Y-106055989D01*
X152977015Y-103055989D02*
X153353989Y-103055989D01*
X152910259Y-106048467D02*
X152846850Y-106026279D01*
X152789969Y-105990538D02*
X152742466Y-105943035D01*
X152789969Y-103121439D02*
X152846850Y-103085698D01*
X152684537Y-105822745D02*
X152677015Y-105755989D01*
X153353989Y-103655989D02*
X152977015Y-103655989D01*
X152677015Y-105755989D02*
X152684537Y-105689232D01*
X152789969Y-103590538D02*
X152742466Y-103543035D01*
X152684537Y-105689232D02*
X152706725Y-105625823D01*
X152706725Y-105625823D02*
X152742466Y-105568942D01*
X153484155Y-103026279D02*
X153541036Y-102990538D01*
X152742466Y-105568942D02*
X152789969Y-105521439D01*
X152789969Y-105521439D02*
X152846850Y-105485698D01*
X153541036Y-103721439D02*
X153484155Y-103685698D01*
X152846850Y-105485698D02*
X152910259Y-105463510D01*
X152910259Y-105463510D02*
X152977015Y-105455989D01*
X152977015Y-105455989D02*
X153353989Y-105455989D01*
X147037000Y-99228700D02*
X147037000Y-100259000D01*
X153484155Y-105426279D02*
X153541036Y-105390538D01*
X153541036Y-105390538D02*
X153588539Y-105343035D01*
X153624280Y-105286154D02*
X153646468Y-105222745D01*
X153653989Y-105155989D02*
X153646468Y-105089232D01*
X152846850Y-103626279D02*
X152789969Y-103590538D01*
X153646468Y-105089232D02*
X153624280Y-105025823D01*
X153624280Y-105025823D02*
X153588539Y-104968942D01*
X153588539Y-104968942D02*
X153541036Y-104921439D01*
X153541036Y-104921439D02*
X153484155Y-104885698D01*
X153646468Y-103889232D02*
X153624280Y-103825823D01*
X153420746Y-104863510D02*
X153353989Y-104855989D01*
X153624280Y-102886154D02*
X153646468Y-102822745D01*
X152789969Y-104790538D02*
X152742466Y-104743035D01*
X152742466Y-104743035D02*
X152706725Y-104686154D01*
X152706725Y-104686154D02*
X152684537Y-104622745D01*
X151348999Y-117637001D02*
X150368000Y-118618000D01*
X154054000Y-112786000D02*
X151348999Y-115491001D01*
X154054000Y-99286000D02*
X154054000Y-112786000D01*
X151825000Y-97057000D02*
X154054000Y-99286000D01*
X146587000Y-99113000D02*
X148643000Y-97057000D01*
X148752000Y-102874001D02*
X148319999Y-102874001D01*
X151348999Y-115491001D02*
X151348999Y-117637001D01*
X148752000Y-103974000D02*
X148752000Y-102874001D01*
X150368000Y-118618000D02*
X150368000Y-119182000D01*
X148319999Y-102874001D02*
X147851999Y-102406001D01*
X150368000Y-119182000D02*
X150324000Y-119226000D01*
X147851999Y-102406001D02*
X147851999Y-101703999D01*
X147851999Y-101703999D02*
X146587000Y-100439000D01*
X148643000Y-97057000D02*
X151825000Y-97057000D01*
X146587000Y-100439000D02*
X146587000Y-99113000D01*
X148324000Y-118669002D02*
X148324000Y-119226000D01*
X149299001Y-117694001D02*
X148324000Y-118669002D01*
X149299001Y-114177385D02*
X149299001Y-117694001D01*
X147564000Y-112442384D02*
X149299001Y-114177385D01*
X147564000Y-111726000D02*
X147564000Y-112442384D01*
X148415999Y-110874001D02*
X147564000Y-111726000D01*
X149184001Y-110874001D02*
X148415999Y-110874001D01*
X149652001Y-110406001D02*
X149184001Y-110874001D01*
X149652001Y-109541999D02*
X149652001Y-110406001D01*
X149202000Y-109091998D02*
X149652001Y-109541999D01*
X148752000Y-107974000D02*
X149202000Y-108424000D01*
X149202000Y-108424000D02*
X149202000Y-109091998D01*
X148750300Y-109974000D02*
X148752000Y-109974000D01*
X147163989Y-111560311D02*
X148750300Y-109974000D01*
X147163989Y-112678756D02*
X147163989Y-111560311D01*
X147561206Y-113075973D02*
X147163989Y-112678756D01*
X147592620Y-113115364D02*
X147561206Y-113075973D01*
X147614481Y-113160759D02*
X147592620Y-113115364D01*
X147625692Y-113260263D02*
X147625692Y-113209879D01*
X147614480Y-113309383D02*
X147625692Y-113260263D01*
X147592619Y-113354778D02*
X147614480Y-113309383D01*
X147561205Y-113394170D02*
X147592619Y-113354778D01*
X147087989Y-113875367D02*
X147119403Y-113835975D01*
X147066128Y-113920762D02*
X147087989Y-113875367D01*
X147054916Y-114020266D02*
X147054916Y-113969882D01*
X147087988Y-114114781D02*
X147066127Y-114069386D01*
X147253309Y-114218660D02*
X147204189Y-114207449D01*
X147437600Y-114154173D02*
X147398208Y-114185587D01*
X147964192Y-113659096D02*
X147918797Y-113680957D01*
X148013312Y-113647884D02*
X147964192Y-113659096D01*
X148112816Y-113659095D02*
X148063696Y-113647884D01*
X147940090Y-114855057D02*
X147889706Y-114855057D01*
X147989210Y-114843845D02*
X147940090Y-114855057D01*
X147724385Y-114751178D02*
X147702524Y-114705783D01*
X148063696Y-113647884D02*
X148013312Y-113647884D01*
X148515802Y-114348768D02*
X148073997Y-114790570D01*
X147918797Y-113680957D02*
X147879405Y-113712371D01*
X148555194Y-114317354D02*
X148515802Y-114348768D01*
X147398208Y-114185587D02*
X147352813Y-114207448D01*
X148649709Y-114284281D02*
X148600589Y-114295493D01*
X148250877Y-113945780D02*
X148262089Y-113896660D01*
X148600589Y-114295493D02*
X148555194Y-114317354D01*
X147352813Y-114207448D02*
X147303693Y-114218660D01*
X148700093Y-114284281D02*
X148649709Y-114284281D01*
X147691313Y-114606279D02*
X147702525Y-114557159D01*
X147066127Y-114069386D02*
X147054916Y-114020266D01*
X146880998Y-117226000D02*
X147855999Y-116250999D01*
X146324000Y-117226000D02*
X146880998Y-117226000D01*
X148834000Y-116250999D02*
X148834000Y-114348767D01*
X147158794Y-114185588D02*
X147119402Y-114154173D01*
X148749213Y-114295492D02*
X148700093Y-114284281D01*
X147303693Y-114218660D02*
X147253309Y-114218660D01*
X147855999Y-116250999D02*
X148834000Y-116250999D01*
X148197603Y-113712370D02*
X148158211Y-113680956D01*
X147119403Y-113835975D02*
X147561205Y-113394170D01*
X148794608Y-114317353D02*
X148749213Y-114295492D01*
X148034605Y-114821984D02*
X147989210Y-114843845D01*
X148262089Y-113846276D02*
X148250878Y-113797156D01*
X147879405Y-113712371D02*
X147437600Y-114154173D01*
X147889706Y-114855057D02*
X147840586Y-114843846D01*
X147625692Y-113209879D02*
X147614481Y-113160759D01*
X147840586Y-114843846D02*
X147795191Y-114821985D01*
X147054916Y-113969882D02*
X147066128Y-113920762D01*
X147795191Y-114821985D02*
X147755799Y-114790570D01*
X147724386Y-114511764D02*
X147755800Y-114472372D01*
X147755799Y-114790570D02*
X147724385Y-114751178D01*
X147204189Y-114207449D02*
X147158794Y-114185588D01*
X147702524Y-114705783D02*
X147691313Y-114656663D01*
X148197602Y-114030567D02*
X148229016Y-113991175D01*
X147119402Y-114154173D02*
X147087988Y-114114781D01*
X147691313Y-114656663D02*
X147691313Y-114606279D01*
X148229016Y-113991175D02*
X148250877Y-113945780D01*
X147702525Y-114557159D02*
X147724386Y-114511764D01*
X148073997Y-114790570D02*
X148034605Y-114821984D01*
X147755800Y-114472372D02*
X148197602Y-114030567D01*
X148262089Y-113896660D02*
X148262089Y-113846276D01*
X148250878Y-113797156D02*
X148229017Y-113751761D01*
X148229017Y-113751761D02*
X148197603Y-113712370D01*
X148834000Y-114348767D02*
X148794608Y-114317353D01*
X148158211Y-113680956D02*
X148112816Y-113659095D01*
X141348999Y-118250999D02*
X141649001Y-118551001D01*
X141348999Y-116526699D02*
X141348999Y-118250999D01*
X141649001Y-118551001D02*
X142324000Y-119226000D01*
X143002000Y-105464000D02*
X144154000Y-106616000D01*
X143002000Y-104974000D02*
X143002000Y-105464000D01*
X144154000Y-106616000D02*
X144154000Y-107526000D01*
X144154000Y-107526000D02*
X144926011Y-108298011D01*
X144926011Y-108298011D02*
X144926011Y-112949687D01*
X144926011Y-112949687D02*
X141348999Y-116526699D01*
X144526000Y-108498000D02*
X143002000Y-106974000D01*
X144526000Y-112768300D02*
X144526000Y-108498000D01*
X143224269Y-114070031D02*
X144526000Y-112768300D01*
X143118205Y-114176096D02*
X143224269Y-114070031D01*
X143065685Y-114217981D02*
X143118205Y-114176096D01*
X143005159Y-114247129D02*
X143065685Y-114217981D01*
X142939664Y-114262078D02*
X143005159Y-114247129D01*
X142872486Y-114262078D02*
X142939664Y-114262078D01*
X142806991Y-114247129D02*
X142872486Y-114262078D01*
X142746465Y-114217981D02*
X142806991Y-114247129D01*
X142693942Y-114176097D02*
X142746465Y-114217981D01*
X142514649Y-113996804D02*
X142693942Y-114176097D01*
X142462126Y-113954919D02*
X142514649Y-113996804D01*
X142401601Y-113925771D02*
X142462126Y-113954919D01*
X142336106Y-113910823D02*
X142401601Y-113925771D01*
X142268928Y-113910822D02*
X142336106Y-113910823D01*
X142203433Y-113925772D02*
X142268928Y-113910822D01*
X142142908Y-113954918D02*
X142203433Y-113925772D01*
X142090385Y-113996803D02*
X142142908Y-113954918D01*
X142048499Y-114049326D02*
X142090385Y-113996803D01*
X142019351Y-114109852D02*
X142048499Y-114049326D01*
X142004402Y-114175347D02*
X142019351Y-114109852D01*
X142004402Y-114242525D02*
X142004402Y-114175347D01*
X142019351Y-114308020D02*
X142004402Y-114242525D01*
X142048499Y-114368546D02*
X142019351Y-114308020D01*
X142090385Y-114421067D02*
X142048499Y-114368546D01*
X142269677Y-114600359D02*
X142090385Y-114421067D01*
X142311562Y-114652883D02*
X142269677Y-114600359D01*
X142340710Y-114713408D02*
X142311562Y-114652883D01*
X142355658Y-114778903D02*
X142340710Y-114713408D01*
X142355659Y-114846081D02*
X142355658Y-114778903D01*
X141170824Y-114958379D02*
X141199972Y-114897853D01*
X141553074Y-114774298D02*
X141613599Y-114803446D01*
X141155875Y-115023874D02*
X141170824Y-114958379D01*
X141155875Y-115091052D02*
X141155875Y-115023874D01*
X141170824Y-115156547D02*
X141155875Y-115091052D01*
X141241858Y-115269594D02*
X141199972Y-115217073D01*
X142091137Y-115110605D02*
X142156632Y-115095656D01*
X141421150Y-115448886D02*
X141241858Y-115269594D01*
X141492183Y-115561935D02*
X141463035Y-115501410D01*
X141487579Y-114759350D02*
X141553074Y-114774298D01*
X141199972Y-115217073D02*
X141170824Y-115156547D01*
X141507131Y-115627430D02*
X141492183Y-115561935D01*
X141199972Y-114897853D02*
X141241858Y-114845330D01*
X140324000Y-116970300D02*
X141421150Y-115873150D01*
X141463035Y-115501410D02*
X141421150Y-115448886D01*
X141354906Y-114774299D02*
X141420401Y-114759349D01*
X140324000Y-117226000D02*
X140324000Y-116970300D01*
X141492182Y-115760103D02*
X141507132Y-115694608D01*
X141421150Y-115873150D02*
X141463036Y-115820628D01*
X141463036Y-115820628D02*
X141492182Y-115760103D01*
X141958464Y-115095656D02*
X142023959Y-115110605D01*
X141507132Y-115694608D02*
X141507131Y-115627430D01*
X141241858Y-114845330D02*
X141294381Y-114803445D01*
X141294381Y-114803445D02*
X141354906Y-114774299D01*
X141420401Y-114759349D02*
X141487579Y-114759350D01*
X141613599Y-114803446D02*
X141666122Y-114845331D01*
X141666122Y-114845331D02*
X141845415Y-115024624D01*
X141845415Y-115024624D02*
X141897938Y-115066508D01*
X141897938Y-115066508D02*
X141958464Y-115095656D01*
X142023959Y-115110605D02*
X142091137Y-115110605D01*
X142156632Y-115095656D02*
X142217158Y-115066508D01*
X142217158Y-115066508D02*
X142269678Y-115024623D01*
X142269678Y-115024623D02*
X142269677Y-115024623D01*
X142269677Y-115024623D02*
X142311563Y-114972101D01*
X142311563Y-114972101D02*
X142340709Y-114911576D01*
X142340709Y-114911576D02*
X142355659Y-114846081D01*
X169672000Y-102995603D02*
X169672000Y-102362000D01*
X170492000Y-101542000D02*
X169672000Y-102362000D01*
X172324000Y-103666000D02*
X172324000Y-103046200D01*
X172316479Y-103732756D02*
X172324000Y-103666000D01*
X172294291Y-103796165D02*
X172316479Y-103732756D01*
X172211047Y-103900549D02*
X172258550Y-103853046D01*
X172154166Y-103936290D02*
X172211047Y-103900549D01*
X172024000Y-103966000D02*
X172090757Y-103958478D01*
X171728128Y-103966000D02*
X172024000Y-103966000D01*
X171661372Y-103973521D02*
X171728128Y-103966000D01*
X171597963Y-103995709D02*
X171661372Y-103973521D01*
X171541082Y-104031450D02*
X171597963Y-103995709D01*
X171493579Y-104078953D02*
X171541082Y-104031450D01*
X171457838Y-104135834D02*
X171493579Y-104078953D01*
X171435650Y-104199243D02*
X171457838Y-104135834D01*
X171428128Y-104266000D02*
X171435650Y-104199243D01*
X171435650Y-104332756D02*
X171428128Y-104266000D01*
X171457838Y-104396165D02*
X171435650Y-104332756D01*
X171493579Y-104453046D02*
X171457838Y-104396165D01*
X171541082Y-104500549D02*
X171493579Y-104453046D01*
X171597963Y-104536290D02*
X171541082Y-104500549D01*
X171661372Y-104558478D02*
X171597963Y-104536290D01*
X171728128Y-104566000D02*
X171661372Y-104558478D01*
X172024000Y-104566000D02*
X171728128Y-104566000D01*
X172090757Y-104573521D02*
X172024000Y-104566000D01*
X172154166Y-104595709D02*
X172090757Y-104573521D01*
X172258550Y-104678953D02*
X172211047Y-104631450D01*
X172294291Y-104735834D02*
X172258550Y-104678953D01*
X172316479Y-104799243D02*
X172294291Y-104735834D01*
X172294291Y-104996165D02*
X172316479Y-104932756D01*
X172258550Y-105053046D02*
X172294291Y-104996165D01*
X172211047Y-105100549D02*
X172258550Y-105053046D01*
X172154166Y-105136290D02*
X172211047Y-105100549D01*
X172090757Y-105158478D02*
X172154166Y-105136290D01*
X172024000Y-105166000D02*
X172090757Y-105158478D01*
X171728128Y-105166000D02*
X172024000Y-105166000D01*
X171661372Y-105173521D02*
X171728128Y-105166000D01*
X171597963Y-105195709D02*
X171661372Y-105173521D01*
X171541082Y-105231450D02*
X171597963Y-105195709D01*
X171493579Y-105278953D02*
X171541082Y-105231450D01*
X171457838Y-105335834D02*
X171493579Y-105278953D01*
X171435650Y-105399243D02*
X171457838Y-105335834D01*
X171428128Y-105466000D02*
X171435650Y-105399243D01*
X171435650Y-105532756D02*
X171428128Y-105466000D01*
X171457838Y-105596165D02*
X171435650Y-105532756D01*
X172324000Y-107266000D02*
X172316479Y-107199243D01*
X172294291Y-107396165D02*
X172316479Y-107332756D01*
X172154166Y-107536290D02*
X172211047Y-107500549D01*
X172090757Y-107558478D02*
X172154166Y-107536290D01*
X172024000Y-107566000D02*
X172090757Y-107558478D01*
X171493579Y-106478953D02*
X171541082Y-106431450D01*
X171661372Y-107573521D02*
X171728128Y-107566000D01*
X171597963Y-107595709D02*
X171661372Y-107573521D01*
X171541082Y-107631450D02*
X171597963Y-107595709D01*
X171493579Y-107678953D02*
X171541082Y-107631450D01*
X171435650Y-107799243D02*
X171457838Y-107735834D01*
X172154166Y-106995709D02*
X172090757Y-106973521D01*
X171457838Y-107735834D02*
X171493579Y-107678953D01*
X171428128Y-107866000D02*
X171435650Y-107799243D01*
X171728128Y-105766000D02*
X171661372Y-105758478D01*
X171493579Y-108053046D02*
X171457838Y-107996165D01*
X171597963Y-106936290D02*
X171541082Y-106900549D01*
X171541082Y-108100549D02*
X171493579Y-108053046D01*
X171728128Y-107566000D02*
X172024000Y-107566000D01*
X172324000Y-108466000D02*
X172316479Y-108399243D01*
X172258550Y-107453046D02*
X172294291Y-107396165D01*
X172211047Y-104631450D02*
X172154166Y-104595709D01*
X172324000Y-110094000D02*
X172324000Y-108466000D01*
X172294291Y-105935834D02*
X172258550Y-105878953D01*
X170819800Y-101542000D02*
X170492000Y-101542000D01*
X171435650Y-107932756D02*
X171428128Y-107866000D01*
X172024000Y-106366000D02*
X172090757Y-106358478D01*
X173228000Y-110998000D02*
X172324000Y-110094000D01*
X172316479Y-104932756D02*
X172324000Y-104866000D01*
X172294291Y-108335834D02*
X172258550Y-108278953D01*
X172258550Y-105878953D02*
X172211047Y-105831450D01*
X172211047Y-107500549D02*
X172258550Y-107453046D01*
X173228000Y-115872000D02*
X173228000Y-110998000D01*
X171493579Y-105653046D02*
X171457838Y-105596165D01*
X172024000Y-108166000D02*
X171728128Y-108166000D01*
X172258550Y-103853046D02*
X172294291Y-103796165D01*
X172316479Y-108399243D02*
X172294291Y-108335834D01*
X171661372Y-106958478D02*
X171597963Y-106936290D01*
X172324000Y-117226000D02*
X172324000Y-116776000D01*
X171428128Y-106666000D02*
X171435650Y-106599243D01*
X172316479Y-107332756D02*
X172324000Y-107266000D01*
X172324000Y-116776000D02*
X173228000Y-115872000D01*
X172154166Y-105795709D02*
X172090757Y-105773521D01*
X172324000Y-103046200D02*
X170819800Y-101542000D01*
X172258550Y-108278953D02*
X172211047Y-108231450D01*
X172090757Y-105773521D02*
X172024000Y-105766000D01*
X172090757Y-103958478D02*
X172154166Y-103936290D01*
X172211047Y-108231450D02*
X172154166Y-108195709D01*
X171661372Y-105758478D02*
X171597963Y-105736290D01*
X171457838Y-107996165D02*
X171435650Y-107932756D01*
X172324000Y-104866000D02*
X172316479Y-104799243D01*
X172154166Y-108195709D02*
X172090757Y-108173521D01*
X171435650Y-106599243D02*
X171457838Y-106535834D01*
X172090757Y-108173521D02*
X172024000Y-108166000D01*
X171457838Y-106796165D02*
X171435650Y-106732756D01*
X171661372Y-108158478D02*
X171597963Y-108136290D01*
X171728128Y-108166000D02*
X171661372Y-108158478D01*
X171597963Y-108136290D02*
X171541082Y-108100549D01*
X172316479Y-107199243D02*
X172294291Y-107135834D01*
X172294291Y-107135834D02*
X172258550Y-107078953D01*
X172258550Y-107078953D02*
X172211047Y-107031450D01*
X172211047Y-107031450D02*
X172154166Y-106995709D01*
X172090757Y-106973521D02*
X172024000Y-106966000D01*
X172024000Y-106966000D02*
X171728128Y-106966000D01*
X171728128Y-106966000D02*
X171661372Y-106958478D01*
X171541082Y-106900549D02*
X171493579Y-106853046D01*
X171493579Y-106853046D02*
X171457838Y-106796165D01*
X171435650Y-106732756D02*
X171428128Y-106666000D01*
X171457838Y-106535834D02*
X171493579Y-106478953D01*
X171541082Y-106431450D02*
X171597963Y-106395709D01*
X171597963Y-106395709D02*
X171661372Y-106373521D01*
X171661372Y-106373521D02*
X171728128Y-106366000D01*
X171728128Y-106366000D02*
X172024000Y-106366000D01*
X172090757Y-106358478D02*
X172154166Y-106336290D01*
X172154166Y-106336290D02*
X172211047Y-106300549D01*
X172211047Y-106300549D02*
X172258550Y-106253046D01*
X172258550Y-106253046D02*
X172294291Y-106196165D01*
X172294291Y-106196165D02*
X172316479Y-106132756D01*
X172316479Y-106132756D02*
X172324000Y-106066000D01*
X172324000Y-106066000D02*
X172316479Y-105999243D01*
X172316479Y-105999243D02*
X172294291Y-105935834D01*
X172211047Y-105831450D02*
X172154166Y-105795709D01*
X172024000Y-105766000D02*
X171728128Y-105766000D01*
X171597963Y-105736290D02*
X171541082Y-105700549D01*
X171541082Y-105700549D02*
X171493579Y-105653046D01*
X171006200Y-101092000D02*
X172774000Y-102859800D01*
X172774000Y-102859800D02*
X172774000Y-109978300D01*
X173348999Y-116316701D02*
X173348999Y-118201001D01*
X172774000Y-109978300D02*
X173628011Y-110832311D01*
X173628011Y-110832311D02*
X173628011Y-116037689D01*
X173348999Y-118201001D02*
X172998999Y-118551001D01*
X173628011Y-116037689D02*
X173348999Y-116316701D01*
X167132000Y-101092000D02*
X171006200Y-101092000D01*
X172998999Y-118551001D02*
X172324000Y-119226000D01*
X164899008Y-117226000D02*
X164324000Y-117226000D01*
X169672000Y-109982000D02*
X169262000Y-110392000D01*
X166742056Y-113419943D02*
X166848121Y-113313879D01*
X166671022Y-113532991D02*
X166700170Y-113472465D01*
X166700170Y-113791684D02*
X166671022Y-113731158D01*
X166742055Y-113844206D02*
X166700170Y-113791684D01*
X166869012Y-113971163D02*
X166742055Y-113844206D01*
X168058000Y-109982000D02*
X169672000Y-109982000D01*
X166910897Y-114023686D02*
X166869012Y-113971163D01*
X166940044Y-114084212D02*
X166910897Y-114023686D01*
X166954993Y-114149706D02*
X166940044Y-114084212D01*
X166954993Y-114216885D02*
X166954993Y-114149706D01*
X167544000Y-110496000D02*
X168058000Y-109982000D01*
X166940044Y-114282379D02*
X166954993Y-114216885D01*
X167544000Y-112618000D02*
X167544000Y-110496000D01*
X166910897Y-114342905D02*
X166940044Y-114282379D01*
X166869012Y-114395428D02*
X166910897Y-114342905D01*
X166816489Y-114437313D02*
X166869012Y-114395428D01*
X166755963Y-114466461D02*
X166816489Y-114437313D01*
X166690469Y-114481409D02*
X166755963Y-114466461D01*
X166623290Y-114481409D02*
X166690469Y-114481409D01*
X166557796Y-114466461D02*
X166623290Y-114481409D01*
X166848121Y-113313879D02*
X167544000Y-112618000D01*
X166497270Y-114437313D02*
X166557796Y-114466461D01*
X166444748Y-114395428D02*
X166497270Y-114437313D01*
X166317792Y-114268472D02*
X166444748Y-114395428D01*
X166265269Y-114226586D02*
X166317792Y-114268472D01*
X166656074Y-113598485D02*
X166671022Y-113532991D01*
X166204743Y-114197439D02*
X166265269Y-114226586D01*
X166139249Y-114182490D02*
X166204743Y-114197439D01*
X166072070Y-114182490D02*
X166139249Y-114182490D01*
X166006576Y-114197439D02*
X166072070Y-114182490D01*
X165841941Y-115329937D02*
X165907435Y-115314989D01*
X165774762Y-115329937D02*
X165841941Y-115329937D01*
X165709268Y-115314989D02*
X165774762Y-115329937D01*
X165469264Y-115117000D02*
X165596220Y-115243956D01*
X165596220Y-115243956D02*
X165648742Y-115285841D01*
X166020484Y-114819691D02*
X165893527Y-114692734D01*
X165416741Y-115075114D02*
X165469264Y-115117000D01*
X166671022Y-113731158D02*
X166656074Y-113665664D01*
X166020484Y-115243956D02*
X166062369Y-115191433D01*
X165223542Y-115031018D02*
X165290721Y-115031018D01*
X165158048Y-115045967D02*
X165223542Y-115031018D01*
X165290721Y-115031018D02*
X165356215Y-115045967D01*
X166106465Y-115065413D02*
X166106465Y-114998234D01*
X164334000Y-117216000D02*
X164334000Y-115828000D01*
X165648742Y-115285841D02*
X165709268Y-115314989D01*
X164324000Y-117226000D02*
X164334000Y-117216000D01*
X166700170Y-113472465D02*
X166742056Y-113419943D01*
X165356215Y-115045967D02*
X165416741Y-115075114D01*
X165045000Y-115117000D02*
X165097522Y-115075114D01*
X165851642Y-114640212D02*
X165822494Y-114579686D01*
X165097522Y-115075114D02*
X165158048Y-115045967D01*
X164334000Y-115828000D02*
X165045000Y-115117000D01*
X165907435Y-115314989D02*
X165967961Y-115285841D01*
X165967961Y-115285841D02*
X166020484Y-115243956D01*
X165893528Y-114268471D02*
X165893528Y-114268472D01*
X166062369Y-115191433D02*
X166091516Y-115130907D01*
X166091516Y-115130907D02*
X166106465Y-115065413D01*
X166106465Y-114998234D02*
X166091516Y-114932740D01*
X165807546Y-114447013D02*
X165822494Y-114381519D01*
X166656074Y-113665664D02*
X166656074Y-113598485D01*
X166091516Y-114932740D02*
X166062369Y-114872214D01*
X166062369Y-114872214D02*
X166020484Y-114819691D01*
X165893527Y-114692734D02*
X165851642Y-114640212D01*
X165822494Y-114579686D02*
X165807546Y-114514192D01*
X165822494Y-114381519D02*
X165851642Y-114320993D01*
X165807546Y-114514192D02*
X165807546Y-114447013D01*
X165893528Y-114268472D02*
X165946050Y-114226586D01*
X165851642Y-114320993D02*
X165893528Y-114268471D01*
X165946050Y-114226586D02*
X166006576Y-114197439D01*
X163348999Y-118250999D02*
X163649001Y-118551001D01*
X163649001Y-118551001D02*
X164324000Y-119226000D01*
X167132000Y-112464300D02*
X163348999Y-116247301D01*
X167132000Y-108712000D02*
X167132000Y-112464300D01*
X163348999Y-116247301D02*
X163348999Y-118250999D01*
M02*
