G04 #@! TF.GenerationSoftware,KiCad,Pcbnew,(5.1.2)-1*
G04 #@! TF.CreationDate,2019-10-11T14:20:38-04:00*
G04 #@! TF.ProjectId,faceplate,66616365-706c-4617-9465-2e6b69636164,rev?*
G04 #@! TF.SameCoordinates,Original*
G04 #@! TF.FileFunction,Legend,Bot*
G04 #@! TF.FilePolarity,Positive*
%FSLAX46Y46*%
G04 Gerber Fmt 4.6, Leading zero omitted, Abs format (unit mm)*
G04 Created by KiCad (PCBNEW (5.1.2)-1) date 2019-10-11 14:20:38*
%MOMM*%
%LPD*%
G04 APERTURE LIST*
%ADD10C,0.150000*%
G04 APERTURE END LIST*
D10*
X154827928Y-124073380D02*
X154827928Y-123073380D01*
X154256500Y-124073380D01*
X154256500Y-123073380D01*
X153637452Y-124073380D02*
X153732690Y-124025761D01*
X153780309Y-123978142D01*
X153827928Y-123882904D01*
X153827928Y-123597190D01*
X153780309Y-123501952D01*
X153732690Y-123454333D01*
X153637452Y-123406714D01*
X153494595Y-123406714D01*
X153399357Y-123454333D01*
X153351738Y-123501952D01*
X153304119Y-123597190D01*
X153304119Y-123882904D01*
X153351738Y-123978142D01*
X153399357Y-124025761D01*
X153494595Y-124073380D01*
X153637452Y-124073380D01*
X153018404Y-123406714D02*
X152637452Y-123406714D01*
X152875547Y-123073380D02*
X152875547Y-123930523D01*
X152827928Y-124025761D01*
X152732690Y-124073380D01*
X152637452Y-124073380D01*
X151923166Y-124025761D02*
X152018404Y-124073380D01*
X152208881Y-124073380D01*
X152304119Y-124025761D01*
X152351738Y-123930523D01*
X152351738Y-123549571D01*
X152304119Y-123454333D01*
X152208881Y-123406714D01*
X152018404Y-123406714D01*
X151923166Y-123454333D01*
X151875547Y-123549571D01*
X151875547Y-123644809D01*
X152351738Y-123740047D01*
X151446976Y-123978142D02*
X151399357Y-124025761D01*
X151446976Y-124073380D01*
X151494595Y-124025761D01*
X151446976Y-123978142D01*
X151446976Y-124073380D01*
X151446976Y-123454333D02*
X151399357Y-123501952D01*
X151446976Y-123549571D01*
X151494595Y-123501952D01*
X151446976Y-123454333D01*
X151446976Y-123549571D01*
X154351738Y-124723380D02*
X154827928Y-124723380D01*
X154875547Y-125199571D01*
X154827928Y-125151952D01*
X154732690Y-125104333D01*
X154494595Y-125104333D01*
X154399357Y-125151952D01*
X154351738Y-125199571D01*
X154304119Y-125294809D01*
X154304119Y-125532904D01*
X154351738Y-125628142D01*
X154399357Y-125675761D01*
X154494595Y-125723380D01*
X154732690Y-125723380D01*
X154827928Y-125675761D01*
X154875547Y-125628142D01*
X153685071Y-124723380D02*
X153589833Y-124723380D01*
X153494595Y-124771000D01*
X153446976Y-124818619D01*
X153399357Y-124913857D01*
X153351738Y-125104333D01*
X153351738Y-125342428D01*
X153399357Y-125532904D01*
X153446976Y-125628142D01*
X153494595Y-125675761D01*
X153589833Y-125723380D01*
X153685071Y-125723380D01*
X153780309Y-125675761D01*
X153827928Y-125628142D01*
X153875547Y-125532904D01*
X153923166Y-125342428D01*
X153923166Y-125104333D01*
X153875547Y-124913857D01*
X153827928Y-124818619D01*
X153780309Y-124771000D01*
X153685071Y-124723380D01*
X152923166Y-125056714D02*
X152923166Y-126056714D01*
X152923166Y-125104333D02*
X152827928Y-125056714D01*
X152637452Y-125056714D01*
X152542214Y-125104333D01*
X152494595Y-125151952D01*
X152446976Y-125247190D01*
X152446976Y-125532904D01*
X152494595Y-125628142D01*
X152542214Y-125675761D01*
X152637452Y-125723380D01*
X152827928Y-125723380D01*
X152923166Y-125675761D01*
X152018404Y-125723380D02*
X152018404Y-125056714D01*
X152018404Y-124723380D02*
X152066024Y-124771000D01*
X152018404Y-124818619D01*
X151970785Y-124771000D01*
X152018404Y-124723380D01*
X152018404Y-124818619D01*
X151542214Y-125056714D02*
X151542214Y-125723380D01*
X151542214Y-125151952D02*
X151494595Y-125104333D01*
X151399357Y-125056714D01*
X151256500Y-125056714D01*
X151161262Y-125104333D01*
X151113643Y-125199571D01*
X151113643Y-125723380D01*
X149875547Y-125723380D02*
X149875547Y-124723380D01*
X149446976Y-125723380D02*
X149446976Y-125199571D01*
X149494595Y-125104333D01*
X149589833Y-125056714D01*
X149732690Y-125056714D01*
X149827928Y-125104333D01*
X149875547Y-125151952D01*
X148589833Y-125675761D02*
X148685071Y-125723380D01*
X148875547Y-125723380D01*
X148970785Y-125675761D01*
X149018404Y-125580523D01*
X149018404Y-125199571D01*
X148970785Y-125104333D01*
X148875547Y-125056714D01*
X148685071Y-125056714D01*
X148589833Y-125104333D01*
X148542214Y-125199571D01*
X148542214Y-125294809D01*
X149018404Y-125390047D01*
X147685071Y-125723380D02*
X147685071Y-125199571D01*
X147732690Y-125104333D01*
X147827928Y-125056714D01*
X148018404Y-125056714D01*
X148113643Y-125104333D01*
X147685071Y-125675761D02*
X147780309Y-125723380D01*
X148018404Y-125723380D01*
X148113643Y-125675761D01*
X148161262Y-125580523D01*
X148161262Y-125485285D01*
X148113643Y-125390047D01*
X148018404Y-125342428D01*
X147780309Y-125342428D01*
X147685071Y-125294809D01*
X146780309Y-125723380D02*
X146780309Y-124723380D01*
X146780309Y-125675761D02*
X146875547Y-125723380D01*
X147066024Y-125723380D01*
X147161262Y-125675761D01*
X147208881Y-125628142D01*
X147256500Y-125532904D01*
X147256500Y-125247190D01*
X147208881Y-125151952D01*
X147161262Y-125104333D01*
X147066024Y-125056714D01*
X146875547Y-125056714D01*
X146780309Y-125104333D01*
X145923166Y-125675761D02*
X146018404Y-125723380D01*
X146208881Y-125723380D01*
X146304119Y-125675761D01*
X146351738Y-125580523D01*
X146351738Y-125199571D01*
X146304119Y-125104333D01*
X146208881Y-125056714D01*
X146018404Y-125056714D01*
X145923166Y-125104333D01*
X145875547Y-125199571D01*
X145875547Y-125294809D01*
X146351738Y-125390047D01*
X145446976Y-125723380D02*
X145446976Y-125056714D01*
X145446976Y-125247190D02*
X145399357Y-125151952D01*
X145351738Y-125104333D01*
X145256500Y-125056714D01*
X145161262Y-125056714D01*
X143637452Y-125056714D02*
X143637452Y-125866238D01*
X143685071Y-125961476D01*
X143732690Y-126009095D01*
X143827928Y-126056714D01*
X143970785Y-126056714D01*
X144066024Y-126009095D01*
X143637452Y-125675761D02*
X143732690Y-125723380D01*
X143923166Y-125723380D01*
X144018404Y-125675761D01*
X144066024Y-125628142D01*
X144113643Y-125532904D01*
X144113643Y-125247190D01*
X144066024Y-125151952D01*
X144018404Y-125104333D01*
X143923166Y-125056714D01*
X143732690Y-125056714D01*
X143637452Y-125104333D01*
X143018404Y-125723380D02*
X143113643Y-125675761D01*
X143161262Y-125628142D01*
X143208881Y-125532904D01*
X143208881Y-125247190D01*
X143161262Y-125151952D01*
X143113643Y-125104333D01*
X143018404Y-125056714D01*
X142875547Y-125056714D01*
X142780309Y-125104333D01*
X142732690Y-125151952D01*
X142685071Y-125247190D01*
X142685071Y-125532904D01*
X142732690Y-125628142D01*
X142780309Y-125675761D01*
X142875547Y-125723380D01*
X143018404Y-125723380D01*
X141875547Y-125675761D02*
X141970785Y-125723380D01*
X142161262Y-125723380D01*
X142256500Y-125675761D01*
X142304119Y-125580523D01*
X142304119Y-125199571D01*
X142256500Y-125104333D01*
X142161262Y-125056714D01*
X141970785Y-125056714D01*
X141875547Y-125104333D01*
X141827928Y-125199571D01*
X141827928Y-125294809D01*
X142304119Y-125390047D01*
X141446976Y-125675761D02*
X141351738Y-125723380D01*
X141161262Y-125723380D01*
X141066024Y-125675761D01*
X141018404Y-125580523D01*
X141018404Y-125532904D01*
X141066024Y-125437666D01*
X141161262Y-125390047D01*
X141304119Y-125390047D01*
X141399357Y-125342428D01*
X141446976Y-125247190D01*
X141446976Y-125199571D01*
X141399357Y-125104333D01*
X141304119Y-125056714D01*
X141161262Y-125056714D01*
X141066024Y-125104333D01*
X139827928Y-125723380D02*
X139827928Y-124723380D01*
X139399357Y-125723380D02*
X139399357Y-125199571D01*
X139446976Y-125104333D01*
X139542214Y-125056714D01*
X139685071Y-125056714D01*
X139780309Y-125104333D01*
X139827928Y-125151952D01*
X138542214Y-125675761D02*
X138637452Y-125723380D01*
X138827928Y-125723380D01*
X138923166Y-125675761D01*
X138970785Y-125580523D01*
X138970785Y-125199571D01*
X138923166Y-125104333D01*
X138827928Y-125056714D01*
X138637452Y-125056714D01*
X138542214Y-125104333D01*
X138494595Y-125199571D01*
X138494595Y-125294809D01*
X138970785Y-125390047D01*
X138066024Y-125723380D02*
X138066024Y-125056714D01*
X138066024Y-125247190D02*
X138018404Y-125151952D01*
X137970785Y-125104333D01*
X137875547Y-125056714D01*
X137780309Y-125056714D01*
X137066024Y-125675761D02*
X137161262Y-125723380D01*
X137351738Y-125723380D01*
X137446976Y-125675761D01*
X137494595Y-125580523D01*
X137494595Y-125199571D01*
X137446976Y-125104333D01*
X137351738Y-125056714D01*
X137161262Y-125056714D01*
X137066024Y-125104333D01*
X137018404Y-125199571D01*
X137018404Y-125294809D01*
X137494595Y-125390047D01*
X136589833Y-125628142D02*
X136542214Y-125675761D01*
X136589833Y-125723380D01*
X136637452Y-125675761D01*
X136589833Y-125628142D01*
X136589833Y-125723380D01*
X154827928Y-126373380D02*
X154827928Y-127182904D01*
X154780309Y-127278142D01*
X154732690Y-127325761D01*
X154637452Y-127373380D01*
X154446976Y-127373380D01*
X154351738Y-127325761D01*
X154304119Y-127278142D01*
X154256500Y-127182904D01*
X154256500Y-126373380D01*
X153827928Y-127325761D02*
X153685071Y-127373380D01*
X153446976Y-127373380D01*
X153351738Y-127325761D01*
X153304119Y-127278142D01*
X153256500Y-127182904D01*
X153256500Y-127087666D01*
X153304119Y-126992428D01*
X153351738Y-126944809D01*
X153446976Y-126897190D01*
X153637452Y-126849571D01*
X153732690Y-126801952D01*
X153780309Y-126754333D01*
X153827928Y-126659095D01*
X153827928Y-126563857D01*
X153780309Y-126468619D01*
X153732690Y-126421000D01*
X153637452Y-126373380D01*
X153399357Y-126373380D01*
X153256500Y-126421000D01*
X152494595Y-126849571D02*
X152351738Y-126897190D01*
X152304119Y-126944809D01*
X152256500Y-127040047D01*
X152256500Y-127182904D01*
X152304119Y-127278142D01*
X152351738Y-127325761D01*
X152446976Y-127373380D01*
X152827928Y-127373380D01*
X152827928Y-126373380D01*
X152494595Y-126373380D01*
X152399357Y-126421000D01*
X152351738Y-126468619D01*
X152304119Y-126563857D01*
X152304119Y-126659095D01*
X152351738Y-126754333D01*
X152399357Y-126801952D01*
X152494595Y-126849571D01*
X152827928Y-126849571D01*
X151875547Y-126468619D02*
X151827928Y-126421000D01*
X151732690Y-126373380D01*
X151494595Y-126373380D01*
X151399357Y-126421000D01*
X151351738Y-126468619D01*
X151304119Y-126563857D01*
X151304119Y-126659095D01*
X151351738Y-126801952D01*
X151923166Y-127373380D01*
X151304119Y-127373380D01*
X150161262Y-126325761D02*
X151018404Y-127611476D01*
X149923166Y-126373380D02*
X149304119Y-126373380D01*
X149637452Y-126754333D01*
X149494595Y-126754333D01*
X149399357Y-126801952D01*
X149351738Y-126849571D01*
X149304119Y-126944809D01*
X149304119Y-127182904D01*
X149351738Y-127278142D01*
X149399357Y-127325761D01*
X149494595Y-127373380D01*
X149780309Y-127373380D01*
X149875547Y-127325761D01*
X149923166Y-127278142D01*
X148827928Y-127325761D02*
X148827928Y-127373380D01*
X148875547Y-127468619D01*
X148923166Y-127516238D01*
X147066024Y-127373380D02*
X147399357Y-126897190D01*
X147637452Y-127373380D02*
X147637452Y-126373380D01*
X147256500Y-126373380D01*
X147161262Y-126421000D01*
X147113643Y-126468619D01*
X147066024Y-126563857D01*
X147066024Y-126706714D01*
X147113643Y-126801952D01*
X147161262Y-126849571D01*
X147256500Y-126897190D01*
X147637452Y-126897190D01*
X146351738Y-126373380D02*
X146351738Y-127087666D01*
X146399357Y-127230523D01*
X146494595Y-127325761D01*
X146637452Y-127373380D01*
X146732690Y-127373380D01*
X145446976Y-126706714D02*
X145446976Y-127373380D01*
X145685071Y-126325761D02*
X145923166Y-127040047D01*
X145304119Y-127040047D01*
X144446976Y-126373380D02*
X144923166Y-126373380D01*
X144970785Y-126849571D01*
X144923166Y-126801952D01*
X144827928Y-126754333D01*
X144589833Y-126754333D01*
X144494595Y-126801952D01*
X144446976Y-126849571D01*
X144399357Y-126944809D01*
X144399357Y-127182904D01*
X144446976Y-127278142D01*
X144494595Y-127325761D01*
X144589833Y-127373380D01*
X144827928Y-127373380D01*
X144923166Y-127325761D01*
X144970785Y-127278142D01*
X143923166Y-127325761D02*
X143923166Y-127373380D01*
X143970785Y-127468619D01*
X144018404Y-127516238D01*
X142304119Y-127373380D02*
X142304119Y-126849571D01*
X142351738Y-126754333D01*
X142446976Y-126706714D01*
X142637452Y-126706714D01*
X142732690Y-126754333D01*
X142304119Y-127325761D02*
X142399357Y-127373380D01*
X142637452Y-127373380D01*
X142732690Y-127325761D01*
X142780309Y-127230523D01*
X142780309Y-127135285D01*
X142732690Y-127040047D01*
X142637452Y-126992428D01*
X142399357Y-126992428D01*
X142304119Y-126944809D01*
X141827928Y-126706714D02*
X141827928Y-127373380D01*
X141827928Y-126801952D02*
X141780309Y-126754333D01*
X141685071Y-126706714D01*
X141542214Y-126706714D01*
X141446976Y-126754333D01*
X141399357Y-126849571D01*
X141399357Y-127373380D01*
X140494595Y-127373380D02*
X140494595Y-126373380D01*
X140494595Y-127325761D02*
X140589833Y-127373380D01*
X140780309Y-127373380D01*
X140875547Y-127325761D01*
X140923166Y-127278142D01*
X140970785Y-127182904D01*
X140970785Y-126897190D01*
X140923166Y-126801952D01*
X140875547Y-126754333D01*
X140780309Y-126706714D01*
X140589833Y-126706714D01*
X140494595Y-126754333D01*
X139113643Y-126801952D02*
X139208881Y-126754333D01*
X139256500Y-126706714D01*
X139304119Y-126611476D01*
X139304119Y-126563857D01*
X139256500Y-126468619D01*
X139208881Y-126421000D01*
X139113643Y-126373380D01*
X138923166Y-126373380D01*
X138827928Y-126421000D01*
X138780309Y-126468619D01*
X138732690Y-126563857D01*
X138732690Y-126611476D01*
X138780309Y-126706714D01*
X138827928Y-126754333D01*
X138923166Y-126801952D01*
X139113643Y-126801952D01*
X139208881Y-126849571D01*
X139256500Y-126897190D01*
X139304119Y-126992428D01*
X139304119Y-127182904D01*
X139256500Y-127278142D01*
X139208881Y-127325761D01*
X139113643Y-127373380D01*
X138923166Y-127373380D01*
X138827928Y-127325761D01*
X138780309Y-127278142D01*
X138732690Y-127182904D01*
X138732690Y-126992428D01*
X138780309Y-126897190D01*
X138827928Y-126849571D01*
X138923166Y-126801952D01*
X138304119Y-126706714D02*
X138304119Y-127706714D01*
X138304119Y-126754333D02*
X138208881Y-126706714D01*
X138018404Y-126706714D01*
X137923166Y-126754333D01*
X137875547Y-126801952D01*
X137827928Y-126897190D01*
X137827928Y-127182904D01*
X137875547Y-127278142D01*
X137923166Y-127325761D01*
X138018404Y-127373380D01*
X138208881Y-127373380D01*
X138304119Y-127325761D01*
X137399357Y-127373380D02*
X137399357Y-126706714D01*
X137399357Y-126373380D02*
X137446976Y-126421000D01*
X137399357Y-126468619D01*
X137351738Y-126421000D01*
X137399357Y-126373380D01*
X137399357Y-126468619D01*
X136923166Y-126706714D02*
X136923166Y-127373380D01*
X136923166Y-126801952D02*
X136875547Y-126754333D01*
X136780309Y-126706714D01*
X136637452Y-126706714D01*
X136542214Y-126754333D01*
X136494595Y-126849571D01*
X136494595Y-127373380D01*
X134827928Y-126706714D02*
X134827928Y-127516238D01*
X134875547Y-127611476D01*
X134923166Y-127659095D01*
X135018404Y-127706714D01*
X135161262Y-127706714D01*
X135256500Y-127659095D01*
X134827928Y-127325761D02*
X134923166Y-127373380D01*
X135113643Y-127373380D01*
X135208881Y-127325761D01*
X135256500Y-127278142D01*
X135304119Y-127182904D01*
X135304119Y-126897190D01*
X135256500Y-126801952D01*
X135208881Y-126754333D01*
X135113643Y-126706714D01*
X134923166Y-126706714D01*
X134827928Y-126754333D01*
X134208881Y-127373380D02*
X134304119Y-127325761D01*
X134351738Y-127278142D01*
X134399357Y-127182904D01*
X134399357Y-126897190D01*
X134351738Y-126801952D01*
X134304119Y-126754333D01*
X134208881Y-126706714D01*
X134066024Y-126706714D01*
X133970785Y-126754333D01*
X133923166Y-126801952D01*
X133875547Y-126897190D01*
X133875547Y-127182904D01*
X133923166Y-127278142D01*
X133970785Y-127325761D01*
X134066024Y-127373380D01*
X134208881Y-127373380D01*
X133066024Y-127325761D02*
X133161262Y-127373380D01*
X133351738Y-127373380D01*
X133446976Y-127325761D01*
X133494595Y-127230523D01*
X133494595Y-126849571D01*
X133446976Y-126754333D01*
X133351738Y-126706714D01*
X133161262Y-126706714D01*
X133066024Y-126754333D01*
X133018404Y-126849571D01*
X133018404Y-126944809D01*
X133494595Y-127040047D01*
X132637452Y-127325761D02*
X132542214Y-127373380D01*
X132351738Y-127373380D01*
X132256500Y-127325761D01*
X132208881Y-127230523D01*
X132208881Y-127182904D01*
X132256500Y-127087666D01*
X132351738Y-127040047D01*
X132494595Y-127040047D01*
X132589833Y-126992428D01*
X132637452Y-126897190D01*
X132637452Y-126849571D01*
X132589833Y-126754333D01*
X132494595Y-126706714D01*
X132351738Y-126706714D01*
X132256500Y-126754333D01*
X154685071Y-129023380D02*
X154780309Y-128975761D01*
X154827928Y-128928142D01*
X154875547Y-128832904D01*
X154875547Y-128547190D01*
X154827928Y-128451952D01*
X154780309Y-128404333D01*
X154685071Y-128356714D01*
X154542214Y-128356714D01*
X154446976Y-128404333D01*
X154399357Y-128451952D01*
X154351738Y-128547190D01*
X154351738Y-128832904D01*
X154399357Y-128928142D01*
X154446976Y-128975761D01*
X154542214Y-129023380D01*
X154685071Y-129023380D01*
X153923166Y-128356714D02*
X153923166Y-129023380D01*
X153923166Y-128451952D02*
X153875547Y-128404333D01*
X153780309Y-128356714D01*
X153637452Y-128356714D01*
X153542214Y-128404333D01*
X153494595Y-128499571D01*
X153494595Y-129023380D01*
X152113643Y-129023380D02*
X152208881Y-128975761D01*
X152256500Y-128928142D01*
X152304119Y-128832904D01*
X152304119Y-128547190D01*
X152256500Y-128451952D01*
X152208881Y-128404333D01*
X152113643Y-128356714D01*
X151970785Y-128356714D01*
X151875547Y-128404333D01*
X151827928Y-128451952D01*
X151780309Y-128547190D01*
X151780309Y-128832904D01*
X151827928Y-128928142D01*
X151875547Y-128975761D01*
X151970785Y-129023380D01*
X152113643Y-129023380D01*
X151494595Y-128356714D02*
X151113643Y-128356714D01*
X151351738Y-128023380D02*
X151351738Y-128880523D01*
X151304119Y-128975761D01*
X151208881Y-129023380D01*
X151113643Y-129023380D01*
X150780309Y-129023380D02*
X150780309Y-128023380D01*
X150351738Y-129023380D02*
X150351738Y-128499571D01*
X150399357Y-128404333D01*
X150494595Y-128356714D01*
X150637452Y-128356714D01*
X150732690Y-128404333D01*
X150780309Y-128451952D01*
X149494595Y-128975761D02*
X149589833Y-129023380D01*
X149780309Y-129023380D01*
X149875547Y-128975761D01*
X149923166Y-128880523D01*
X149923166Y-128499571D01*
X149875547Y-128404333D01*
X149780309Y-128356714D01*
X149589833Y-128356714D01*
X149494595Y-128404333D01*
X149446976Y-128499571D01*
X149446976Y-128594809D01*
X149923166Y-128690047D01*
X149018404Y-129023380D02*
X149018404Y-128356714D01*
X149018404Y-128547190D02*
X148970785Y-128451952D01*
X148923166Y-128404333D01*
X148827928Y-128356714D01*
X148732690Y-128356714D01*
X147685071Y-128975761D02*
X147589833Y-129023380D01*
X147399357Y-129023380D01*
X147304119Y-128975761D01*
X147256500Y-128880523D01*
X147256500Y-128832904D01*
X147304119Y-128737666D01*
X147399357Y-128690047D01*
X147542214Y-128690047D01*
X147637452Y-128642428D01*
X147685071Y-128547190D01*
X147685071Y-128499571D01*
X147637452Y-128404333D01*
X147542214Y-128356714D01*
X147399357Y-128356714D01*
X147304119Y-128404333D01*
X146827928Y-129023380D02*
X146827928Y-128356714D01*
X146827928Y-128023380D02*
X146875547Y-128071000D01*
X146827928Y-128118619D01*
X146780309Y-128071000D01*
X146827928Y-128023380D01*
X146827928Y-128118619D01*
X145923166Y-129023380D02*
X145923166Y-128023380D01*
X145923166Y-128975761D02*
X146018404Y-129023380D01*
X146208881Y-129023380D01*
X146304119Y-128975761D01*
X146351738Y-128928142D01*
X146399357Y-128832904D01*
X146399357Y-128547190D01*
X146351738Y-128451952D01*
X146304119Y-128404333D01*
X146208881Y-128356714D01*
X146018404Y-128356714D01*
X145923166Y-128404333D01*
X145066024Y-128975761D02*
X145161262Y-129023380D01*
X145351738Y-129023380D01*
X145446976Y-128975761D01*
X145494595Y-128880523D01*
X145494595Y-128499571D01*
X145446976Y-128404333D01*
X145351738Y-128356714D01*
X145161262Y-128356714D01*
X145066024Y-128404333D01*
X145018404Y-128499571D01*
X145018404Y-128594809D01*
X145494595Y-128690047D01*
X159967333Y-120998380D02*
X159967333Y-121712666D01*
X160014952Y-121855523D01*
X160110190Y-121950761D01*
X160253047Y-121998380D01*
X160348285Y-121998380D01*
X158967333Y-121998380D02*
X159538761Y-121998380D01*
X159253047Y-121998380D02*
X159253047Y-120998380D01*
X159348285Y-121141238D01*
X159443523Y-121236476D01*
X159538761Y-121284095D01*
M02*
