M48
; DRILL file {KiCad (5.1.2)-1} date 10/11/2019 2:14:15 PM
; FORMAT={-:-/ absolute / metric / decimal}
; #@! TF.CreationDate,2019-10-11T14:14:15-04:00
; #@! TF.GenerationSoftware,Kicad,Pcbnew,(5.1.2)-1
; #@! TF.FileFunction,Plated,1,8,PTH
FMAT,2
METRIC
T1C0.650
T2C0.700
T3C0.800
T4C0.900
T5C1.000
T6C2.300
%
G90
G05
T2
X140.252Y-101.974
X140.252Y-103.974
X140.252Y-105.974
X140.252Y-107.974
X140.252Y-109.974
X143.002Y-102.474
X143.002Y-104.974
X143.002Y-106.974
X143.002Y-109.474
X148.752Y-101.974
X148.752Y-103.974
X148.752Y-105.974
X148.752Y-107.974
X148.752Y-109.974
X151.502Y-102.474
X151.502Y-104.974
X151.502Y-106.974
X151.502Y-109.474
T3
X178.594Y-122.206
X178.594Y-124.206
X178.594Y-126.206
X178.594Y-128.206
X180.594Y-122.206
X180.594Y-124.206
X180.594Y-126.206
X180.594Y-128.206
X134.324Y-117.226
X134.324Y-119.226
X136.324Y-117.226
X136.324Y-119.226
X138.324Y-117.226
X138.324Y-119.226
X140.324Y-117.226
X140.324Y-119.226
X142.324Y-117.226
X142.324Y-119.226
X144.324Y-117.226
X144.324Y-119.226
X146.324Y-117.226
X146.324Y-119.226
X148.324Y-117.226
X148.324Y-119.226
X150.324Y-117.226
X150.324Y-119.226
X152.324Y-117.226
X152.324Y-119.226
X154.324Y-117.226
X154.324Y-119.226
X156.324Y-117.226
X156.324Y-119.226
X158.324Y-117.226
X158.324Y-119.226
X160.324Y-117.226
X160.324Y-119.226
X162.324Y-117.226
X162.324Y-119.226
X164.324Y-117.226
X164.324Y-119.226
X166.324Y-117.226
X166.324Y-119.226
X168.324Y-117.226
X168.324Y-119.226
X170.324Y-117.226
X170.324Y-119.226
X172.324Y-117.226
X172.324Y-119.226
X174.324Y-117.226
X174.324Y-119.226
X176.324Y-117.226
X176.324Y-119.226
X178.324Y-117.226
X178.324Y-119.226
X180.324Y-117.226
X180.324Y-119.226
X182.324Y-117.226
X182.324Y-119.226
T4
X167.132Y-101.092
X167.132Y-103.632
X167.132Y-106.172
X167.132Y-108.712
X169.672Y-102.362
X169.672Y-104.902
X169.672Y-107.442
X169.672Y-109.982
T5
X167.894Y-81.026
X170.434Y-81.026
X172.434Y-81.026
X174.894Y-81.026
X142.494Y-81.026
X145.034Y-81.026
X147.034Y-81.026
X149.494Y-81.026
T6
X164.824Y-83.736
X177.964Y-83.736
X139.424Y-83.736
X152.564Y-83.736
T1
G00X140.252Y-99.574
M15
G01X143.002Y-99.574
M16
G05
G00X140.252Y-112.374
M15
G01X143.002Y-112.374
M16
G05
G00X148.752Y-99.574
M15
G01X151.502Y-99.574
M16
G05
G00X148.752Y-112.374
M15
G01X151.502Y-112.374
M16
G05
T0
M30
