G04 #@! TF.GenerationSoftware,KiCad,Pcbnew,(5.1.2)-1*
G04 #@! TF.CreationDate,2019-06-05T20:45:29-04:00*
G04 #@! TF.ProjectId,riser,72697365-722e-46b6-9963-61645f706362,rev?*
G04 #@! TF.SameCoordinates,Original*
G04 #@! TF.FileFunction,Copper,L8,Bot*
G04 #@! TF.FilePolarity,Positive*
%FSLAX46Y46*%
G04 Gerber Fmt 4.6, Leading zero omitted, Abs format (unit mm)*
G04 Created by KiCad (PCBNEW (5.1.2)-1) date 2019-06-05 20:45:29*
%MOMM*%
%LPD*%
G04 APERTURE LIST*
%ADD10O,1.350000X1.350000*%
%ADD11R,1.350000X1.350000*%
%ADD12C,0.800000*%
%ADD13C,0.700000*%
%ADD14C,0.250000*%
G04 APERTURE END LIST*
D10*
X93300000Y-71600000D03*
X95300000Y-71600000D03*
X93300000Y-73600000D03*
X95300000Y-73600000D03*
X93300000Y-75600000D03*
X95300000Y-75600000D03*
X93300000Y-77600000D03*
X95300000Y-77600000D03*
X93300000Y-79600000D03*
X95300000Y-79600000D03*
X93300000Y-81600000D03*
X95300000Y-81600000D03*
X93300000Y-83600000D03*
X95300000Y-83600000D03*
X93300000Y-85600000D03*
X95300000Y-85600000D03*
X93300000Y-87600000D03*
X95300000Y-87600000D03*
X93300000Y-89600000D03*
X95300000Y-89600000D03*
X93300000Y-91600000D03*
X95300000Y-91600000D03*
X93300000Y-93600000D03*
X95300000Y-93600000D03*
X93300000Y-95600000D03*
X95300000Y-95600000D03*
X93300000Y-97600000D03*
X95300000Y-97600000D03*
X93300000Y-99600000D03*
X95300000Y-99600000D03*
X93300000Y-101600000D03*
X95300000Y-101600000D03*
X93300000Y-103600000D03*
X95300000Y-103600000D03*
X93300000Y-105600000D03*
X95300000Y-105600000D03*
X93300000Y-107600000D03*
X95300000Y-107600000D03*
X93300000Y-109600000D03*
X95300000Y-109600000D03*
X93300000Y-111600000D03*
X95300000Y-111600000D03*
X93300000Y-113600000D03*
X95300000Y-113600000D03*
X93300000Y-115600000D03*
X95300000Y-115600000D03*
X93300000Y-117600000D03*
X95300000Y-117600000D03*
X93300000Y-119600000D03*
D11*
X95300000Y-119600000D03*
D10*
X182800000Y-118800000D03*
X180800000Y-118800000D03*
X182800000Y-116800000D03*
X180800000Y-116800000D03*
X182800000Y-114800000D03*
X180800000Y-114800000D03*
X182800000Y-112800000D03*
X180800000Y-112800000D03*
X182800000Y-110800000D03*
X180800000Y-110800000D03*
X182800000Y-108800000D03*
X180800000Y-108800000D03*
X182800000Y-106800000D03*
X180800000Y-106800000D03*
X182800000Y-104800000D03*
X180800000Y-104800000D03*
X182800000Y-102800000D03*
X180800000Y-102800000D03*
X182800000Y-100800000D03*
X180800000Y-100800000D03*
X182800000Y-98800000D03*
X180800000Y-98800000D03*
X182800000Y-96800000D03*
X180800000Y-96800000D03*
X182800000Y-94800000D03*
X180800000Y-94800000D03*
X182800000Y-92800000D03*
X180800000Y-92800000D03*
X182800000Y-90800000D03*
X180800000Y-90800000D03*
X182800000Y-88800000D03*
X180800000Y-88800000D03*
X182800000Y-86800000D03*
X180800000Y-86800000D03*
X182800000Y-84800000D03*
X180800000Y-84800000D03*
X182800000Y-82800000D03*
X180800000Y-82800000D03*
X182800000Y-80800000D03*
X180800000Y-80800000D03*
X182800000Y-78800000D03*
X180800000Y-78800000D03*
X182800000Y-76800000D03*
X180800000Y-76800000D03*
X182800000Y-74800000D03*
X180800000Y-74800000D03*
X182800000Y-72800000D03*
X180800000Y-72800000D03*
X182800000Y-70800000D03*
D11*
X180800000Y-70800000D03*
D10*
X145500000Y-117000000D03*
X145500000Y-119000000D03*
X143500000Y-117000000D03*
X143500000Y-119000000D03*
X141500000Y-117000000D03*
X141500000Y-119000000D03*
X139500000Y-117000000D03*
D11*
X139500000Y-119000000D03*
D10*
X122500000Y-117000000D03*
X122500000Y-119000000D03*
X120500000Y-117000000D03*
X120500000Y-119000000D03*
X118500000Y-117000000D03*
X118500000Y-119000000D03*
X116500000Y-117000000D03*
X116500000Y-119000000D03*
X114500000Y-117000000D03*
D11*
X114500000Y-119000000D03*
D10*
X135000000Y-117000000D03*
X135000000Y-119000000D03*
X133000000Y-117000000D03*
X133000000Y-119000000D03*
X131000000Y-117000000D03*
X131000000Y-119000000D03*
X129000000Y-117000000D03*
X129000000Y-119000000D03*
X127000000Y-117000000D03*
D11*
X127000000Y-119000000D03*
D10*
X105300000Y-74000000D03*
X105300000Y-72000000D03*
X107300000Y-74000000D03*
X107300000Y-72000000D03*
X109300000Y-74000000D03*
X109300000Y-72000000D03*
X111300000Y-74000000D03*
D11*
X111300000Y-72000000D03*
D10*
X116300000Y-74000000D03*
X116300000Y-72000000D03*
X118300000Y-74000000D03*
X118300000Y-72000000D03*
X120300000Y-74000000D03*
X120300000Y-72000000D03*
X122300000Y-74000000D03*
X122300000Y-72000000D03*
X124300000Y-74000000D03*
D11*
X124300000Y-72000000D03*
D10*
X152100000Y-74000000D03*
X152100000Y-72000000D03*
X154100000Y-74000000D03*
X154100000Y-72000000D03*
X156100000Y-74000000D03*
X156100000Y-72000000D03*
X158100000Y-74000000D03*
X158100000Y-72000000D03*
X160100000Y-74000000D03*
X160100000Y-72000000D03*
X162100000Y-74000000D03*
X162100000Y-72000000D03*
X164100000Y-74000000D03*
X164100000Y-72000000D03*
X166100000Y-74000000D03*
X166100000Y-72000000D03*
X168100000Y-74000000D03*
X168100000Y-72000000D03*
X170100000Y-74000000D03*
D11*
X170100000Y-72000000D03*
D10*
X110000000Y-117000000D03*
X110000000Y-119000000D03*
X108000000Y-117000000D03*
X108000000Y-119000000D03*
X106000000Y-117000000D03*
D11*
X106000000Y-119000000D03*
D10*
X151220040Y-117494080D03*
X151220040Y-119494080D03*
X153220040Y-117494080D03*
X153220040Y-119494080D03*
X155220040Y-117494080D03*
X155220040Y-119494080D03*
X157220040Y-117494080D03*
X157220040Y-119494080D03*
X159220040Y-117494080D03*
X159220040Y-119494080D03*
X161220040Y-117494080D03*
X161220040Y-119494080D03*
X163220040Y-117494080D03*
X163220040Y-119494080D03*
X165220040Y-117494080D03*
X165220040Y-119494080D03*
X167220040Y-117494080D03*
X167220040Y-119494080D03*
X169220040Y-117494080D03*
D11*
X169220040Y-119494080D03*
D12*
X125070000Y-99600002D03*
X126230000Y-100600000D03*
X141720000Y-108640000D03*
X140450000Y-108640000D03*
X136640000Y-108640000D03*
X134213982Y-100906018D03*
X135370000Y-108640000D03*
X134100000Y-102290000D03*
D13*
X97400000Y-121700000D02*
X95300000Y-119600000D01*
X168389120Y-121700000D02*
X97400000Y-121700000D01*
X169220040Y-119494080D02*
X169220040Y-120869080D01*
X169220040Y-120869080D02*
X168389120Y-121700000D01*
X101900000Y-101600000D02*
X95300000Y-101600000D01*
X103079990Y-102779990D02*
X101900000Y-101600000D01*
X103079990Y-120070000D02*
X103079990Y-102779990D01*
X103809980Y-120799990D02*
X103079990Y-120070000D01*
X146070010Y-120799990D02*
X103809980Y-120799990D01*
X167220040Y-116320040D02*
X165890000Y-114990000D01*
X167220040Y-117494080D02*
X167220040Y-116320040D01*
X165890000Y-114990000D02*
X149340000Y-114990000D01*
X149340000Y-114990000D02*
X148070000Y-116260000D01*
X148070000Y-116260000D02*
X148070000Y-118800000D01*
X148070000Y-118800000D02*
X146070010Y-120799990D01*
D14*
X125070000Y-100165687D02*
X125070000Y-99600002D01*
X125070000Y-101380000D02*
X125070000Y-100165687D01*
X139190000Y-119000000D02*
X138240000Y-118050000D01*
X139500000Y-119000000D02*
X139190000Y-119000000D01*
X138240000Y-118050000D02*
X138240000Y-116376410D01*
X138240000Y-116376410D02*
X125779990Y-103916400D01*
X125779990Y-103916400D02*
X125779990Y-102089990D01*
X125779990Y-102089990D02*
X125070000Y-101380000D01*
X126230000Y-101165685D02*
X126230000Y-100600000D01*
X139500000Y-117000000D02*
X126230000Y-103730000D01*
X126230000Y-103730000D02*
X126230000Y-101165685D01*
D13*
X110000000Y-119000000D02*
X110000000Y-117000000D01*
X110000000Y-117000000D02*
X108000000Y-117000000D01*
X175800000Y-74800000D02*
X180800000Y-74800000D01*
X162200000Y-88400000D02*
X175800000Y-74800000D01*
X131480000Y-88400000D02*
X162200000Y-88400000D01*
X110000000Y-117000000D02*
X110000000Y-109880000D01*
X110000000Y-109880000D02*
X131480000Y-88400000D01*
X180800000Y-74800000D02*
X182800000Y-74800000D01*
X182800000Y-74800000D02*
X182800000Y-72800000D01*
M02*
