G04 #@! TF.GenerationSoftware,KiCad,Pcbnew,(5.1.2)-1*
G04 #@! TF.CreationDate,2019-06-05T20:45:29-04:00*
G04 #@! TF.ProjectId,riser,72697365-722e-46b6-9963-61645f706362,rev?*
G04 #@! TF.SameCoordinates,Original*
G04 #@! TF.FileFunction,Copper,L1,Top*
G04 #@! TF.FilePolarity,Positive*
%FSLAX46Y46*%
G04 Gerber Fmt 4.6, Leading zero omitted, Abs format (unit mm)*
G04 Created by KiCad (PCBNEW (5.1.2)-1) date 2019-06-05 20:45:29*
%MOMM*%
%LPD*%
G04 APERTURE LIST*
%ADD10O,1.350000X1.350000*%
%ADD11R,1.350000X1.350000*%
%ADD12C,0.800000*%
%ADD13C,0.200000*%
%ADD14C,0.250000*%
G04 APERTURE END LIST*
D10*
X93300000Y-71600000D03*
X95300000Y-71600000D03*
X93300000Y-73600000D03*
X95300000Y-73600000D03*
X93300000Y-75600000D03*
X95300000Y-75600000D03*
X93300000Y-77600000D03*
X95300000Y-77600000D03*
X93300000Y-79600000D03*
X95300000Y-79600000D03*
X93300000Y-81600000D03*
X95300000Y-81600000D03*
X93300000Y-83600000D03*
X95300000Y-83600000D03*
X93300000Y-85600000D03*
X95300000Y-85600000D03*
X93300000Y-87600000D03*
X95300000Y-87600000D03*
X93300000Y-89600000D03*
X95300000Y-89600000D03*
X93300000Y-91600000D03*
X95300000Y-91600000D03*
X93300000Y-93600000D03*
X95300000Y-93600000D03*
X93300000Y-95600000D03*
X95300000Y-95600000D03*
X93300000Y-97600000D03*
X95300000Y-97600000D03*
X93300000Y-99600000D03*
X95300000Y-99600000D03*
X93300000Y-101600000D03*
X95300000Y-101600000D03*
X93300000Y-103600000D03*
X95300000Y-103600000D03*
X93300000Y-105600000D03*
X95300000Y-105600000D03*
X93300000Y-107600000D03*
X95300000Y-107600000D03*
X93300000Y-109600000D03*
X95300000Y-109600000D03*
X93300000Y-111600000D03*
X95300000Y-111600000D03*
X93300000Y-113600000D03*
X95300000Y-113600000D03*
X93300000Y-115600000D03*
X95300000Y-115600000D03*
X93300000Y-117600000D03*
X95300000Y-117600000D03*
X93300000Y-119600000D03*
D11*
X95300000Y-119600000D03*
D10*
X182800000Y-118800000D03*
X180800000Y-118800000D03*
X182800000Y-116800000D03*
X180800000Y-116800000D03*
X182800000Y-114800000D03*
X180800000Y-114800000D03*
X182800000Y-112800000D03*
X180800000Y-112800000D03*
X182800000Y-110800000D03*
X180800000Y-110800000D03*
X182800000Y-108800000D03*
X180800000Y-108800000D03*
X182800000Y-106800000D03*
X180800000Y-106800000D03*
X182800000Y-104800000D03*
X180800000Y-104800000D03*
X182800000Y-102800000D03*
X180800000Y-102800000D03*
X182800000Y-100800000D03*
X180800000Y-100800000D03*
X182800000Y-98800000D03*
X180800000Y-98800000D03*
X182800000Y-96800000D03*
X180800000Y-96800000D03*
X182800000Y-94800000D03*
X180800000Y-94800000D03*
X182800000Y-92800000D03*
X180800000Y-92800000D03*
X182800000Y-90800000D03*
X180800000Y-90800000D03*
X182800000Y-88800000D03*
X180800000Y-88800000D03*
X182800000Y-86800000D03*
X180800000Y-86800000D03*
X182800000Y-84800000D03*
X180800000Y-84800000D03*
X182800000Y-82800000D03*
X180800000Y-82800000D03*
X182800000Y-80800000D03*
X180800000Y-80800000D03*
X182800000Y-78800000D03*
X180800000Y-78800000D03*
X182800000Y-76800000D03*
X180800000Y-76800000D03*
X182800000Y-74800000D03*
X180800000Y-74800000D03*
X182800000Y-72800000D03*
X180800000Y-72800000D03*
X182800000Y-70800000D03*
D11*
X180800000Y-70800000D03*
D10*
X145500000Y-117000000D03*
X145500000Y-119000000D03*
X143500000Y-117000000D03*
X143500000Y-119000000D03*
X141500000Y-117000000D03*
X141500000Y-119000000D03*
X139500000Y-117000000D03*
D11*
X139500000Y-119000000D03*
D10*
X122500000Y-117000000D03*
X122500000Y-119000000D03*
X120500000Y-117000000D03*
X120500000Y-119000000D03*
X118500000Y-117000000D03*
X118500000Y-119000000D03*
X116500000Y-117000000D03*
X116500000Y-119000000D03*
X114500000Y-117000000D03*
D11*
X114500000Y-119000000D03*
D10*
X135000000Y-117000000D03*
X135000000Y-119000000D03*
X133000000Y-117000000D03*
X133000000Y-119000000D03*
X131000000Y-117000000D03*
X131000000Y-119000000D03*
X129000000Y-117000000D03*
X129000000Y-119000000D03*
X127000000Y-117000000D03*
D11*
X127000000Y-119000000D03*
D10*
X105300000Y-74000000D03*
X105300000Y-72000000D03*
X107300000Y-74000000D03*
X107300000Y-72000000D03*
X109300000Y-74000000D03*
X109300000Y-72000000D03*
X111300000Y-74000000D03*
D11*
X111300000Y-72000000D03*
D10*
X116300000Y-74000000D03*
X116300000Y-72000000D03*
X118300000Y-74000000D03*
X118300000Y-72000000D03*
X120300000Y-74000000D03*
X120300000Y-72000000D03*
X122300000Y-74000000D03*
X122300000Y-72000000D03*
X124300000Y-74000000D03*
D11*
X124300000Y-72000000D03*
D10*
X152100000Y-74000000D03*
X152100000Y-72000000D03*
X154100000Y-74000000D03*
X154100000Y-72000000D03*
X156100000Y-74000000D03*
X156100000Y-72000000D03*
X158100000Y-74000000D03*
X158100000Y-72000000D03*
X160100000Y-74000000D03*
X160100000Y-72000000D03*
X162100000Y-74000000D03*
X162100000Y-72000000D03*
X164100000Y-74000000D03*
X164100000Y-72000000D03*
X166100000Y-74000000D03*
X166100000Y-72000000D03*
X168100000Y-74000000D03*
X168100000Y-72000000D03*
X170100000Y-74000000D03*
D11*
X170100000Y-72000000D03*
D10*
X110000000Y-117000000D03*
X110000000Y-119000000D03*
X108000000Y-117000000D03*
X108000000Y-119000000D03*
X106000000Y-117000000D03*
D11*
X106000000Y-119000000D03*
D10*
X151220040Y-117494080D03*
X151220040Y-119494080D03*
X153220040Y-117494080D03*
X153220040Y-119494080D03*
X155220040Y-117494080D03*
X155220040Y-119494080D03*
X157220040Y-117494080D03*
X157220040Y-119494080D03*
X159220040Y-117494080D03*
X159220040Y-119494080D03*
X161220040Y-117494080D03*
X161220040Y-119494080D03*
X163220040Y-117494080D03*
X163220040Y-119494080D03*
X165220040Y-117494080D03*
X165220040Y-119494080D03*
X167220040Y-117494080D03*
X167220040Y-119494080D03*
X169220040Y-117494080D03*
D11*
X169220040Y-119494080D03*
D12*
X125070000Y-99600002D03*
X126230000Y-100600000D03*
X141720000Y-108640000D03*
X140450000Y-108640000D03*
X136640000Y-108640000D03*
X134213982Y-100906018D03*
X135370000Y-108640000D03*
X134100000Y-102290000D03*
D13*
X182125001Y-99474999D02*
X182800000Y-98800000D01*
X181824999Y-99775001D02*
X182125001Y-99474999D01*
X175254708Y-99775001D02*
X181824999Y-99775001D01*
X152100000Y-76620293D02*
X175254708Y-99775001D01*
X152100000Y-74000000D02*
X152100000Y-76620293D01*
X174845406Y-98800000D02*
X180800000Y-98800000D01*
X153075001Y-77029595D02*
X174845406Y-98800000D01*
X153075001Y-72975001D02*
X153075001Y-77029595D01*
X152100000Y-72000000D02*
X153075001Y-72975001D01*
X182125001Y-97474999D02*
X182800000Y-96800000D01*
X181775001Y-97824999D02*
X182125001Y-97474999D01*
X175304707Y-97824999D02*
X181775001Y-97824999D01*
X154100000Y-76620292D02*
X175304707Y-97824999D01*
X154100000Y-74000000D02*
X154100000Y-76620292D01*
X174845406Y-96800000D02*
X180800000Y-96800000D01*
X155075001Y-77029595D02*
X174845406Y-96800000D01*
X155075001Y-72975001D02*
X155075001Y-77029595D01*
X154100000Y-72000000D02*
X155075001Y-72975001D01*
X182125001Y-95474999D02*
X182800000Y-94800000D01*
X181775001Y-95824999D02*
X182125001Y-95474999D01*
X175304706Y-95824999D02*
X181775001Y-95824999D01*
X156100000Y-76620293D02*
X175304706Y-95824999D01*
X156100000Y-74000000D02*
X156100000Y-76620293D01*
X174845406Y-94800000D02*
X180800000Y-94800000D01*
X157075001Y-77029595D02*
X174845406Y-94800000D01*
X157075001Y-72975001D02*
X157075001Y-77029595D01*
X156100000Y-72000000D02*
X157075001Y-72975001D01*
X182125001Y-93474999D02*
X182800000Y-92800000D01*
X181824999Y-93775001D02*
X182125001Y-93474999D01*
X175254708Y-93775001D02*
X181824999Y-93775001D01*
X158100000Y-76620293D02*
X175254708Y-93775001D01*
X158100000Y-74000000D02*
X158100000Y-76620293D01*
X174845406Y-92800000D02*
X180800000Y-92800000D01*
X159075001Y-77029595D02*
X174845406Y-92800000D01*
X159075001Y-72975001D02*
X159075001Y-77029595D01*
X158100000Y-72000000D02*
X159075001Y-72975001D01*
X182125001Y-91474999D02*
X182800000Y-90800000D01*
X181824999Y-91775001D02*
X182125001Y-91474999D01*
X175254709Y-91775001D02*
X181824999Y-91775001D01*
X160100000Y-76620292D02*
X175254709Y-91775001D01*
X160100000Y-74000000D02*
X160100000Y-76620292D01*
X174845406Y-90800000D02*
X180800000Y-90800000D01*
X161075001Y-77029595D02*
X174845406Y-90800000D01*
X161075001Y-72975001D02*
X161075001Y-77029595D01*
X160100000Y-72000000D02*
X161075001Y-72975001D01*
X182125001Y-89474999D02*
X182800000Y-88800000D01*
X181824999Y-89775001D02*
X182125001Y-89474999D01*
X175254708Y-89775001D02*
X181824999Y-89775001D01*
X162100000Y-76620293D02*
X175254708Y-89775001D01*
X162100000Y-74000000D02*
X162100000Y-76620293D01*
X174845406Y-88800000D02*
X180800000Y-88800000D01*
X163124999Y-77079593D02*
X174845406Y-88800000D01*
X163124999Y-73024999D02*
X163124999Y-77079593D01*
X162100000Y-72000000D02*
X163124999Y-73024999D01*
X182125001Y-87474999D02*
X182800000Y-86800000D01*
X181824999Y-87775001D02*
X182125001Y-87474999D01*
X175254709Y-87775001D02*
X181824999Y-87775001D01*
X164100000Y-76620292D02*
X175254709Y-87775001D01*
X164100000Y-74000000D02*
X164100000Y-76620292D01*
X174845406Y-86800000D02*
X180800000Y-86800000D01*
X165075001Y-77029595D02*
X174845406Y-86800000D01*
X165075001Y-72975001D02*
X165075001Y-77029595D01*
X164100000Y-72000000D02*
X165075001Y-72975001D01*
X182125001Y-85474999D02*
X182800000Y-84800000D01*
X181824999Y-85775001D02*
X182125001Y-85474999D01*
X175331999Y-85775001D02*
X181824999Y-85775001D01*
X166100000Y-76543002D02*
X175331999Y-85775001D01*
X166100000Y-74000000D02*
X166100000Y-76543002D01*
X175800000Y-84800000D02*
X180800000Y-84800000D01*
X167120000Y-76120000D02*
X175800000Y-84800000D01*
X166100000Y-72000000D02*
X167120000Y-73020000D01*
X167120000Y-73020000D02*
X167120000Y-76120000D01*
X175800000Y-82800000D02*
X180800000Y-82800000D01*
X170930000Y-77930000D02*
X175800000Y-82800000D01*
X170930000Y-76890000D02*
X170930000Y-77930000D01*
X169075001Y-75035001D02*
X170930000Y-76890000D01*
X168100000Y-72000000D02*
X169075001Y-72975001D01*
X169075001Y-72975001D02*
X169075001Y-75035001D01*
X170975000Y-72000000D02*
X172200000Y-73225000D01*
X170100000Y-72000000D02*
X170975000Y-72000000D01*
X172200000Y-77200000D02*
X175800000Y-80800000D01*
X172200000Y-73225000D02*
X172200000Y-77200000D01*
X175800000Y-80800000D02*
X180800000Y-80800000D01*
D14*
X93974999Y-76925001D02*
X93300000Y-77600000D01*
X94300000Y-76600000D02*
X93974999Y-76925001D01*
X107600000Y-76600000D02*
X94300000Y-76600000D01*
X109300000Y-74000000D02*
X109300000Y-74900000D01*
X109300000Y-74900000D02*
X107600000Y-76600000D01*
D13*
X105300000Y-74000000D02*
X102320000Y-74000000D01*
X102320000Y-74000000D02*
X101330000Y-74990000D01*
X101330000Y-74990000D02*
X99000000Y-74990000D01*
X93974999Y-72925001D02*
X93300000Y-73600000D01*
X94324999Y-72575001D02*
X93974999Y-72925001D01*
X96585001Y-72575001D02*
X94324999Y-72575001D01*
X99000000Y-74990000D02*
X96585001Y-72575001D01*
D14*
X105300000Y-72000000D02*
X105070000Y-72000000D01*
X125069998Y-99600000D02*
X125070000Y-99600002D01*
X95300000Y-99600000D02*
X125069998Y-99600000D01*
X93974999Y-100274999D02*
X93300000Y-99600000D01*
X126230000Y-100600000D02*
X94300000Y-100600000D01*
X94300000Y-100600000D02*
X93974999Y-100274999D01*
D13*
X179845406Y-110800000D02*
X180800000Y-110800000D01*
X179220418Y-110175012D02*
X179845406Y-110800000D01*
X133434988Y-110175012D02*
X179220418Y-110175012D01*
X128024999Y-115585001D02*
X133434988Y-110175012D01*
X127000000Y-119000000D02*
X128024999Y-117975001D01*
X128024999Y-117975001D02*
X128024999Y-115585001D01*
X181775001Y-109775001D02*
X182125001Y-110125001D01*
X182125001Y-110125001D02*
X182800000Y-110800000D01*
X127000000Y-116044300D02*
X133269299Y-109775001D01*
X127000000Y-117000000D02*
X127000000Y-116044300D01*
X133269299Y-109775001D02*
X181775001Y-109775001D01*
X175317539Y-112415550D02*
X175411004Y-112382845D01*
X174903524Y-112426637D02*
X175219139Y-112426637D01*
X174557796Y-112260143D02*
X174627815Y-112330162D01*
X174505113Y-112176299D02*
X174557796Y-112260143D01*
X174461322Y-111984434D02*
X174472408Y-112082834D01*
X174461322Y-111757310D02*
X174461322Y-111984434D01*
X174459584Y-111741886D02*
X174461322Y-111757310D01*
X174805124Y-112415550D02*
X174903524Y-112426637D01*
X174454458Y-111727237D02*
X174459584Y-111741886D01*
X174435225Y-111703120D02*
X174446200Y-111714095D01*
X174407434Y-111689736D02*
X174422083Y-111694862D01*
X134877700Y-111688000D02*
X174392011Y-111687999D01*
X130024999Y-116540701D02*
X134877700Y-111688000D01*
X130024999Y-117975001D02*
X130024999Y-116540701D01*
X129000000Y-119000000D02*
X130024999Y-117975001D01*
X174472408Y-112082834D02*
X174505113Y-112176299D01*
X175219139Y-112426637D02*
X175317539Y-112415550D01*
X174392011Y-111687999D02*
X174407434Y-111689736D01*
X174422083Y-111694862D02*
X174435225Y-111703120D01*
X174627815Y-112330162D02*
X174711659Y-112382845D01*
X174446200Y-111714095D02*
X174454458Y-111727237D01*
X174711659Y-112382845D02*
X174805124Y-112415550D01*
X175411004Y-112382845D02*
X175494848Y-112330162D01*
X175494848Y-112330162D02*
X175564867Y-112260143D01*
X175564867Y-112260143D02*
X175617550Y-112176299D01*
X175617550Y-112176299D02*
X175650255Y-112082834D01*
X175650255Y-112082834D02*
X175661342Y-111984434D01*
X175661342Y-111984434D02*
X175661342Y-111487994D01*
X175661342Y-111487994D02*
X175667026Y-111487994D01*
X175667026Y-111487994D02*
X175667026Y-111043672D01*
X175667026Y-111043672D02*
X175668136Y-111033812D01*
X175668136Y-111033812D02*
X175671414Y-111024447D01*
X175671414Y-111024447D02*
X175676693Y-111016045D01*
X175676693Y-111016045D02*
X175683709Y-111009029D01*
X175683709Y-111009029D02*
X175692111Y-111003750D01*
X175692111Y-111003750D02*
X175701476Y-111000472D01*
X175701476Y-111000472D02*
X175711337Y-110999361D01*
X175711337Y-110999361D02*
X176022715Y-110999361D01*
X176022715Y-110999361D02*
X176032575Y-111000472D01*
X176032575Y-111000472D02*
X176041940Y-111003750D01*
X176041940Y-111003750D02*
X176050342Y-111009029D01*
X176050342Y-111009029D02*
X176057358Y-111016045D01*
X176057358Y-111016045D02*
X176062637Y-111024447D01*
X176062637Y-111024447D02*
X176065915Y-111033812D01*
X176065915Y-111033812D02*
X176067026Y-111043672D01*
X176067026Y-111043672D02*
X176067026Y-111269353D01*
X176067026Y-111269353D02*
X176077522Y-111362510D01*
X176077522Y-111362510D02*
X176108485Y-111450997D01*
X176108485Y-111450997D02*
X176158361Y-111530375D01*
X176158361Y-111530375D02*
X176224650Y-111596664D01*
X176224650Y-111596664D02*
X176304028Y-111646540D01*
X176304028Y-111646540D02*
X176392515Y-111677503D01*
X176392515Y-111677503D02*
X176485672Y-111687999D01*
X176485672Y-111687999D02*
X178733406Y-111688000D01*
X178733406Y-111688000D02*
X179845406Y-112800000D01*
X179845406Y-112800000D02*
X180800000Y-112800000D01*
X182125001Y-112125001D02*
X182800000Y-112800000D01*
X181794999Y-111794999D02*
X182125001Y-112125001D01*
X179406105Y-111794999D02*
X181794999Y-111794999D01*
X178899095Y-111287989D02*
X179406105Y-111794999D01*
X176511347Y-111287989D02*
X178899095Y-111287989D01*
X176501486Y-111286879D02*
X176511347Y-111287989D01*
X176492121Y-111283601D02*
X176501486Y-111286879D01*
X176483719Y-111278322D02*
X176492121Y-111283601D01*
X176476703Y-111271306D02*
X176483719Y-111278322D01*
X176471424Y-111262904D02*
X176476703Y-111271306D01*
X176468146Y-111253539D02*
X176471424Y-111262904D01*
X176467036Y-111243678D02*
X176468146Y-111253539D01*
X176467036Y-111017998D02*
X176467036Y-111243678D01*
X176456539Y-110924841D02*
X176467036Y-111017998D01*
X176425576Y-110836354D02*
X176456539Y-110924841D01*
X176375700Y-110756976D02*
X176425576Y-110836354D01*
X176309411Y-110690687D02*
X176375700Y-110756976D01*
X176230033Y-110640811D02*
X176309411Y-110690687D01*
X176141546Y-110609848D02*
X176230033Y-110640811D01*
X176048389Y-110599351D02*
X176141546Y-110609848D01*
X174887428Y-112011505D02*
X174900570Y-112019763D01*
X174900570Y-112019763D02*
X174915219Y-112024889D01*
X175222093Y-112019763D02*
X175235235Y-112011505D01*
X174863069Y-111972739D02*
X174868195Y-111987388D01*
X174876453Y-112000530D02*
X174887428Y-112011505D01*
X174861332Y-111957316D02*
X174863069Y-111972739D01*
X174850245Y-111631791D02*
X174861332Y-111730191D01*
X174861332Y-111730191D02*
X174861332Y-111957316D01*
X174868195Y-111987388D02*
X174876453Y-112000530D01*
X174817540Y-111538326D02*
X174850245Y-111631791D01*
X174915219Y-112024889D02*
X174930643Y-112026627D01*
X174764857Y-111454482D02*
X174817540Y-111538326D01*
X129000000Y-117000000D02*
X134712011Y-111287989D01*
X174419129Y-111287989D02*
X174517529Y-111299075D01*
X175358351Y-110756976D02*
X175424640Y-110690687D01*
X174517529Y-111299075D02*
X174610994Y-111331780D01*
X134712011Y-111287989D02*
X174419129Y-111287989D01*
X174610994Y-111331780D02*
X174694838Y-111384463D01*
X174694838Y-111384463D02*
X174764857Y-111454482D01*
X174930643Y-112026627D02*
X175192021Y-112026627D01*
X175261332Y-111957316D02*
X175261332Y-111487994D01*
X175192021Y-112026627D02*
X175207444Y-112024889D01*
X175207444Y-112024889D02*
X175222093Y-112019763D01*
X175235235Y-112011505D02*
X175246210Y-112000530D01*
X175685662Y-110599351D02*
X176048389Y-110599351D01*
X175246210Y-112000530D02*
X175254468Y-111987388D01*
X175254468Y-111987388D02*
X175259594Y-111972739D01*
X175592505Y-110609848D02*
X175685662Y-110599351D01*
X175259594Y-111972739D02*
X175261332Y-111957316D01*
X175261332Y-111487994D02*
X175267016Y-111487994D01*
X175277512Y-110924841D02*
X175308475Y-110836354D01*
X175267016Y-111487994D02*
X175267016Y-111017998D01*
X175308475Y-110836354D02*
X175358351Y-110756976D01*
X175267016Y-111017998D02*
X175277512Y-110924841D01*
X175424640Y-110690687D02*
X175504018Y-110640811D01*
X175504018Y-110640811D02*
X175592505Y-110609848D01*
X133674999Y-118325001D02*
X133000000Y-119000000D01*
X134024999Y-117975001D02*
X133674999Y-118325001D01*
X136738499Y-112958000D02*
X134024999Y-115671500D01*
X172285773Y-113442862D02*
X172172647Y-113352647D01*
X172416137Y-113505641D02*
X172285773Y-113442862D01*
X172701895Y-113537839D02*
X172557202Y-113537839D01*
X172973324Y-113442862D02*
X172842960Y-113505641D01*
X173086449Y-113352647D02*
X172973324Y-113442862D01*
X173288592Y-113150505D02*
X173086449Y-113352647D01*
X173323607Y-113122581D02*
X173288592Y-113150505D01*
X173363957Y-113103149D02*
X173323607Y-113122581D01*
X173407620Y-113093183D02*
X173363957Y-113103149D01*
X173452406Y-113093183D02*
X173407620Y-113093183D01*
X173496069Y-113103149D02*
X173452406Y-113093183D01*
X173536420Y-113122581D02*
X173496069Y-113103149D01*
X173571435Y-113150505D02*
X173536420Y-113122581D01*
X173599359Y-113185520D02*
X173571435Y-113150505D01*
X173618790Y-113225871D02*
X173599359Y-113185520D01*
X173628756Y-113269534D02*
X173618790Y-113225871D01*
X173628756Y-113314320D02*
X173628756Y-113269534D01*
X173618790Y-113357983D02*
X173628756Y-113314320D01*
X173599359Y-113398333D02*
X173618790Y-113357983D01*
X173571435Y-113433348D02*
X173599359Y-113398333D01*
X173084142Y-113920642D02*
X173571435Y-113433348D01*
X173084141Y-113920641D02*
X173084142Y-113920642D01*
X172651068Y-114353717D02*
X173084141Y-113920641D01*
X172626043Y-114378741D02*
X172651068Y-114353717D01*
X172545475Y-114479772D02*
X172626043Y-114378741D01*
X172489406Y-114596196D02*
X172545475Y-114479772D01*
X172460653Y-114722180D02*
X172489406Y-114596196D01*
X172460653Y-114851402D02*
X172460653Y-114722180D01*
X172489406Y-114977384D02*
X172460653Y-114851402D01*
X172545475Y-115093810D02*
X172489406Y-114977384D01*
X172626044Y-115194841D02*
X172545475Y-115093810D01*
X172779787Y-115348584D02*
X172626044Y-115194841D01*
X172880818Y-115429153D02*
X172779787Y-115348584D01*
X172997242Y-115485220D02*
X172880818Y-115429153D01*
X173123225Y-115513975D02*
X172997242Y-115485220D01*
X173252447Y-115513975D02*
X173123225Y-115513975D01*
X173378430Y-115485220D02*
X173252447Y-115513975D01*
X173494854Y-115429151D02*
X173378430Y-115485220D01*
X173595885Y-115348583D02*
X173494854Y-115429151D01*
X174541279Y-114403192D02*
X173595885Y-115348583D01*
X174576294Y-114375268D02*
X174541279Y-114403192D01*
X174616644Y-114355836D02*
X174576294Y-114375268D01*
X174660307Y-114345870D02*
X174616644Y-114355836D01*
X174705093Y-114345870D02*
X174660307Y-114345870D01*
X174748756Y-114355836D02*
X174705093Y-114345870D01*
X174789107Y-114375268D02*
X174748756Y-114355836D01*
X174824122Y-114403192D02*
X174789107Y-114375268D01*
X174852045Y-114438207D02*
X174824122Y-114403192D01*
X174871477Y-114478557D02*
X174852045Y-114438207D01*
X174881443Y-114522220D02*
X174871477Y-114478557D01*
X174881443Y-114567006D02*
X174881443Y-114522220D01*
X174871477Y-114610669D02*
X174881443Y-114567006D01*
X174852045Y-114651019D02*
X174871477Y-114610669D01*
X174824122Y-114686034D02*
X174852045Y-114651019D01*
X174650000Y-114860157D02*
X174824122Y-114686034D01*
X174621979Y-114888177D02*
X174650000Y-114860157D01*
X174531765Y-115001303D02*
X174621979Y-114888177D01*
X174468985Y-115131667D02*
X174531765Y-115001303D01*
X174436788Y-115272732D02*
X174468985Y-115131667D01*
X172842960Y-113505641D02*
X172701895Y-113537839D01*
X174531765Y-115688854D02*
X174468985Y-115558490D01*
X172557202Y-113537839D02*
X172416137Y-113505641D01*
X171778000Y-112958000D02*
X136738499Y-112958000D01*
X174468985Y-115558490D02*
X174436788Y-115417425D01*
X172172647Y-113352647D02*
X171778000Y-112958000D01*
X134024999Y-115671500D02*
X134024999Y-117975001D01*
X174621979Y-115801979D02*
X174531765Y-115688854D01*
X175080000Y-116260000D02*
X174621979Y-115801979D01*
X174436788Y-115417425D02*
X174436788Y-115272732D01*
X180800000Y-116800000D02*
X180260000Y-116260000D01*
X180260000Y-116260000D02*
X175080000Y-116260000D01*
X172994568Y-114876365D02*
X172976882Y-114854187D01*
X173120440Y-114997746D02*
X173098263Y-114980060D01*
X173145997Y-115010053D02*
X173120440Y-114997746D01*
X173173654Y-115016367D02*
X173145997Y-115010053D01*
X182800000Y-116800000D02*
X181824999Y-115824999D01*
X173255232Y-114997746D02*
X173229675Y-115010053D01*
X173277411Y-114980060D02*
X173255232Y-114997746D01*
X174946144Y-115411134D02*
X174936178Y-115367471D01*
X133000000Y-116045406D02*
X133000000Y-117000000D01*
X174469288Y-113878677D02*
X174338924Y-113941457D01*
X174755046Y-113846480D02*
X174610353Y-113846480D01*
X136487417Y-112557989D02*
X133000000Y-116045406D01*
X174896111Y-113878677D02*
X174755046Y-113846480D01*
X174338924Y-113941457D02*
X174225799Y-114031671D01*
X175026475Y-113941457D02*
X174896111Y-113878677D01*
X175195641Y-114087712D02*
X175139600Y-114031671D01*
X175348635Y-114331202D02*
X175285856Y-114200838D01*
X174225799Y-114031671D02*
X173277411Y-114980060D01*
X175195641Y-115001514D02*
X175285856Y-114888389D01*
X175285856Y-114200838D02*
X175195641Y-114087712D01*
X174610353Y-113846480D02*
X174469288Y-113878677D01*
X174993499Y-115486500D02*
X174965576Y-115451485D01*
X172735954Y-113009051D02*
X172695604Y-113028483D01*
X174965576Y-115238672D02*
X174993499Y-115203657D01*
X172488127Y-112981128D02*
X172064989Y-112557989D01*
X175139600Y-114031671D02*
X175026475Y-113941457D01*
X174946144Y-115279022D02*
X174965576Y-115238672D01*
X174936178Y-115367471D02*
X174936178Y-115322685D01*
X173098263Y-114980060D02*
X172994568Y-114876365D01*
X174936178Y-115322685D02*
X174946144Y-115279022D01*
X174993499Y-115203657D02*
X175195641Y-115001514D01*
X174033170Y-112948151D02*
X173942955Y-112835026D01*
X175348635Y-114758025D02*
X175380833Y-114616960D01*
X173202020Y-115016367D02*
X173173654Y-115016367D01*
X175285856Y-114888389D02*
X175348635Y-114758025D01*
X175380833Y-114616960D02*
X175380833Y-114472267D01*
X173229675Y-115010053D02*
X173202020Y-115016367D01*
X175380833Y-114472267D02*
X175348635Y-114331202D01*
X172976882Y-114854187D02*
X172964573Y-114828629D01*
X172964573Y-114828629D02*
X172958261Y-114800973D01*
X172958261Y-114800973D02*
X172958261Y-114772607D01*
X172958261Y-114772607D02*
X172964573Y-114744951D01*
X172964573Y-114744951D02*
X172976882Y-114719395D01*
X181824999Y-115824999D02*
X175331999Y-115824999D01*
X172976882Y-114719395D02*
X172994568Y-114697217D01*
X172994568Y-114697217D02*
X173427641Y-114264141D01*
X173427641Y-114264141D02*
X173942955Y-113748828D01*
X173942955Y-113748828D02*
X174033170Y-113635702D01*
X175331999Y-115824999D02*
X174993499Y-115486500D01*
X174033170Y-113635702D02*
X174095950Y-113505338D01*
X174095950Y-113505338D02*
X174128147Y-113364273D01*
X174128147Y-113364273D02*
X174128147Y-113219580D01*
X174128147Y-113219580D02*
X174095950Y-113078515D01*
X174965576Y-115451485D02*
X174946144Y-115411134D01*
X174095950Y-113078515D02*
X174033170Y-112948151D01*
X173942955Y-112835026D02*
X173886914Y-112778985D01*
X173886914Y-112778985D02*
X173773789Y-112688771D01*
X173773789Y-112688771D02*
X173643425Y-112625991D01*
X173643425Y-112625991D02*
X173502360Y-112593794D01*
X173502360Y-112593794D02*
X173357667Y-112593794D01*
X173357667Y-112593794D02*
X173216602Y-112625991D01*
X173216602Y-112625991D02*
X173086238Y-112688771D01*
X173086238Y-112688771D02*
X172973113Y-112778985D01*
X172973113Y-112778985D02*
X172770969Y-112981128D01*
X172770969Y-112981128D02*
X172735954Y-113009051D01*
X172695604Y-113028483D02*
X172651941Y-113038449D01*
X172651941Y-113038449D02*
X172607155Y-113038449D01*
X172607155Y-113038449D02*
X172563492Y-113028483D01*
X172563492Y-113028483D02*
X172523142Y-113009051D01*
X172523142Y-113009051D02*
X172488127Y-112981128D01*
X172064989Y-112557989D02*
X136487417Y-112557989D01*
X136259000Y-117445000D02*
X135000000Y-118704000D01*
X136259000Y-116323500D02*
X136259000Y-117445000D01*
X138227500Y-114355000D02*
X136259000Y-116323500D01*
X164779484Y-114360014D02*
X164734980Y-114354999D01*
X164859677Y-114398633D02*
X164821756Y-114374806D01*
X164891346Y-114430302D02*
X164859677Y-114398633D01*
X164934980Y-114554999D02*
X164929965Y-114510495D01*
X164990966Y-115143082D02*
X164949154Y-115023590D01*
X165147836Y-115339790D02*
X165058319Y-115250273D01*
X165255027Y-115407143D02*
X165147836Y-115339790D01*
X165500319Y-115463129D02*
X165374519Y-115448955D01*
X165569660Y-115463129D02*
X165500319Y-115463129D01*
X165695460Y-115448955D02*
X165569660Y-115463129D01*
X165814952Y-115407143D02*
X165695460Y-115448955D01*
X165922143Y-115339790D02*
X165814952Y-115407143D01*
X166011660Y-115250273D02*
X165922143Y-115339790D01*
X166135000Y-114897790D02*
X166120825Y-115023590D01*
X166135000Y-114554999D02*
X166135000Y-114897790D01*
X166140014Y-114510495D02*
X166135000Y-114554999D01*
X166154806Y-114468223D02*
X166140014Y-114510495D01*
X166178633Y-114430302D02*
X166154806Y-114468223D01*
X166248223Y-114374806D02*
X166210302Y-114398633D01*
X166290495Y-114360014D02*
X166248223Y-114374806D01*
X166335000Y-114354999D02*
X166290495Y-114360014D01*
X166234980Y-114354999D02*
X166335000Y-114354999D01*
X166279484Y-114360014D02*
X166234980Y-114354999D01*
X166321756Y-114374806D02*
X166279484Y-114360014D01*
X166359677Y-114398633D02*
X166321756Y-114374806D01*
X166391346Y-114430302D02*
X166359677Y-114398633D01*
X166415173Y-114468223D02*
X166391346Y-114430302D01*
X135000000Y-118704000D02*
X135000000Y-119000000D01*
X166429965Y-114510495D02*
X166415173Y-114468223D01*
X166434980Y-114554999D02*
X166429965Y-114510495D01*
X166558319Y-115250273D02*
X166490966Y-115143082D01*
X166755027Y-115407143D02*
X166647836Y-115339790D01*
X166874519Y-115448955D02*
X166755027Y-115407143D01*
X167620825Y-115023590D02*
X167579013Y-115143082D01*
X167654806Y-114468223D02*
X167640014Y-114510495D01*
X167678633Y-114430302D02*
X167654806Y-114468223D01*
X167710302Y-114398633D02*
X167678633Y-114430302D01*
X164934980Y-114897790D02*
X164934980Y-114554999D01*
X164949154Y-115023590D02*
X164934980Y-114897790D01*
X166490966Y-115143082D02*
X166449154Y-115023590D01*
X167000319Y-115463129D02*
X166874519Y-115448955D01*
X165374519Y-115448955D02*
X165255027Y-115407143D01*
X166079013Y-115143082D02*
X166011660Y-115250273D01*
X166434980Y-114897790D02*
X166434980Y-114554999D01*
X167835000Y-114354999D02*
X167790495Y-114360014D01*
X166647836Y-115339790D02*
X166558319Y-115250273D01*
X167314952Y-115407143D02*
X167195460Y-115448955D01*
X177133200Y-121585000D02*
X174716800Y-121585000D01*
X167069660Y-115463129D02*
X167000319Y-115463129D01*
X167635000Y-114554999D02*
X167635000Y-114897790D01*
X167511660Y-115250273D02*
X167422143Y-115339790D01*
X166210302Y-114398633D02*
X166178633Y-114430302D01*
X167748223Y-114374806D02*
X167710302Y-114398633D01*
X167635000Y-114897790D02*
X167620825Y-115023590D01*
X165058319Y-115250273D02*
X164990966Y-115143082D01*
X167422143Y-115339790D02*
X167314952Y-115407143D01*
X170356800Y-114355000D02*
X167835000Y-114354999D01*
X164929965Y-114510495D02*
X164915173Y-114468223D01*
X174716800Y-121585000D02*
X172515000Y-119383200D01*
X167195460Y-115448955D02*
X167069660Y-115463129D01*
X179918200Y-118800000D02*
X177133200Y-121585000D01*
X166449154Y-115023590D02*
X166434980Y-114897790D01*
X166120825Y-115023590D02*
X166079013Y-115143082D01*
X167640014Y-114510495D02*
X167635000Y-114554999D01*
X164915173Y-114468223D02*
X164891346Y-114430302D01*
X164821756Y-114374806D02*
X164779484Y-114360014D01*
X164734980Y-114354999D02*
X138227500Y-114355000D01*
X172515000Y-116513200D02*
X170356800Y-114355000D01*
X167790495Y-114360014D02*
X167748223Y-114374806D01*
X167579013Y-115143082D02*
X167511660Y-115250273D01*
X180800000Y-118800000D02*
X179918200Y-118800000D01*
X172515000Y-119383200D02*
X172515000Y-116513200D01*
X166622133Y-114078329D02*
X166514942Y-114010976D01*
X166820815Y-114394529D02*
X166779003Y-114275037D01*
X166834990Y-114520329D02*
X166820815Y-114394529D01*
X166840004Y-114907624D02*
X166834990Y-114863119D01*
X166854796Y-114949896D02*
X166840004Y-114907624D01*
X166878623Y-114987817D02*
X166854796Y-114949896D01*
X166834990Y-114863119D02*
X166834990Y-114520329D01*
X165448213Y-115043313D02*
X165410292Y-115019486D01*
X166910292Y-115019486D02*
X166878623Y-114987817D01*
X166948213Y-115043313D02*
X166910292Y-115019486D01*
X166990485Y-115058105D02*
X166948213Y-115043313D01*
X165490485Y-115058105D02*
X165448213Y-115043313D01*
X167034990Y-115063119D02*
X166990485Y-115058105D01*
X167121766Y-115043313D02*
X167079494Y-115058105D01*
X167191356Y-114987817D02*
X167159687Y-115019486D01*
X167215183Y-114949896D02*
X167191356Y-114987817D01*
X167229975Y-114907624D02*
X167215183Y-114949896D01*
X172965000Y-119196800D02*
X172965000Y-116326800D01*
X138045011Y-113954989D02*
X135000000Y-117000000D01*
X167079494Y-115058105D02*
X167034990Y-115063119D01*
X172965000Y-116326800D02*
X170593189Y-113954989D01*
X182800000Y-118800000D02*
X181824999Y-117824999D01*
X166779003Y-114275037D02*
X166711650Y-114167846D01*
X181824999Y-117824999D02*
X180256801Y-117824999D01*
X165354796Y-114949896D02*
X165340004Y-114907624D01*
X167358329Y-114167846D02*
X167290976Y-114275037D01*
X165014942Y-114010976D02*
X164895450Y-113969164D01*
X165320815Y-114394529D02*
X165279003Y-114275037D01*
X166711650Y-114167846D02*
X166622133Y-114078329D01*
X165122133Y-114078329D02*
X165014942Y-114010976D01*
X165334990Y-114520329D02*
X165320815Y-114394529D01*
X170593189Y-113954989D02*
X167800329Y-113954989D01*
X165410292Y-115019486D02*
X165378623Y-114987817D01*
X167800329Y-113954989D02*
X167674529Y-113969164D01*
X167249164Y-114394529D02*
X167234990Y-114520329D01*
X167674529Y-113969164D02*
X167555037Y-114010976D01*
X176946800Y-121135000D02*
X174903200Y-121135000D01*
X167555037Y-114010976D02*
X167447846Y-114078329D01*
X167447846Y-114078329D02*
X167358329Y-114167846D01*
X180256801Y-117824999D02*
X176946800Y-121135000D01*
X167290976Y-114275037D02*
X167249164Y-114394529D01*
X166514942Y-114010976D02*
X166395450Y-113969164D01*
X164895450Y-113969164D02*
X164769650Y-113954989D01*
X165279003Y-114275037D02*
X165211650Y-114167846D01*
X166395450Y-113969164D02*
X166269650Y-113954989D01*
X166269650Y-113954989D02*
X166300329Y-113954989D01*
X165340004Y-114907624D02*
X165334990Y-114863119D01*
X167234990Y-114520329D02*
X167234990Y-114863119D01*
X166300329Y-113954989D02*
X166174529Y-113969164D01*
X164769650Y-113954989D02*
X138045011Y-113954989D01*
X166174529Y-113969164D02*
X166055037Y-114010976D01*
X165378623Y-114987817D02*
X165354796Y-114949896D01*
X167159687Y-115019486D02*
X167121766Y-115043313D01*
X166055037Y-114010976D02*
X165947846Y-114078329D01*
X165947846Y-114078329D02*
X165858329Y-114167846D01*
X165858329Y-114167846D02*
X165790976Y-114275037D01*
X165790976Y-114275037D02*
X165749164Y-114394529D01*
X165749164Y-114394529D02*
X165734990Y-114520329D01*
X165734990Y-114520329D02*
X165734990Y-114863119D01*
X165734990Y-114863119D02*
X165729975Y-114907624D01*
X165729975Y-114907624D02*
X165715183Y-114949896D01*
X165715183Y-114949896D02*
X165691356Y-114987817D01*
X165691356Y-114987817D02*
X165659687Y-115019486D01*
X165659687Y-115019486D02*
X165621766Y-115043313D01*
X165621766Y-115043313D02*
X165579494Y-115058105D01*
X165579494Y-115058105D02*
X165534990Y-115063119D01*
X165534990Y-115063119D02*
X165490485Y-115058105D01*
X165334990Y-114863119D02*
X165334990Y-114520329D01*
X165211650Y-114167846D02*
X165122133Y-114078329D01*
X174903200Y-121135000D02*
X172965000Y-119196800D01*
X167234990Y-114863119D02*
X167229975Y-114907624D01*
M02*
