G04 #@! TF.GenerationSoftware,KiCad,Pcbnew,(5.1.2)-1*
G04 #@! TF.CreationDate,2019-06-05T20:45:29-04:00*
G04 #@! TF.ProjectId,riser,72697365-722e-46b6-9963-61645f706362,rev?*
G04 #@! TF.SameCoordinates,Original*
G04 #@! TF.FileFunction,Copper,L5,Inr*
G04 #@! TF.FilePolarity,Positive*
%FSLAX46Y46*%
G04 Gerber Fmt 4.6, Leading zero omitted, Abs format (unit mm)*
G04 Created by KiCad (PCBNEW (5.1.2)-1) date 2019-06-05 20:45:29*
%MOMM*%
%LPD*%
G04 APERTURE LIST*
%ADD10O,1.350000X1.350000*%
%ADD11R,1.350000X1.350000*%
%ADD12C,0.800000*%
%ADD13C,0.200000*%
G04 APERTURE END LIST*
D10*
X93300000Y-71600000D03*
X95300000Y-71600000D03*
X93300000Y-73600000D03*
X95300000Y-73600000D03*
X93300000Y-75600000D03*
X95300000Y-75600000D03*
X93300000Y-77600000D03*
X95300000Y-77600000D03*
X93300000Y-79600000D03*
X95300000Y-79600000D03*
X93300000Y-81600000D03*
X95300000Y-81600000D03*
X93300000Y-83600000D03*
X95300000Y-83600000D03*
X93300000Y-85600000D03*
X95300000Y-85600000D03*
X93300000Y-87600000D03*
X95300000Y-87600000D03*
X93300000Y-89600000D03*
X95300000Y-89600000D03*
X93300000Y-91600000D03*
X95300000Y-91600000D03*
X93300000Y-93600000D03*
X95300000Y-93600000D03*
X93300000Y-95600000D03*
X95300000Y-95600000D03*
X93300000Y-97600000D03*
X95300000Y-97600000D03*
X93300000Y-99600000D03*
X95300000Y-99600000D03*
X93300000Y-101600000D03*
X95300000Y-101600000D03*
X93300000Y-103600000D03*
X95300000Y-103600000D03*
X93300000Y-105600000D03*
X95300000Y-105600000D03*
X93300000Y-107600000D03*
X95300000Y-107600000D03*
X93300000Y-109600000D03*
X95300000Y-109600000D03*
X93300000Y-111600000D03*
X95300000Y-111600000D03*
X93300000Y-113600000D03*
X95300000Y-113600000D03*
X93300000Y-115600000D03*
X95300000Y-115600000D03*
X93300000Y-117600000D03*
X95300000Y-117600000D03*
X93300000Y-119600000D03*
D11*
X95300000Y-119600000D03*
D10*
X182800000Y-118800000D03*
X180800000Y-118800000D03*
X182800000Y-116800000D03*
X180800000Y-116800000D03*
X182800000Y-114800000D03*
X180800000Y-114800000D03*
X182800000Y-112800000D03*
X180800000Y-112800000D03*
X182800000Y-110800000D03*
X180800000Y-110800000D03*
X182800000Y-108800000D03*
X180800000Y-108800000D03*
X182800000Y-106800000D03*
X180800000Y-106800000D03*
X182800000Y-104800000D03*
X180800000Y-104800000D03*
X182800000Y-102800000D03*
X180800000Y-102800000D03*
X182800000Y-100800000D03*
X180800000Y-100800000D03*
X182800000Y-98800000D03*
X180800000Y-98800000D03*
X182800000Y-96800000D03*
X180800000Y-96800000D03*
X182800000Y-94800000D03*
X180800000Y-94800000D03*
X182800000Y-92800000D03*
X180800000Y-92800000D03*
X182800000Y-90800000D03*
X180800000Y-90800000D03*
X182800000Y-88800000D03*
X180800000Y-88800000D03*
X182800000Y-86800000D03*
X180800000Y-86800000D03*
X182800000Y-84800000D03*
X180800000Y-84800000D03*
X182800000Y-82800000D03*
X180800000Y-82800000D03*
X182800000Y-80800000D03*
X180800000Y-80800000D03*
X182800000Y-78800000D03*
X180800000Y-78800000D03*
X182800000Y-76800000D03*
X180800000Y-76800000D03*
X182800000Y-74800000D03*
X180800000Y-74800000D03*
X182800000Y-72800000D03*
X180800000Y-72800000D03*
X182800000Y-70800000D03*
D11*
X180800000Y-70800000D03*
D10*
X145500000Y-117000000D03*
X145500000Y-119000000D03*
X143500000Y-117000000D03*
X143500000Y-119000000D03*
X141500000Y-117000000D03*
X141500000Y-119000000D03*
X139500000Y-117000000D03*
D11*
X139500000Y-119000000D03*
D10*
X122500000Y-117000000D03*
X122500000Y-119000000D03*
X120500000Y-117000000D03*
X120500000Y-119000000D03*
X118500000Y-117000000D03*
X118500000Y-119000000D03*
X116500000Y-117000000D03*
X116500000Y-119000000D03*
X114500000Y-117000000D03*
D11*
X114500000Y-119000000D03*
D10*
X135000000Y-117000000D03*
X135000000Y-119000000D03*
X133000000Y-117000000D03*
X133000000Y-119000000D03*
X131000000Y-117000000D03*
X131000000Y-119000000D03*
X129000000Y-117000000D03*
X129000000Y-119000000D03*
X127000000Y-117000000D03*
D11*
X127000000Y-119000000D03*
D10*
X105300000Y-74000000D03*
X105300000Y-72000000D03*
X107300000Y-74000000D03*
X107300000Y-72000000D03*
X109300000Y-74000000D03*
X109300000Y-72000000D03*
X111300000Y-74000000D03*
D11*
X111300000Y-72000000D03*
D10*
X116300000Y-74000000D03*
X116300000Y-72000000D03*
X118300000Y-74000000D03*
X118300000Y-72000000D03*
X120300000Y-74000000D03*
X120300000Y-72000000D03*
X122300000Y-74000000D03*
X122300000Y-72000000D03*
X124300000Y-74000000D03*
D11*
X124300000Y-72000000D03*
D10*
X152100000Y-74000000D03*
X152100000Y-72000000D03*
X154100000Y-74000000D03*
X154100000Y-72000000D03*
X156100000Y-74000000D03*
X156100000Y-72000000D03*
X158100000Y-74000000D03*
X158100000Y-72000000D03*
X160100000Y-74000000D03*
X160100000Y-72000000D03*
X162100000Y-74000000D03*
X162100000Y-72000000D03*
X164100000Y-74000000D03*
X164100000Y-72000000D03*
X166100000Y-74000000D03*
X166100000Y-72000000D03*
X168100000Y-74000000D03*
X168100000Y-72000000D03*
X170100000Y-74000000D03*
D11*
X170100000Y-72000000D03*
D10*
X110000000Y-117000000D03*
X110000000Y-119000000D03*
X108000000Y-117000000D03*
X108000000Y-119000000D03*
X106000000Y-117000000D03*
D11*
X106000000Y-119000000D03*
D10*
X151220040Y-117494080D03*
X151220040Y-119494080D03*
X153220040Y-117494080D03*
X153220040Y-119494080D03*
X155220040Y-117494080D03*
X155220040Y-119494080D03*
X157220040Y-117494080D03*
X157220040Y-119494080D03*
X159220040Y-117494080D03*
X159220040Y-119494080D03*
X161220040Y-117494080D03*
X161220040Y-119494080D03*
X163220040Y-117494080D03*
X163220040Y-119494080D03*
X165220040Y-117494080D03*
X165220040Y-119494080D03*
X167220040Y-117494080D03*
X167220040Y-119494080D03*
X169220040Y-117494080D03*
D11*
X169220040Y-119494080D03*
D12*
X125070000Y-99600002D03*
X126230000Y-100600000D03*
X141720000Y-108640000D03*
X140450000Y-108640000D03*
X136640000Y-108640000D03*
X134213982Y-100906018D03*
X135370000Y-108640000D03*
X134100000Y-102290000D03*
D13*
X149119800Y-121692000D02*
X148099000Y-120671200D01*
X148099000Y-115337200D02*
X146361800Y-113600000D01*
X146361800Y-113600000D02*
X96734300Y-113600000D01*
X93974999Y-112925001D02*
X93300000Y-113600000D01*
X153022120Y-121692000D02*
X149119800Y-121692000D01*
X94275001Y-112624999D02*
X93974999Y-112925001D01*
X95759299Y-112624999D02*
X94275001Y-112624999D01*
X148099000Y-120671200D02*
X148099000Y-115337200D01*
X155220040Y-119494080D02*
X153022120Y-121692000D01*
X96734300Y-113600000D02*
X95759299Y-112624999D01*
X96850000Y-113150000D02*
X95300000Y-111600000D01*
X124215000Y-113150000D02*
X96850000Y-113150000D01*
X124281756Y-113142478D02*
X124215000Y-113150000D01*
X124345165Y-113120290D02*
X124281756Y-113142478D01*
X124402046Y-113084549D02*
X124345165Y-113120290D01*
X124449549Y-113037046D02*
X124402046Y-113084549D01*
X124485290Y-112980165D02*
X124449549Y-113037046D01*
X124507478Y-112916756D02*
X124485290Y-112980165D01*
X124515000Y-112850000D02*
X124507478Y-112916756D01*
X124515000Y-112617369D02*
X124515000Y-112850000D01*
X124522521Y-112550612D02*
X124515000Y-112617369D01*
X124544709Y-112487203D02*
X124522521Y-112550612D01*
X124580450Y-112430322D02*
X124544709Y-112487203D01*
X124627953Y-112382819D02*
X124580450Y-112430322D01*
X124684834Y-112347078D02*
X124627953Y-112382819D01*
X124748243Y-112324890D02*
X124684834Y-112347078D01*
X124815000Y-112317369D02*
X124748243Y-112324890D01*
X124881756Y-112324890D02*
X124815000Y-112317369D01*
X124945165Y-112347078D02*
X124881756Y-112324890D01*
X125002046Y-112382819D02*
X124945165Y-112347078D01*
X125049549Y-112430322D02*
X125002046Y-112382819D01*
X126745165Y-113120290D02*
X126681756Y-113142478D01*
X125107478Y-112550612D02*
X125085290Y-112487203D01*
X126802046Y-113084549D02*
X126745165Y-113120290D01*
X126885290Y-112980165D02*
X126849549Y-113037046D01*
X126915000Y-112617369D02*
X126915000Y-112850000D01*
X126944709Y-112487203D02*
X126922521Y-112550612D01*
X127027953Y-112382819D02*
X126980450Y-112430322D01*
X125348243Y-113142478D02*
X125284834Y-113120290D01*
X127084834Y-112347078D02*
X127027953Y-112382819D01*
X125144709Y-112980165D02*
X125122521Y-112916756D01*
X127215000Y-112317369D02*
X127148243Y-112324890D01*
X126980450Y-112430322D02*
X126944709Y-112487203D01*
X127281756Y-112324890D02*
X127215000Y-112317369D01*
X126907478Y-112916756D02*
X126885290Y-112980165D01*
X127345165Y-112347078D02*
X127281756Y-112324890D01*
X126915000Y-112850000D02*
X126907478Y-112916756D01*
X127402046Y-112382819D02*
X127345165Y-112347078D01*
X127449549Y-112430322D02*
X127402046Y-112382819D01*
X127485290Y-112487203D02*
X127449549Y-112430322D01*
X148549000Y-115150800D02*
X146548200Y-113150000D01*
X127522521Y-112916756D02*
X127515000Y-112850000D01*
X126922521Y-112550612D02*
X126915000Y-112617369D01*
X126015000Y-112317369D02*
X125948243Y-112324890D01*
X148549000Y-120484800D02*
X148549000Y-115150800D01*
X149306200Y-121242000D02*
X148549000Y-120484800D01*
X152835723Y-121242000D02*
X149306200Y-121242000D01*
X127580450Y-113037046D02*
X127544709Y-112980165D01*
X125744709Y-112487203D02*
X125722521Y-112550612D01*
X127748243Y-113142478D02*
X127684834Y-113120290D01*
X127815000Y-113150000D02*
X127748243Y-113142478D01*
X126849549Y-113037046D02*
X126802046Y-113084549D01*
X125707478Y-112916756D02*
X125685290Y-112980165D01*
X153220040Y-120857683D02*
X152835723Y-121242000D01*
X146548200Y-113150000D02*
X127815000Y-113150000D01*
X125884834Y-112347078D02*
X125827953Y-112382819D01*
X127544709Y-112980165D02*
X127522521Y-112916756D01*
X125085290Y-112487203D02*
X125049549Y-112430322D01*
X153220040Y-119494080D02*
X153220040Y-120857683D01*
X125602046Y-113084549D02*
X125545165Y-113120290D01*
X127684834Y-113120290D02*
X127627953Y-113084549D01*
X127507478Y-112550612D02*
X127485290Y-112487203D01*
X127627953Y-113084549D02*
X127580450Y-113037046D01*
X127148243Y-112324890D02*
X127084834Y-112347078D01*
X127515000Y-112617369D02*
X127507478Y-112550612D01*
X125948243Y-112324890D02*
X125884834Y-112347078D01*
X127515000Y-112850000D02*
X127515000Y-112617369D01*
X126681756Y-113142478D02*
X126615000Y-113150000D01*
X126615000Y-113150000D02*
X126548243Y-113142478D01*
X126548243Y-113142478D02*
X126484834Y-113120290D01*
X125780450Y-112430322D02*
X125744709Y-112487203D01*
X126484834Y-113120290D02*
X126427953Y-113084549D01*
X125115000Y-112850000D02*
X125115000Y-112617369D01*
X126427953Y-113084549D02*
X126380450Y-113037046D01*
X125180450Y-113037046D02*
X125144709Y-112980165D01*
X126380450Y-113037046D02*
X126344709Y-112980165D01*
X126344709Y-112980165D02*
X126322521Y-112916756D01*
X125545165Y-113120290D02*
X125481756Y-113142478D01*
X126322521Y-112916756D02*
X126315000Y-112850000D01*
X125685290Y-112980165D02*
X125649549Y-113037046D01*
X126315000Y-112850000D02*
X126315000Y-112617369D01*
X126315000Y-112617369D02*
X126307478Y-112550612D01*
X126307478Y-112550612D02*
X126285290Y-112487203D01*
X126285290Y-112487203D02*
X126249549Y-112430322D01*
X125115000Y-112617369D02*
X125107478Y-112550612D01*
X126249549Y-112430322D02*
X126202046Y-112382819D01*
X125481756Y-113142478D02*
X125415000Y-113150000D01*
X126202046Y-112382819D02*
X126145165Y-112347078D01*
X126145165Y-112347078D02*
X126081756Y-112324890D01*
X126081756Y-112324890D02*
X126015000Y-112317369D01*
X125827953Y-112382819D02*
X125780450Y-112430322D01*
X125722521Y-112550612D02*
X125715000Y-112617369D01*
X125715000Y-112617369D02*
X125715000Y-112850000D01*
X125715000Y-112850000D02*
X125707478Y-112916756D01*
X125649549Y-113037046D02*
X125602046Y-113084549D01*
X125415000Y-113150000D02*
X125348243Y-113142478D01*
X125284834Y-113120290D02*
X125227953Y-113084549D01*
X125227953Y-113084549D02*
X125180450Y-113037046D01*
X125122521Y-112916756D02*
X125115000Y-112850000D01*
X95300000Y-106156998D02*
X95300000Y-105600000D01*
X96275001Y-107131999D02*
X95300000Y-106156998D01*
X96275001Y-108256802D02*
X96275001Y-107131999D01*
X98465199Y-110447000D02*
X96275001Y-108256802D01*
X159220040Y-117494080D02*
X152172960Y-110447000D01*
X152172960Y-110447000D02*
X98465199Y-110447000D01*
X93856998Y-107600000D02*
X93300000Y-107600000D01*
X118984046Y-111545443D02*
X118927165Y-111581184D01*
X119067290Y-111441059D02*
X119031549Y-111497940D01*
X119089478Y-111377650D02*
X119067290Y-111441059D01*
X119397000Y-110897000D02*
X119330243Y-110904522D01*
X119097000Y-111310893D02*
X119089478Y-111377650D01*
X118526709Y-111441059D02*
X118504521Y-111377650D01*
X119097000Y-111197000D02*
X119097000Y-111310893D01*
X119126709Y-111066835D02*
X119104521Y-111130244D01*
X118609953Y-111545443D02*
X118562450Y-111497940D01*
X118327165Y-110926710D02*
X118263756Y-110904522D01*
X119209953Y-110962451D02*
X119162450Y-111009954D01*
X118863756Y-111603372D02*
X118797000Y-111610893D01*
X157220040Y-116130477D02*
X151986563Y-110897000D01*
X118197000Y-110897000D02*
X98278801Y-110897000D01*
X119031549Y-111497940D02*
X118984046Y-111545443D01*
X119330243Y-110904522D02*
X119266834Y-110926710D01*
X157220040Y-117494080D02*
X157220040Y-116130477D01*
X118384046Y-110962451D02*
X118327165Y-110926710D01*
X151986563Y-110897000D02*
X119397000Y-110897000D01*
X94831999Y-108575001D02*
X93856998Y-107600000D01*
X119266834Y-110926710D02*
X119209953Y-110962451D01*
X118489478Y-111130244D02*
X118467290Y-111066835D01*
X118431549Y-111009954D02*
X118384046Y-110962451D01*
X118927165Y-111581184D02*
X118863756Y-111603372D01*
X118797000Y-111610893D02*
X118730243Y-111603372D01*
X118730243Y-111603372D02*
X118666834Y-111581184D01*
X118666834Y-111581184D02*
X118609953Y-111545443D01*
X118562450Y-111497940D02*
X118526709Y-111441059D01*
X118504521Y-111377650D02*
X118497000Y-111310893D01*
X119104521Y-111130244D02*
X119097000Y-111197000D01*
X95956802Y-108575001D02*
X94831999Y-108575001D01*
X118497000Y-111310893D02*
X118497000Y-111197000D01*
X118497000Y-111197000D02*
X118489478Y-111130244D01*
X119162450Y-111009954D02*
X119126709Y-111066835D01*
X118467290Y-111066835D02*
X118431549Y-111009954D01*
X118263756Y-110904522D02*
X118197000Y-110897000D01*
X98278801Y-110897000D02*
X95956802Y-108575001D01*
X93974999Y-94925001D02*
X93300000Y-95600000D01*
X94324999Y-94575001D02*
X93974999Y-94925001D01*
X100768001Y-94575001D02*
X94320000Y-94575001D01*
X130195003Y-94575001D02*
X100768001Y-94575001D01*
X140880000Y-105259998D02*
X130195003Y-94575001D01*
X141720000Y-108640000D02*
X140880000Y-107800000D01*
X140880000Y-107800000D02*
X140880000Y-105259998D01*
X93974999Y-96925001D02*
X93300000Y-97600000D01*
X97778000Y-95051000D02*
X96253999Y-96575001D01*
X94324999Y-96575001D02*
X93974999Y-96925001D01*
X96253999Y-96575001D02*
X94324999Y-96575001D01*
X130105302Y-95051000D02*
X97778000Y-95051000D01*
X140450000Y-108640000D02*
X140450000Y-105395698D01*
X140450000Y-105395698D02*
X130105302Y-95051000D01*
X135770000Y-107770000D02*
X135770000Y-102462036D01*
X136640000Y-108640000D02*
X135770000Y-107770000D01*
X135770000Y-102462036D02*
X134613981Y-101306017D01*
X134613981Y-101306017D02*
X134213982Y-100906018D01*
X135370000Y-108640000D02*
X135370000Y-103560000D01*
X134499999Y-102689999D02*
X134100000Y-102290000D01*
X135370000Y-103560000D02*
X134499999Y-102689999D01*
X159280000Y-100800000D02*
X180800000Y-100800000D01*
X124300000Y-72000000D02*
X130480000Y-72000000D01*
X130480000Y-72000000D02*
X159280000Y-100800000D01*
X160010000Y-102800000D02*
X174845406Y-102800000D01*
X130185001Y-72975001D02*
X160010000Y-102800000D01*
X122300000Y-72000000D02*
X123275001Y-72975001D01*
X123275001Y-72975001D02*
X130185001Y-72975001D01*
X174845406Y-102800000D02*
X180800000Y-102800000D01*
X119324999Y-74468001D02*
X121746998Y-76890000D01*
X118300000Y-72000000D02*
X119324999Y-73024999D01*
X119324999Y-73024999D02*
X119324999Y-74468001D01*
X121746998Y-76890000D02*
X131560000Y-76890000D01*
X131560000Y-76890000D02*
X158230000Y-103560000D01*
X177560000Y-103560000D02*
X180800000Y-106800000D01*
X158230000Y-103560000D02*
X177560000Y-103560000D01*
X174845406Y-108800000D02*
X180800000Y-108800000D01*
X174740000Y-108640000D02*
X174740000Y-108694594D01*
X172200000Y-106100000D02*
X174740000Y-108640000D01*
X117324999Y-73024999D02*
X117324999Y-75354999D01*
X116300000Y-72000000D02*
X117324999Y-73024999D01*
X174740000Y-108694594D02*
X174845406Y-108800000D01*
X121400000Y-79430000D02*
X131560000Y-79430000D01*
X131560000Y-79430000D02*
X158230000Y-106100000D01*
X117324999Y-75354999D02*
X121400000Y-79430000D01*
X158230000Y-106100000D02*
X172200000Y-106100000D01*
M02*
