G04 #@! TF.GenerationSoftware,KiCad,Pcbnew,(5.1.2)-1*
G04 #@! TF.CreationDate,2019-06-05T20:45:29-04:00*
G04 #@! TF.ProjectId,riser,72697365-722e-46b6-9963-61645f706362,rev?*
G04 #@! TF.SameCoordinates,Original*
G04 #@! TF.FileFunction,Copper,L3,Inr*
G04 #@! TF.FilePolarity,Positive*
%FSLAX46Y46*%
G04 Gerber Fmt 4.6, Leading zero omitted, Abs format (unit mm)*
G04 Created by KiCad (PCBNEW (5.1.2)-1) date 2019-06-05 20:45:29*
%MOMM*%
%LPD*%
G04 APERTURE LIST*
%ADD10O,1.350000X1.350000*%
%ADD11R,1.350000X1.350000*%
%ADD12C,0.800000*%
%ADD13C,0.200000*%
%ADD14C,0.250000*%
G04 APERTURE END LIST*
D10*
X93300000Y-71600000D03*
X95300000Y-71600000D03*
X93300000Y-73600000D03*
X95300000Y-73600000D03*
X93300000Y-75600000D03*
X95300000Y-75600000D03*
X93300000Y-77600000D03*
X95300000Y-77600000D03*
X93300000Y-79600000D03*
X95300000Y-79600000D03*
X93300000Y-81600000D03*
X95300000Y-81600000D03*
X93300000Y-83600000D03*
X95300000Y-83600000D03*
X93300000Y-85600000D03*
X95300000Y-85600000D03*
X93300000Y-87600000D03*
X95300000Y-87600000D03*
X93300000Y-89600000D03*
X95300000Y-89600000D03*
X93300000Y-91600000D03*
X95300000Y-91600000D03*
X93300000Y-93600000D03*
X95300000Y-93600000D03*
X93300000Y-95600000D03*
X95300000Y-95600000D03*
X93300000Y-97600000D03*
X95300000Y-97600000D03*
X93300000Y-99600000D03*
X95300000Y-99600000D03*
X93300000Y-101600000D03*
X95300000Y-101600000D03*
X93300000Y-103600000D03*
X95300000Y-103600000D03*
X93300000Y-105600000D03*
X95300000Y-105600000D03*
X93300000Y-107600000D03*
X95300000Y-107600000D03*
X93300000Y-109600000D03*
X95300000Y-109600000D03*
X93300000Y-111600000D03*
X95300000Y-111600000D03*
X93300000Y-113600000D03*
X95300000Y-113600000D03*
X93300000Y-115600000D03*
X95300000Y-115600000D03*
X93300000Y-117600000D03*
X95300000Y-117600000D03*
X93300000Y-119600000D03*
D11*
X95300000Y-119600000D03*
D10*
X182800000Y-118800000D03*
X180800000Y-118800000D03*
X182800000Y-116800000D03*
X180800000Y-116800000D03*
X182800000Y-114800000D03*
X180800000Y-114800000D03*
X182800000Y-112800000D03*
X180800000Y-112800000D03*
X182800000Y-110800000D03*
X180800000Y-110800000D03*
X182800000Y-108800000D03*
X180800000Y-108800000D03*
X182800000Y-106800000D03*
X180800000Y-106800000D03*
X182800000Y-104800000D03*
X180800000Y-104800000D03*
X182800000Y-102800000D03*
X180800000Y-102800000D03*
X182800000Y-100800000D03*
X180800000Y-100800000D03*
X182800000Y-98800000D03*
X180800000Y-98800000D03*
X182800000Y-96800000D03*
X180800000Y-96800000D03*
X182800000Y-94800000D03*
X180800000Y-94800000D03*
X182800000Y-92800000D03*
X180800000Y-92800000D03*
X182800000Y-90800000D03*
X180800000Y-90800000D03*
X182800000Y-88800000D03*
X180800000Y-88800000D03*
X182800000Y-86800000D03*
X180800000Y-86800000D03*
X182800000Y-84800000D03*
X180800000Y-84800000D03*
X182800000Y-82800000D03*
X180800000Y-82800000D03*
X182800000Y-80800000D03*
X180800000Y-80800000D03*
X182800000Y-78800000D03*
X180800000Y-78800000D03*
X182800000Y-76800000D03*
X180800000Y-76800000D03*
X182800000Y-74800000D03*
X180800000Y-74800000D03*
X182800000Y-72800000D03*
X180800000Y-72800000D03*
X182800000Y-70800000D03*
D11*
X180800000Y-70800000D03*
D10*
X145500000Y-117000000D03*
X145500000Y-119000000D03*
X143500000Y-117000000D03*
X143500000Y-119000000D03*
X141500000Y-117000000D03*
X141500000Y-119000000D03*
X139500000Y-117000000D03*
D11*
X139500000Y-119000000D03*
D10*
X122500000Y-117000000D03*
X122500000Y-119000000D03*
X120500000Y-117000000D03*
X120500000Y-119000000D03*
X118500000Y-117000000D03*
X118500000Y-119000000D03*
X116500000Y-117000000D03*
X116500000Y-119000000D03*
X114500000Y-117000000D03*
D11*
X114500000Y-119000000D03*
D10*
X135000000Y-117000000D03*
X135000000Y-119000000D03*
X133000000Y-117000000D03*
X133000000Y-119000000D03*
X131000000Y-117000000D03*
X131000000Y-119000000D03*
X129000000Y-117000000D03*
X129000000Y-119000000D03*
X127000000Y-117000000D03*
D11*
X127000000Y-119000000D03*
D10*
X105300000Y-74000000D03*
X105300000Y-72000000D03*
X107300000Y-74000000D03*
X107300000Y-72000000D03*
X109300000Y-74000000D03*
X109300000Y-72000000D03*
X111300000Y-74000000D03*
D11*
X111300000Y-72000000D03*
D10*
X116300000Y-74000000D03*
X116300000Y-72000000D03*
X118300000Y-74000000D03*
X118300000Y-72000000D03*
X120300000Y-74000000D03*
X120300000Y-72000000D03*
X122300000Y-74000000D03*
X122300000Y-72000000D03*
X124300000Y-74000000D03*
D11*
X124300000Y-72000000D03*
D10*
X152100000Y-74000000D03*
X152100000Y-72000000D03*
X154100000Y-74000000D03*
X154100000Y-72000000D03*
X156100000Y-74000000D03*
X156100000Y-72000000D03*
X158100000Y-74000000D03*
X158100000Y-72000000D03*
X160100000Y-74000000D03*
X160100000Y-72000000D03*
X162100000Y-74000000D03*
X162100000Y-72000000D03*
X164100000Y-74000000D03*
X164100000Y-72000000D03*
X166100000Y-74000000D03*
X166100000Y-72000000D03*
X168100000Y-74000000D03*
X168100000Y-72000000D03*
X170100000Y-74000000D03*
D11*
X170100000Y-72000000D03*
D10*
X110000000Y-117000000D03*
X110000000Y-119000000D03*
X108000000Y-117000000D03*
X108000000Y-119000000D03*
X106000000Y-117000000D03*
D11*
X106000000Y-119000000D03*
D10*
X151220040Y-117494080D03*
X151220040Y-119494080D03*
X153220040Y-117494080D03*
X153220040Y-119494080D03*
X155220040Y-117494080D03*
X155220040Y-119494080D03*
X157220040Y-117494080D03*
X157220040Y-119494080D03*
X159220040Y-117494080D03*
X159220040Y-119494080D03*
X161220040Y-117494080D03*
X161220040Y-119494080D03*
X163220040Y-117494080D03*
X163220040Y-119494080D03*
X165220040Y-117494080D03*
X165220040Y-119494080D03*
X167220040Y-117494080D03*
X167220040Y-119494080D03*
X169220040Y-117494080D03*
D11*
X169220040Y-119494080D03*
D12*
X125070000Y-99600002D03*
X126230000Y-100600000D03*
X141720000Y-108640000D03*
X140450000Y-108640000D03*
X136640000Y-108640000D03*
X134213982Y-100906018D03*
X135370000Y-108640000D03*
X134100000Y-102290000D03*
D13*
X105300000Y-72000000D02*
X103340000Y-72000000D01*
X103340000Y-72000000D02*
X100980000Y-74360000D01*
X96060000Y-74360000D02*
X95300000Y-73600000D01*
X100980000Y-74360000D02*
X96060000Y-74360000D01*
D14*
X105180002Y-77600000D02*
X95300000Y-77600000D01*
X108300000Y-74480002D02*
X105180002Y-77600000D01*
X109300000Y-72000000D02*
X108300000Y-73000000D01*
X108300000Y-73000000D02*
X108300000Y-74480002D01*
D13*
X93300000Y-120554594D02*
X93300000Y-119600000D01*
X95370396Y-122624990D02*
X93300000Y-120554594D01*
X167220040Y-119494080D02*
X164089130Y-122624990D01*
X95370000Y-122624990D02*
X132750917Y-122624990D01*
X132750917Y-122624990D02*
X164099130Y-122624990D01*
X95694979Y-122224979D02*
X94324999Y-120854999D01*
X94324999Y-120854999D02*
X94324999Y-118575001D01*
X94324999Y-118575001D02*
X95300000Y-117600000D01*
X165220040Y-119494080D02*
X165220040Y-120857683D01*
X165220040Y-120857683D02*
X163852744Y-122224979D01*
X131209653Y-122224979D02*
X95690000Y-122224979D01*
X163862744Y-122224979D02*
X131209653Y-122224979D01*
X161220040Y-119494080D02*
X160770040Y-119944080D01*
X95300000Y-116175008D02*
X95300000Y-115600000D01*
X104669800Y-121565000D02*
X103141000Y-120036200D01*
X161220040Y-119494080D02*
X159149120Y-121565000D01*
X101625800Y-115600000D02*
X95300000Y-115600000D01*
X159149120Y-121565000D02*
X104669800Y-121565000D01*
X103141000Y-117115200D02*
X101625800Y-115600000D01*
X103141000Y-120036200D02*
X103141000Y-117115200D01*
X159220040Y-119494080D02*
X158663042Y-119494080D01*
X104856200Y-121115000D02*
X103591000Y-119849800D01*
X159220040Y-120857683D02*
X158962723Y-121115000D01*
X103591000Y-116928800D02*
X101812200Y-115150000D01*
X159220040Y-119494080D02*
X159220040Y-120857683D01*
X101812200Y-115150000D02*
X96293002Y-115150000D01*
X103591000Y-119849800D02*
X103591000Y-116928800D01*
X158962723Y-121115000D02*
X104856200Y-121115000D01*
X96293002Y-115150000D02*
X95768001Y-114624999D01*
X95768001Y-114624999D02*
X94831999Y-114624999D01*
X94831999Y-114624999D02*
X94306998Y-115150000D01*
X94306998Y-115150000D02*
X93750000Y-115150000D01*
X93750000Y-115150000D02*
X93300000Y-115600000D01*
X93750000Y-103150000D02*
X93300000Y-103600000D01*
X94306998Y-103150000D02*
X93750000Y-103150000D01*
X94831999Y-102624999D02*
X94306998Y-103150000D01*
X95768001Y-102624999D02*
X94831999Y-102624999D01*
X97211002Y-104068000D02*
X95768001Y-102624999D01*
X150102000Y-104068000D02*
X97211002Y-104068000D01*
X165220040Y-117494080D02*
X164663042Y-117494080D01*
X163688041Y-116519079D02*
X162810737Y-116519079D01*
X164663042Y-117494080D02*
X163688041Y-116519079D01*
X162810737Y-116519079D02*
X150359661Y-104068003D01*
X150359661Y-104068003D02*
X150102003Y-104068003D01*
X150102003Y-104068003D02*
X150102000Y-104068000D01*
X163220040Y-117494080D02*
X150193971Y-104468011D01*
X150193971Y-104468011D02*
X131968011Y-104468011D01*
X131968011Y-104468011D02*
X131568011Y-104468011D01*
X128698176Y-105188301D02*
X128755057Y-105152560D01*
X128634767Y-105210489D02*
X128698176Y-105188301D01*
X128501254Y-105210489D02*
X128568011Y-105218011D01*
X128437845Y-105188301D02*
X128501254Y-105210489D01*
X128380964Y-105152560D02*
X128437845Y-105188301D01*
X127733461Y-104580964D02*
X127780964Y-104533461D01*
X127675532Y-104701254D02*
X127697720Y-104637845D01*
X127668011Y-104768011D02*
X127675532Y-104701254D01*
X127668011Y-104918011D02*
X127668011Y-104768011D01*
X127660489Y-104984767D02*
X127668011Y-104918011D01*
X127638301Y-105048176D02*
X127660489Y-104984767D01*
X127602560Y-105105057D02*
X127638301Y-105048176D01*
X127555057Y-105152560D02*
X127602560Y-105105057D01*
X127498176Y-105188301D02*
X127555057Y-105152560D01*
X127968011Y-104468011D02*
X128034767Y-104475532D01*
X127434767Y-105210489D02*
X127498176Y-105188301D01*
X128980964Y-104533461D02*
X129037845Y-104497720D01*
X125755057Y-104533461D02*
X125802560Y-104580964D01*
X128860489Y-104984767D02*
X128868011Y-104918011D01*
X125698176Y-104497720D02*
X125755057Y-104533461D01*
X128268011Y-104768011D02*
X128268011Y-104918011D01*
X125380964Y-104533461D02*
X125437845Y-104497720D01*
X127060489Y-104701254D02*
X127068011Y-104768011D01*
X125437845Y-104497720D02*
X125501254Y-104475532D01*
X125333461Y-104580964D02*
X125380964Y-104533461D01*
X125275532Y-104701254D02*
X125297720Y-104637845D01*
X128155057Y-104533461D02*
X128202560Y-104580964D01*
X125297720Y-104637845D02*
X125333461Y-104580964D01*
X125268011Y-104768011D02*
X125275532Y-104701254D01*
X128238301Y-104637845D02*
X128260489Y-104701254D01*
X125238301Y-105048176D02*
X125260489Y-104984767D01*
X125155057Y-105152560D02*
X125202560Y-105105057D01*
X125634767Y-104475532D02*
X125698176Y-104497720D01*
X128275532Y-104984767D02*
X128297720Y-105048176D01*
X125098176Y-105188301D02*
X125155057Y-105152560D01*
X125568011Y-104468011D02*
X125634767Y-104475532D01*
X128568011Y-105218011D02*
X128634767Y-105210489D01*
X125034767Y-105210489D02*
X125098176Y-105188301D01*
X125260489Y-104984767D02*
X125268011Y-104918011D01*
X124968011Y-105218011D02*
X125034767Y-105210489D01*
X129168011Y-104468011D02*
X130398263Y-104468011D01*
X124901254Y-105210489D02*
X124968011Y-105218011D01*
X128755057Y-105152560D02*
X128802560Y-105105057D01*
X127780964Y-104533461D02*
X127837845Y-104497720D01*
X124555057Y-104533461D02*
X124602560Y-104580964D01*
X125202560Y-105105057D02*
X125238301Y-105048176D01*
X127837845Y-104497720D02*
X127901254Y-104475532D01*
X124498176Y-104497720D02*
X124555057Y-104533461D01*
X124434767Y-104475532D02*
X124498176Y-104497720D01*
X124368011Y-104468011D02*
X124434767Y-104475532D01*
X128897720Y-104637845D02*
X128933461Y-104580964D01*
X124660489Y-104701254D02*
X124668011Y-104768011D01*
X125268011Y-104918011D02*
X125268011Y-104768011D01*
X126898176Y-104497720D02*
X126955057Y-104533461D01*
X124668011Y-104768011D02*
X124668011Y-104918011D01*
X124780964Y-105152560D02*
X124837845Y-105188301D01*
X95300000Y-103600000D02*
X96168011Y-104468011D01*
X96168011Y-104468011D02*
X124368011Y-104468011D01*
X124602560Y-104580964D02*
X124638301Y-104637845D01*
X126834767Y-104475532D02*
X126898176Y-104497720D01*
X124638301Y-104637845D02*
X124660489Y-104701254D01*
X125501254Y-104475532D02*
X125568011Y-104468011D01*
X128202560Y-104580964D02*
X128238301Y-104637845D01*
X124668011Y-104918011D02*
X124675532Y-104984767D01*
X128098176Y-104497720D02*
X128155057Y-104533461D01*
X124733461Y-105105057D02*
X124780964Y-105152560D01*
X128802560Y-105105057D02*
X128838301Y-105048176D01*
X124675532Y-104984767D02*
X124697720Y-105048176D01*
X124697720Y-105048176D02*
X124733461Y-105105057D01*
X128268011Y-104918011D02*
X128275532Y-104984767D01*
X126768011Y-104468011D02*
X126834767Y-104475532D01*
X128868011Y-104768011D02*
X128875532Y-104701254D01*
X124837845Y-105188301D02*
X124901254Y-105210489D01*
X129101254Y-104475532D02*
X129168011Y-104468011D01*
X128034767Y-104475532D02*
X128098176Y-104497720D01*
X125802560Y-104580964D02*
X125838301Y-104637845D01*
X127180964Y-105152560D02*
X127237845Y-105188301D01*
X128297720Y-105048176D02*
X128333461Y-105105057D01*
X125838301Y-104637845D02*
X125860489Y-104701254D01*
X130398263Y-104468011D02*
X131968011Y-104468011D01*
X125860489Y-104701254D02*
X125868011Y-104768011D01*
X125868011Y-104768011D02*
X125868011Y-104918011D01*
X128333461Y-105105057D02*
X128380964Y-105152560D01*
X125868011Y-104918011D02*
X125875532Y-104984767D01*
X129037845Y-104497720D02*
X129101254Y-104475532D01*
X125875532Y-104984767D02*
X125897720Y-105048176D01*
X127038301Y-104637845D02*
X127060489Y-104701254D01*
X125897720Y-105048176D02*
X125933461Y-105105057D01*
X125933461Y-105105057D02*
X125980964Y-105152560D01*
X128933461Y-104580964D02*
X128980964Y-104533461D01*
X125980964Y-105152560D02*
X126037845Y-105188301D01*
X128875532Y-104701254D02*
X128897720Y-104637845D01*
X126037845Y-105188301D02*
X126101254Y-105210489D01*
X126101254Y-105210489D02*
X126168011Y-105218011D01*
X128868011Y-104918011D02*
X128868011Y-104768011D01*
X126168011Y-105218011D02*
X126234767Y-105210489D01*
X126234767Y-105210489D02*
X126298176Y-105188301D01*
X127068011Y-104768011D02*
X127068011Y-104918011D01*
X126298176Y-105188301D02*
X126355057Y-105152560D01*
X127697720Y-104637845D02*
X127733461Y-104580964D01*
X127068011Y-104918011D02*
X127075532Y-104984767D01*
X126355057Y-105152560D02*
X126402560Y-105105057D01*
X127002560Y-104580964D02*
X127038301Y-104637845D01*
X126402560Y-105105057D02*
X126438301Y-105048176D01*
X126955057Y-104533461D02*
X127002560Y-104580964D01*
X126438301Y-105048176D02*
X126460489Y-104984767D01*
X126460489Y-104984767D02*
X126468011Y-104918011D01*
X126468011Y-104918011D02*
X126468011Y-104768011D01*
X126468011Y-104768011D02*
X126475532Y-104701254D01*
X126475532Y-104701254D02*
X126497720Y-104637845D01*
X126497720Y-104637845D02*
X126533461Y-104580964D01*
X126533461Y-104580964D02*
X126580964Y-104533461D01*
X128260489Y-104701254D02*
X128268011Y-104768011D01*
X126580964Y-104533461D02*
X126637845Y-104497720D01*
X128838301Y-105048176D02*
X128860489Y-104984767D01*
X126637845Y-104497720D02*
X126701254Y-104475532D01*
X126701254Y-104475532D02*
X126768011Y-104468011D01*
X127075532Y-104984767D02*
X127097720Y-105048176D01*
X127901254Y-104475532D02*
X127968011Y-104468011D01*
X127097720Y-105048176D02*
X127133461Y-105105057D01*
X127133461Y-105105057D02*
X127180964Y-105152560D01*
X127237845Y-105188301D02*
X127301254Y-105210489D01*
X127301254Y-105210489D02*
X127368011Y-105218011D01*
X127368011Y-105218011D02*
X127434767Y-105210489D01*
X153220040Y-117494080D02*
X153220040Y-117346040D01*
X95768001Y-108624999D02*
X94831999Y-108624999D01*
X97838800Y-109150000D02*
X96293002Y-109150000D01*
X100097800Y-106891000D02*
X97838800Y-109150000D01*
X152445040Y-111426840D02*
X147909200Y-106891000D01*
X147909200Y-106891000D02*
X100097800Y-106891000D01*
X152445040Y-116719080D02*
X152445040Y-111426840D01*
X96293002Y-109150000D02*
X95768001Y-108624999D01*
X153220040Y-117494080D02*
X152445040Y-116719080D01*
X94831999Y-108624999D02*
X94306998Y-109150000D01*
X94306998Y-109150000D02*
X93750000Y-109150000D01*
X93750000Y-109150000D02*
X93300000Y-109600000D01*
X100284200Y-107341000D02*
X98025200Y-109600000D01*
X123171756Y-107348522D02*
X123105000Y-107341000D01*
X123235165Y-107370710D02*
X123171756Y-107348522D01*
X123292046Y-107406451D02*
X123235165Y-107370710D01*
X123375290Y-107510835D02*
X123339549Y-107453954D01*
X123405000Y-107861660D02*
X123405000Y-107641000D01*
X123412521Y-107928417D02*
X123405000Y-107861660D01*
X123434709Y-107991826D02*
X123412521Y-107928417D01*
X123638243Y-108154139D02*
X123574834Y-108131951D01*
X123705000Y-108161660D02*
X123638243Y-108154139D01*
X123771756Y-108154139D02*
X123705000Y-108161660D01*
X125438243Y-107348522D02*
X125374834Y-107370710D01*
X125505000Y-107341000D02*
X125438243Y-107348522D01*
X125635165Y-107370710D02*
X125571756Y-107348522D01*
X125797478Y-107574244D02*
X125775290Y-107510835D01*
X123997478Y-107928417D02*
X123975290Y-107991826D01*
X125571756Y-107348522D02*
X125505000Y-107341000D01*
X125805000Y-107641000D02*
X125797478Y-107574244D01*
X125092046Y-108096210D02*
X125035165Y-108131951D01*
X125805000Y-107861660D02*
X125805000Y-107641000D01*
X125834709Y-107991826D02*
X125812521Y-107928417D01*
X125870450Y-108048707D02*
X125834709Y-107991826D01*
X124117953Y-107406451D02*
X124070450Y-107453954D01*
X125974834Y-108131951D02*
X125917953Y-108096210D01*
X124539549Y-107453954D02*
X124492046Y-107406451D01*
X126038243Y-108154139D02*
X125974834Y-108131951D01*
X125739549Y-107453954D02*
X125692046Y-107406451D01*
X126105000Y-108161660D02*
X126038243Y-108154139D01*
X125270450Y-107453954D02*
X125234709Y-107510835D01*
X126171756Y-108154139D02*
X126105000Y-108161660D01*
X124717953Y-108096210D02*
X124670450Y-108048707D01*
X126235165Y-108131951D02*
X126171756Y-108154139D01*
X123517953Y-108096210D02*
X123470450Y-108048707D01*
X124005000Y-107861660D02*
X123997478Y-107928417D01*
X126292046Y-108096210D02*
X126235165Y-108131951D01*
X125917953Y-108096210D02*
X125870450Y-108048707D01*
X126638243Y-107348522D02*
X126574834Y-107370710D01*
X124905000Y-108161660D02*
X124838243Y-108154139D01*
X147722800Y-107341000D02*
X126705000Y-107341000D01*
X126470450Y-107453954D02*
X126434709Y-107510835D01*
X151995040Y-111613240D02*
X147722800Y-107341000D01*
X125205000Y-107861660D02*
X125197478Y-107928417D01*
X125692046Y-107406451D02*
X125635165Y-107370710D01*
X124971756Y-108154139D02*
X124905000Y-108161660D01*
X126434709Y-107510835D02*
X126412521Y-107574244D01*
X151220040Y-117494080D02*
X151995040Y-116719080D01*
X126339549Y-108048707D02*
X126292046Y-108096210D01*
X125234709Y-107510835D02*
X125212521Y-107574244D01*
X151995040Y-116719080D02*
X151995040Y-111613240D01*
X123405000Y-107641000D02*
X123397478Y-107574244D01*
X124670450Y-108048707D02*
X124634709Y-107991826D01*
X125775290Y-107510835D02*
X125739549Y-107453954D01*
X124612521Y-107928417D02*
X124605000Y-107861660D01*
X126517953Y-107406451D02*
X126470450Y-107453954D01*
X123105000Y-107341000D02*
X100284200Y-107341000D01*
X124575290Y-107510835D02*
X124539549Y-107453954D01*
X126574834Y-107370710D02*
X126517953Y-107406451D01*
X124605000Y-107641000D02*
X124597478Y-107574244D01*
X126412521Y-107574244D02*
X126405000Y-107641000D01*
X123470450Y-108048707D02*
X123434709Y-107991826D01*
X126405000Y-107641000D02*
X126405000Y-107861660D01*
X125317953Y-107406451D02*
X125270450Y-107453954D01*
X124838243Y-108154139D02*
X124774834Y-108131951D01*
X125812521Y-107928417D02*
X125805000Y-107861660D01*
X95750000Y-109600000D02*
X95300000Y-109600000D01*
X123574834Y-108131951D02*
X123517953Y-108096210D01*
X124034709Y-107510835D02*
X124012521Y-107574244D01*
X126405000Y-107861660D02*
X126397478Y-107928417D01*
X126705000Y-107341000D02*
X126638243Y-107348522D01*
X126397478Y-107928417D02*
X126375290Y-107991826D01*
X125197478Y-107928417D02*
X125175290Y-107991826D01*
X126375290Y-107991826D02*
X126339549Y-108048707D01*
X125205000Y-107641000D02*
X125205000Y-107861660D01*
X123397478Y-107574244D02*
X123375290Y-107510835D01*
X125374834Y-107370710D02*
X125317953Y-107406451D01*
X124597478Y-107574244D02*
X124575290Y-107510835D01*
X125212521Y-107574244D02*
X125205000Y-107641000D01*
X125175290Y-107991826D02*
X125139549Y-108048707D01*
X125139549Y-108048707D02*
X125092046Y-108096210D01*
X125035165Y-108131951D02*
X124971756Y-108154139D01*
X124774834Y-108131951D02*
X124717953Y-108096210D01*
X123339549Y-107453954D02*
X123292046Y-107406451D01*
X124634709Y-107991826D02*
X124612521Y-107928417D01*
X124605000Y-107861660D02*
X124605000Y-107641000D01*
X98025200Y-109600000D02*
X95750000Y-109600000D01*
X124492046Y-107406451D02*
X124435165Y-107370710D01*
X124435165Y-107370710D02*
X124371756Y-107348522D01*
X124371756Y-107348522D02*
X124305000Y-107341000D01*
X124305000Y-107341000D02*
X124238243Y-107348522D01*
X124238243Y-107348522D02*
X124174834Y-107370710D01*
X124174834Y-107370710D02*
X124117953Y-107406451D01*
X124070450Y-107453954D02*
X124034709Y-107510835D01*
X124012521Y-107574244D02*
X124005000Y-107641000D01*
X124005000Y-107641000D02*
X124005000Y-107861660D01*
X123975290Y-107991826D02*
X123939549Y-108048707D01*
X123939549Y-108048707D02*
X123892046Y-108096210D01*
X123892046Y-108096210D02*
X123835165Y-108131951D01*
X123835165Y-108131951D02*
X123771756Y-108154139D01*
X143500000Y-117000000D02*
X142725000Y-116225000D01*
X142725000Y-116225000D02*
X142725000Y-110596800D01*
X142725000Y-110596800D02*
X142725000Y-109645000D01*
X142725000Y-109645000D02*
X141720000Y-108640000D01*
X142275000Y-116225000D02*
X142275000Y-110783200D01*
X141500000Y-117000000D02*
X142275000Y-116225000D01*
X142275000Y-110783200D02*
X142275000Y-110465000D01*
X142275000Y-110465000D02*
X140450000Y-108640000D01*
X121429989Y-96809989D02*
X96090011Y-96809989D01*
X121737510Y-96154705D02*
X121729989Y-96221462D01*
X121759698Y-96091296D02*
X121737510Y-96154705D01*
X121795439Y-96034415D02*
X121759698Y-96091296D01*
X121842942Y-95986912D02*
X121795439Y-96034415D01*
X121963232Y-95928983D02*
X121899823Y-95951171D01*
X122029989Y-95921462D02*
X121963232Y-95928983D01*
X122395439Y-96697035D02*
X122359698Y-96640154D01*
X122442942Y-96744538D02*
X122395439Y-96697035D01*
X122499823Y-96780279D02*
X122442942Y-96744538D01*
X122563232Y-96802467D02*
X122499823Y-96780279D01*
X122629989Y-96809989D02*
X122563232Y-96802467D01*
X122696745Y-96802467D02*
X122629989Y-96809989D01*
X122760154Y-96780279D02*
X122696745Y-96802467D01*
X122817035Y-96744538D02*
X122760154Y-96780279D01*
X122864538Y-96697035D02*
X122817035Y-96744538D01*
X122900279Y-96640154D02*
X122864538Y-96697035D01*
X122922467Y-96576745D02*
X122900279Y-96640154D01*
X122929989Y-96509989D02*
X122922467Y-96576745D01*
X122929989Y-96221462D02*
X122929989Y-96509989D01*
X122937510Y-96154705D02*
X122929989Y-96221462D01*
X122959698Y-96091296D02*
X122937510Y-96154705D01*
X122995439Y-96034415D02*
X122959698Y-96091296D01*
X123042942Y-95986912D02*
X122995439Y-96034415D01*
X123099823Y-95951171D02*
X123042942Y-95986912D01*
X123464538Y-96034415D02*
X123417035Y-95986912D01*
X121617035Y-96744538D02*
X121560154Y-96780279D01*
X123500279Y-96091296D02*
X123464538Y-96034415D01*
X123529989Y-96509989D02*
X123529989Y-96221462D01*
X121664538Y-96697035D02*
X121617035Y-96744538D01*
X123559698Y-96640154D02*
X123537510Y-96576745D01*
X95974999Y-96925001D02*
X95300000Y-97600000D01*
X123699823Y-96780279D02*
X123642942Y-96744538D01*
X121722467Y-96576745D02*
X121700279Y-96640154D01*
X123763232Y-96802467D02*
X123699823Y-96780279D01*
X121729989Y-96221462D02*
X121729989Y-96509989D01*
X123896745Y-96802467D02*
X123829989Y-96809989D01*
X123960154Y-96780279D02*
X123896745Y-96802467D01*
X96090011Y-96809989D02*
X95974999Y-96925001D01*
X124017035Y-96744538D02*
X123960154Y-96780279D01*
X124100279Y-96640154D02*
X124064538Y-96697035D01*
X121729989Y-96509989D02*
X121722467Y-96576745D01*
X124122467Y-96576745D02*
X124100279Y-96640154D01*
X124137510Y-96154705D02*
X124129989Y-96221462D01*
X122322467Y-96154705D02*
X122300279Y-96091296D01*
X124159698Y-96091296D02*
X124137510Y-96154705D01*
X124299823Y-95951171D02*
X124242942Y-95986912D01*
X123360154Y-95951171D02*
X123296745Y-95928983D01*
X126360154Y-96780279D02*
X126296745Y-96802467D01*
X126417035Y-96744538D02*
X126360154Y-96780279D01*
X124722467Y-96154705D02*
X124700279Y-96091296D01*
X122359698Y-96640154D02*
X122337510Y-96576745D01*
X126522467Y-96576745D02*
X126500279Y-96640154D01*
X125329989Y-96509989D02*
X125322467Y-96576745D01*
X126229989Y-96809989D02*
X126163232Y-96802467D01*
X126163232Y-96802467D02*
X126099823Y-96780279D01*
X125760154Y-95951171D02*
X125696745Y-95928983D01*
X123595439Y-96697035D02*
X123559698Y-96640154D01*
X126529989Y-96221462D02*
X126529989Y-96509989D01*
X124795439Y-96697035D02*
X124759698Y-96640154D01*
X126500279Y-96640154D02*
X126464538Y-96697035D01*
X121496745Y-96802467D02*
X121429989Y-96809989D01*
X125217035Y-96744538D02*
X125160154Y-96780279D01*
X122300279Y-96091296D02*
X122264538Y-96034415D01*
X124064538Y-96697035D02*
X124017035Y-96744538D01*
X126559698Y-96091296D02*
X126537510Y-96154705D01*
X123417035Y-95986912D02*
X123360154Y-95951171D01*
X126642942Y-95986912D02*
X126595439Y-96034415D01*
X126464538Y-96697035D02*
X126417035Y-96744538D01*
X123829989Y-96809989D02*
X123763232Y-96802467D01*
X126699823Y-95951171D02*
X126642942Y-95986912D01*
X126099823Y-96780279D02*
X126042942Y-96744538D01*
X125499823Y-95951171D02*
X125442942Y-95986912D01*
X123642942Y-96744538D02*
X123595439Y-96697035D01*
X126763232Y-95928983D02*
X126699823Y-95951171D01*
X121899823Y-95951171D02*
X121842942Y-95986912D01*
X124363232Y-95928983D02*
X124299823Y-95951171D01*
X126960154Y-95951171D02*
X126896745Y-95928983D01*
X127299823Y-96780279D02*
X127242942Y-96744538D01*
X125442942Y-95986912D02*
X125395439Y-96034415D01*
X124242942Y-95986912D02*
X124195439Y-96034415D01*
X129254989Y-96809989D02*
X127429989Y-96809989D01*
X124195439Y-96034415D02*
X124159698Y-96091296D01*
X134213982Y-100906018D02*
X133351018Y-100906018D01*
X127159698Y-96640154D02*
X127137510Y-96576745D01*
X126829989Y-95921462D02*
X126763232Y-95928983D01*
X125322467Y-96576745D02*
X125300279Y-96640154D01*
X124129989Y-96221462D02*
X124129989Y-96509989D01*
X133351018Y-100906018D02*
X129254989Y-96809989D01*
X127363232Y-96802467D02*
X127299823Y-96780279D01*
X121560154Y-96780279D02*
X121496745Y-96802467D01*
X125563232Y-95928983D02*
X125499823Y-95951171D01*
X126296745Y-96802467D02*
X126229989Y-96809989D01*
X125160154Y-96780279D02*
X125096745Y-96802467D01*
X123522467Y-96154705D02*
X123500279Y-96091296D01*
X126896745Y-95928983D02*
X126829989Y-95921462D01*
X127195439Y-96697035D02*
X127159698Y-96640154D01*
X124737510Y-96576745D02*
X124729989Y-96509989D01*
X122329989Y-96509989D02*
X122329989Y-96221462D01*
X124700279Y-96091296D02*
X124664538Y-96034415D01*
X127137510Y-96576745D02*
X127129989Y-96509989D01*
X126595439Y-96034415D02*
X126559698Y-96091296D01*
X124496745Y-95928983D02*
X124429989Y-95921462D01*
X122337510Y-96576745D02*
X122329989Y-96509989D01*
X123163232Y-95928983D02*
X123099823Y-95951171D01*
X127129989Y-96509989D02*
X127129989Y-96221462D01*
X127017035Y-95986912D02*
X126960154Y-95951171D01*
X124729989Y-96509989D02*
X124729989Y-96221462D01*
X122264538Y-96034415D02*
X122217035Y-95986912D01*
X124129989Y-96509989D02*
X124122467Y-96576745D01*
X127129989Y-96221462D02*
X127122467Y-96154705D01*
X123529989Y-96221462D02*
X123522467Y-96154705D01*
X127064538Y-96034415D02*
X127017035Y-95986912D01*
X124963232Y-96802467D02*
X124899823Y-96780279D01*
X126042942Y-96744538D02*
X125995439Y-96697035D01*
X125264538Y-96697035D02*
X125217035Y-96744538D01*
X125995439Y-96697035D02*
X125959698Y-96640154D01*
X121700279Y-96640154D02*
X121664538Y-96697035D01*
X124759698Y-96640154D02*
X124737510Y-96576745D01*
X125959698Y-96640154D02*
X125937510Y-96576745D01*
X125395439Y-96034415D02*
X125359698Y-96091296D01*
X125937510Y-96576745D02*
X125929989Y-96509989D01*
X123296745Y-95928983D02*
X123229989Y-95921462D01*
X125929989Y-96509989D02*
X125929989Y-96221462D01*
X123229989Y-95921462D02*
X123163232Y-95928983D01*
X125929989Y-96221462D02*
X125922467Y-96154705D01*
X123537510Y-96576745D02*
X123529989Y-96509989D01*
X125922467Y-96154705D02*
X125900279Y-96091296D01*
X125629989Y-95921462D02*
X125563232Y-95928983D01*
X125864538Y-96034415D02*
X125817035Y-95986912D01*
X124429989Y-95921462D02*
X124363232Y-95928983D01*
X125817035Y-95986912D02*
X125760154Y-95951171D01*
X122217035Y-95986912D02*
X122160154Y-95951171D01*
X125900279Y-96091296D02*
X125864538Y-96034415D01*
X125337510Y-96154705D02*
X125329989Y-96221462D01*
X125696745Y-95928983D02*
X125629989Y-95921462D01*
X125359698Y-96091296D02*
X125337510Y-96154705D01*
X125329989Y-96221462D02*
X125329989Y-96509989D01*
X122160154Y-95951171D02*
X122096745Y-95928983D01*
X127429989Y-96809989D02*
X127363232Y-96802467D01*
X125300279Y-96640154D02*
X125264538Y-96697035D01*
X126529989Y-96509989D02*
X126522467Y-96576745D01*
X125096745Y-96802467D02*
X125029989Y-96809989D01*
X126537510Y-96154705D02*
X126529989Y-96221462D01*
X125029989Y-96809989D02*
X124963232Y-96802467D01*
X122329989Y-96221462D02*
X122322467Y-96154705D01*
X127242942Y-96744538D02*
X127195439Y-96697035D01*
X124899823Y-96780279D02*
X124842942Y-96744538D01*
X124842942Y-96744538D02*
X124795439Y-96697035D01*
X127122467Y-96154705D02*
X127100279Y-96091296D01*
X124729989Y-96221462D02*
X124722467Y-96154705D01*
X122096745Y-95928983D02*
X122029989Y-95921462D01*
X124664538Y-96034415D02*
X124617035Y-95986912D01*
X127100279Y-96091296D02*
X127064538Y-96034415D01*
X124617035Y-95986912D02*
X124560154Y-95951171D01*
X124560154Y-95951171D02*
X124496745Y-95928983D01*
X136865000Y-108865000D02*
X136640000Y-108640000D01*
X136865000Y-118449300D02*
X136865000Y-108865000D01*
X138545700Y-120130000D02*
X136865000Y-118449300D01*
X141500000Y-119000000D02*
X140370000Y-120130000D01*
X140370000Y-120130000D02*
X138545700Y-120130000D01*
X94275001Y-98018003D02*
X94275001Y-96624999D01*
X94831999Y-98575001D02*
X94275001Y-98018003D01*
X97133002Y-97210000D02*
X95768001Y-98575001D01*
X94275001Y-96624999D02*
X94625001Y-96274999D01*
X94625001Y-96274999D02*
X95300000Y-95600000D01*
X95768001Y-98575001D02*
X94831999Y-98575001D01*
X134100000Y-102290000D02*
X129020000Y-97210000D01*
X129020000Y-97210000D02*
X97133002Y-97210000D01*
X135769999Y-109039999D02*
X135370000Y-108640000D01*
X136464989Y-118614989D02*
X136464989Y-109734989D01*
X138380011Y-120530011D02*
X136464989Y-118614989D01*
X141969989Y-120530011D02*
X138380011Y-120530011D01*
X143500000Y-119000000D02*
X141969989Y-120530011D01*
X136464989Y-109734989D02*
X135769999Y-109039999D01*
X182125001Y-100125001D02*
X182800000Y-100800000D01*
X181775001Y-99775001D02*
X182125001Y-100125001D01*
X159525001Y-99775001D02*
X181775001Y-99775001D01*
X124300000Y-74000000D02*
X133750000Y-74000000D01*
X133750000Y-74000000D02*
X159525001Y-99775001D01*
X182125001Y-102125001D02*
X182800000Y-102800000D01*
X181824999Y-101824999D02*
X182125001Y-102125001D01*
X149340000Y-93400000D02*
X157764999Y-101824999D01*
X157764999Y-101824999D02*
X181824999Y-101824999D01*
X123920000Y-75620000D02*
X131560000Y-75620000D01*
X122300000Y-74000000D02*
X123920000Y-75620000D01*
X131560000Y-75620000D02*
X141700000Y-85760000D01*
X141700000Y-85760000D02*
X141700000Y-85780000D01*
X141700000Y-85780000D02*
X149320000Y-93400000D01*
X149320000Y-93400000D02*
X149340000Y-93400000D01*
X175145001Y-107775001D02*
X181824999Y-107775001D01*
X118300000Y-74000000D02*
X118300000Y-75060000D01*
X118300000Y-75060000D02*
X121400000Y-78160000D01*
X182125001Y-107474999D02*
X182800000Y-106800000D01*
X121400000Y-78160000D02*
X131560000Y-78160000D01*
X131560000Y-78160000D02*
X158230000Y-104830000D01*
X158230000Y-104830000D02*
X172200000Y-104830000D01*
X181824999Y-107775001D02*
X182125001Y-107474999D01*
X172200000Y-104830000D02*
X175145001Y-107775001D01*
X116300000Y-74000000D02*
X116300000Y-75600000D01*
X116300000Y-75600000D02*
X121400000Y-80700000D01*
X121400000Y-80700000D02*
X131560000Y-80700000D01*
X131560000Y-80700000D02*
X158230000Y-107370000D01*
X158230000Y-107370000D02*
X172200000Y-107370000D01*
X182125001Y-109474999D02*
X182800000Y-108800000D01*
X181775001Y-109824999D02*
X182125001Y-109474999D01*
X174654999Y-109824999D02*
X181775001Y-109824999D01*
X172200000Y-107370000D02*
X174654999Y-109824999D01*
M02*
