M48
; DRILL file {KiCad (5.1.2)-1} date 6/5/2019 8:45:43 PM
; FORMAT={-:-/ absolute / inch / decimal}
; #@! TF.CreationDate,2019-06-05T20:45:43-04:00
; #@! TF.GenerationSoftware,Kicad,Pcbnew,(5.1.2)-1
; #@! TF.FileFunction,Plated,1,8,PTH
FMAT,2
INCH
T1C0.0157
T2C0.0315
%
G90
G05
T1
X4.924Y-3.9213
X4.9697Y-3.9606
X5.2795Y-4.0272
X5.284Y-3.9727
X5.3295Y-4.2772
X5.3795Y-4.2772
X5.5295Y-4.2772
X5.5795Y-4.2772
T2
X3.6732Y-2.8189
X3.6732Y-2.8976
X3.6732Y-2.9764
X3.6732Y-3.0551
X3.6732Y-3.1339
X3.6732Y-3.2126
X3.6732Y-3.2913
X3.6732Y-3.3701
X3.6732Y-3.4488
X3.6732Y-3.5276
X3.6732Y-3.6063
X3.6732Y-3.685
X3.6732Y-3.7638
X3.6732Y-3.8425
X3.6732Y-3.9213
X3.6732Y-4.0
X3.6732Y-4.0787
X3.6732Y-4.1575
X3.6732Y-4.2362
X3.6732Y-4.315
X3.6732Y-4.3937
X3.6732Y-4.4724
X3.6732Y-4.5512
X3.6732Y-4.6299
X3.6732Y-4.7087
X3.752Y-2.8189
X3.752Y-2.8976
X3.752Y-2.9764
X3.752Y-3.0551
X3.752Y-3.1339
X3.752Y-3.2126
X3.752Y-3.2913
X3.752Y-3.3701
X3.752Y-3.4488
X3.752Y-3.5276
X3.752Y-3.6063
X3.752Y-3.685
X3.752Y-3.7638
X3.752Y-3.8425
X3.752Y-3.9213
X3.752Y-4.0
X3.752Y-4.0787
X3.752Y-4.1575
X3.752Y-4.2362
X3.752Y-4.315
X3.752Y-4.3937
X3.752Y-4.4724
X3.752Y-4.5512
X3.752Y-4.6299
X3.752Y-4.7087
X4.1732Y-4.6063
X4.1732Y-4.685
X4.252Y-4.6063
X4.252Y-4.685
X4.3307Y-4.6063
X4.3307Y-4.685
X5.4921Y-4.6063
X5.4921Y-4.685
X5.5709Y-4.6063
X5.5709Y-4.685
X5.6496Y-4.6063
X5.6496Y-4.685
X5.7283Y-4.6063
X5.7283Y-4.685
X5.9882Y-2.8346
X5.9882Y-2.9134
X6.0669Y-2.8346
X6.0669Y-2.9134
X6.1457Y-2.8346
X6.1457Y-2.9134
X6.2244Y-2.8346
X6.2244Y-2.9134
X6.3031Y-2.8346
X6.3031Y-2.9134
X6.3819Y-2.8346
X6.3819Y-2.9134
X6.4606Y-2.8346
X6.4606Y-2.9134
X6.5394Y-2.8346
X6.5394Y-2.9134
X6.6181Y-2.8346
X6.6181Y-2.9134
X6.6969Y-2.8346
X6.6969Y-2.9134
X4.5079Y-4.6063
X4.5079Y-4.685
X4.5866Y-4.6063
X4.5866Y-4.685
X4.6654Y-4.6063
X4.6654Y-4.685
X4.7441Y-4.6063
X4.7441Y-4.685
X4.8228Y-4.6063
X4.8228Y-4.685
X5.9535Y-4.6258
X5.9535Y-4.7045
X6.0323Y-4.6258
X6.0323Y-4.7045
X6.111Y-4.6258
X6.111Y-4.7045
X6.1898Y-4.6258
X6.1898Y-4.7045
X6.2685Y-4.6258
X6.2685Y-4.7045
X6.3472Y-4.6258
X6.3472Y-4.7045
X6.426Y-4.6258
X6.426Y-4.7045
X6.5047Y-4.6258
X6.5047Y-4.7045
X6.5835Y-4.6258
X6.5835Y-4.7045
X6.6622Y-4.6258
X6.6622Y-4.7045
X4.1457Y-2.8346
X4.1457Y-2.9134
X4.2244Y-2.8346
X4.2244Y-2.9134
X4.3031Y-2.8346
X4.3031Y-2.9134
X4.3819Y-2.8346
X4.3819Y-2.9134
X4.5787Y-2.8346
X4.5787Y-2.9134
X4.6575Y-2.8346
X4.6575Y-2.9134
X4.7362Y-2.8346
X4.7362Y-2.9134
X4.815Y-2.8346
X4.815Y-2.9134
X4.8937Y-2.8346
X4.8937Y-2.9134
X5.0Y-4.6063
X5.0Y-4.685
X5.0787Y-4.6063
X5.0787Y-4.685
X5.1575Y-4.6063
X5.1575Y-4.685
X5.2362Y-4.6063
X5.2362Y-4.685
X5.315Y-4.6063
X5.315Y-4.685
X7.1181Y-2.7874
X7.1181Y-2.8661
X7.1181Y-2.9449
X7.1181Y-3.0236
X7.1181Y-3.1024
X7.1181Y-3.1811
X7.1181Y-3.2598
X7.1181Y-3.3386
X7.1181Y-3.4173
X7.1181Y-3.4961
X7.1181Y-3.5748
X7.1181Y-3.6535
X7.1181Y-3.7323
X7.1181Y-3.811
X7.1181Y-3.8898
X7.1181Y-3.9685
X7.1181Y-4.0472
X7.1181Y-4.126
X7.1181Y-4.2047
X7.1181Y-4.2835
X7.1181Y-4.3622
X7.1181Y-4.4409
X7.1181Y-4.5197
X7.1181Y-4.5984
X7.1181Y-4.6772
X7.1969Y-2.7874
X7.1969Y-2.8661
X7.1969Y-2.9449
X7.1969Y-3.0236
X7.1969Y-3.1024
X7.1969Y-3.1811
X7.1969Y-3.2598
X7.1969Y-3.3386
X7.1969Y-3.4173
X7.1969Y-3.4961
X7.1969Y-3.5748
X7.1969Y-3.6535
X7.1969Y-3.7323
X7.1969Y-3.811
X7.1969Y-3.8898
X7.1969Y-3.9685
X7.1969Y-4.0472
X7.1969Y-4.126
X7.1969Y-4.2047
X7.1969Y-4.2835
X7.1969Y-4.3622
X7.1969Y-4.4409
X7.1969Y-4.5197
X7.1969Y-4.5984
X7.1969Y-4.6772
T0
M30
