%FSLAX45Y45*%
G04 Gerber Fmt 4.5, Leading zero omitted, Abs format (unit mm)*
G04 Created by KiCad (PCBNEW (5.1.2)-1) date 2019-06-05 20:45:45*
%MOMM*%
%LPD*%
G04 APERTURE LIST*
%ADD10C,0.150000*%
%ADD11C,0.200000*%
%ADD12C,0.300000*%
G04 APERTURE END LIST*
D10*
X18500000Y-6800000D02*
X9100000Y-6800000D01*
X18500000Y-12350000D02*
X18500000Y-6800000D01*
X9100000Y-12350000D02*
X18500000Y-12350000D01*
X9100000Y-6800000D02*
X9100000Y-12350000D01*
D11*
X17465000Y-7065000D02*
X17735000Y-7335000D01*
X17735000Y-7065000D02*
X17465000Y-7335000D01*
X9865000Y-11765000D02*
X10135000Y-12035000D01*
X10135000Y-11765000D02*
X9865000Y-12035000D01*
X17465000Y-11765000D02*
X17735000Y-12035000D01*
X17735000Y-11765000D02*
X17465000Y-12035000D01*
X9865000Y-7065000D02*
X10135000Y-7335000D01*
X10135000Y-7065000D02*
X9865000Y-7335000D01*
D12*
X9378928Y-12823214D02*
X9378928Y-12523214D01*
X9450357Y-12523214D01*
X9493214Y-12537500D01*
X9521786Y-12566071D01*
X9536071Y-12594643D01*
X9550357Y-12651786D01*
X9550357Y-12694643D01*
X9536071Y-12751786D01*
X9521786Y-12780357D01*
X9493214Y-12808929D01*
X9450357Y-12823214D01*
X9378928Y-12823214D01*
X9678928Y-12823214D02*
X9678928Y-12623214D01*
X9678928Y-12680357D02*
X9693214Y-12651786D01*
X9707500Y-12637500D01*
X9736071Y-12623214D01*
X9764643Y-12623214D01*
X9864643Y-12823214D02*
X9864643Y-12623214D01*
X9864643Y-12523214D02*
X9850357Y-12537500D01*
X9864643Y-12551786D01*
X9878928Y-12537500D01*
X9864643Y-12523214D01*
X9864643Y-12551786D01*
X10050357Y-12823214D02*
X10021786Y-12808929D01*
X10007500Y-12780357D01*
X10007500Y-12523214D01*
X10207500Y-12823214D02*
X10178928Y-12808929D01*
X10164643Y-12780357D01*
X10164643Y-12523214D01*
X10550357Y-12823214D02*
X10550357Y-12523214D01*
X10650357Y-12737500D01*
X10750357Y-12523214D01*
X10750357Y-12823214D01*
X11021786Y-12823214D02*
X11021786Y-12666071D01*
X11007500Y-12637500D01*
X10978928Y-12623214D01*
X10921786Y-12623214D01*
X10893214Y-12637500D01*
X11021786Y-12808929D02*
X10993214Y-12823214D01*
X10921786Y-12823214D01*
X10893214Y-12808929D01*
X10878928Y-12780357D01*
X10878928Y-12751786D01*
X10893214Y-12723214D01*
X10921786Y-12708929D01*
X10993214Y-12708929D01*
X11021786Y-12694643D01*
X11164643Y-12623214D02*
X11164643Y-12923214D01*
X11164643Y-12637500D02*
X11193214Y-12623214D01*
X11250357Y-12623214D01*
X11278928Y-12637500D01*
X11293214Y-12651786D01*
X11307500Y-12680357D01*
X11307500Y-12766071D01*
X11293214Y-12794643D01*
X11278928Y-12808929D01*
X11250357Y-12823214D01*
X11193214Y-12823214D01*
X11164643Y-12808929D01*
X11436071Y-12794643D02*
X11450357Y-12808929D01*
X11436071Y-12823214D01*
X11421786Y-12808929D01*
X11436071Y-12794643D01*
X11436071Y-12823214D01*
X11436071Y-12637500D02*
X11450357Y-12651786D01*
X11436071Y-12666071D01*
X11421786Y-12651786D01*
X11436071Y-12637500D01*
X11436071Y-12666071D01*
X8822500Y-13182500D02*
X9092500Y-13452500D01*
X9092500Y-13182500D02*
X8822500Y-13452500D01*
X9364643Y-13181786D02*
X9378928Y-13167500D01*
X9407500Y-13153214D01*
X9478928Y-13153214D01*
X9507500Y-13167500D01*
X9521786Y-13181786D01*
X9536071Y-13210357D01*
X9536071Y-13238929D01*
X9521786Y-13281786D01*
X9350357Y-13453214D01*
X9536071Y-13453214D01*
X9664643Y-13424643D02*
X9678928Y-13438929D01*
X9664643Y-13453214D01*
X9650357Y-13438929D01*
X9664643Y-13424643D01*
X9664643Y-13453214D01*
X9778928Y-13153214D02*
X9978928Y-13153214D01*
X9850357Y-13453214D01*
X10150357Y-13153214D02*
X10178928Y-13153214D01*
X10207500Y-13167500D01*
X10221786Y-13181786D01*
X10236071Y-13210357D01*
X10250357Y-13267500D01*
X10250357Y-13338929D01*
X10236071Y-13396071D01*
X10221786Y-13424643D01*
X10207500Y-13438929D01*
X10178928Y-13453214D01*
X10150357Y-13453214D01*
X10121786Y-13438929D01*
X10107500Y-13424643D01*
X10093214Y-13396071D01*
X10078928Y-13338929D01*
X10078928Y-13267500D01*
X10093214Y-13210357D01*
X10107500Y-13181786D01*
X10121786Y-13167500D01*
X10150357Y-13153214D01*
X10378928Y-13453214D02*
X10378928Y-13253214D01*
X10378928Y-13281786D02*
X10393214Y-13267500D01*
X10421786Y-13253214D01*
X10464643Y-13253214D01*
X10493214Y-13267500D01*
X10507500Y-13296071D01*
X10507500Y-13453214D01*
X10507500Y-13296071D02*
X10521786Y-13267500D01*
X10550357Y-13253214D01*
X10593214Y-13253214D01*
X10621786Y-13267500D01*
X10636071Y-13296071D01*
X10636071Y-13453214D01*
X10778928Y-13453214D02*
X10778928Y-13253214D01*
X10778928Y-13281786D02*
X10793214Y-13267500D01*
X10821786Y-13253214D01*
X10864643Y-13253214D01*
X10893214Y-13267500D01*
X10907500Y-13296071D01*
X10907500Y-13453214D01*
X10907500Y-13296071D02*
X10921786Y-13267500D01*
X10950357Y-13253214D01*
X10993214Y-13253214D01*
X11021786Y-13267500D01*
X11036071Y-13296071D01*
X11036071Y-13453214D01*
X11621786Y-13138929D02*
X11364643Y-13524643D01*
X12007500Y-13153214D02*
X12036071Y-13153214D01*
X12064643Y-13167500D01*
X12078928Y-13181786D01*
X12093214Y-13210357D01*
X12107500Y-13267500D01*
X12107500Y-13338929D01*
X12093214Y-13396071D01*
X12078928Y-13424643D01*
X12064643Y-13438929D01*
X12036071Y-13453214D01*
X12007500Y-13453214D01*
X11978928Y-13438929D01*
X11964643Y-13424643D01*
X11950357Y-13396071D01*
X11936071Y-13338929D01*
X11936071Y-13267500D01*
X11950357Y-13210357D01*
X11964643Y-13181786D01*
X11978928Y-13167500D01*
X12007500Y-13153214D01*
X12236071Y-13424643D02*
X12250357Y-13438929D01*
X12236071Y-13453214D01*
X12221786Y-13438929D01*
X12236071Y-13424643D01*
X12236071Y-13453214D01*
X12536071Y-13453214D02*
X12364643Y-13453214D01*
X12450357Y-13453214D02*
X12450357Y-13153214D01*
X12421786Y-13196071D01*
X12393214Y-13224643D01*
X12364643Y-13238929D01*
X12721786Y-13153214D02*
X12750357Y-13153214D01*
X12778928Y-13167500D01*
X12793214Y-13181786D01*
X12807500Y-13210357D01*
X12821786Y-13267500D01*
X12821786Y-13338929D01*
X12807500Y-13396071D01*
X12793214Y-13424643D01*
X12778928Y-13438929D01*
X12750357Y-13453214D01*
X12721786Y-13453214D01*
X12693214Y-13438929D01*
X12678928Y-13424643D01*
X12664643Y-13396071D01*
X12650357Y-13338929D01*
X12650357Y-13267500D01*
X12664643Y-13210357D01*
X12678928Y-13181786D01*
X12693214Y-13167500D01*
X12721786Y-13153214D01*
X13078928Y-13153214D02*
X13021786Y-13153214D01*
X12993214Y-13167500D01*
X12978928Y-13181786D01*
X12950357Y-13224643D01*
X12936071Y-13281786D01*
X12936071Y-13396071D01*
X12950357Y-13424643D01*
X12964643Y-13438929D01*
X12993214Y-13453214D01*
X13050357Y-13453214D01*
X13078928Y-13438929D01*
X13093214Y-13424643D01*
X13107500Y-13396071D01*
X13107500Y-13324643D01*
X13093214Y-13296071D01*
X13078928Y-13281786D01*
X13050357Y-13267500D01*
X12993214Y-13267500D01*
X12964643Y-13281786D01*
X12950357Y-13296071D01*
X12936071Y-13324643D01*
X13221786Y-13153214D02*
X13221786Y-13210357D01*
X13336071Y-13153214D02*
X13336071Y-13210357D01*
X13778928Y-13567500D02*
X13764643Y-13553214D01*
X13736071Y-13510357D01*
X13721786Y-13481786D01*
X13707500Y-13438929D01*
X13693214Y-13367500D01*
X13693214Y-13310357D01*
X13707500Y-13238929D01*
X13721786Y-13196071D01*
X13736071Y-13167500D01*
X13764643Y-13124643D01*
X13778928Y-13110357D01*
X14021786Y-13253214D02*
X14021786Y-13453214D01*
X13950357Y-13138929D02*
X13878928Y-13353214D01*
X14064643Y-13353214D01*
X14407500Y-13453214D02*
X14407500Y-13153214D01*
X14536071Y-13453214D02*
X14536071Y-13296071D01*
X14521786Y-13267500D01*
X14493214Y-13253214D01*
X14450357Y-13253214D01*
X14421786Y-13267500D01*
X14407500Y-13281786D01*
X14721786Y-13453214D02*
X14693214Y-13438929D01*
X14678928Y-13424643D01*
X14664643Y-13396071D01*
X14664643Y-13310357D01*
X14678928Y-13281786D01*
X14693214Y-13267500D01*
X14721786Y-13253214D01*
X14764643Y-13253214D01*
X14793214Y-13267500D01*
X14807500Y-13281786D01*
X14821786Y-13310357D01*
X14821786Y-13396071D01*
X14807500Y-13424643D01*
X14793214Y-13438929D01*
X14764643Y-13453214D01*
X14721786Y-13453214D01*
X14993214Y-13453214D02*
X14964643Y-13438929D01*
X14950357Y-13410357D01*
X14950357Y-13153214D01*
X15221786Y-13438929D02*
X15193214Y-13453214D01*
X15136071Y-13453214D01*
X15107500Y-13438929D01*
X15093214Y-13410357D01*
X15093214Y-13296071D01*
X15107500Y-13267500D01*
X15136071Y-13253214D01*
X15193214Y-13253214D01*
X15221786Y-13267500D01*
X15236071Y-13296071D01*
X15236071Y-13324643D01*
X15093214Y-13353214D01*
X15350357Y-13438929D02*
X15378928Y-13453214D01*
X15436071Y-13453214D01*
X15464643Y-13438929D01*
X15478928Y-13410357D01*
X15478928Y-13396071D01*
X15464643Y-13367500D01*
X15436071Y-13353214D01*
X15393214Y-13353214D01*
X15364643Y-13338929D01*
X15350357Y-13310357D01*
X15350357Y-13296071D01*
X15364643Y-13267500D01*
X15393214Y-13253214D01*
X15436071Y-13253214D01*
X15464643Y-13267500D01*
X15578928Y-13567500D02*
X15593214Y-13553214D01*
X15621786Y-13510357D01*
X15636071Y-13481786D01*
X15650357Y-13438929D01*
X15664643Y-13367500D01*
X15664643Y-13310357D01*
X15650357Y-13238929D01*
X15636071Y-13196071D01*
X15621786Y-13167500D01*
X15593214Y-13124643D01*
X15578928Y-13110357D01*
X16121786Y-13567500D02*
X16107500Y-13553214D01*
X16078928Y-13510357D01*
X16064643Y-13481786D01*
X16050357Y-13438929D01*
X16036071Y-13367500D01*
X16036071Y-13310357D01*
X16050357Y-13238929D01*
X16064643Y-13196071D01*
X16078928Y-13167500D01*
X16107500Y-13124643D01*
X16121786Y-13110357D01*
X16236071Y-13253214D02*
X16236071Y-13453214D01*
X16236071Y-13281786D02*
X16250357Y-13267500D01*
X16278928Y-13253214D01*
X16321786Y-13253214D01*
X16350357Y-13267500D01*
X16364643Y-13296071D01*
X16364643Y-13453214D01*
X16550357Y-13453214D02*
X16521786Y-13438929D01*
X16507500Y-13424643D01*
X16493214Y-13396071D01*
X16493214Y-13310357D01*
X16507500Y-13281786D01*
X16521786Y-13267500D01*
X16550357Y-13253214D01*
X16593214Y-13253214D01*
X16621786Y-13267500D01*
X16636071Y-13281786D01*
X16650357Y-13310357D01*
X16650357Y-13396071D01*
X16636071Y-13424643D01*
X16621786Y-13438929D01*
X16593214Y-13453214D01*
X16550357Y-13453214D01*
X16736071Y-13253214D02*
X16850357Y-13253214D01*
X16778928Y-13153214D02*
X16778928Y-13410357D01*
X16793214Y-13438929D01*
X16821786Y-13453214D01*
X16850357Y-13453214D01*
X17178928Y-13253214D02*
X17178928Y-13553214D01*
X17178928Y-13267500D02*
X17207500Y-13253214D01*
X17264643Y-13253214D01*
X17293214Y-13267500D01*
X17307500Y-13281786D01*
X17321786Y-13310357D01*
X17321786Y-13396071D01*
X17307500Y-13424643D01*
X17293214Y-13438929D01*
X17264643Y-13453214D01*
X17207500Y-13453214D01*
X17178928Y-13438929D01*
X17493214Y-13453214D02*
X17464643Y-13438929D01*
X17450357Y-13410357D01*
X17450357Y-13153214D01*
X17736071Y-13453214D02*
X17736071Y-13296071D01*
X17721786Y-13267500D01*
X17693214Y-13253214D01*
X17636071Y-13253214D01*
X17607500Y-13267500D01*
X17736071Y-13438929D02*
X17707500Y-13453214D01*
X17636071Y-13453214D01*
X17607500Y-13438929D01*
X17593214Y-13410357D01*
X17593214Y-13381786D01*
X17607500Y-13353214D01*
X17636071Y-13338929D01*
X17707500Y-13338929D01*
X17736071Y-13324643D01*
X17836071Y-13253214D02*
X17950357Y-13253214D01*
X17878928Y-13153214D02*
X17878928Y-13410357D01*
X17893214Y-13438929D01*
X17921786Y-13453214D01*
X17950357Y-13453214D01*
X18164643Y-13438929D02*
X18136071Y-13453214D01*
X18078928Y-13453214D01*
X18050357Y-13438929D01*
X18036071Y-13410357D01*
X18036071Y-13296071D01*
X18050357Y-13267500D01*
X18078928Y-13253214D01*
X18136071Y-13253214D01*
X18164643Y-13267500D01*
X18178928Y-13296071D01*
X18178928Y-13324643D01*
X18036071Y-13353214D01*
X18436071Y-13453214D02*
X18436071Y-13153214D01*
X18436071Y-13438929D02*
X18407500Y-13453214D01*
X18350357Y-13453214D01*
X18321786Y-13438929D01*
X18307500Y-13424643D01*
X18293214Y-13396071D01*
X18293214Y-13310357D01*
X18307500Y-13281786D01*
X18321786Y-13267500D01*
X18350357Y-13253214D01*
X18407500Y-13253214D01*
X18436071Y-13267500D01*
X18550357Y-13567500D02*
X18564643Y-13553214D01*
X18593214Y-13510357D01*
X18607500Y-13481786D01*
X18621786Y-13438929D01*
X18636071Y-13367500D01*
X18636071Y-13310357D01*
X18621786Y-13238929D01*
X18607500Y-13196071D01*
X18593214Y-13167500D01*
X18564643Y-13124643D01*
X18550357Y-13110357D01*
M02*
