M48
; DRILL file {KiCad (5.1.2)-1} date 6/5/2019 8:46:00 PM
; FORMAT={-:-/ absolute / metric / decimal}
; #@! TF.CreationDate,2019-06-05T20:46:00-04:00
; #@! TF.GenerationSoftware,Kicad,Pcbnew,(5.1.2)-1
; #@! TF.FileFunction,Plated,1,8,PTH
FMAT,2
METRIC
T1C0.400
T2C0.800
%
G90
G05
T1
X125.07Y-99.6
X126.23Y-100.6
X134.1Y-102.29
X134.214Y-100.906
X135.37Y-108.64
X136.64Y-108.64
X140.45Y-108.64
X141.72Y-108.64
T2
X93.3Y-71.6
X93.3Y-73.6
X93.3Y-75.6
X93.3Y-77.6
X93.3Y-79.6
X93.3Y-81.6
X93.3Y-83.6
X93.3Y-85.6
X93.3Y-87.6
X93.3Y-89.6
X93.3Y-91.6
X93.3Y-93.6
X93.3Y-95.6
X93.3Y-97.6
X93.3Y-99.6
X93.3Y-101.6
X93.3Y-103.6
X93.3Y-105.6
X93.3Y-107.6
X93.3Y-109.6
X93.3Y-111.6
X93.3Y-113.6
X93.3Y-115.6
X93.3Y-117.6
X93.3Y-119.6
X95.3Y-71.6
X95.3Y-73.6
X95.3Y-75.6
X95.3Y-77.6
X95.3Y-79.6
X95.3Y-81.6
X95.3Y-83.6
X95.3Y-85.6
X95.3Y-87.6
X95.3Y-89.6
X95.3Y-91.6
X95.3Y-93.6
X95.3Y-95.6
X95.3Y-97.6
X95.3Y-99.6
X95.3Y-101.6
X95.3Y-103.6
X95.3Y-105.6
X95.3Y-107.6
X95.3Y-109.6
X95.3Y-111.6
X95.3Y-113.6
X95.3Y-115.6
X95.3Y-117.6
X95.3Y-119.6
X106.0Y-117.0
X106.0Y-119.0
X108.0Y-117.0
X108.0Y-119.0
X110.0Y-117.0
X110.0Y-119.0
X139.5Y-117.0
X139.5Y-119.0
X141.5Y-117.0
X141.5Y-119.0
X143.5Y-117.0
X143.5Y-119.0
X145.5Y-117.0
X145.5Y-119.0
X152.1Y-72.0
X152.1Y-74.0
X154.1Y-72.0
X154.1Y-74.0
X156.1Y-72.0
X156.1Y-74.0
X158.1Y-72.0
X158.1Y-74.0
X160.1Y-72.0
X160.1Y-74.0
X162.1Y-72.0
X162.1Y-74.0
X164.1Y-72.0
X164.1Y-74.0
X166.1Y-72.0
X166.1Y-74.0
X168.1Y-72.0
X168.1Y-74.0
X170.1Y-72.0
X170.1Y-74.0
X114.5Y-117.0
X114.5Y-119.0
X116.5Y-117.0
X116.5Y-119.0
X118.5Y-117.0
X118.5Y-119.0
X120.5Y-117.0
X120.5Y-119.0
X122.5Y-117.0
X122.5Y-119.0
X151.22Y-117.494
X151.22Y-119.494
X153.22Y-117.494
X153.22Y-119.494
X155.22Y-117.494
X155.22Y-119.494
X157.22Y-117.494
X157.22Y-119.494
X159.22Y-117.494
X159.22Y-119.494
X161.22Y-117.494
X161.22Y-119.494
X163.22Y-117.494
X163.22Y-119.494
X165.22Y-117.494
X165.22Y-119.494
X167.22Y-117.494
X167.22Y-119.494
X169.22Y-117.494
X169.22Y-119.494
X105.3Y-72.0
X105.3Y-74.0
X107.3Y-72.0
X107.3Y-74.0
X109.3Y-72.0
X109.3Y-74.0
X111.3Y-72.0
X111.3Y-74.0
X116.3Y-72.0
X116.3Y-74.0
X118.3Y-72.0
X118.3Y-74.0
X120.3Y-72.0
X120.3Y-74.0
X122.3Y-72.0
X122.3Y-74.0
X124.3Y-72.0
X124.3Y-74.0
X127.0Y-117.0
X127.0Y-119.0
X129.0Y-117.0
X129.0Y-119.0
X131.0Y-117.0
X131.0Y-119.0
X133.0Y-117.0
X133.0Y-119.0
X135.0Y-117.0
X135.0Y-119.0
X180.8Y-70.8
X180.8Y-72.8
X180.8Y-74.8
X180.8Y-76.8
X180.8Y-78.8
X180.8Y-80.8
X180.8Y-82.8
X180.8Y-84.8
X180.8Y-86.8
X180.8Y-88.8
X180.8Y-90.8
X180.8Y-92.8
X180.8Y-94.8
X180.8Y-96.8
X180.8Y-98.8
X180.8Y-100.8
X180.8Y-102.8
X180.8Y-104.8
X180.8Y-106.8
X180.8Y-108.8
X180.8Y-110.8
X180.8Y-112.8
X180.8Y-114.8
X180.8Y-116.8
X180.8Y-118.8
X182.8Y-70.8
X182.8Y-72.8
X182.8Y-74.8
X182.8Y-76.8
X182.8Y-78.8
X182.8Y-80.8
X182.8Y-82.8
X182.8Y-84.8
X182.8Y-86.8
X182.8Y-88.8
X182.8Y-90.8
X182.8Y-92.8
X182.8Y-94.8
X182.8Y-96.8
X182.8Y-98.8
X182.8Y-100.8
X182.8Y-102.8
X182.8Y-104.8
X182.8Y-106.8
X182.8Y-108.8
X182.8Y-110.8
X182.8Y-112.8
X182.8Y-114.8
X182.8Y-116.8
X182.8Y-118.8
T0
M30
