%FSLAX45Y45*%
G04 Gerber Fmt 4.5, Leading zero omitted, Abs format (unit mm)*
G04 Created by KiCad (PCBNEW (5.1.2)-1) date 2019-06-05 20:46:01*
%MOMM*%
%LPD*%
G04 APERTURE LIST*
%ADD10C,0.150000*%
%ADD11C,0.200000*%
%ADD12C,0.300000*%
G04 APERTURE END LIST*
D10*
X18500000Y-6800000D02*
X9100000Y-6800000D01*
X18500000Y-12350000D02*
X18500000Y-6800000D01*
X9100000Y-12350000D02*
X18500000Y-12350000D01*
X9100000Y-6800000D02*
X9100000Y-12350000D01*
D11*
X12487000Y-9940000D02*
X12527000Y-9980000D01*
X12527000Y-9940000D02*
X12487000Y-9980000D01*
X12603000Y-10040000D02*
X12643000Y-10080000D01*
X12643000Y-10040000D02*
X12603000Y-10080000D01*
X13390000Y-10209000D02*
X13430000Y-10249000D01*
X13430000Y-10209000D02*
X13390000Y-10249000D01*
X13401398Y-10070602D02*
X13441398Y-10110602D01*
X13441398Y-10070602D02*
X13401398Y-10110602D01*
X13517000Y-10844000D02*
X13557000Y-10884000D01*
X13557000Y-10844000D02*
X13517000Y-10884000D01*
X13644000Y-10844000D02*
X13684000Y-10884000D01*
X13684000Y-10844000D02*
X13644000Y-10884000D01*
X14025000Y-10844000D02*
X14065000Y-10884000D01*
X14065000Y-10844000D02*
X14025000Y-10884000D01*
X14152000Y-10844000D02*
X14192000Y-10884000D01*
X14192000Y-10844000D02*
X14152000Y-10884000D01*
X9370000Y-7160000D02*
G75*
G03X9370000Y-7160000I-40000J0D01*
G01*
X9370000Y-7360000D02*
G75*
G03X9370000Y-7360000I-40000J0D01*
G01*
X9370000Y-7560000D02*
G75*
G03X9370000Y-7560000I-40000J0D01*
G01*
X9370000Y-7760000D02*
G75*
G03X9370000Y-7760000I-40000J0D01*
G01*
X9370000Y-7960000D02*
G75*
G03X9370000Y-7960000I-40000J0D01*
G01*
X9370000Y-8160000D02*
G75*
G03X9370000Y-8160000I-40000J0D01*
G01*
X9370000Y-8360000D02*
G75*
G03X9370000Y-8360000I-40000J0D01*
G01*
X9370000Y-8560000D02*
G75*
G03X9370000Y-8560000I-40000J0D01*
G01*
X9370000Y-8760000D02*
G75*
G03X9370000Y-8760000I-40000J0D01*
G01*
X9370000Y-8960000D02*
G75*
G03X9370000Y-8960000I-40000J0D01*
G01*
X9370000Y-9160000D02*
G75*
G03X9370000Y-9160000I-40000J0D01*
G01*
X9370000Y-9360000D02*
G75*
G03X9370000Y-9360000I-40000J0D01*
G01*
X9370000Y-9560000D02*
G75*
G03X9370000Y-9560000I-40000J0D01*
G01*
X9370000Y-9760000D02*
G75*
G03X9370000Y-9760000I-40000J0D01*
G01*
X9370000Y-9960000D02*
G75*
G03X9370000Y-9960000I-40000J0D01*
G01*
X9370000Y-10160000D02*
G75*
G03X9370000Y-10160000I-40000J0D01*
G01*
X9370000Y-10360000D02*
G75*
G03X9370000Y-10360000I-40000J0D01*
G01*
X9370000Y-10560000D02*
G75*
G03X9370000Y-10560000I-40000J0D01*
G01*
X9370000Y-10760000D02*
G75*
G03X9370000Y-10760000I-40000J0D01*
G01*
X9370000Y-10960000D02*
G75*
G03X9370000Y-10960000I-40000J0D01*
G01*
X9370000Y-11160000D02*
G75*
G03X9370000Y-11160000I-40000J0D01*
G01*
X9370000Y-11360000D02*
G75*
G03X9370000Y-11360000I-40000J0D01*
G01*
X9370000Y-11560000D02*
G75*
G03X9370000Y-11560000I-40000J0D01*
G01*
X9370000Y-11760000D02*
G75*
G03X9370000Y-11760000I-40000J0D01*
G01*
X9370000Y-11960000D02*
G75*
G03X9370000Y-11960000I-40000J0D01*
G01*
X9570000Y-7160000D02*
G75*
G03X9570000Y-7160000I-40000J0D01*
G01*
X9570000Y-7360000D02*
G75*
G03X9570000Y-7360000I-40000J0D01*
G01*
X9570000Y-7560000D02*
G75*
G03X9570000Y-7560000I-40000J0D01*
G01*
X9570000Y-7760000D02*
G75*
G03X9570000Y-7760000I-40000J0D01*
G01*
X9570000Y-7960000D02*
G75*
G03X9570000Y-7960000I-40000J0D01*
G01*
X9570000Y-8160000D02*
G75*
G03X9570000Y-8160000I-40000J0D01*
G01*
X9570000Y-8360000D02*
G75*
G03X9570000Y-8360000I-40000J0D01*
G01*
X9570000Y-8560000D02*
G75*
G03X9570000Y-8560000I-40000J0D01*
G01*
X9570000Y-8760000D02*
G75*
G03X9570000Y-8760000I-40000J0D01*
G01*
X9570000Y-8960000D02*
G75*
G03X9570000Y-8960000I-40000J0D01*
G01*
X9570000Y-9160000D02*
G75*
G03X9570000Y-9160000I-40000J0D01*
G01*
X9570000Y-9360000D02*
G75*
G03X9570000Y-9360000I-40000J0D01*
G01*
X9570000Y-9560000D02*
G75*
G03X9570000Y-9560000I-40000J0D01*
G01*
X9570000Y-9760000D02*
G75*
G03X9570000Y-9760000I-40000J0D01*
G01*
X9570000Y-9960000D02*
G75*
G03X9570000Y-9960000I-40000J0D01*
G01*
X9570000Y-10160000D02*
G75*
G03X9570000Y-10160000I-40000J0D01*
G01*
X9570000Y-10360000D02*
G75*
G03X9570000Y-10360000I-40000J0D01*
G01*
X9570000Y-10560000D02*
G75*
G03X9570000Y-10560000I-40000J0D01*
G01*
X9570000Y-10760000D02*
G75*
G03X9570000Y-10760000I-40000J0D01*
G01*
X9570000Y-10960000D02*
G75*
G03X9570000Y-10960000I-40000J0D01*
G01*
X9570000Y-11160000D02*
G75*
G03X9570000Y-11160000I-40000J0D01*
G01*
X9570000Y-11360000D02*
G75*
G03X9570000Y-11360000I-40000J0D01*
G01*
X9570000Y-11560000D02*
G75*
G03X9570000Y-11560000I-40000J0D01*
G01*
X9570000Y-11760000D02*
G75*
G03X9570000Y-11760000I-40000J0D01*
G01*
X9570000Y-11960000D02*
G75*
G03X9570000Y-11960000I-40000J0D01*
G01*
X10640000Y-11700000D02*
G75*
G03X10640000Y-11700000I-40000J0D01*
G01*
X10640000Y-11900000D02*
G75*
G03X10640000Y-11900000I-40000J0D01*
G01*
X10840000Y-11700000D02*
G75*
G03X10840000Y-11700000I-40000J0D01*
G01*
X10840000Y-11900000D02*
G75*
G03X10840000Y-11900000I-40000J0D01*
G01*
X11040000Y-11700000D02*
G75*
G03X11040000Y-11700000I-40000J0D01*
G01*
X11040000Y-11900000D02*
G75*
G03X11040000Y-11900000I-40000J0D01*
G01*
X13990000Y-11700000D02*
G75*
G03X13990000Y-11700000I-40000J0D01*
G01*
X13990000Y-11900000D02*
G75*
G03X13990000Y-11900000I-40000J0D01*
G01*
X14190000Y-11700000D02*
G75*
G03X14190000Y-11700000I-40000J0D01*
G01*
X14190000Y-11900000D02*
G75*
G03X14190000Y-11900000I-40000J0D01*
G01*
X14390000Y-11700000D02*
G75*
G03X14390000Y-11700000I-40000J0D01*
G01*
X14390000Y-11900000D02*
G75*
G03X14390000Y-11900000I-40000J0D01*
G01*
X14590000Y-11700000D02*
G75*
G03X14590000Y-11700000I-40000J0D01*
G01*
X14590000Y-11900000D02*
G75*
G03X14590000Y-11900000I-40000J0D01*
G01*
X15250000Y-7200000D02*
G75*
G03X15250000Y-7200000I-40000J0D01*
G01*
X15250000Y-7400000D02*
G75*
G03X15250000Y-7400000I-40000J0D01*
G01*
X15450000Y-7200000D02*
G75*
G03X15450000Y-7200000I-40000J0D01*
G01*
X15450000Y-7400000D02*
G75*
G03X15450000Y-7400000I-40000J0D01*
G01*
X15650000Y-7200000D02*
G75*
G03X15650000Y-7200000I-40000J0D01*
G01*
X15650000Y-7400000D02*
G75*
G03X15650000Y-7400000I-40000J0D01*
G01*
X15850000Y-7200000D02*
G75*
G03X15850000Y-7200000I-40000J0D01*
G01*
X15850000Y-7400000D02*
G75*
G03X15850000Y-7400000I-40000J0D01*
G01*
X16050000Y-7200000D02*
G75*
G03X16050000Y-7200000I-40000J0D01*
G01*
X16050000Y-7400000D02*
G75*
G03X16050000Y-7400000I-40000J0D01*
G01*
X16250000Y-7200000D02*
G75*
G03X16250000Y-7200000I-40000J0D01*
G01*
X16250000Y-7400000D02*
G75*
G03X16250000Y-7400000I-40000J0D01*
G01*
X16450000Y-7200000D02*
G75*
G03X16450000Y-7200000I-40000J0D01*
G01*
X16450000Y-7400000D02*
G75*
G03X16450000Y-7400000I-40000J0D01*
G01*
X16650000Y-7200000D02*
G75*
G03X16650000Y-7200000I-40000J0D01*
G01*
X16650000Y-7400000D02*
G75*
G03X16650000Y-7400000I-40000J0D01*
G01*
X16850000Y-7200000D02*
G75*
G03X16850000Y-7200000I-40000J0D01*
G01*
X16850000Y-7400000D02*
G75*
G03X16850000Y-7400000I-40000J0D01*
G01*
X17050000Y-7200000D02*
G75*
G03X17050000Y-7200000I-40000J0D01*
G01*
X17050000Y-7400000D02*
G75*
G03X17050000Y-7400000I-40000J0D01*
G01*
X11490000Y-11700000D02*
G75*
G03X11490000Y-11700000I-40000J0D01*
G01*
X11490000Y-11900000D02*
G75*
G03X11490000Y-11900000I-40000J0D01*
G01*
X11690000Y-11700000D02*
G75*
G03X11690000Y-11700000I-40000J0D01*
G01*
X11690000Y-11900000D02*
G75*
G03X11690000Y-11900000I-40000J0D01*
G01*
X11890000Y-11700000D02*
G75*
G03X11890000Y-11700000I-40000J0D01*
G01*
X11890000Y-11900000D02*
G75*
G03X11890000Y-11900000I-40000J0D01*
G01*
X12090000Y-11700000D02*
G75*
G03X12090000Y-11700000I-40000J0D01*
G01*
X12090000Y-11900000D02*
G75*
G03X12090000Y-11900000I-40000J0D01*
G01*
X12290000Y-11700000D02*
G75*
G03X12290000Y-11700000I-40000J0D01*
G01*
X12290000Y-11900000D02*
G75*
G03X12290000Y-11900000I-40000J0D01*
G01*
X15162004Y-11749408D02*
G75*
G03X15162004Y-11749408I-40000J0D01*
G01*
X15162004Y-11949408D02*
G75*
G03X15162004Y-11949408I-40000J0D01*
G01*
X15362004Y-11749408D02*
G75*
G03X15362004Y-11749408I-40000J0D01*
G01*
X15362004Y-11949408D02*
G75*
G03X15362004Y-11949408I-40000J0D01*
G01*
X15562004Y-11749408D02*
G75*
G03X15562004Y-11749408I-40000J0D01*
G01*
X15562004Y-11949408D02*
G75*
G03X15562004Y-11949408I-40000J0D01*
G01*
X15762004Y-11749408D02*
G75*
G03X15762004Y-11749408I-40000J0D01*
G01*
X15762004Y-11949408D02*
G75*
G03X15762004Y-11949408I-40000J0D01*
G01*
X15962004Y-11749408D02*
G75*
G03X15962004Y-11749408I-40000J0D01*
G01*
X15962004Y-11949408D02*
G75*
G03X15962004Y-11949408I-40000J0D01*
G01*
X16162004Y-11749408D02*
G75*
G03X16162004Y-11749408I-40000J0D01*
G01*
X16162004Y-11949408D02*
G75*
G03X16162004Y-11949408I-40000J0D01*
G01*
X16362004Y-11749408D02*
G75*
G03X16362004Y-11749408I-40000J0D01*
G01*
X16362004Y-11949408D02*
G75*
G03X16362004Y-11949408I-40000J0D01*
G01*
X16562004Y-11749408D02*
G75*
G03X16562004Y-11749408I-40000J0D01*
G01*
X16562004Y-11949408D02*
G75*
G03X16562004Y-11949408I-40000J0D01*
G01*
X16762004Y-11749408D02*
G75*
G03X16762004Y-11749408I-40000J0D01*
G01*
X16762004Y-11949408D02*
G75*
G03X16762004Y-11949408I-40000J0D01*
G01*
X16962004Y-11749408D02*
G75*
G03X16962004Y-11749408I-40000J0D01*
G01*
X16962004Y-11949408D02*
G75*
G03X16962004Y-11949408I-40000J0D01*
G01*
X10570000Y-7200000D02*
G75*
G03X10570000Y-7200000I-40000J0D01*
G01*
X10570000Y-7400000D02*
G75*
G03X10570000Y-7400000I-40000J0D01*
G01*
X10770000Y-7200000D02*
G75*
G03X10770000Y-7200000I-40000J0D01*
G01*
X10770000Y-7400000D02*
G75*
G03X10770000Y-7400000I-40000J0D01*
G01*
X10970000Y-7200000D02*
G75*
G03X10970000Y-7200000I-40000J0D01*
G01*
X10970000Y-7400000D02*
G75*
G03X10970000Y-7400000I-40000J0D01*
G01*
X11170000Y-7200000D02*
G75*
G03X11170000Y-7200000I-40000J0D01*
G01*
X11170000Y-7400000D02*
G75*
G03X11170000Y-7400000I-40000J0D01*
G01*
X11670000Y-7200000D02*
G75*
G03X11670000Y-7200000I-40000J0D01*
G01*
X11670000Y-7400000D02*
G75*
G03X11670000Y-7400000I-40000J0D01*
G01*
X11870000Y-7200000D02*
G75*
G03X11870000Y-7200000I-40000J0D01*
G01*
X11870000Y-7400000D02*
G75*
G03X11870000Y-7400000I-40000J0D01*
G01*
X12070000Y-7200000D02*
G75*
G03X12070000Y-7200000I-40000J0D01*
G01*
X12070000Y-7400000D02*
G75*
G03X12070000Y-7400000I-40000J0D01*
G01*
X12270000Y-7200000D02*
G75*
G03X12270000Y-7200000I-40000J0D01*
G01*
X12270000Y-7400000D02*
G75*
G03X12270000Y-7400000I-40000J0D01*
G01*
X12470000Y-7200000D02*
G75*
G03X12470000Y-7200000I-40000J0D01*
G01*
X12470000Y-7400000D02*
G75*
G03X12470000Y-7400000I-40000J0D01*
G01*
X12740000Y-11700000D02*
G75*
G03X12740000Y-11700000I-40000J0D01*
G01*
X12740000Y-11900000D02*
G75*
G03X12740000Y-11900000I-40000J0D01*
G01*
X12940000Y-11700000D02*
G75*
G03X12940000Y-11700000I-40000J0D01*
G01*
X12940000Y-11900000D02*
G75*
G03X12940000Y-11900000I-40000J0D01*
G01*
X13140000Y-11700000D02*
G75*
G03X13140000Y-11700000I-40000J0D01*
G01*
X13140000Y-11900000D02*
G75*
G03X13140000Y-11900000I-40000J0D01*
G01*
X13340000Y-11700000D02*
G75*
G03X13340000Y-11700000I-40000J0D01*
G01*
X13340000Y-11900000D02*
G75*
G03X13340000Y-11900000I-40000J0D01*
G01*
X13540000Y-11700000D02*
G75*
G03X13540000Y-11700000I-40000J0D01*
G01*
X13540000Y-11900000D02*
G75*
G03X13540000Y-11900000I-40000J0D01*
G01*
X18120000Y-7080000D02*
G75*
G03X18120000Y-7080000I-40000J0D01*
G01*
X18120000Y-7280000D02*
G75*
G03X18120000Y-7280000I-40000J0D01*
G01*
X18120000Y-7480000D02*
G75*
G03X18120000Y-7480000I-40000J0D01*
G01*
X18120000Y-7680000D02*
G75*
G03X18120000Y-7680000I-40000J0D01*
G01*
X18120000Y-7880000D02*
G75*
G03X18120000Y-7880000I-40000J0D01*
G01*
X18120000Y-8080000D02*
G75*
G03X18120000Y-8080000I-40000J0D01*
G01*
X18120000Y-8280000D02*
G75*
G03X18120000Y-8280000I-40000J0D01*
G01*
X18120000Y-8480000D02*
G75*
G03X18120000Y-8480000I-40000J0D01*
G01*
X18120000Y-8680000D02*
G75*
G03X18120000Y-8680000I-40000J0D01*
G01*
X18120000Y-8880000D02*
G75*
G03X18120000Y-8880000I-40000J0D01*
G01*
X18120000Y-9080000D02*
G75*
G03X18120000Y-9080000I-40000J0D01*
G01*
X18120000Y-9280000D02*
G75*
G03X18120000Y-9280000I-40000J0D01*
G01*
X18120000Y-9480000D02*
G75*
G03X18120000Y-9480000I-40000J0D01*
G01*
X18120000Y-9680000D02*
G75*
G03X18120000Y-9680000I-40000J0D01*
G01*
X18120000Y-9880000D02*
G75*
G03X18120000Y-9880000I-40000J0D01*
G01*
X18120000Y-10080000D02*
G75*
G03X18120000Y-10080000I-40000J0D01*
G01*
X18120000Y-10280000D02*
G75*
G03X18120000Y-10280000I-40000J0D01*
G01*
X18120000Y-10480000D02*
G75*
G03X18120000Y-10480000I-40000J0D01*
G01*
X18120000Y-10680000D02*
G75*
G03X18120000Y-10680000I-40000J0D01*
G01*
X18120000Y-10880000D02*
G75*
G03X18120000Y-10880000I-40000J0D01*
G01*
X18120000Y-11080000D02*
G75*
G03X18120000Y-11080000I-40000J0D01*
G01*
X18120000Y-11280000D02*
G75*
G03X18120000Y-11280000I-40000J0D01*
G01*
X18120000Y-11480000D02*
G75*
G03X18120000Y-11480000I-40000J0D01*
G01*
X18120000Y-11680000D02*
G75*
G03X18120000Y-11680000I-40000J0D01*
G01*
X18120000Y-11880000D02*
G75*
G03X18120000Y-11880000I-40000J0D01*
G01*
X18320000Y-7080000D02*
G75*
G03X18320000Y-7080000I-40000J0D01*
G01*
X18320000Y-7280000D02*
G75*
G03X18320000Y-7280000I-40000J0D01*
G01*
X18320000Y-7480000D02*
G75*
G03X18320000Y-7480000I-40000J0D01*
G01*
X18320000Y-7680000D02*
G75*
G03X18320000Y-7680000I-40000J0D01*
G01*
X18320000Y-7880000D02*
G75*
G03X18320000Y-7880000I-40000J0D01*
G01*
X18320000Y-8080000D02*
G75*
G03X18320000Y-8080000I-40000J0D01*
G01*
X18320000Y-8280000D02*
G75*
G03X18320000Y-8280000I-40000J0D01*
G01*
X18320000Y-8480000D02*
G75*
G03X18320000Y-8480000I-40000J0D01*
G01*
X18320000Y-8680000D02*
G75*
G03X18320000Y-8680000I-40000J0D01*
G01*
X18320000Y-8880000D02*
G75*
G03X18320000Y-8880000I-40000J0D01*
G01*
X18320000Y-9080000D02*
G75*
G03X18320000Y-9080000I-40000J0D01*
G01*
X18320000Y-9280000D02*
G75*
G03X18320000Y-9280000I-40000J0D01*
G01*
X18320000Y-9480000D02*
G75*
G03X18320000Y-9480000I-40000J0D01*
G01*
X18320000Y-9680000D02*
G75*
G03X18320000Y-9680000I-40000J0D01*
G01*
X18320000Y-9880000D02*
G75*
G03X18320000Y-9880000I-40000J0D01*
G01*
X18320000Y-10080000D02*
G75*
G03X18320000Y-10080000I-40000J0D01*
G01*
X18320000Y-10280000D02*
G75*
G03X18320000Y-10280000I-40000J0D01*
G01*
X18320000Y-10480000D02*
G75*
G03X18320000Y-10480000I-40000J0D01*
G01*
X18320000Y-10680000D02*
G75*
G03X18320000Y-10680000I-40000J0D01*
G01*
X18320000Y-10880000D02*
G75*
G03X18320000Y-10880000I-40000J0D01*
G01*
X18320000Y-11080000D02*
G75*
G03X18320000Y-11080000I-40000J0D01*
G01*
X18320000Y-11280000D02*
G75*
G03X18320000Y-11280000I-40000J0D01*
G01*
X18320000Y-11480000D02*
G75*
G03X18320000Y-11480000I-40000J0D01*
G01*
X18320000Y-11680000D02*
G75*
G03X18320000Y-11680000I-40000J0D01*
G01*
X18320000Y-11880000D02*
G75*
G03X18320000Y-11880000I-40000J0D01*
G01*
D12*
X9378928Y-12823214D02*
X9378928Y-12523214D01*
X9450357Y-12523214D01*
X9493214Y-12537500D01*
X9521786Y-12566071D01*
X9536071Y-12594643D01*
X9550357Y-12651786D01*
X9550357Y-12694643D01*
X9536071Y-12751786D01*
X9521786Y-12780357D01*
X9493214Y-12808929D01*
X9450357Y-12823214D01*
X9378928Y-12823214D01*
X9678928Y-12823214D02*
X9678928Y-12623214D01*
X9678928Y-12680357D02*
X9693214Y-12651786D01*
X9707500Y-12637500D01*
X9736071Y-12623214D01*
X9764643Y-12623214D01*
X9864643Y-12823214D02*
X9864643Y-12623214D01*
X9864643Y-12523214D02*
X9850357Y-12537500D01*
X9864643Y-12551786D01*
X9878928Y-12537500D01*
X9864643Y-12523214D01*
X9864643Y-12551786D01*
X10050357Y-12823214D02*
X10021786Y-12808929D01*
X10007500Y-12780357D01*
X10007500Y-12523214D01*
X10207500Y-12823214D02*
X10178928Y-12808929D01*
X10164643Y-12780357D01*
X10164643Y-12523214D01*
X10550357Y-12823214D02*
X10550357Y-12523214D01*
X10650357Y-12737500D01*
X10750357Y-12523214D01*
X10750357Y-12823214D01*
X11021786Y-12823214D02*
X11021786Y-12666071D01*
X11007500Y-12637500D01*
X10978928Y-12623214D01*
X10921786Y-12623214D01*
X10893214Y-12637500D01*
X11021786Y-12808929D02*
X10993214Y-12823214D01*
X10921786Y-12823214D01*
X10893214Y-12808929D01*
X10878928Y-12780357D01*
X10878928Y-12751786D01*
X10893214Y-12723214D01*
X10921786Y-12708929D01*
X10993214Y-12708929D01*
X11021786Y-12694643D01*
X11164643Y-12623214D02*
X11164643Y-12923214D01*
X11164643Y-12637500D02*
X11193214Y-12623214D01*
X11250357Y-12623214D01*
X11278928Y-12637500D01*
X11293214Y-12651786D01*
X11307500Y-12680357D01*
X11307500Y-12766071D01*
X11293214Y-12794643D01*
X11278928Y-12808929D01*
X11250357Y-12823214D01*
X11193214Y-12823214D01*
X11164643Y-12808929D01*
X11436071Y-12794643D02*
X11450357Y-12808929D01*
X11436071Y-12823214D01*
X11421786Y-12808929D01*
X11436071Y-12794643D01*
X11436071Y-12823214D01*
X11436071Y-12637500D02*
X11450357Y-12651786D01*
X11436071Y-12666071D01*
X11421786Y-12651786D01*
X11436071Y-12637500D01*
X11436071Y-12666071D01*
X9052500Y-13297500D02*
X9092500Y-13337500D01*
X9092500Y-13297500D02*
X9052500Y-13337500D01*
X9436071Y-13153214D02*
X9464643Y-13153214D01*
X9493214Y-13167500D01*
X9507500Y-13181786D01*
X9521786Y-13210357D01*
X9536071Y-13267500D01*
X9536071Y-13338929D01*
X9521786Y-13396071D01*
X9507500Y-13424643D01*
X9493214Y-13438929D01*
X9464643Y-13453214D01*
X9436071Y-13453214D01*
X9407500Y-13438929D01*
X9393214Y-13424643D01*
X9378928Y-13396071D01*
X9364643Y-13338929D01*
X9364643Y-13267500D01*
X9378928Y-13210357D01*
X9393214Y-13181786D01*
X9407500Y-13167500D01*
X9436071Y-13153214D01*
X9664643Y-13424643D02*
X9678928Y-13438929D01*
X9664643Y-13453214D01*
X9650357Y-13438929D01*
X9664643Y-13424643D01*
X9664643Y-13453214D01*
X9936071Y-13253214D02*
X9936071Y-13453214D01*
X9864643Y-13138929D02*
X9793214Y-13353214D01*
X9978928Y-13353214D01*
X10150357Y-13153214D02*
X10178928Y-13153214D01*
X10207500Y-13167500D01*
X10221786Y-13181786D01*
X10236071Y-13210357D01*
X10250357Y-13267500D01*
X10250357Y-13338929D01*
X10236071Y-13396071D01*
X10221786Y-13424643D01*
X10207500Y-13438929D01*
X10178928Y-13453214D01*
X10150357Y-13453214D01*
X10121786Y-13438929D01*
X10107500Y-13424643D01*
X10093214Y-13396071D01*
X10078928Y-13338929D01*
X10078928Y-13267500D01*
X10093214Y-13210357D01*
X10107500Y-13181786D01*
X10121786Y-13167500D01*
X10150357Y-13153214D01*
X10378928Y-13453214D02*
X10378928Y-13253214D01*
X10378928Y-13281786D02*
X10393214Y-13267500D01*
X10421786Y-13253214D01*
X10464643Y-13253214D01*
X10493214Y-13267500D01*
X10507500Y-13296071D01*
X10507500Y-13453214D01*
X10507500Y-13296071D02*
X10521786Y-13267500D01*
X10550357Y-13253214D01*
X10593214Y-13253214D01*
X10621786Y-13267500D01*
X10636071Y-13296071D01*
X10636071Y-13453214D01*
X10778928Y-13453214D02*
X10778928Y-13253214D01*
X10778928Y-13281786D02*
X10793214Y-13267500D01*
X10821786Y-13253214D01*
X10864643Y-13253214D01*
X10893214Y-13267500D01*
X10907500Y-13296071D01*
X10907500Y-13453214D01*
X10907500Y-13296071D02*
X10921786Y-13267500D01*
X10950357Y-13253214D01*
X10993214Y-13253214D01*
X11021786Y-13267500D01*
X11036071Y-13296071D01*
X11036071Y-13453214D01*
X11621786Y-13138929D02*
X11364643Y-13524643D01*
X12007500Y-13153214D02*
X12036071Y-13153214D01*
X12064643Y-13167500D01*
X12078928Y-13181786D01*
X12093214Y-13210357D01*
X12107500Y-13267500D01*
X12107500Y-13338929D01*
X12093214Y-13396071D01*
X12078928Y-13424643D01*
X12064643Y-13438929D01*
X12036071Y-13453214D01*
X12007500Y-13453214D01*
X11978928Y-13438929D01*
X11964643Y-13424643D01*
X11950357Y-13396071D01*
X11936071Y-13338929D01*
X11936071Y-13267500D01*
X11950357Y-13210357D01*
X11964643Y-13181786D01*
X11978928Y-13167500D01*
X12007500Y-13153214D01*
X12236071Y-13424643D02*
X12250357Y-13438929D01*
X12236071Y-13453214D01*
X12221786Y-13438929D01*
X12236071Y-13424643D01*
X12236071Y-13453214D01*
X12436071Y-13153214D02*
X12464643Y-13153214D01*
X12493214Y-13167500D01*
X12507500Y-13181786D01*
X12521786Y-13210357D01*
X12536071Y-13267500D01*
X12536071Y-13338929D01*
X12521786Y-13396071D01*
X12507500Y-13424643D01*
X12493214Y-13438929D01*
X12464643Y-13453214D01*
X12436071Y-13453214D01*
X12407500Y-13438929D01*
X12393214Y-13424643D01*
X12378928Y-13396071D01*
X12364643Y-13338929D01*
X12364643Y-13267500D01*
X12378928Y-13210357D01*
X12393214Y-13181786D01*
X12407500Y-13167500D01*
X12436071Y-13153214D01*
X12821786Y-13453214D02*
X12650357Y-13453214D01*
X12736071Y-13453214D02*
X12736071Y-13153214D01*
X12707500Y-13196071D01*
X12678928Y-13224643D01*
X12650357Y-13238929D01*
X13078928Y-13153214D02*
X13021786Y-13153214D01*
X12993214Y-13167500D01*
X12978928Y-13181786D01*
X12950357Y-13224643D01*
X12936071Y-13281786D01*
X12936071Y-13396071D01*
X12950357Y-13424643D01*
X12964643Y-13438929D01*
X12993214Y-13453214D01*
X13050357Y-13453214D01*
X13078928Y-13438929D01*
X13093214Y-13424643D01*
X13107500Y-13396071D01*
X13107500Y-13324643D01*
X13093214Y-13296071D01*
X13078928Y-13281786D01*
X13050357Y-13267500D01*
X12993214Y-13267500D01*
X12964643Y-13281786D01*
X12950357Y-13296071D01*
X12936071Y-13324643D01*
X13221786Y-13153214D02*
X13221786Y-13210357D01*
X13336071Y-13153214D02*
X13336071Y-13210357D01*
X13778928Y-13567500D02*
X13764643Y-13553214D01*
X13736071Y-13510357D01*
X13721786Y-13481786D01*
X13707500Y-13438929D01*
X13693214Y-13367500D01*
X13693214Y-13310357D01*
X13707500Y-13238929D01*
X13721786Y-13196071D01*
X13736071Y-13167500D01*
X13764643Y-13124643D01*
X13778928Y-13110357D01*
X13936071Y-13281786D02*
X13907500Y-13267500D01*
X13893214Y-13253214D01*
X13878928Y-13224643D01*
X13878928Y-13210357D01*
X13893214Y-13181786D01*
X13907500Y-13167500D01*
X13936071Y-13153214D01*
X13993214Y-13153214D01*
X14021786Y-13167500D01*
X14036071Y-13181786D01*
X14050357Y-13210357D01*
X14050357Y-13224643D01*
X14036071Y-13253214D01*
X14021786Y-13267500D01*
X13993214Y-13281786D01*
X13936071Y-13281786D01*
X13907500Y-13296071D01*
X13893214Y-13310357D01*
X13878928Y-13338929D01*
X13878928Y-13396071D01*
X13893214Y-13424643D01*
X13907500Y-13438929D01*
X13936071Y-13453214D01*
X13993214Y-13453214D01*
X14021786Y-13438929D01*
X14036071Y-13424643D01*
X14050357Y-13396071D01*
X14050357Y-13338929D01*
X14036071Y-13310357D01*
X14021786Y-13296071D01*
X13993214Y-13281786D01*
X14407500Y-13453214D02*
X14407500Y-13153214D01*
X14536071Y-13453214D02*
X14536071Y-13296071D01*
X14521786Y-13267500D01*
X14493214Y-13253214D01*
X14450357Y-13253214D01*
X14421786Y-13267500D01*
X14407500Y-13281786D01*
X14721786Y-13453214D02*
X14693214Y-13438929D01*
X14678928Y-13424643D01*
X14664643Y-13396071D01*
X14664643Y-13310357D01*
X14678928Y-13281786D01*
X14693214Y-13267500D01*
X14721786Y-13253214D01*
X14764643Y-13253214D01*
X14793214Y-13267500D01*
X14807500Y-13281786D01*
X14821786Y-13310357D01*
X14821786Y-13396071D01*
X14807500Y-13424643D01*
X14793214Y-13438929D01*
X14764643Y-13453214D01*
X14721786Y-13453214D01*
X14993214Y-13453214D02*
X14964643Y-13438929D01*
X14950357Y-13410357D01*
X14950357Y-13153214D01*
X15221786Y-13438929D02*
X15193214Y-13453214D01*
X15136071Y-13453214D01*
X15107500Y-13438929D01*
X15093214Y-13410357D01*
X15093214Y-13296071D01*
X15107500Y-13267500D01*
X15136071Y-13253214D01*
X15193214Y-13253214D01*
X15221786Y-13267500D01*
X15236071Y-13296071D01*
X15236071Y-13324643D01*
X15093214Y-13353214D01*
X15350357Y-13438929D02*
X15378928Y-13453214D01*
X15436071Y-13453214D01*
X15464643Y-13438929D01*
X15478928Y-13410357D01*
X15478928Y-13396071D01*
X15464643Y-13367500D01*
X15436071Y-13353214D01*
X15393214Y-13353214D01*
X15364643Y-13338929D01*
X15350357Y-13310357D01*
X15350357Y-13296071D01*
X15364643Y-13267500D01*
X15393214Y-13253214D01*
X15436071Y-13253214D01*
X15464643Y-13267500D01*
X15578928Y-13567500D02*
X15593214Y-13553214D01*
X15621786Y-13510357D01*
X15636071Y-13481786D01*
X15650357Y-13438929D01*
X15664643Y-13367500D01*
X15664643Y-13310357D01*
X15650357Y-13238929D01*
X15636071Y-13196071D01*
X15621786Y-13167500D01*
X15593214Y-13124643D01*
X15578928Y-13110357D01*
X9092500Y-13713500D02*
G75*
G03X9092500Y-13713500I-40000J0D01*
G01*
X9436071Y-13549214D02*
X9464643Y-13549214D01*
X9493214Y-13563500D01*
X9507500Y-13577786D01*
X9521786Y-13606357D01*
X9536071Y-13663500D01*
X9536071Y-13734929D01*
X9521786Y-13792071D01*
X9507500Y-13820643D01*
X9493214Y-13834929D01*
X9464643Y-13849214D01*
X9436071Y-13849214D01*
X9407500Y-13834929D01*
X9393214Y-13820643D01*
X9378928Y-13792071D01*
X9364643Y-13734929D01*
X9364643Y-13663500D01*
X9378928Y-13606357D01*
X9393214Y-13577786D01*
X9407500Y-13563500D01*
X9436071Y-13549214D01*
X9664643Y-13820643D02*
X9678928Y-13834929D01*
X9664643Y-13849214D01*
X9650357Y-13834929D01*
X9664643Y-13820643D01*
X9664643Y-13849214D01*
X9850357Y-13677786D02*
X9821786Y-13663500D01*
X9807500Y-13649214D01*
X9793214Y-13620643D01*
X9793214Y-13606357D01*
X9807500Y-13577786D01*
X9821786Y-13563500D01*
X9850357Y-13549214D01*
X9907500Y-13549214D01*
X9936071Y-13563500D01*
X9950357Y-13577786D01*
X9964643Y-13606357D01*
X9964643Y-13620643D01*
X9950357Y-13649214D01*
X9936071Y-13663500D01*
X9907500Y-13677786D01*
X9850357Y-13677786D01*
X9821786Y-13692071D01*
X9807500Y-13706357D01*
X9793214Y-13734929D01*
X9793214Y-13792071D01*
X9807500Y-13820643D01*
X9821786Y-13834929D01*
X9850357Y-13849214D01*
X9907500Y-13849214D01*
X9936071Y-13834929D01*
X9950357Y-13820643D01*
X9964643Y-13792071D01*
X9964643Y-13734929D01*
X9950357Y-13706357D01*
X9936071Y-13692071D01*
X9907500Y-13677786D01*
X10150357Y-13549214D02*
X10178928Y-13549214D01*
X10207500Y-13563500D01*
X10221786Y-13577786D01*
X10236071Y-13606357D01*
X10250357Y-13663500D01*
X10250357Y-13734929D01*
X10236071Y-13792071D01*
X10221786Y-13820643D01*
X10207500Y-13834929D01*
X10178928Y-13849214D01*
X10150357Y-13849214D01*
X10121786Y-13834929D01*
X10107500Y-13820643D01*
X10093214Y-13792071D01*
X10078928Y-13734929D01*
X10078928Y-13663500D01*
X10093214Y-13606357D01*
X10107500Y-13577786D01*
X10121786Y-13563500D01*
X10150357Y-13549214D01*
X10378928Y-13849214D02*
X10378928Y-13649214D01*
X10378928Y-13677786D02*
X10393214Y-13663500D01*
X10421786Y-13649214D01*
X10464643Y-13649214D01*
X10493214Y-13663500D01*
X10507500Y-13692071D01*
X10507500Y-13849214D01*
X10507500Y-13692071D02*
X10521786Y-13663500D01*
X10550357Y-13649214D01*
X10593214Y-13649214D01*
X10621786Y-13663500D01*
X10636071Y-13692071D01*
X10636071Y-13849214D01*
X10778928Y-13849214D02*
X10778928Y-13649214D01*
X10778928Y-13677786D02*
X10793214Y-13663500D01*
X10821786Y-13649214D01*
X10864643Y-13649214D01*
X10893214Y-13663500D01*
X10907500Y-13692071D01*
X10907500Y-13849214D01*
X10907500Y-13692071D02*
X10921786Y-13663500D01*
X10950357Y-13649214D01*
X10993214Y-13649214D01*
X11021786Y-13663500D01*
X11036071Y-13692071D01*
X11036071Y-13849214D01*
X11621786Y-13534929D02*
X11364643Y-13920643D01*
X12007500Y-13549214D02*
X12036071Y-13549214D01*
X12064643Y-13563500D01*
X12078928Y-13577786D01*
X12093214Y-13606357D01*
X12107500Y-13663500D01*
X12107500Y-13734929D01*
X12093214Y-13792071D01*
X12078928Y-13820643D01*
X12064643Y-13834929D01*
X12036071Y-13849214D01*
X12007500Y-13849214D01*
X11978928Y-13834929D01*
X11964643Y-13820643D01*
X11950357Y-13792071D01*
X11936071Y-13734929D01*
X11936071Y-13663500D01*
X11950357Y-13606357D01*
X11964643Y-13577786D01*
X11978928Y-13563500D01*
X12007500Y-13549214D01*
X12236071Y-13820643D02*
X12250357Y-13834929D01*
X12236071Y-13849214D01*
X12221786Y-13834929D01*
X12236071Y-13820643D01*
X12236071Y-13849214D01*
X12436071Y-13549214D02*
X12464643Y-13549214D01*
X12493214Y-13563500D01*
X12507500Y-13577786D01*
X12521786Y-13606357D01*
X12536071Y-13663500D01*
X12536071Y-13734929D01*
X12521786Y-13792071D01*
X12507500Y-13820643D01*
X12493214Y-13834929D01*
X12464643Y-13849214D01*
X12436071Y-13849214D01*
X12407500Y-13834929D01*
X12393214Y-13820643D01*
X12378928Y-13792071D01*
X12364643Y-13734929D01*
X12364643Y-13663500D01*
X12378928Y-13606357D01*
X12393214Y-13577786D01*
X12407500Y-13563500D01*
X12436071Y-13549214D01*
X12636071Y-13549214D02*
X12821786Y-13549214D01*
X12721786Y-13663500D01*
X12764643Y-13663500D01*
X12793214Y-13677786D01*
X12807500Y-13692071D01*
X12821786Y-13720643D01*
X12821786Y-13792071D01*
X12807500Y-13820643D01*
X12793214Y-13834929D01*
X12764643Y-13849214D01*
X12678928Y-13849214D01*
X12650357Y-13834929D01*
X12636071Y-13820643D01*
X13107500Y-13849214D02*
X12936071Y-13849214D01*
X13021786Y-13849214D02*
X13021786Y-13549214D01*
X12993214Y-13592071D01*
X12964643Y-13620643D01*
X12936071Y-13634929D01*
X13221786Y-13549214D02*
X13221786Y-13606357D01*
X13336071Y-13549214D02*
X13336071Y-13606357D01*
X13778928Y-13963500D02*
X13764643Y-13949214D01*
X13736071Y-13906357D01*
X13721786Y-13877786D01*
X13707500Y-13834929D01*
X13693214Y-13763500D01*
X13693214Y-13706357D01*
X13707500Y-13634929D01*
X13721786Y-13592071D01*
X13736071Y-13563500D01*
X13764643Y-13520643D01*
X13778928Y-13506357D01*
X14050357Y-13849214D02*
X13878928Y-13849214D01*
X13964643Y-13849214D02*
X13964643Y-13549214D01*
X13936071Y-13592071D01*
X13907500Y-13620643D01*
X13878928Y-13634929D01*
X14193214Y-13849214D02*
X14250357Y-13849214D01*
X14278928Y-13834929D01*
X14293214Y-13820643D01*
X14321786Y-13777786D01*
X14336071Y-13720643D01*
X14336071Y-13606357D01*
X14321786Y-13577786D01*
X14307500Y-13563500D01*
X14278928Y-13549214D01*
X14221786Y-13549214D01*
X14193214Y-13563500D01*
X14178928Y-13577786D01*
X14164643Y-13606357D01*
X14164643Y-13677786D01*
X14178928Y-13706357D01*
X14193214Y-13720643D01*
X14221786Y-13734929D01*
X14278928Y-13734929D01*
X14307500Y-13720643D01*
X14321786Y-13706357D01*
X14336071Y-13677786D01*
X14450357Y-13577786D02*
X14464643Y-13563500D01*
X14493214Y-13549214D01*
X14564643Y-13549214D01*
X14593214Y-13563500D01*
X14607500Y-13577786D01*
X14621786Y-13606357D01*
X14621786Y-13634929D01*
X14607500Y-13677786D01*
X14436071Y-13849214D01*
X14621786Y-13849214D01*
X14978928Y-13849214D02*
X14978928Y-13549214D01*
X15107500Y-13849214D02*
X15107500Y-13692071D01*
X15093214Y-13663500D01*
X15064643Y-13649214D01*
X15021786Y-13649214D01*
X14993214Y-13663500D01*
X14978928Y-13677786D01*
X15293214Y-13849214D02*
X15264643Y-13834929D01*
X15250357Y-13820643D01*
X15236071Y-13792071D01*
X15236071Y-13706357D01*
X15250357Y-13677786D01*
X15264643Y-13663500D01*
X15293214Y-13649214D01*
X15336071Y-13649214D01*
X15364643Y-13663500D01*
X15378928Y-13677786D01*
X15393214Y-13706357D01*
X15393214Y-13792071D01*
X15378928Y-13820643D01*
X15364643Y-13834929D01*
X15336071Y-13849214D01*
X15293214Y-13849214D01*
X15564643Y-13849214D02*
X15536071Y-13834929D01*
X15521786Y-13806357D01*
X15521786Y-13549214D01*
X15793214Y-13834929D02*
X15764643Y-13849214D01*
X15707500Y-13849214D01*
X15678928Y-13834929D01*
X15664643Y-13806357D01*
X15664643Y-13692071D01*
X15678928Y-13663500D01*
X15707500Y-13649214D01*
X15764643Y-13649214D01*
X15793214Y-13663500D01*
X15807500Y-13692071D01*
X15807500Y-13720643D01*
X15664643Y-13749214D01*
X15921786Y-13834929D02*
X15950357Y-13849214D01*
X16007500Y-13849214D01*
X16036071Y-13834929D01*
X16050357Y-13806357D01*
X16050357Y-13792071D01*
X16036071Y-13763500D01*
X16007500Y-13749214D01*
X15964643Y-13749214D01*
X15936071Y-13734929D01*
X15921786Y-13706357D01*
X15921786Y-13692071D01*
X15936071Y-13663500D01*
X15964643Y-13649214D01*
X16007500Y-13649214D01*
X16036071Y-13663500D01*
X16150357Y-13963500D02*
X16164643Y-13949214D01*
X16193214Y-13906357D01*
X16207500Y-13877786D01*
X16221786Y-13834929D01*
X16236071Y-13763500D01*
X16236071Y-13706357D01*
X16221786Y-13634929D01*
X16207500Y-13592071D01*
X16193214Y-13563500D01*
X16164643Y-13520643D01*
X16150357Y-13506357D01*
M02*
