%FSLAX45Y45*%
G04 Gerber Fmt 4.5, Leading zero omitted, Abs format (unit mm)*
G04 Created by KiCad (PCBNEW (5.1.2)-1) date 2019-10-11 14:15:33*
%MOMM*%
%LPD*%
G04 APERTURE LIST*
%ADD10C,0.050000*%
%ADD11C,0.200000*%
%ADD12C,0.300000*%
G04 APERTURE END LIST*
D10*
X13106400Y-7340600D02*
X18606400Y-7340600D01*
X13106400Y-13090600D02*
X13106400Y-7340600D01*
X18606400Y-13090600D02*
X13106400Y-13090600D01*
X18606400Y-7340600D02*
X18606400Y-13090600D01*
D11*
X17048700Y-9751700D02*
X17261700Y-9964700D01*
X17261700Y-9751700D02*
X17048700Y-9964700D01*
X17048700Y-11141700D02*
X17261700Y-11354700D01*
X17261700Y-11141700D02*
X17048700Y-11354700D01*
D12*
X13390328Y-13558814D02*
X13390328Y-13258814D01*
X13461757Y-13258814D01*
X13504614Y-13273100D01*
X13533186Y-13301671D01*
X13547471Y-13330243D01*
X13561757Y-13387386D01*
X13561757Y-13430243D01*
X13547471Y-13487386D01*
X13533186Y-13515957D01*
X13504614Y-13544529D01*
X13461757Y-13558814D01*
X13390328Y-13558814D01*
X13690328Y-13558814D02*
X13690328Y-13358814D01*
X13690328Y-13415957D02*
X13704614Y-13387386D01*
X13718900Y-13373100D01*
X13747471Y-13358814D01*
X13776043Y-13358814D01*
X13876043Y-13558814D02*
X13876043Y-13358814D01*
X13876043Y-13258814D02*
X13861757Y-13273100D01*
X13876043Y-13287386D01*
X13890328Y-13273100D01*
X13876043Y-13258814D01*
X13876043Y-13287386D01*
X14061757Y-13558814D02*
X14033186Y-13544529D01*
X14018900Y-13515957D01*
X14018900Y-13258814D01*
X14218900Y-13558814D02*
X14190328Y-13544529D01*
X14176043Y-13515957D01*
X14176043Y-13258814D01*
X14561757Y-13558814D02*
X14561757Y-13258814D01*
X14661757Y-13473100D01*
X14761757Y-13258814D01*
X14761757Y-13558814D01*
X15033186Y-13558814D02*
X15033186Y-13401671D01*
X15018900Y-13373100D01*
X14990328Y-13358814D01*
X14933186Y-13358814D01*
X14904614Y-13373100D01*
X15033186Y-13544529D02*
X15004614Y-13558814D01*
X14933186Y-13558814D01*
X14904614Y-13544529D01*
X14890328Y-13515957D01*
X14890328Y-13487386D01*
X14904614Y-13458814D01*
X14933186Y-13444529D01*
X15004614Y-13444529D01*
X15033186Y-13430243D01*
X15176043Y-13358814D02*
X15176043Y-13658814D01*
X15176043Y-13373100D02*
X15204614Y-13358814D01*
X15261757Y-13358814D01*
X15290328Y-13373100D01*
X15304614Y-13387386D01*
X15318900Y-13415957D01*
X15318900Y-13501671D01*
X15304614Y-13530243D01*
X15290328Y-13544529D01*
X15261757Y-13558814D01*
X15204614Y-13558814D01*
X15176043Y-13544529D01*
X15447471Y-13530243D02*
X15461757Y-13544529D01*
X15447471Y-13558814D01*
X15433186Y-13544529D01*
X15447471Y-13530243D01*
X15447471Y-13558814D01*
X15447471Y-13373100D02*
X15461757Y-13387386D01*
X15447471Y-13401671D01*
X15433186Y-13387386D01*
X15447471Y-13373100D01*
X15447471Y-13401671D01*
X12890900Y-13946600D02*
X13103900Y-14159600D01*
X13103900Y-13946600D02*
X12890900Y-14159600D01*
X13376043Y-13917386D02*
X13390328Y-13903100D01*
X13418900Y-13888814D01*
X13490328Y-13888814D01*
X13518900Y-13903100D01*
X13533186Y-13917386D01*
X13547471Y-13945957D01*
X13547471Y-13974529D01*
X13533186Y-14017386D01*
X13361757Y-14188814D01*
X13547471Y-14188814D01*
X13676043Y-14160243D02*
X13690328Y-14174529D01*
X13676043Y-14188814D01*
X13661757Y-14174529D01*
X13676043Y-14160243D01*
X13676043Y-14188814D01*
X13976043Y-14188814D02*
X13804614Y-14188814D01*
X13890328Y-14188814D02*
X13890328Y-13888814D01*
X13861757Y-13931671D01*
X13833186Y-13960243D01*
X13804614Y-13974529D01*
X14076043Y-13888814D02*
X14261757Y-13888814D01*
X14161757Y-14003100D01*
X14204614Y-14003100D01*
X14233186Y-14017386D01*
X14247471Y-14031671D01*
X14261757Y-14060243D01*
X14261757Y-14131671D01*
X14247471Y-14160243D01*
X14233186Y-14174529D01*
X14204614Y-14188814D01*
X14118900Y-14188814D01*
X14090328Y-14174529D01*
X14076043Y-14160243D01*
X14390328Y-14188814D02*
X14390328Y-13988814D01*
X14390328Y-14017386D02*
X14404614Y-14003100D01*
X14433186Y-13988814D01*
X14476043Y-13988814D01*
X14504614Y-14003100D01*
X14518900Y-14031671D01*
X14518900Y-14188814D01*
X14518900Y-14031671D02*
X14533186Y-14003100D01*
X14561757Y-13988814D01*
X14604614Y-13988814D01*
X14633186Y-14003100D01*
X14647471Y-14031671D01*
X14647471Y-14188814D01*
X14790328Y-14188814D02*
X14790328Y-13988814D01*
X14790328Y-14017386D02*
X14804614Y-14003100D01*
X14833186Y-13988814D01*
X14876043Y-13988814D01*
X14904614Y-14003100D01*
X14918900Y-14031671D01*
X14918900Y-14188814D01*
X14918900Y-14031671D02*
X14933186Y-14003100D01*
X14961757Y-13988814D01*
X15004614Y-13988814D01*
X15033186Y-14003100D01*
X15047471Y-14031671D01*
X15047471Y-14188814D01*
X15633186Y-13874529D02*
X15376043Y-14260243D01*
X16018900Y-13888814D02*
X16047471Y-13888814D01*
X16076043Y-13903100D01*
X16090328Y-13917386D01*
X16104614Y-13945957D01*
X16118900Y-14003100D01*
X16118900Y-14074529D01*
X16104614Y-14131671D01*
X16090328Y-14160243D01*
X16076043Y-14174529D01*
X16047471Y-14188814D01*
X16018900Y-14188814D01*
X15990328Y-14174529D01*
X15976043Y-14160243D01*
X15961757Y-14131671D01*
X15947471Y-14074529D01*
X15947471Y-14003100D01*
X15961757Y-13945957D01*
X15976043Y-13917386D01*
X15990328Y-13903100D01*
X16018900Y-13888814D01*
X16247471Y-14160243D02*
X16261757Y-14174529D01*
X16247471Y-14188814D01*
X16233186Y-14174529D01*
X16247471Y-14160243D01*
X16247471Y-14188814D01*
X16447471Y-13888814D02*
X16476043Y-13888814D01*
X16504614Y-13903100D01*
X16518900Y-13917386D01*
X16533186Y-13945957D01*
X16547471Y-14003100D01*
X16547471Y-14074529D01*
X16533186Y-14131671D01*
X16518900Y-14160243D01*
X16504614Y-14174529D01*
X16476043Y-14188814D01*
X16447471Y-14188814D01*
X16418900Y-14174529D01*
X16404614Y-14160243D01*
X16390328Y-14131671D01*
X16376043Y-14074529D01*
X16376043Y-14003100D01*
X16390328Y-13945957D01*
X16404614Y-13917386D01*
X16418900Y-13903100D01*
X16447471Y-13888814D01*
X16718900Y-14017386D02*
X16690328Y-14003100D01*
X16676043Y-13988814D01*
X16661757Y-13960243D01*
X16661757Y-13945957D01*
X16676043Y-13917386D01*
X16690328Y-13903100D01*
X16718900Y-13888814D01*
X16776043Y-13888814D01*
X16804614Y-13903100D01*
X16818900Y-13917386D01*
X16833186Y-13945957D01*
X16833186Y-13960243D01*
X16818900Y-13988814D01*
X16804614Y-14003100D01*
X16776043Y-14017386D01*
X16718900Y-14017386D01*
X16690328Y-14031671D01*
X16676043Y-14045957D01*
X16661757Y-14074529D01*
X16661757Y-14131671D01*
X16676043Y-14160243D01*
X16690328Y-14174529D01*
X16718900Y-14188814D01*
X16776043Y-14188814D01*
X16804614Y-14174529D01*
X16818900Y-14160243D01*
X16833186Y-14131671D01*
X16833186Y-14074529D01*
X16818900Y-14045957D01*
X16804614Y-14031671D01*
X16776043Y-14017386D01*
X17090328Y-13988814D02*
X17090328Y-14188814D01*
X17018900Y-13874529D02*
X16947471Y-14088814D01*
X17133186Y-14088814D01*
X17233186Y-13888814D02*
X17233186Y-13945957D01*
X17347471Y-13888814D02*
X17347471Y-13945957D01*
X17790328Y-14303100D02*
X17776043Y-14288814D01*
X17747471Y-14245957D01*
X17733186Y-14217386D01*
X17718900Y-14174529D01*
X17704614Y-14103100D01*
X17704614Y-14045957D01*
X17718900Y-13974529D01*
X17733186Y-13931671D01*
X17747471Y-13903100D01*
X17776043Y-13860243D01*
X17790328Y-13845957D01*
X17890328Y-13917386D02*
X17904614Y-13903100D01*
X17933186Y-13888814D01*
X18004614Y-13888814D01*
X18033186Y-13903100D01*
X18047471Y-13917386D01*
X18061757Y-13945957D01*
X18061757Y-13974529D01*
X18047471Y-14017386D01*
X17876043Y-14188814D01*
X18061757Y-14188814D01*
X18418900Y-14188814D02*
X18418900Y-13888814D01*
X18547471Y-14188814D02*
X18547471Y-14031671D01*
X18533186Y-14003100D01*
X18504614Y-13988814D01*
X18461757Y-13988814D01*
X18433186Y-14003100D01*
X18418900Y-14017386D01*
X18733186Y-14188814D02*
X18704614Y-14174529D01*
X18690328Y-14160243D01*
X18676043Y-14131671D01*
X18676043Y-14045957D01*
X18690328Y-14017386D01*
X18704614Y-14003100D01*
X18733186Y-13988814D01*
X18776043Y-13988814D01*
X18804614Y-14003100D01*
X18818900Y-14017386D01*
X18833186Y-14045957D01*
X18833186Y-14131671D01*
X18818900Y-14160243D01*
X18804614Y-14174529D01*
X18776043Y-14188814D01*
X18733186Y-14188814D01*
X19004614Y-14188814D02*
X18976043Y-14174529D01*
X18961757Y-14145957D01*
X18961757Y-13888814D01*
X19233186Y-14174529D02*
X19204614Y-14188814D01*
X19147471Y-14188814D01*
X19118900Y-14174529D01*
X19104614Y-14145957D01*
X19104614Y-14031671D01*
X19118900Y-14003100D01*
X19147471Y-13988814D01*
X19204614Y-13988814D01*
X19233186Y-14003100D01*
X19247471Y-14031671D01*
X19247471Y-14060243D01*
X19104614Y-14088814D01*
X19361757Y-14174529D02*
X19390328Y-14188814D01*
X19447471Y-14188814D01*
X19476043Y-14174529D01*
X19490328Y-14145957D01*
X19490328Y-14131671D01*
X19476043Y-14103100D01*
X19447471Y-14088814D01*
X19404614Y-14088814D01*
X19376043Y-14074529D01*
X19361757Y-14045957D01*
X19361757Y-14031671D01*
X19376043Y-14003100D01*
X19404614Y-13988814D01*
X19447471Y-13988814D01*
X19476043Y-14003100D01*
X19590328Y-14303100D02*
X19604614Y-14288814D01*
X19633186Y-14245957D01*
X19647471Y-14217386D01*
X19661757Y-14174529D01*
X19676043Y-14103100D01*
X19676043Y-14045957D01*
X19661757Y-13974529D01*
X19647471Y-13931671D01*
X19633186Y-13903100D01*
X19604614Y-13860243D01*
X19590328Y-13845957D01*
X20133186Y-14303100D02*
X20118900Y-14288814D01*
X20090328Y-14245957D01*
X20076043Y-14217386D01*
X20061757Y-14174529D01*
X20047471Y-14103100D01*
X20047471Y-14045957D01*
X20061757Y-13974529D01*
X20076043Y-13931671D01*
X20090328Y-13903100D01*
X20118900Y-13860243D01*
X20133186Y-13845957D01*
X20247471Y-13988814D02*
X20247471Y-14188814D01*
X20247471Y-14017386D02*
X20261757Y-14003100D01*
X20290328Y-13988814D01*
X20333186Y-13988814D01*
X20361757Y-14003100D01*
X20376043Y-14031671D01*
X20376043Y-14188814D01*
X20561757Y-14188814D02*
X20533186Y-14174529D01*
X20518900Y-14160243D01*
X20504614Y-14131671D01*
X20504614Y-14045957D01*
X20518900Y-14017386D01*
X20533186Y-14003100D01*
X20561757Y-13988814D01*
X20604614Y-13988814D01*
X20633186Y-14003100D01*
X20647471Y-14017386D01*
X20661757Y-14045957D01*
X20661757Y-14131671D01*
X20647471Y-14160243D01*
X20633186Y-14174529D01*
X20604614Y-14188814D01*
X20561757Y-14188814D01*
X20747471Y-13988814D02*
X20861757Y-13988814D01*
X20790328Y-13888814D02*
X20790328Y-14145957D01*
X20804614Y-14174529D01*
X20833186Y-14188814D01*
X20861757Y-14188814D01*
X21190328Y-13988814D02*
X21190328Y-14288814D01*
X21190328Y-14003100D02*
X21218900Y-13988814D01*
X21276043Y-13988814D01*
X21304614Y-14003100D01*
X21318900Y-14017386D01*
X21333186Y-14045957D01*
X21333186Y-14131671D01*
X21318900Y-14160243D01*
X21304614Y-14174529D01*
X21276043Y-14188814D01*
X21218900Y-14188814D01*
X21190328Y-14174529D01*
X21504614Y-14188814D02*
X21476043Y-14174529D01*
X21461757Y-14145957D01*
X21461757Y-13888814D01*
X21747471Y-14188814D02*
X21747471Y-14031671D01*
X21733186Y-14003100D01*
X21704614Y-13988814D01*
X21647471Y-13988814D01*
X21618900Y-14003100D01*
X21747471Y-14174529D02*
X21718900Y-14188814D01*
X21647471Y-14188814D01*
X21618900Y-14174529D01*
X21604614Y-14145957D01*
X21604614Y-14117386D01*
X21618900Y-14088814D01*
X21647471Y-14074529D01*
X21718900Y-14074529D01*
X21747471Y-14060243D01*
X21847471Y-13988814D02*
X21961757Y-13988814D01*
X21890328Y-13888814D02*
X21890328Y-14145957D01*
X21904614Y-14174529D01*
X21933186Y-14188814D01*
X21961757Y-14188814D01*
X22176043Y-14174529D02*
X22147471Y-14188814D01*
X22090328Y-14188814D01*
X22061757Y-14174529D01*
X22047471Y-14145957D01*
X22047471Y-14031671D01*
X22061757Y-14003100D01*
X22090328Y-13988814D01*
X22147471Y-13988814D01*
X22176043Y-14003100D01*
X22190328Y-14031671D01*
X22190328Y-14060243D01*
X22047471Y-14088814D01*
X22447471Y-14188814D02*
X22447471Y-13888814D01*
X22447471Y-14174529D02*
X22418900Y-14188814D01*
X22361757Y-14188814D01*
X22333186Y-14174529D01*
X22318900Y-14160243D01*
X22304614Y-14131671D01*
X22304614Y-14045957D01*
X22318900Y-14017386D01*
X22333186Y-14003100D01*
X22361757Y-13988814D01*
X22418900Y-13988814D01*
X22447471Y-14003100D01*
X22561757Y-14303100D02*
X22576043Y-14288814D01*
X22604614Y-14245957D01*
X22618900Y-14217386D01*
X22633186Y-14174529D01*
X22647471Y-14103100D01*
X22647471Y-14045957D01*
X22633186Y-13974529D01*
X22618900Y-13931671D01*
X22604614Y-13903100D01*
X22576043Y-13860243D01*
X22561757Y-13845957D01*
M02*
