M48
; DRILL file {KiCad (5.1.2)-1} date 10/11/2019 2:15:32 PM
; FORMAT={-:-/ absolute / inch / decimal}
; #@! TF.CreationDate,2019-10-11T14:15:32-04:00
; #@! TF.GenerationSoftware,Kicad,Pcbnew,(5.1.2)-1
; #@! TF.FileFunction,Plated,1,8,PTH
FMAT,2
INCH
T1C0.0256
T2C0.0276
T3C0.0315
T4C0.0354
T5C0.0394
T6C0.0906
%
G90
G05
T2
X5.5217Y-4.0147
X5.5217Y-4.0935
X5.5217Y-4.1722
X5.5217Y-4.2509
X5.5217Y-4.3297
X5.63Y-4.0344
X5.63Y-4.1328
X5.63Y-4.2116
X5.63Y-4.31
X5.8564Y-4.0147
X5.8564Y-4.0935
X5.8564Y-4.1722
X5.8564Y-4.2509
X5.8564Y-4.3297
X5.9646Y-4.0344
X5.9646Y-4.1328
X5.9646Y-4.2116
X5.9646Y-4.31
T3
X7.0313Y-4.8113
X7.0313Y-4.89
X7.0313Y-4.9687
X7.0313Y-5.0475
X7.11Y-4.8113
X7.11Y-4.89
X7.11Y-4.9687
X7.11Y-5.0475
X5.2883Y-4.6152
X5.2883Y-4.6939
X5.3671Y-4.6152
X5.3671Y-4.6939
X5.4458Y-4.6152
X5.4458Y-4.6939
X5.5246Y-4.6152
X5.5246Y-4.6939
X5.6033Y-4.6152
X5.6033Y-4.6939
X5.682Y-4.6152
X5.682Y-4.6939
X5.7608Y-4.6152
X5.7608Y-4.6939
X5.8395Y-4.6152
X5.8395Y-4.6939
X5.9183Y-4.6152
X5.9183Y-4.6939
X5.997Y-4.6152
X5.997Y-4.6939
X6.0757Y-4.6152
X6.0757Y-4.6939
X6.1545Y-4.6152
X6.1545Y-4.6939
X6.2332Y-4.6152
X6.2332Y-4.6939
X6.312Y-4.6152
X6.312Y-4.6939
X6.3907Y-4.6152
X6.3907Y-4.6939
X6.4694Y-4.6152
X6.4694Y-4.6939
X6.5482Y-4.6152
X6.5482Y-4.6939
X6.6269Y-4.6152
X6.6269Y-4.6939
X6.7057Y-4.6152
X6.7057Y-4.6939
X6.7844Y-4.6152
X6.7844Y-4.6939
X6.8631Y-4.6152
X6.8631Y-4.6939
X6.9419Y-4.6152
X6.9419Y-4.6939
X7.0206Y-4.6152
X7.0206Y-4.6939
X7.0994Y-4.6152
X7.0994Y-4.6939
X7.1781Y-4.6152
X7.1781Y-4.6939
T4
X6.58Y-3.98
X6.58Y-4.08
X6.58Y-4.18
X6.58Y-4.28
X6.68Y-4.03
X6.68Y-4.13
X6.68Y-4.23
X6.68Y-4.33
T5
X6.61Y-3.19
X6.71Y-3.19
X6.7887Y-3.19
X6.8856Y-3.19
X5.61Y-3.19
X5.71Y-3.19
X5.7887Y-3.19
X5.8856Y-3.19
T6
X6.4891Y-3.2967
X7.0065Y-3.2967
X5.4891Y-3.2967
X6.0065Y-3.2967
T1
G00X5.5217Y-3.9202
M15
G01X5.63Y-3.9202
M16
G05
G00X5.5217Y-4.4242
M15
G01X5.63Y-4.4242
M16
G05
G00X5.8564Y-3.9202
M15
G01X5.9646Y-3.9202
M16
G05
G00X5.8564Y-4.4242
M15
G01X5.9646Y-4.4242
M16
G05
T0
M30
