%FSLAX45Y45*%
G04 Gerber Fmt 4.5, Leading zero omitted, Abs format (unit mm)*
G04 Created by KiCad (PCBNEW (5.1.2)-1) date 2019-10-11 14:15:33*
%MOMM*%
%LPD*%
G04 APERTURE LIST*
%ADD10C,0.050000*%
%ADD11C,0.200000*%
%ADD12C,0.300000*%
G04 APERTURE END LIST*
D10*
X13106400Y-7340600D02*
X18606400Y-7340600D01*
X13106400Y-13090600D02*
X13106400Y-7340600D01*
X18606400Y-13090600D02*
X13106400Y-13090600D01*
X18606400Y-7340600D02*
X18606400Y-13090600D01*
D11*
X14130200Y-9924900D02*
X14195200Y-9989900D01*
X14195200Y-9924900D02*
X14130200Y-9989900D01*
X14025200Y-9979900D02*
X14300200Y-9979900D01*
X14025200Y-9934900D02*
X14300200Y-9934900D01*
X14300200Y-9979900D02*
G75*
G03X14300200Y-9934900I0J22500D01*
G01*
X14025200Y-9934900D02*
G75*
G03X14025200Y-9979900I0J-22500D01*
G01*
X14130200Y-11204900D02*
X14195200Y-11269900D01*
X14195200Y-11204900D02*
X14130200Y-11269900D01*
X14025200Y-11259900D02*
X14300200Y-11259900D01*
X14025200Y-11214900D02*
X14300200Y-11214900D01*
X14300200Y-11259900D02*
G75*
G03X14300200Y-11214900I0J22500D01*
G01*
X14025200Y-11214900D02*
G75*
G03X14025200Y-11259900I0J-22500D01*
G01*
X14980200Y-9924900D02*
X15045200Y-9989900D01*
X15045200Y-9924900D02*
X14980200Y-9989900D01*
X14875200Y-9979900D02*
X15150200Y-9979900D01*
X14875200Y-9934900D02*
X15150200Y-9934900D01*
X15150200Y-9979900D02*
G75*
G03X15150200Y-9934900I0J22500D01*
G01*
X14875200Y-9934900D02*
G75*
G03X14875200Y-9979900I0J-22500D01*
G01*
X14980200Y-11204900D02*
X15045200Y-11269900D01*
X15045200Y-11204900D02*
X14980200Y-11269900D01*
X14875200Y-11259900D02*
X15150200Y-11259900D01*
X14875200Y-11214900D02*
X15150200Y-11214900D01*
X15150200Y-11259900D02*
G75*
G03X15150200Y-11214900I0J22500D01*
G01*
X14875200Y-11214900D02*
G75*
G03X14875200Y-11259900I0J-22500D01*
G01*
X14060200Y-10197400D02*
G75*
G03X14060200Y-10197400I-35000J0D01*
G01*
X14060200Y-10397400D02*
G75*
G03X14060200Y-10397400I-35000J0D01*
G01*
X14060200Y-10597400D02*
G75*
G03X14060200Y-10597400I-35000J0D01*
G01*
X14060200Y-10797400D02*
G75*
G03X14060200Y-10797400I-35000J0D01*
G01*
X14060200Y-10997400D02*
G75*
G03X14060200Y-10997400I-35000J0D01*
G01*
X14335200Y-10247400D02*
G75*
G03X14335200Y-10247400I-35000J0D01*
G01*
X14335200Y-10497400D02*
G75*
G03X14335200Y-10497400I-35000J0D01*
G01*
X14335200Y-10697400D02*
G75*
G03X14335200Y-10697400I-35000J0D01*
G01*
X14335200Y-10947400D02*
G75*
G03X14335200Y-10947400I-35000J0D01*
G01*
X14910200Y-10197400D02*
G75*
G03X14910200Y-10197400I-35000J0D01*
G01*
X14910200Y-10397400D02*
G75*
G03X14910200Y-10397400I-35000J0D01*
G01*
X14910200Y-10597400D02*
G75*
G03X14910200Y-10597400I-35000J0D01*
G01*
X14910200Y-10797400D02*
G75*
G03X14910200Y-10797400I-35000J0D01*
G01*
X14910200Y-10997400D02*
G75*
G03X14910200Y-10997400I-35000J0D01*
G01*
X15185200Y-10247400D02*
G75*
G03X15185200Y-10247400I-35000J0D01*
G01*
X15185200Y-10497400D02*
G75*
G03X15185200Y-10497400I-35000J0D01*
G01*
X15185200Y-10697400D02*
G75*
G03X15185200Y-10697400I-35000J0D01*
G01*
X15185200Y-10947400D02*
G75*
G03X15185200Y-10947400I-35000J0D01*
G01*
X17859400Y-12180600D02*
X17859400Y-12260600D01*
X17819400Y-12220600D02*
X17899400Y-12220600D01*
X17859400Y-12380600D02*
X17859400Y-12460600D01*
X17819400Y-12420600D02*
X17899400Y-12420600D01*
X17859400Y-12580600D02*
X17859400Y-12660600D01*
X17819400Y-12620600D02*
X17899400Y-12620600D01*
X17859400Y-12780600D02*
X17859400Y-12860600D01*
X17819400Y-12820600D02*
X17899400Y-12820600D01*
X18059400Y-12180600D02*
X18059400Y-12260600D01*
X18019400Y-12220600D02*
X18099400Y-12220600D01*
X18059400Y-12380600D02*
X18059400Y-12460600D01*
X18019400Y-12420600D02*
X18099400Y-12420600D01*
X18059400Y-12580600D02*
X18059400Y-12660600D01*
X18019400Y-12620600D02*
X18099400Y-12620600D01*
X18059400Y-12780600D02*
X18059400Y-12860600D01*
X18019400Y-12820600D02*
X18099400Y-12820600D01*
X13432400Y-11682600D02*
X13432400Y-11762600D01*
X13392400Y-11722600D02*
X13472400Y-11722600D01*
X13432400Y-11882600D02*
X13432400Y-11962600D01*
X13392400Y-11922600D02*
X13472400Y-11922600D01*
X13632400Y-11682600D02*
X13632400Y-11762600D01*
X13592400Y-11722600D02*
X13672400Y-11722600D01*
X13632400Y-11882600D02*
X13632400Y-11962600D01*
X13592400Y-11922600D02*
X13672400Y-11922600D01*
X13832400Y-11682600D02*
X13832400Y-11762600D01*
X13792400Y-11722600D02*
X13872400Y-11722600D01*
X13832400Y-11882600D02*
X13832400Y-11962600D01*
X13792400Y-11922600D02*
X13872400Y-11922600D01*
X14032400Y-11682600D02*
X14032400Y-11762600D01*
X13992400Y-11722600D02*
X14072400Y-11722600D01*
X14032400Y-11882600D02*
X14032400Y-11962600D01*
X13992400Y-11922600D02*
X14072400Y-11922600D01*
X14232400Y-11682600D02*
X14232400Y-11762600D01*
X14192400Y-11722600D02*
X14272400Y-11722600D01*
X14232400Y-11882600D02*
X14232400Y-11962600D01*
X14192400Y-11922600D02*
X14272400Y-11922600D01*
X14432400Y-11682600D02*
X14432400Y-11762600D01*
X14392400Y-11722600D02*
X14472400Y-11722600D01*
X14432400Y-11882600D02*
X14432400Y-11962600D01*
X14392400Y-11922600D02*
X14472400Y-11922600D01*
X14632400Y-11682600D02*
X14632400Y-11762600D01*
X14592400Y-11722600D02*
X14672400Y-11722600D01*
X14632400Y-11882600D02*
X14632400Y-11962600D01*
X14592400Y-11922600D02*
X14672400Y-11922600D01*
X14832400Y-11682600D02*
X14832400Y-11762600D01*
X14792400Y-11722600D02*
X14872400Y-11722600D01*
X14832400Y-11882600D02*
X14832400Y-11962600D01*
X14792400Y-11922600D02*
X14872400Y-11922600D01*
X15032400Y-11682600D02*
X15032400Y-11762600D01*
X14992400Y-11722600D02*
X15072400Y-11722600D01*
X15032400Y-11882600D02*
X15032400Y-11962600D01*
X14992400Y-11922600D02*
X15072400Y-11922600D01*
X15232400Y-11682600D02*
X15232400Y-11762600D01*
X15192400Y-11722600D02*
X15272400Y-11722600D01*
X15232400Y-11882600D02*
X15232400Y-11962600D01*
X15192400Y-11922600D02*
X15272400Y-11922600D01*
X15432400Y-11682600D02*
X15432400Y-11762600D01*
X15392400Y-11722600D02*
X15472400Y-11722600D01*
X15432400Y-11882600D02*
X15432400Y-11962600D01*
X15392400Y-11922600D02*
X15472400Y-11922600D01*
X15632400Y-11682600D02*
X15632400Y-11762600D01*
X15592400Y-11722600D02*
X15672400Y-11722600D01*
X15632400Y-11882600D02*
X15632400Y-11962600D01*
X15592400Y-11922600D02*
X15672400Y-11922600D01*
X15832400Y-11682600D02*
X15832400Y-11762600D01*
X15792400Y-11722600D02*
X15872400Y-11722600D01*
X15832400Y-11882600D02*
X15832400Y-11962600D01*
X15792400Y-11922600D02*
X15872400Y-11922600D01*
X16032400Y-11682600D02*
X16032400Y-11762600D01*
X15992400Y-11722600D02*
X16072400Y-11722600D01*
X16032400Y-11882600D02*
X16032400Y-11962600D01*
X15992400Y-11922600D02*
X16072400Y-11922600D01*
X16232400Y-11682600D02*
X16232400Y-11762600D01*
X16192400Y-11722600D02*
X16272400Y-11722600D01*
X16232400Y-11882600D02*
X16232400Y-11962600D01*
X16192400Y-11922600D02*
X16272400Y-11922600D01*
X16432400Y-11682600D02*
X16432400Y-11762600D01*
X16392400Y-11722600D02*
X16472400Y-11722600D01*
X16432400Y-11882600D02*
X16432400Y-11962600D01*
X16392400Y-11922600D02*
X16472400Y-11922600D01*
X16632400Y-11682600D02*
X16632400Y-11762600D01*
X16592400Y-11722600D02*
X16672400Y-11722600D01*
X16632400Y-11882600D02*
X16632400Y-11962600D01*
X16592400Y-11922600D02*
X16672400Y-11922600D01*
X16832400Y-11682600D02*
X16832400Y-11762600D01*
X16792400Y-11722600D02*
X16872400Y-11722600D01*
X16832400Y-11882600D02*
X16832400Y-11962600D01*
X16792400Y-11922600D02*
X16872400Y-11922600D01*
X17032400Y-11682600D02*
X17032400Y-11762600D01*
X16992400Y-11722600D02*
X17072400Y-11722600D01*
X17032400Y-11882600D02*
X17032400Y-11962600D01*
X16992400Y-11922600D02*
X17072400Y-11922600D01*
X17232400Y-11682600D02*
X17232400Y-11762600D01*
X17192400Y-11722600D02*
X17272400Y-11722600D01*
X17232400Y-11882600D02*
X17232400Y-11962600D01*
X17192400Y-11922600D02*
X17272400Y-11922600D01*
X17432400Y-11682600D02*
X17432400Y-11762600D01*
X17392400Y-11722600D02*
X17472400Y-11722600D01*
X17432400Y-11882600D02*
X17432400Y-11962600D01*
X17392400Y-11922600D02*
X17472400Y-11922600D01*
X17632400Y-11682600D02*
X17632400Y-11762600D01*
X17592400Y-11722600D02*
X17672400Y-11722600D01*
X17632400Y-11882600D02*
X17632400Y-11962600D01*
X17592400Y-11922600D02*
X17672400Y-11922600D01*
X17832400Y-11682600D02*
X17832400Y-11762600D01*
X17792400Y-11722600D02*
X17872400Y-11722600D01*
X17832400Y-11882600D02*
X17832400Y-11962600D01*
X17792400Y-11922600D02*
X17872400Y-11922600D01*
X18032400Y-11682600D02*
X18032400Y-11762600D01*
X17992400Y-11722600D02*
X18072400Y-11722600D01*
X18032400Y-11882600D02*
X18032400Y-11962600D01*
X17992400Y-11922600D02*
X18072400Y-11922600D01*
X18232400Y-11682600D02*
X18232400Y-11762600D01*
X18192400Y-11722600D02*
X18272400Y-11722600D01*
X18232400Y-11882600D02*
X18232400Y-11962600D01*
X18192400Y-11922600D02*
X18272400Y-11922600D01*
X16745020Y-10141020D02*
X16745020Y-10077380D01*
X16681380Y-10077380D01*
X16681380Y-10141020D01*
X16745020Y-10141020D01*
X16745020Y-10395020D02*
X16745020Y-10331380D01*
X16681380Y-10331380D01*
X16681380Y-10395020D01*
X16745020Y-10395020D01*
X16745020Y-10649020D02*
X16745020Y-10585380D01*
X16681380Y-10585380D01*
X16681380Y-10649020D01*
X16745020Y-10649020D01*
X16745020Y-10903020D02*
X16745020Y-10839380D01*
X16681380Y-10839380D01*
X16681380Y-10903020D01*
X16745020Y-10903020D01*
X16999020Y-10268020D02*
X16999020Y-10204380D01*
X16935380Y-10204380D01*
X16935380Y-10268020D01*
X16999020Y-10268020D01*
X16999020Y-10522020D02*
X16999020Y-10458380D01*
X16935380Y-10458380D01*
X16935380Y-10522020D01*
X16999020Y-10522020D01*
X16999020Y-10776020D02*
X16999020Y-10712380D01*
X16935380Y-10712380D01*
X16935380Y-10776020D01*
X16999020Y-10776020D01*
X16999020Y-11030020D02*
X16999020Y-10966380D01*
X16935380Y-10966380D01*
X16935380Y-11030020D01*
X16999020Y-11030020D01*
X16789400Y-8152600D02*
X16839400Y-8102600D01*
X16789400Y-8052600D01*
X16739400Y-8102600D01*
X16789400Y-8152600D01*
X17043400Y-8152600D02*
X17093400Y-8102600D01*
X17043400Y-8052600D01*
X16993400Y-8102600D01*
X17043400Y-8152600D01*
X17243400Y-8152600D02*
X17293400Y-8102600D01*
X17243400Y-8052600D01*
X17193400Y-8102600D01*
X17243400Y-8152600D01*
X17489400Y-8152600D02*
X17539400Y-8102600D01*
X17489400Y-8052600D01*
X17439400Y-8102600D01*
X17489400Y-8152600D01*
X14249400Y-8152600D02*
X14299400Y-8102600D01*
X14249400Y-8052600D01*
X14199400Y-8102600D01*
X14249400Y-8152600D01*
X14503400Y-8152600D02*
X14553400Y-8102600D01*
X14503400Y-8052600D01*
X14453400Y-8102600D01*
X14503400Y-8152600D01*
X14703400Y-8152600D02*
X14753400Y-8102600D01*
X14703400Y-8052600D01*
X14653400Y-8102600D01*
X14703400Y-8152600D01*
X14949400Y-8152600D02*
X14999400Y-8102600D01*
X14949400Y-8052600D01*
X14899400Y-8102600D01*
X14949400Y-8152600D01*
X16367400Y-8258600D02*
X16597400Y-8488600D01*
X16597400Y-8258600D02*
X16367400Y-8488600D01*
X16597400Y-8373600D02*
G75*
G03X16597400Y-8373600I-115000J0D01*
G01*
X17681400Y-8258600D02*
X17911400Y-8488600D01*
X17911400Y-8258600D02*
X17681400Y-8488600D01*
X17911400Y-8373600D02*
G75*
G03X17911400Y-8373600I-115000J0D01*
G01*
X13827400Y-8258600D02*
X14057400Y-8488600D01*
X14057400Y-8258600D02*
X13827400Y-8488600D01*
X14057400Y-8373600D02*
G75*
G03X14057400Y-8373600I-115000J0D01*
G01*
X15141400Y-8258600D02*
X15371400Y-8488600D01*
X15371400Y-8258600D02*
X15141400Y-8488600D01*
X15371400Y-8373600D02*
G75*
G03X15371400Y-8373600I-115000J0D01*
G01*
D12*
X13390328Y-13558814D02*
X13390328Y-13258814D01*
X13461757Y-13258814D01*
X13504614Y-13273100D01*
X13533186Y-13301671D01*
X13547471Y-13330243D01*
X13561757Y-13387386D01*
X13561757Y-13430243D01*
X13547471Y-13487386D01*
X13533186Y-13515957D01*
X13504614Y-13544529D01*
X13461757Y-13558814D01*
X13390328Y-13558814D01*
X13690328Y-13558814D02*
X13690328Y-13358814D01*
X13690328Y-13415957D02*
X13704614Y-13387386D01*
X13718900Y-13373100D01*
X13747471Y-13358814D01*
X13776043Y-13358814D01*
X13876043Y-13558814D02*
X13876043Y-13358814D01*
X13876043Y-13258814D02*
X13861757Y-13273100D01*
X13876043Y-13287386D01*
X13890328Y-13273100D01*
X13876043Y-13258814D01*
X13876043Y-13287386D01*
X14061757Y-13558814D02*
X14033186Y-13544529D01*
X14018900Y-13515957D01*
X14018900Y-13258814D01*
X14218900Y-13558814D02*
X14190328Y-13544529D01*
X14176043Y-13515957D01*
X14176043Y-13258814D01*
X14561757Y-13558814D02*
X14561757Y-13258814D01*
X14661757Y-13473100D01*
X14761757Y-13258814D01*
X14761757Y-13558814D01*
X15033186Y-13558814D02*
X15033186Y-13401671D01*
X15018900Y-13373100D01*
X14990328Y-13358814D01*
X14933186Y-13358814D01*
X14904614Y-13373100D01*
X15033186Y-13544529D02*
X15004614Y-13558814D01*
X14933186Y-13558814D01*
X14904614Y-13544529D01*
X14890328Y-13515957D01*
X14890328Y-13487386D01*
X14904614Y-13458814D01*
X14933186Y-13444529D01*
X15004614Y-13444529D01*
X15033186Y-13430243D01*
X15176043Y-13358814D02*
X15176043Y-13658814D01*
X15176043Y-13373100D02*
X15204614Y-13358814D01*
X15261757Y-13358814D01*
X15290328Y-13373100D01*
X15304614Y-13387386D01*
X15318900Y-13415957D01*
X15318900Y-13501671D01*
X15304614Y-13530243D01*
X15290328Y-13544529D01*
X15261757Y-13558814D01*
X15204614Y-13558814D01*
X15176043Y-13544529D01*
X15447471Y-13530243D02*
X15461757Y-13544529D01*
X15447471Y-13558814D01*
X15433186Y-13544529D01*
X15447471Y-13530243D01*
X15447471Y-13558814D01*
X15447471Y-13373100D02*
X15461757Y-13387386D01*
X15447471Y-13401671D01*
X15433186Y-13387386D01*
X15447471Y-13373100D01*
X15447471Y-13401671D01*
X13038900Y-14020600D02*
X13103900Y-14085600D01*
X13103900Y-14020600D02*
X13038900Y-14085600D01*
X13447471Y-13888814D02*
X13476043Y-13888814D01*
X13504614Y-13903100D01*
X13518900Y-13917386D01*
X13533186Y-13945957D01*
X13547471Y-14003100D01*
X13547471Y-14074529D01*
X13533186Y-14131671D01*
X13518900Y-14160243D01*
X13504614Y-14174529D01*
X13476043Y-14188814D01*
X13447471Y-14188814D01*
X13418900Y-14174529D01*
X13404614Y-14160243D01*
X13390328Y-14131671D01*
X13376043Y-14074529D01*
X13376043Y-14003100D01*
X13390328Y-13945957D01*
X13404614Y-13917386D01*
X13418900Y-13903100D01*
X13447471Y-13888814D01*
X13676043Y-14160243D02*
X13690328Y-14174529D01*
X13676043Y-14188814D01*
X13661757Y-14174529D01*
X13676043Y-14160243D01*
X13676043Y-14188814D01*
X13947471Y-13888814D02*
X13890328Y-13888814D01*
X13861757Y-13903100D01*
X13847471Y-13917386D01*
X13818900Y-13960243D01*
X13804614Y-14017386D01*
X13804614Y-14131671D01*
X13818900Y-14160243D01*
X13833186Y-14174529D01*
X13861757Y-14188814D01*
X13918900Y-14188814D01*
X13947471Y-14174529D01*
X13961757Y-14160243D01*
X13976043Y-14131671D01*
X13976043Y-14060243D01*
X13961757Y-14031671D01*
X13947471Y-14017386D01*
X13918900Y-14003100D01*
X13861757Y-14003100D01*
X13833186Y-14017386D01*
X13818900Y-14031671D01*
X13804614Y-14060243D01*
X14247471Y-13888814D02*
X14104614Y-13888814D01*
X14090328Y-14031671D01*
X14104614Y-14017386D01*
X14133186Y-14003100D01*
X14204614Y-14003100D01*
X14233186Y-14017386D01*
X14247471Y-14031671D01*
X14261757Y-14060243D01*
X14261757Y-14131671D01*
X14247471Y-14160243D01*
X14233186Y-14174529D01*
X14204614Y-14188814D01*
X14133186Y-14188814D01*
X14104614Y-14174529D01*
X14090328Y-14160243D01*
X14390328Y-14188814D02*
X14390328Y-13988814D01*
X14390328Y-14017386D02*
X14404614Y-14003100D01*
X14433186Y-13988814D01*
X14476043Y-13988814D01*
X14504614Y-14003100D01*
X14518900Y-14031671D01*
X14518900Y-14188814D01*
X14518900Y-14031671D02*
X14533186Y-14003100D01*
X14561757Y-13988814D01*
X14604614Y-13988814D01*
X14633186Y-14003100D01*
X14647471Y-14031671D01*
X14647471Y-14188814D01*
X14790328Y-14188814D02*
X14790328Y-13988814D01*
X14790328Y-14017386D02*
X14804614Y-14003100D01*
X14833186Y-13988814D01*
X14876043Y-13988814D01*
X14904614Y-14003100D01*
X14918900Y-14031671D01*
X14918900Y-14188814D01*
X14918900Y-14031671D02*
X14933186Y-14003100D01*
X14961757Y-13988814D01*
X15004614Y-13988814D01*
X15033186Y-14003100D01*
X15047471Y-14031671D01*
X15047471Y-14188814D01*
X15633186Y-13874529D02*
X15376043Y-14260243D01*
X16018900Y-13888814D02*
X16047471Y-13888814D01*
X16076043Y-13903100D01*
X16090328Y-13917386D01*
X16104614Y-13945957D01*
X16118900Y-14003100D01*
X16118900Y-14074529D01*
X16104614Y-14131671D01*
X16090328Y-14160243D01*
X16076043Y-14174529D01*
X16047471Y-14188814D01*
X16018900Y-14188814D01*
X15990328Y-14174529D01*
X15976043Y-14160243D01*
X15961757Y-14131671D01*
X15947471Y-14074529D01*
X15947471Y-14003100D01*
X15961757Y-13945957D01*
X15976043Y-13917386D01*
X15990328Y-13903100D01*
X16018900Y-13888814D01*
X16247471Y-14160243D02*
X16261757Y-14174529D01*
X16247471Y-14188814D01*
X16233186Y-14174529D01*
X16247471Y-14160243D01*
X16247471Y-14188814D01*
X16447471Y-13888814D02*
X16476043Y-13888814D01*
X16504614Y-13903100D01*
X16518900Y-13917386D01*
X16533186Y-13945957D01*
X16547471Y-14003100D01*
X16547471Y-14074529D01*
X16533186Y-14131671D01*
X16518900Y-14160243D01*
X16504614Y-14174529D01*
X16476043Y-14188814D01*
X16447471Y-14188814D01*
X16418900Y-14174529D01*
X16404614Y-14160243D01*
X16390328Y-14131671D01*
X16376043Y-14074529D01*
X16376043Y-14003100D01*
X16390328Y-13945957D01*
X16404614Y-13917386D01*
X16418900Y-13903100D01*
X16447471Y-13888814D01*
X16661757Y-13917386D02*
X16676043Y-13903100D01*
X16704614Y-13888814D01*
X16776043Y-13888814D01*
X16804614Y-13903100D01*
X16818900Y-13917386D01*
X16833186Y-13945957D01*
X16833186Y-13974529D01*
X16818900Y-14017386D01*
X16647471Y-14188814D01*
X16833186Y-14188814D01*
X17090328Y-13888814D02*
X17033186Y-13888814D01*
X17004614Y-13903100D01*
X16990328Y-13917386D01*
X16961757Y-13960243D01*
X16947471Y-14017386D01*
X16947471Y-14131671D01*
X16961757Y-14160243D01*
X16976043Y-14174529D01*
X17004614Y-14188814D01*
X17061757Y-14188814D01*
X17090328Y-14174529D01*
X17104614Y-14160243D01*
X17118900Y-14131671D01*
X17118900Y-14060243D01*
X17104614Y-14031671D01*
X17090328Y-14017386D01*
X17061757Y-14003100D01*
X17004614Y-14003100D01*
X16976043Y-14017386D01*
X16961757Y-14031671D01*
X16947471Y-14060243D01*
X17233186Y-13888814D02*
X17233186Y-13945957D01*
X17347471Y-13888814D02*
X17347471Y-13945957D01*
X17790328Y-14303100D02*
X17776043Y-14288814D01*
X17747471Y-14245957D01*
X17733186Y-14217386D01*
X17718900Y-14174529D01*
X17704614Y-14103100D01*
X17704614Y-14045957D01*
X17718900Y-13974529D01*
X17733186Y-13931671D01*
X17747471Y-13903100D01*
X17776043Y-13860243D01*
X17790328Y-13845957D01*
X17961757Y-13888814D02*
X17990328Y-13888814D01*
X18018900Y-13903100D01*
X18033186Y-13917386D01*
X18047471Y-13945957D01*
X18061757Y-14003100D01*
X18061757Y-14074529D01*
X18047471Y-14131671D01*
X18033186Y-14160243D01*
X18018900Y-14174529D01*
X17990328Y-14188814D01*
X17961757Y-14188814D01*
X17933186Y-14174529D01*
X17918900Y-14160243D01*
X17904614Y-14131671D01*
X17890328Y-14074529D01*
X17890328Y-14003100D01*
X17904614Y-13945957D01*
X17918900Y-13917386D01*
X17933186Y-13903100D01*
X17961757Y-13888814D01*
X18418900Y-14188814D02*
X18418900Y-13888814D01*
X18547471Y-14188814D02*
X18547471Y-14031671D01*
X18533186Y-14003100D01*
X18504614Y-13988814D01*
X18461757Y-13988814D01*
X18433186Y-14003100D01*
X18418900Y-14017386D01*
X18733186Y-14188814D02*
X18704614Y-14174529D01*
X18690328Y-14160243D01*
X18676043Y-14131671D01*
X18676043Y-14045957D01*
X18690328Y-14017386D01*
X18704614Y-14003100D01*
X18733186Y-13988814D01*
X18776043Y-13988814D01*
X18804614Y-14003100D01*
X18818900Y-14017386D01*
X18833186Y-14045957D01*
X18833186Y-14131671D01*
X18818900Y-14160243D01*
X18804614Y-14174529D01*
X18776043Y-14188814D01*
X18733186Y-14188814D01*
X19004614Y-14188814D02*
X18976043Y-14174529D01*
X18961757Y-14145957D01*
X18961757Y-13888814D01*
X19233186Y-14174529D02*
X19204614Y-14188814D01*
X19147471Y-14188814D01*
X19118900Y-14174529D01*
X19104614Y-14145957D01*
X19104614Y-14031671D01*
X19118900Y-14003100D01*
X19147471Y-13988814D01*
X19204614Y-13988814D01*
X19233186Y-14003100D01*
X19247471Y-14031671D01*
X19247471Y-14060243D01*
X19104614Y-14088814D01*
X19361757Y-14174529D02*
X19390328Y-14188814D01*
X19447471Y-14188814D01*
X19476043Y-14174529D01*
X19490328Y-14145957D01*
X19490328Y-14131671D01*
X19476043Y-14103100D01*
X19447471Y-14088814D01*
X19404614Y-14088814D01*
X19376043Y-14074529D01*
X19361757Y-14045957D01*
X19361757Y-14031671D01*
X19376043Y-14003100D01*
X19404614Y-13988814D01*
X19447471Y-13988814D01*
X19476043Y-14003100D01*
X19847471Y-14074529D02*
X20076043Y-14074529D01*
X19961757Y-14188814D02*
X19961757Y-13960243D01*
X20576043Y-13988814D02*
X20576043Y-14188814D01*
X20504614Y-13874529D02*
X20433186Y-14088814D01*
X20618900Y-14088814D01*
X20947471Y-14174529D02*
X20976043Y-14188814D01*
X21033186Y-14188814D01*
X21061757Y-14174529D01*
X21076043Y-14145957D01*
X21076043Y-14131671D01*
X21061757Y-14103100D01*
X21033186Y-14088814D01*
X20990328Y-14088814D01*
X20961757Y-14074529D01*
X20947471Y-14045957D01*
X20947471Y-14031671D01*
X20961757Y-14003100D01*
X20990328Y-13988814D01*
X21033186Y-13988814D01*
X21061757Y-14003100D01*
X21247471Y-14188814D02*
X21218900Y-14174529D01*
X21204614Y-14145957D01*
X21204614Y-13888814D01*
X21404614Y-14188814D02*
X21376043Y-14174529D01*
X21361757Y-14160243D01*
X21347471Y-14131671D01*
X21347471Y-14045957D01*
X21361757Y-14017386D01*
X21376043Y-14003100D01*
X21404614Y-13988814D01*
X21447471Y-13988814D01*
X21476043Y-14003100D01*
X21490328Y-14017386D01*
X21504614Y-14045957D01*
X21504614Y-14131671D01*
X21490328Y-14160243D01*
X21476043Y-14174529D01*
X21447471Y-14188814D01*
X21404614Y-14188814D01*
X21590328Y-13988814D02*
X21704614Y-13988814D01*
X21633186Y-13888814D02*
X21633186Y-14145957D01*
X21647471Y-14174529D01*
X21676043Y-14188814D01*
X21704614Y-14188814D01*
X21790328Y-14174529D02*
X21818900Y-14188814D01*
X21876043Y-14188814D01*
X21904614Y-14174529D01*
X21918900Y-14145957D01*
X21918900Y-14131671D01*
X21904614Y-14103100D01*
X21876043Y-14088814D01*
X21833186Y-14088814D01*
X21804614Y-14074529D01*
X21790328Y-14045957D01*
X21790328Y-14031671D01*
X21804614Y-14003100D01*
X21833186Y-13988814D01*
X21876043Y-13988814D01*
X21904614Y-14003100D01*
X22018900Y-14303100D02*
X22033186Y-14288814D01*
X22061757Y-14245957D01*
X22076043Y-14217386D01*
X22090328Y-14174529D01*
X22104614Y-14103100D01*
X22104614Y-14045957D01*
X22090328Y-13974529D01*
X22076043Y-13931671D01*
X22061757Y-13903100D01*
X22033186Y-13860243D01*
X22018900Y-13845957D01*
X13103900Y-14449100D02*
G75*
G03X13103900Y-14449100I-35000J0D01*
G01*
X13447471Y-14284814D02*
X13476043Y-14284814D01*
X13504614Y-14299100D01*
X13518900Y-14313386D01*
X13533186Y-14341957D01*
X13547471Y-14399100D01*
X13547471Y-14470529D01*
X13533186Y-14527671D01*
X13518900Y-14556243D01*
X13504614Y-14570529D01*
X13476043Y-14584814D01*
X13447471Y-14584814D01*
X13418900Y-14570529D01*
X13404614Y-14556243D01*
X13390328Y-14527671D01*
X13376043Y-14470529D01*
X13376043Y-14399100D01*
X13390328Y-14341957D01*
X13404614Y-14313386D01*
X13418900Y-14299100D01*
X13447471Y-14284814D01*
X13676043Y-14556243D02*
X13690328Y-14570529D01*
X13676043Y-14584814D01*
X13661757Y-14570529D01*
X13676043Y-14556243D01*
X13676043Y-14584814D01*
X13790328Y-14284814D02*
X13990328Y-14284814D01*
X13861757Y-14584814D01*
X14161757Y-14284814D02*
X14190328Y-14284814D01*
X14218900Y-14299100D01*
X14233186Y-14313386D01*
X14247471Y-14341957D01*
X14261757Y-14399100D01*
X14261757Y-14470529D01*
X14247471Y-14527671D01*
X14233186Y-14556243D01*
X14218900Y-14570529D01*
X14190328Y-14584814D01*
X14161757Y-14584814D01*
X14133186Y-14570529D01*
X14118900Y-14556243D01*
X14104614Y-14527671D01*
X14090328Y-14470529D01*
X14090328Y-14399100D01*
X14104614Y-14341957D01*
X14118900Y-14313386D01*
X14133186Y-14299100D01*
X14161757Y-14284814D01*
X14390328Y-14584814D02*
X14390328Y-14384814D01*
X14390328Y-14413386D02*
X14404614Y-14399100D01*
X14433186Y-14384814D01*
X14476043Y-14384814D01*
X14504614Y-14399100D01*
X14518900Y-14427671D01*
X14518900Y-14584814D01*
X14518900Y-14427671D02*
X14533186Y-14399100D01*
X14561757Y-14384814D01*
X14604614Y-14384814D01*
X14633186Y-14399100D01*
X14647471Y-14427671D01*
X14647471Y-14584814D01*
X14790328Y-14584814D02*
X14790328Y-14384814D01*
X14790328Y-14413386D02*
X14804614Y-14399100D01*
X14833186Y-14384814D01*
X14876043Y-14384814D01*
X14904614Y-14399100D01*
X14918900Y-14427671D01*
X14918900Y-14584814D01*
X14918900Y-14427671D02*
X14933186Y-14399100D01*
X14961757Y-14384814D01*
X15004614Y-14384814D01*
X15033186Y-14399100D01*
X15047471Y-14427671D01*
X15047471Y-14584814D01*
X15633186Y-14270529D02*
X15376043Y-14656243D01*
X16018900Y-14284814D02*
X16047471Y-14284814D01*
X16076043Y-14299100D01*
X16090328Y-14313386D01*
X16104614Y-14341957D01*
X16118900Y-14399100D01*
X16118900Y-14470529D01*
X16104614Y-14527671D01*
X16090328Y-14556243D01*
X16076043Y-14570529D01*
X16047471Y-14584814D01*
X16018900Y-14584814D01*
X15990328Y-14570529D01*
X15976043Y-14556243D01*
X15961757Y-14527671D01*
X15947471Y-14470529D01*
X15947471Y-14399100D01*
X15961757Y-14341957D01*
X15976043Y-14313386D01*
X15990328Y-14299100D01*
X16018900Y-14284814D01*
X16247471Y-14556243D02*
X16261757Y-14570529D01*
X16247471Y-14584814D01*
X16233186Y-14570529D01*
X16247471Y-14556243D01*
X16247471Y-14584814D01*
X16447471Y-14284814D02*
X16476043Y-14284814D01*
X16504614Y-14299100D01*
X16518900Y-14313386D01*
X16533186Y-14341957D01*
X16547471Y-14399100D01*
X16547471Y-14470529D01*
X16533186Y-14527671D01*
X16518900Y-14556243D01*
X16504614Y-14570529D01*
X16476043Y-14584814D01*
X16447471Y-14584814D01*
X16418900Y-14570529D01*
X16404614Y-14556243D01*
X16390328Y-14527671D01*
X16376043Y-14470529D01*
X16376043Y-14399100D01*
X16390328Y-14341957D01*
X16404614Y-14313386D01*
X16418900Y-14299100D01*
X16447471Y-14284814D01*
X16661757Y-14313386D02*
X16676043Y-14299100D01*
X16704614Y-14284814D01*
X16776043Y-14284814D01*
X16804614Y-14299100D01*
X16818900Y-14313386D01*
X16833186Y-14341957D01*
X16833186Y-14370529D01*
X16818900Y-14413386D01*
X16647471Y-14584814D01*
X16833186Y-14584814D01*
X17004614Y-14413386D02*
X16976043Y-14399100D01*
X16961757Y-14384814D01*
X16947471Y-14356243D01*
X16947471Y-14341957D01*
X16961757Y-14313386D01*
X16976043Y-14299100D01*
X17004614Y-14284814D01*
X17061757Y-14284814D01*
X17090328Y-14299100D01*
X17104614Y-14313386D01*
X17118900Y-14341957D01*
X17118900Y-14356243D01*
X17104614Y-14384814D01*
X17090328Y-14399100D01*
X17061757Y-14413386D01*
X17004614Y-14413386D01*
X16976043Y-14427671D01*
X16961757Y-14441957D01*
X16947471Y-14470529D01*
X16947471Y-14527671D01*
X16961757Y-14556243D01*
X16976043Y-14570529D01*
X17004614Y-14584814D01*
X17061757Y-14584814D01*
X17090328Y-14570529D01*
X17104614Y-14556243D01*
X17118900Y-14527671D01*
X17118900Y-14470529D01*
X17104614Y-14441957D01*
X17090328Y-14427671D01*
X17061757Y-14413386D01*
X17233186Y-14284814D02*
X17233186Y-14341957D01*
X17347471Y-14284814D02*
X17347471Y-14341957D01*
X17790328Y-14699100D02*
X17776043Y-14684814D01*
X17747471Y-14641957D01*
X17733186Y-14613386D01*
X17718900Y-14570529D01*
X17704614Y-14499100D01*
X17704614Y-14441957D01*
X17718900Y-14370529D01*
X17733186Y-14327671D01*
X17747471Y-14299100D01*
X17776043Y-14256243D01*
X17790328Y-14241957D01*
X18061757Y-14584814D02*
X17890328Y-14584814D01*
X17976043Y-14584814D02*
X17976043Y-14284814D01*
X17947471Y-14327671D01*
X17918900Y-14356243D01*
X17890328Y-14370529D01*
X18233186Y-14413386D02*
X18204614Y-14399100D01*
X18190328Y-14384814D01*
X18176043Y-14356243D01*
X18176043Y-14341957D01*
X18190328Y-14313386D01*
X18204614Y-14299100D01*
X18233186Y-14284814D01*
X18290328Y-14284814D01*
X18318900Y-14299100D01*
X18333186Y-14313386D01*
X18347471Y-14341957D01*
X18347471Y-14356243D01*
X18333186Y-14384814D01*
X18318900Y-14399100D01*
X18290328Y-14413386D01*
X18233186Y-14413386D01*
X18204614Y-14427671D01*
X18190328Y-14441957D01*
X18176043Y-14470529D01*
X18176043Y-14527671D01*
X18190328Y-14556243D01*
X18204614Y-14570529D01*
X18233186Y-14584814D01*
X18290328Y-14584814D01*
X18318900Y-14570529D01*
X18333186Y-14556243D01*
X18347471Y-14527671D01*
X18347471Y-14470529D01*
X18333186Y-14441957D01*
X18318900Y-14427671D01*
X18290328Y-14413386D01*
X18704614Y-14584814D02*
X18704614Y-14284814D01*
X18833186Y-14584814D02*
X18833186Y-14427671D01*
X18818900Y-14399100D01*
X18790328Y-14384814D01*
X18747471Y-14384814D01*
X18718900Y-14399100D01*
X18704614Y-14413386D01*
X19018900Y-14584814D02*
X18990328Y-14570529D01*
X18976043Y-14556243D01*
X18961757Y-14527671D01*
X18961757Y-14441957D01*
X18976043Y-14413386D01*
X18990328Y-14399100D01*
X19018900Y-14384814D01*
X19061757Y-14384814D01*
X19090328Y-14399100D01*
X19104614Y-14413386D01*
X19118900Y-14441957D01*
X19118900Y-14527671D01*
X19104614Y-14556243D01*
X19090328Y-14570529D01*
X19061757Y-14584814D01*
X19018900Y-14584814D01*
X19290328Y-14584814D02*
X19261757Y-14570529D01*
X19247471Y-14541957D01*
X19247471Y-14284814D01*
X19518900Y-14570529D02*
X19490328Y-14584814D01*
X19433186Y-14584814D01*
X19404614Y-14570529D01*
X19390328Y-14541957D01*
X19390328Y-14427671D01*
X19404614Y-14399100D01*
X19433186Y-14384814D01*
X19490328Y-14384814D01*
X19518900Y-14399100D01*
X19533186Y-14427671D01*
X19533186Y-14456243D01*
X19390328Y-14484814D01*
X19647471Y-14570529D02*
X19676043Y-14584814D01*
X19733186Y-14584814D01*
X19761757Y-14570529D01*
X19776043Y-14541957D01*
X19776043Y-14527671D01*
X19761757Y-14499100D01*
X19733186Y-14484814D01*
X19690328Y-14484814D01*
X19661757Y-14470529D01*
X19647471Y-14441957D01*
X19647471Y-14427671D01*
X19661757Y-14399100D01*
X19690328Y-14384814D01*
X19733186Y-14384814D01*
X19761757Y-14399100D01*
X19876043Y-14699100D02*
X19890328Y-14684814D01*
X19918900Y-14641957D01*
X19933186Y-14613386D01*
X19947471Y-14570529D01*
X19961757Y-14499100D01*
X19961757Y-14441957D01*
X19947471Y-14370529D01*
X19933186Y-14327671D01*
X19918900Y-14299100D01*
X19890328Y-14256243D01*
X19876043Y-14241957D01*
X13063900Y-14805100D02*
X13063900Y-14885100D01*
X13023900Y-14845100D02*
X13103900Y-14845100D01*
X13447471Y-14680814D02*
X13476043Y-14680814D01*
X13504614Y-14695100D01*
X13518900Y-14709386D01*
X13533186Y-14737957D01*
X13547471Y-14795100D01*
X13547471Y-14866529D01*
X13533186Y-14923671D01*
X13518900Y-14952243D01*
X13504614Y-14966529D01*
X13476043Y-14980814D01*
X13447471Y-14980814D01*
X13418900Y-14966529D01*
X13404614Y-14952243D01*
X13390328Y-14923671D01*
X13376043Y-14866529D01*
X13376043Y-14795100D01*
X13390328Y-14737957D01*
X13404614Y-14709386D01*
X13418900Y-14695100D01*
X13447471Y-14680814D01*
X13676043Y-14952243D02*
X13690328Y-14966529D01*
X13676043Y-14980814D01*
X13661757Y-14966529D01*
X13676043Y-14952243D01*
X13676043Y-14980814D01*
X13861757Y-14809386D02*
X13833186Y-14795100D01*
X13818900Y-14780814D01*
X13804614Y-14752243D01*
X13804614Y-14737957D01*
X13818900Y-14709386D01*
X13833186Y-14695100D01*
X13861757Y-14680814D01*
X13918900Y-14680814D01*
X13947471Y-14695100D01*
X13961757Y-14709386D01*
X13976043Y-14737957D01*
X13976043Y-14752243D01*
X13961757Y-14780814D01*
X13947471Y-14795100D01*
X13918900Y-14809386D01*
X13861757Y-14809386D01*
X13833186Y-14823671D01*
X13818900Y-14837957D01*
X13804614Y-14866529D01*
X13804614Y-14923671D01*
X13818900Y-14952243D01*
X13833186Y-14966529D01*
X13861757Y-14980814D01*
X13918900Y-14980814D01*
X13947471Y-14966529D01*
X13961757Y-14952243D01*
X13976043Y-14923671D01*
X13976043Y-14866529D01*
X13961757Y-14837957D01*
X13947471Y-14823671D01*
X13918900Y-14809386D01*
X14161757Y-14680814D02*
X14190328Y-14680814D01*
X14218900Y-14695100D01*
X14233186Y-14709386D01*
X14247471Y-14737957D01*
X14261757Y-14795100D01*
X14261757Y-14866529D01*
X14247471Y-14923671D01*
X14233186Y-14952243D01*
X14218900Y-14966529D01*
X14190328Y-14980814D01*
X14161757Y-14980814D01*
X14133186Y-14966529D01*
X14118900Y-14952243D01*
X14104614Y-14923671D01*
X14090328Y-14866529D01*
X14090328Y-14795100D01*
X14104614Y-14737957D01*
X14118900Y-14709386D01*
X14133186Y-14695100D01*
X14161757Y-14680814D01*
X14390328Y-14980814D02*
X14390328Y-14780814D01*
X14390328Y-14809386D02*
X14404614Y-14795100D01*
X14433186Y-14780814D01*
X14476043Y-14780814D01*
X14504614Y-14795100D01*
X14518900Y-14823671D01*
X14518900Y-14980814D01*
X14518900Y-14823671D02*
X14533186Y-14795100D01*
X14561757Y-14780814D01*
X14604614Y-14780814D01*
X14633186Y-14795100D01*
X14647471Y-14823671D01*
X14647471Y-14980814D01*
X14790328Y-14980814D02*
X14790328Y-14780814D01*
X14790328Y-14809386D02*
X14804614Y-14795100D01*
X14833186Y-14780814D01*
X14876043Y-14780814D01*
X14904614Y-14795100D01*
X14918900Y-14823671D01*
X14918900Y-14980814D01*
X14918900Y-14823671D02*
X14933186Y-14795100D01*
X14961757Y-14780814D01*
X15004614Y-14780814D01*
X15033186Y-14795100D01*
X15047471Y-14823671D01*
X15047471Y-14980814D01*
X15633186Y-14666529D02*
X15376043Y-15052243D01*
X16018900Y-14680814D02*
X16047471Y-14680814D01*
X16076043Y-14695100D01*
X16090328Y-14709386D01*
X16104614Y-14737957D01*
X16118900Y-14795100D01*
X16118900Y-14866529D01*
X16104614Y-14923671D01*
X16090328Y-14952243D01*
X16076043Y-14966529D01*
X16047471Y-14980814D01*
X16018900Y-14980814D01*
X15990328Y-14966529D01*
X15976043Y-14952243D01*
X15961757Y-14923671D01*
X15947471Y-14866529D01*
X15947471Y-14795100D01*
X15961757Y-14737957D01*
X15976043Y-14709386D01*
X15990328Y-14695100D01*
X16018900Y-14680814D01*
X16247471Y-14952243D02*
X16261757Y-14966529D01*
X16247471Y-14980814D01*
X16233186Y-14966529D01*
X16247471Y-14952243D01*
X16247471Y-14980814D01*
X16447471Y-14680814D02*
X16476043Y-14680814D01*
X16504614Y-14695100D01*
X16518900Y-14709386D01*
X16533186Y-14737957D01*
X16547471Y-14795100D01*
X16547471Y-14866529D01*
X16533186Y-14923671D01*
X16518900Y-14952243D01*
X16504614Y-14966529D01*
X16476043Y-14980814D01*
X16447471Y-14980814D01*
X16418900Y-14966529D01*
X16404614Y-14952243D01*
X16390328Y-14923671D01*
X16376043Y-14866529D01*
X16376043Y-14795100D01*
X16390328Y-14737957D01*
X16404614Y-14709386D01*
X16418900Y-14695100D01*
X16447471Y-14680814D01*
X16647471Y-14680814D02*
X16833186Y-14680814D01*
X16733186Y-14795100D01*
X16776043Y-14795100D01*
X16804614Y-14809386D01*
X16818900Y-14823671D01*
X16833186Y-14852243D01*
X16833186Y-14923671D01*
X16818900Y-14952243D01*
X16804614Y-14966529D01*
X16776043Y-14980814D01*
X16690328Y-14980814D01*
X16661757Y-14966529D01*
X16647471Y-14952243D01*
X17118900Y-14980814D02*
X16947471Y-14980814D01*
X17033186Y-14980814D02*
X17033186Y-14680814D01*
X17004614Y-14723671D01*
X16976043Y-14752243D01*
X16947471Y-14766529D01*
X17233186Y-14680814D02*
X17233186Y-14737957D01*
X17347471Y-14680814D02*
X17347471Y-14737957D01*
X17790328Y-15095100D02*
X17776043Y-15080814D01*
X17747471Y-15037957D01*
X17733186Y-15009386D01*
X17718900Y-14966529D01*
X17704614Y-14895100D01*
X17704614Y-14837957D01*
X17718900Y-14766529D01*
X17733186Y-14723671D01*
X17747471Y-14695100D01*
X17776043Y-14652243D01*
X17790328Y-14637957D01*
X18047471Y-14680814D02*
X17904614Y-14680814D01*
X17890328Y-14823671D01*
X17904614Y-14809386D01*
X17933186Y-14795100D01*
X18004614Y-14795100D01*
X18033186Y-14809386D01*
X18047471Y-14823671D01*
X18061757Y-14852243D01*
X18061757Y-14923671D01*
X18047471Y-14952243D01*
X18033186Y-14966529D01*
X18004614Y-14980814D01*
X17933186Y-14980814D01*
X17904614Y-14966529D01*
X17890328Y-14952243D01*
X18233186Y-14809386D02*
X18204614Y-14795100D01*
X18190328Y-14780814D01*
X18176043Y-14752243D01*
X18176043Y-14737957D01*
X18190328Y-14709386D01*
X18204614Y-14695100D01*
X18233186Y-14680814D01*
X18290328Y-14680814D01*
X18318900Y-14695100D01*
X18333186Y-14709386D01*
X18347471Y-14737957D01*
X18347471Y-14752243D01*
X18333186Y-14780814D01*
X18318900Y-14795100D01*
X18290328Y-14809386D01*
X18233186Y-14809386D01*
X18204614Y-14823671D01*
X18190328Y-14837957D01*
X18176043Y-14866529D01*
X18176043Y-14923671D01*
X18190328Y-14952243D01*
X18204614Y-14966529D01*
X18233186Y-14980814D01*
X18290328Y-14980814D01*
X18318900Y-14966529D01*
X18333186Y-14952243D01*
X18347471Y-14923671D01*
X18347471Y-14866529D01*
X18333186Y-14837957D01*
X18318900Y-14823671D01*
X18290328Y-14809386D01*
X18704614Y-14980814D02*
X18704614Y-14680814D01*
X18833186Y-14980814D02*
X18833186Y-14823671D01*
X18818900Y-14795100D01*
X18790328Y-14780814D01*
X18747471Y-14780814D01*
X18718900Y-14795100D01*
X18704614Y-14809386D01*
X19018900Y-14980814D02*
X18990328Y-14966529D01*
X18976043Y-14952243D01*
X18961757Y-14923671D01*
X18961757Y-14837957D01*
X18976043Y-14809386D01*
X18990328Y-14795100D01*
X19018900Y-14780814D01*
X19061757Y-14780814D01*
X19090328Y-14795100D01*
X19104614Y-14809386D01*
X19118900Y-14837957D01*
X19118900Y-14923671D01*
X19104614Y-14952243D01*
X19090328Y-14966529D01*
X19061757Y-14980814D01*
X19018900Y-14980814D01*
X19290328Y-14980814D02*
X19261757Y-14966529D01*
X19247471Y-14937957D01*
X19247471Y-14680814D01*
X19518900Y-14966529D02*
X19490328Y-14980814D01*
X19433186Y-14980814D01*
X19404614Y-14966529D01*
X19390328Y-14937957D01*
X19390328Y-14823671D01*
X19404614Y-14795100D01*
X19433186Y-14780814D01*
X19490328Y-14780814D01*
X19518900Y-14795100D01*
X19533186Y-14823671D01*
X19533186Y-14852243D01*
X19390328Y-14880814D01*
X19647471Y-14966529D02*
X19676043Y-14980814D01*
X19733186Y-14980814D01*
X19761757Y-14966529D01*
X19776043Y-14937957D01*
X19776043Y-14923671D01*
X19761757Y-14895100D01*
X19733186Y-14880814D01*
X19690328Y-14880814D01*
X19661757Y-14866529D01*
X19647471Y-14837957D01*
X19647471Y-14823671D01*
X19661757Y-14795100D01*
X19690328Y-14780814D01*
X19733186Y-14780814D01*
X19761757Y-14795100D01*
X19876043Y-15095100D02*
X19890328Y-15080814D01*
X19918900Y-15037957D01*
X19933186Y-15009386D01*
X19947471Y-14966529D01*
X19961757Y-14895100D01*
X19961757Y-14837957D01*
X19947471Y-14766529D01*
X19933186Y-14723671D01*
X19918900Y-14695100D01*
X19890328Y-14652243D01*
X19876043Y-14637957D01*
X13090720Y-15272920D02*
X13090720Y-15209280D01*
X13027080Y-15209280D01*
X13027080Y-15272920D01*
X13090720Y-15272920D01*
X13447471Y-15076814D02*
X13476043Y-15076814D01*
X13504614Y-15091100D01*
X13518900Y-15105386D01*
X13533186Y-15133957D01*
X13547471Y-15191100D01*
X13547471Y-15262529D01*
X13533186Y-15319671D01*
X13518900Y-15348243D01*
X13504614Y-15362529D01*
X13476043Y-15376814D01*
X13447471Y-15376814D01*
X13418900Y-15362529D01*
X13404614Y-15348243D01*
X13390328Y-15319671D01*
X13376043Y-15262529D01*
X13376043Y-15191100D01*
X13390328Y-15133957D01*
X13404614Y-15105386D01*
X13418900Y-15091100D01*
X13447471Y-15076814D01*
X13676043Y-15348243D02*
X13690328Y-15362529D01*
X13676043Y-15376814D01*
X13661757Y-15362529D01*
X13676043Y-15348243D01*
X13676043Y-15376814D01*
X13833186Y-15376814D02*
X13890328Y-15376814D01*
X13918900Y-15362529D01*
X13933186Y-15348243D01*
X13961757Y-15305386D01*
X13976043Y-15248243D01*
X13976043Y-15133957D01*
X13961757Y-15105386D01*
X13947471Y-15091100D01*
X13918900Y-15076814D01*
X13861757Y-15076814D01*
X13833186Y-15091100D01*
X13818900Y-15105386D01*
X13804614Y-15133957D01*
X13804614Y-15205386D01*
X13818900Y-15233957D01*
X13833186Y-15248243D01*
X13861757Y-15262529D01*
X13918900Y-15262529D01*
X13947471Y-15248243D01*
X13961757Y-15233957D01*
X13976043Y-15205386D01*
X14161757Y-15076814D02*
X14190328Y-15076814D01*
X14218900Y-15091100D01*
X14233186Y-15105386D01*
X14247471Y-15133957D01*
X14261757Y-15191100D01*
X14261757Y-15262529D01*
X14247471Y-15319671D01*
X14233186Y-15348243D01*
X14218900Y-15362529D01*
X14190328Y-15376814D01*
X14161757Y-15376814D01*
X14133186Y-15362529D01*
X14118900Y-15348243D01*
X14104614Y-15319671D01*
X14090328Y-15262529D01*
X14090328Y-15191100D01*
X14104614Y-15133957D01*
X14118900Y-15105386D01*
X14133186Y-15091100D01*
X14161757Y-15076814D01*
X14390328Y-15376814D02*
X14390328Y-15176814D01*
X14390328Y-15205386D02*
X14404614Y-15191100D01*
X14433186Y-15176814D01*
X14476043Y-15176814D01*
X14504614Y-15191100D01*
X14518900Y-15219671D01*
X14518900Y-15376814D01*
X14518900Y-15219671D02*
X14533186Y-15191100D01*
X14561757Y-15176814D01*
X14604614Y-15176814D01*
X14633186Y-15191100D01*
X14647471Y-15219671D01*
X14647471Y-15376814D01*
X14790328Y-15376814D02*
X14790328Y-15176814D01*
X14790328Y-15205386D02*
X14804614Y-15191100D01*
X14833186Y-15176814D01*
X14876043Y-15176814D01*
X14904614Y-15191100D01*
X14918900Y-15219671D01*
X14918900Y-15376814D01*
X14918900Y-15219671D02*
X14933186Y-15191100D01*
X14961757Y-15176814D01*
X15004614Y-15176814D01*
X15033186Y-15191100D01*
X15047471Y-15219671D01*
X15047471Y-15376814D01*
X15633186Y-15062529D02*
X15376043Y-15448243D01*
X16018900Y-15076814D02*
X16047471Y-15076814D01*
X16076043Y-15091100D01*
X16090328Y-15105386D01*
X16104614Y-15133957D01*
X16118900Y-15191100D01*
X16118900Y-15262529D01*
X16104614Y-15319671D01*
X16090328Y-15348243D01*
X16076043Y-15362529D01*
X16047471Y-15376814D01*
X16018900Y-15376814D01*
X15990328Y-15362529D01*
X15976043Y-15348243D01*
X15961757Y-15319671D01*
X15947471Y-15262529D01*
X15947471Y-15191100D01*
X15961757Y-15133957D01*
X15976043Y-15105386D01*
X15990328Y-15091100D01*
X16018900Y-15076814D01*
X16247471Y-15348243D02*
X16261757Y-15362529D01*
X16247471Y-15376814D01*
X16233186Y-15362529D01*
X16247471Y-15348243D01*
X16247471Y-15376814D01*
X16447471Y-15076814D02*
X16476043Y-15076814D01*
X16504614Y-15091100D01*
X16518900Y-15105386D01*
X16533186Y-15133957D01*
X16547471Y-15191100D01*
X16547471Y-15262529D01*
X16533186Y-15319671D01*
X16518900Y-15348243D01*
X16504614Y-15362529D01*
X16476043Y-15376814D01*
X16447471Y-15376814D01*
X16418900Y-15362529D01*
X16404614Y-15348243D01*
X16390328Y-15319671D01*
X16376043Y-15262529D01*
X16376043Y-15191100D01*
X16390328Y-15133957D01*
X16404614Y-15105386D01*
X16418900Y-15091100D01*
X16447471Y-15076814D01*
X16647471Y-15076814D02*
X16833186Y-15076814D01*
X16733186Y-15191100D01*
X16776043Y-15191100D01*
X16804614Y-15205386D01*
X16818900Y-15219671D01*
X16833186Y-15248243D01*
X16833186Y-15319671D01*
X16818900Y-15348243D01*
X16804614Y-15362529D01*
X16776043Y-15376814D01*
X16690328Y-15376814D01*
X16661757Y-15362529D01*
X16647471Y-15348243D01*
X17104614Y-15076814D02*
X16961757Y-15076814D01*
X16947471Y-15219671D01*
X16961757Y-15205386D01*
X16990328Y-15191100D01*
X17061757Y-15191100D01*
X17090328Y-15205386D01*
X17104614Y-15219671D01*
X17118900Y-15248243D01*
X17118900Y-15319671D01*
X17104614Y-15348243D01*
X17090328Y-15362529D01*
X17061757Y-15376814D01*
X16990328Y-15376814D01*
X16961757Y-15362529D01*
X16947471Y-15348243D01*
X17233186Y-15076814D02*
X17233186Y-15133957D01*
X17347471Y-15076814D02*
X17347471Y-15133957D01*
X17790328Y-15491100D02*
X17776043Y-15476814D01*
X17747471Y-15433957D01*
X17733186Y-15405386D01*
X17718900Y-15362529D01*
X17704614Y-15291100D01*
X17704614Y-15233957D01*
X17718900Y-15162529D01*
X17733186Y-15119671D01*
X17747471Y-15091100D01*
X17776043Y-15048243D01*
X17790328Y-15033957D01*
X17947471Y-15205386D02*
X17918900Y-15191100D01*
X17904614Y-15176814D01*
X17890328Y-15148243D01*
X17890328Y-15133957D01*
X17904614Y-15105386D01*
X17918900Y-15091100D01*
X17947471Y-15076814D01*
X18004614Y-15076814D01*
X18033186Y-15091100D01*
X18047471Y-15105386D01*
X18061757Y-15133957D01*
X18061757Y-15148243D01*
X18047471Y-15176814D01*
X18033186Y-15191100D01*
X18004614Y-15205386D01*
X17947471Y-15205386D01*
X17918900Y-15219671D01*
X17904614Y-15233957D01*
X17890328Y-15262529D01*
X17890328Y-15319671D01*
X17904614Y-15348243D01*
X17918900Y-15362529D01*
X17947471Y-15376814D01*
X18004614Y-15376814D01*
X18033186Y-15362529D01*
X18047471Y-15348243D01*
X18061757Y-15319671D01*
X18061757Y-15262529D01*
X18047471Y-15233957D01*
X18033186Y-15219671D01*
X18004614Y-15205386D01*
X18418900Y-15376814D02*
X18418900Y-15076814D01*
X18547471Y-15376814D02*
X18547471Y-15219671D01*
X18533186Y-15191100D01*
X18504614Y-15176814D01*
X18461757Y-15176814D01*
X18433186Y-15191100D01*
X18418900Y-15205386D01*
X18733186Y-15376814D02*
X18704614Y-15362529D01*
X18690328Y-15348243D01*
X18676043Y-15319671D01*
X18676043Y-15233957D01*
X18690328Y-15205386D01*
X18704614Y-15191100D01*
X18733186Y-15176814D01*
X18776043Y-15176814D01*
X18804614Y-15191100D01*
X18818900Y-15205386D01*
X18833186Y-15233957D01*
X18833186Y-15319671D01*
X18818900Y-15348243D01*
X18804614Y-15362529D01*
X18776043Y-15376814D01*
X18733186Y-15376814D01*
X19004614Y-15376814D02*
X18976043Y-15362529D01*
X18961757Y-15333957D01*
X18961757Y-15076814D01*
X19233186Y-15362529D02*
X19204614Y-15376814D01*
X19147471Y-15376814D01*
X19118900Y-15362529D01*
X19104614Y-15333957D01*
X19104614Y-15219671D01*
X19118900Y-15191100D01*
X19147471Y-15176814D01*
X19204614Y-15176814D01*
X19233186Y-15191100D01*
X19247471Y-15219671D01*
X19247471Y-15248243D01*
X19104614Y-15276814D01*
X19361757Y-15362529D02*
X19390328Y-15376814D01*
X19447471Y-15376814D01*
X19476043Y-15362529D01*
X19490328Y-15333957D01*
X19490328Y-15319671D01*
X19476043Y-15291100D01*
X19447471Y-15276814D01*
X19404614Y-15276814D01*
X19376043Y-15262529D01*
X19361757Y-15233957D01*
X19361757Y-15219671D01*
X19376043Y-15191100D01*
X19404614Y-15176814D01*
X19447471Y-15176814D01*
X19476043Y-15191100D01*
X19590328Y-15491100D02*
X19604614Y-15476814D01*
X19633186Y-15433957D01*
X19647471Y-15405386D01*
X19661757Y-15362529D01*
X19676043Y-15291100D01*
X19676043Y-15233957D01*
X19661757Y-15162529D01*
X19647471Y-15119671D01*
X19633186Y-15091100D01*
X19604614Y-15048243D01*
X19590328Y-15033957D01*
X13053900Y-15687100D02*
X13103900Y-15637100D01*
X13053900Y-15587100D01*
X13003900Y-15637100D01*
X13053900Y-15687100D01*
X13547471Y-15772814D02*
X13376043Y-15772814D01*
X13461757Y-15772814D02*
X13461757Y-15472814D01*
X13433186Y-15515671D01*
X13404614Y-15544243D01*
X13376043Y-15558529D01*
X13676043Y-15744243D02*
X13690328Y-15758529D01*
X13676043Y-15772814D01*
X13661757Y-15758529D01*
X13676043Y-15744243D01*
X13676043Y-15772814D01*
X13876043Y-15472814D02*
X13904614Y-15472814D01*
X13933186Y-15487100D01*
X13947471Y-15501386D01*
X13961757Y-15529957D01*
X13976043Y-15587100D01*
X13976043Y-15658529D01*
X13961757Y-15715671D01*
X13947471Y-15744243D01*
X13933186Y-15758529D01*
X13904614Y-15772814D01*
X13876043Y-15772814D01*
X13847471Y-15758529D01*
X13833186Y-15744243D01*
X13818900Y-15715671D01*
X13804614Y-15658529D01*
X13804614Y-15587100D01*
X13818900Y-15529957D01*
X13833186Y-15501386D01*
X13847471Y-15487100D01*
X13876043Y-15472814D01*
X14161757Y-15472814D02*
X14190328Y-15472814D01*
X14218900Y-15487100D01*
X14233186Y-15501386D01*
X14247471Y-15529957D01*
X14261757Y-15587100D01*
X14261757Y-15658529D01*
X14247471Y-15715671D01*
X14233186Y-15744243D01*
X14218900Y-15758529D01*
X14190328Y-15772814D01*
X14161757Y-15772814D01*
X14133186Y-15758529D01*
X14118900Y-15744243D01*
X14104614Y-15715671D01*
X14090328Y-15658529D01*
X14090328Y-15587100D01*
X14104614Y-15529957D01*
X14118900Y-15501386D01*
X14133186Y-15487100D01*
X14161757Y-15472814D01*
X14390328Y-15772814D02*
X14390328Y-15572814D01*
X14390328Y-15601386D02*
X14404614Y-15587100D01*
X14433186Y-15572814D01*
X14476043Y-15572814D01*
X14504614Y-15587100D01*
X14518900Y-15615671D01*
X14518900Y-15772814D01*
X14518900Y-15615671D02*
X14533186Y-15587100D01*
X14561757Y-15572814D01*
X14604614Y-15572814D01*
X14633186Y-15587100D01*
X14647471Y-15615671D01*
X14647471Y-15772814D01*
X14790328Y-15772814D02*
X14790328Y-15572814D01*
X14790328Y-15601386D02*
X14804614Y-15587100D01*
X14833186Y-15572814D01*
X14876043Y-15572814D01*
X14904614Y-15587100D01*
X14918900Y-15615671D01*
X14918900Y-15772814D01*
X14918900Y-15615671D02*
X14933186Y-15587100D01*
X14961757Y-15572814D01*
X15004614Y-15572814D01*
X15033186Y-15587100D01*
X15047471Y-15615671D01*
X15047471Y-15772814D01*
X15633186Y-15458529D02*
X15376043Y-15844243D01*
X16018900Y-15472814D02*
X16047471Y-15472814D01*
X16076043Y-15487100D01*
X16090328Y-15501386D01*
X16104614Y-15529957D01*
X16118900Y-15587100D01*
X16118900Y-15658529D01*
X16104614Y-15715671D01*
X16090328Y-15744243D01*
X16076043Y-15758529D01*
X16047471Y-15772814D01*
X16018900Y-15772814D01*
X15990328Y-15758529D01*
X15976043Y-15744243D01*
X15961757Y-15715671D01*
X15947471Y-15658529D01*
X15947471Y-15587100D01*
X15961757Y-15529957D01*
X15976043Y-15501386D01*
X15990328Y-15487100D01*
X16018900Y-15472814D01*
X16247471Y-15744243D02*
X16261757Y-15758529D01*
X16247471Y-15772814D01*
X16233186Y-15758529D01*
X16247471Y-15744243D01*
X16247471Y-15772814D01*
X16447471Y-15472814D02*
X16476043Y-15472814D01*
X16504614Y-15487100D01*
X16518900Y-15501386D01*
X16533186Y-15529957D01*
X16547471Y-15587100D01*
X16547471Y-15658529D01*
X16533186Y-15715671D01*
X16518900Y-15744243D01*
X16504614Y-15758529D01*
X16476043Y-15772814D01*
X16447471Y-15772814D01*
X16418900Y-15758529D01*
X16404614Y-15744243D01*
X16390328Y-15715671D01*
X16376043Y-15658529D01*
X16376043Y-15587100D01*
X16390328Y-15529957D01*
X16404614Y-15501386D01*
X16418900Y-15487100D01*
X16447471Y-15472814D01*
X16647471Y-15472814D02*
X16833186Y-15472814D01*
X16733186Y-15587100D01*
X16776043Y-15587100D01*
X16804614Y-15601386D01*
X16818900Y-15615671D01*
X16833186Y-15644243D01*
X16833186Y-15715671D01*
X16818900Y-15744243D01*
X16804614Y-15758529D01*
X16776043Y-15772814D01*
X16690328Y-15772814D01*
X16661757Y-15758529D01*
X16647471Y-15744243D01*
X16976043Y-15772814D02*
X17033186Y-15772814D01*
X17061757Y-15758529D01*
X17076043Y-15744243D01*
X17104614Y-15701386D01*
X17118900Y-15644243D01*
X17118900Y-15529957D01*
X17104614Y-15501386D01*
X17090328Y-15487100D01*
X17061757Y-15472814D01*
X17004614Y-15472814D01*
X16976043Y-15487100D01*
X16961757Y-15501386D01*
X16947471Y-15529957D01*
X16947471Y-15601386D01*
X16961757Y-15629957D01*
X16976043Y-15644243D01*
X17004614Y-15658529D01*
X17061757Y-15658529D01*
X17090328Y-15644243D01*
X17104614Y-15629957D01*
X17118900Y-15601386D01*
X17233186Y-15472814D02*
X17233186Y-15529957D01*
X17347471Y-15472814D02*
X17347471Y-15529957D01*
X17790328Y-15887100D02*
X17776043Y-15872814D01*
X17747471Y-15829957D01*
X17733186Y-15801386D01*
X17718900Y-15758529D01*
X17704614Y-15687100D01*
X17704614Y-15629957D01*
X17718900Y-15558529D01*
X17733186Y-15515671D01*
X17747471Y-15487100D01*
X17776043Y-15444243D01*
X17790328Y-15429957D01*
X17947471Y-15601386D02*
X17918900Y-15587100D01*
X17904614Y-15572814D01*
X17890328Y-15544243D01*
X17890328Y-15529957D01*
X17904614Y-15501386D01*
X17918900Y-15487100D01*
X17947471Y-15472814D01*
X18004614Y-15472814D01*
X18033186Y-15487100D01*
X18047471Y-15501386D01*
X18061757Y-15529957D01*
X18061757Y-15544243D01*
X18047471Y-15572814D01*
X18033186Y-15587100D01*
X18004614Y-15601386D01*
X17947471Y-15601386D01*
X17918900Y-15615671D01*
X17904614Y-15629957D01*
X17890328Y-15658529D01*
X17890328Y-15715671D01*
X17904614Y-15744243D01*
X17918900Y-15758529D01*
X17947471Y-15772814D01*
X18004614Y-15772814D01*
X18033186Y-15758529D01*
X18047471Y-15744243D01*
X18061757Y-15715671D01*
X18061757Y-15658529D01*
X18047471Y-15629957D01*
X18033186Y-15615671D01*
X18004614Y-15601386D01*
X18418900Y-15772814D02*
X18418900Y-15472814D01*
X18547471Y-15772814D02*
X18547471Y-15615671D01*
X18533186Y-15587100D01*
X18504614Y-15572814D01*
X18461757Y-15572814D01*
X18433186Y-15587100D01*
X18418900Y-15601386D01*
X18733186Y-15772814D02*
X18704614Y-15758529D01*
X18690328Y-15744243D01*
X18676043Y-15715671D01*
X18676043Y-15629957D01*
X18690328Y-15601386D01*
X18704614Y-15587100D01*
X18733186Y-15572814D01*
X18776043Y-15572814D01*
X18804614Y-15587100D01*
X18818900Y-15601386D01*
X18833186Y-15629957D01*
X18833186Y-15715671D01*
X18818900Y-15744243D01*
X18804614Y-15758529D01*
X18776043Y-15772814D01*
X18733186Y-15772814D01*
X19004614Y-15772814D02*
X18976043Y-15758529D01*
X18961757Y-15729957D01*
X18961757Y-15472814D01*
X19233186Y-15758529D02*
X19204614Y-15772814D01*
X19147471Y-15772814D01*
X19118900Y-15758529D01*
X19104614Y-15729957D01*
X19104614Y-15615671D01*
X19118900Y-15587100D01*
X19147471Y-15572814D01*
X19204614Y-15572814D01*
X19233186Y-15587100D01*
X19247471Y-15615671D01*
X19247471Y-15644243D01*
X19104614Y-15672814D01*
X19361757Y-15758529D02*
X19390328Y-15772814D01*
X19447471Y-15772814D01*
X19476043Y-15758529D01*
X19490328Y-15729957D01*
X19490328Y-15715671D01*
X19476043Y-15687100D01*
X19447471Y-15672814D01*
X19404614Y-15672814D01*
X19376043Y-15658529D01*
X19361757Y-15629957D01*
X19361757Y-15615671D01*
X19376043Y-15587100D01*
X19404614Y-15572814D01*
X19447471Y-15572814D01*
X19476043Y-15587100D01*
X19590328Y-15887100D02*
X19604614Y-15872814D01*
X19633186Y-15829957D01*
X19647471Y-15801386D01*
X19661757Y-15758529D01*
X19676043Y-15687100D01*
X19676043Y-15629957D01*
X19661757Y-15558529D01*
X19647471Y-15515671D01*
X19633186Y-15487100D01*
X19604614Y-15444243D01*
X19590328Y-15429957D01*
X12873900Y-15918100D02*
X13103900Y-16148100D01*
X13103900Y-15918100D02*
X12873900Y-16148100D01*
X13103900Y-16033100D02*
G75*
G03X13103900Y-16033100I-115000J0D01*
G01*
X13376043Y-15897386D02*
X13390328Y-15883100D01*
X13418900Y-15868814D01*
X13490328Y-15868814D01*
X13518900Y-15883100D01*
X13533186Y-15897386D01*
X13547471Y-15925957D01*
X13547471Y-15954529D01*
X13533186Y-15997386D01*
X13361757Y-16168814D01*
X13547471Y-16168814D01*
X13676043Y-16140243D02*
X13690328Y-16154529D01*
X13676043Y-16168814D01*
X13661757Y-16154529D01*
X13676043Y-16140243D01*
X13676043Y-16168814D01*
X13790328Y-15868814D02*
X13976043Y-15868814D01*
X13876043Y-15983100D01*
X13918900Y-15983100D01*
X13947471Y-15997386D01*
X13961757Y-16011671D01*
X13976043Y-16040243D01*
X13976043Y-16111671D01*
X13961757Y-16140243D01*
X13947471Y-16154529D01*
X13918900Y-16168814D01*
X13833186Y-16168814D01*
X13804614Y-16154529D01*
X13790328Y-16140243D01*
X14161757Y-15868814D02*
X14190328Y-15868814D01*
X14218900Y-15883100D01*
X14233186Y-15897386D01*
X14247471Y-15925957D01*
X14261757Y-15983100D01*
X14261757Y-16054529D01*
X14247471Y-16111671D01*
X14233186Y-16140243D01*
X14218900Y-16154529D01*
X14190328Y-16168814D01*
X14161757Y-16168814D01*
X14133186Y-16154529D01*
X14118900Y-16140243D01*
X14104614Y-16111671D01*
X14090328Y-16054529D01*
X14090328Y-15983100D01*
X14104614Y-15925957D01*
X14118900Y-15897386D01*
X14133186Y-15883100D01*
X14161757Y-15868814D01*
X14390328Y-16168814D02*
X14390328Y-15968814D01*
X14390328Y-15997386D02*
X14404614Y-15983100D01*
X14433186Y-15968814D01*
X14476043Y-15968814D01*
X14504614Y-15983100D01*
X14518900Y-16011671D01*
X14518900Y-16168814D01*
X14518900Y-16011671D02*
X14533186Y-15983100D01*
X14561757Y-15968814D01*
X14604614Y-15968814D01*
X14633186Y-15983100D01*
X14647471Y-16011671D01*
X14647471Y-16168814D01*
X14790328Y-16168814D02*
X14790328Y-15968814D01*
X14790328Y-15997386D02*
X14804614Y-15983100D01*
X14833186Y-15968814D01*
X14876043Y-15968814D01*
X14904614Y-15983100D01*
X14918900Y-16011671D01*
X14918900Y-16168814D01*
X14918900Y-16011671D02*
X14933186Y-15983100D01*
X14961757Y-15968814D01*
X15004614Y-15968814D01*
X15033186Y-15983100D01*
X15047471Y-16011671D01*
X15047471Y-16168814D01*
X15633186Y-15854529D02*
X15376043Y-16240243D01*
X16018900Y-15868814D02*
X16047471Y-15868814D01*
X16076043Y-15883100D01*
X16090328Y-15897386D01*
X16104614Y-15925957D01*
X16118900Y-15983100D01*
X16118900Y-16054529D01*
X16104614Y-16111671D01*
X16090328Y-16140243D01*
X16076043Y-16154529D01*
X16047471Y-16168814D01*
X16018900Y-16168814D01*
X15990328Y-16154529D01*
X15976043Y-16140243D01*
X15961757Y-16111671D01*
X15947471Y-16054529D01*
X15947471Y-15983100D01*
X15961757Y-15925957D01*
X15976043Y-15897386D01*
X15990328Y-15883100D01*
X16018900Y-15868814D01*
X16247471Y-16140243D02*
X16261757Y-16154529D01*
X16247471Y-16168814D01*
X16233186Y-16154529D01*
X16247471Y-16140243D01*
X16247471Y-16168814D01*
X16447471Y-15868814D02*
X16476043Y-15868814D01*
X16504614Y-15883100D01*
X16518900Y-15897386D01*
X16533186Y-15925957D01*
X16547471Y-15983100D01*
X16547471Y-16054529D01*
X16533186Y-16111671D01*
X16518900Y-16140243D01*
X16504614Y-16154529D01*
X16476043Y-16168814D01*
X16447471Y-16168814D01*
X16418900Y-16154529D01*
X16404614Y-16140243D01*
X16390328Y-16111671D01*
X16376043Y-16054529D01*
X16376043Y-15983100D01*
X16390328Y-15925957D01*
X16404614Y-15897386D01*
X16418900Y-15883100D01*
X16447471Y-15868814D01*
X16690328Y-16168814D02*
X16747471Y-16168814D01*
X16776043Y-16154529D01*
X16790328Y-16140243D01*
X16818900Y-16097386D01*
X16833186Y-16040243D01*
X16833186Y-15925957D01*
X16818900Y-15897386D01*
X16804614Y-15883100D01*
X16776043Y-15868814D01*
X16718900Y-15868814D01*
X16690328Y-15883100D01*
X16676043Y-15897386D01*
X16661757Y-15925957D01*
X16661757Y-15997386D01*
X16676043Y-16025957D01*
X16690328Y-16040243D01*
X16718900Y-16054529D01*
X16776043Y-16054529D01*
X16804614Y-16040243D01*
X16818900Y-16025957D01*
X16833186Y-15997386D01*
X17118900Y-16168814D02*
X16947471Y-16168814D01*
X17033186Y-16168814D02*
X17033186Y-15868814D01*
X17004614Y-15911671D01*
X16976043Y-15940243D01*
X16947471Y-15954529D01*
X17233186Y-15868814D02*
X17233186Y-15925957D01*
X17347471Y-15868814D02*
X17347471Y-15925957D01*
X17790328Y-16283100D02*
X17776043Y-16268814D01*
X17747471Y-16225957D01*
X17733186Y-16197386D01*
X17718900Y-16154529D01*
X17704614Y-16083100D01*
X17704614Y-16025957D01*
X17718900Y-15954529D01*
X17733186Y-15911671D01*
X17747471Y-15883100D01*
X17776043Y-15840243D01*
X17790328Y-15825957D01*
X18033186Y-15968814D02*
X18033186Y-16168814D01*
X17961757Y-15854529D02*
X17890328Y-16068814D01*
X18076043Y-16068814D01*
X18418900Y-16168814D02*
X18418900Y-15868814D01*
X18547471Y-16168814D02*
X18547471Y-16011671D01*
X18533186Y-15983100D01*
X18504614Y-15968814D01*
X18461757Y-15968814D01*
X18433186Y-15983100D01*
X18418900Y-15997386D01*
X18733186Y-16168814D02*
X18704614Y-16154529D01*
X18690328Y-16140243D01*
X18676043Y-16111671D01*
X18676043Y-16025957D01*
X18690328Y-15997386D01*
X18704614Y-15983100D01*
X18733186Y-15968814D01*
X18776043Y-15968814D01*
X18804614Y-15983100D01*
X18818900Y-15997386D01*
X18833186Y-16025957D01*
X18833186Y-16111671D01*
X18818900Y-16140243D01*
X18804614Y-16154529D01*
X18776043Y-16168814D01*
X18733186Y-16168814D01*
X19004614Y-16168814D02*
X18976043Y-16154529D01*
X18961757Y-16125957D01*
X18961757Y-15868814D01*
X19233186Y-16154529D02*
X19204614Y-16168814D01*
X19147471Y-16168814D01*
X19118900Y-16154529D01*
X19104614Y-16125957D01*
X19104614Y-16011671D01*
X19118900Y-15983100D01*
X19147471Y-15968814D01*
X19204614Y-15968814D01*
X19233186Y-15983100D01*
X19247471Y-16011671D01*
X19247471Y-16040243D01*
X19104614Y-16068814D01*
X19361757Y-16154529D02*
X19390328Y-16168814D01*
X19447471Y-16168814D01*
X19476043Y-16154529D01*
X19490328Y-16125957D01*
X19490328Y-16111671D01*
X19476043Y-16083100D01*
X19447471Y-16068814D01*
X19404614Y-16068814D01*
X19376043Y-16054529D01*
X19361757Y-16025957D01*
X19361757Y-16011671D01*
X19376043Y-15983100D01*
X19404614Y-15968814D01*
X19447471Y-15968814D01*
X19476043Y-15983100D01*
X19590328Y-16283100D02*
X19604614Y-16268814D01*
X19633186Y-16225957D01*
X19647471Y-16197386D01*
X19661757Y-16154529D01*
X19676043Y-16083100D01*
X19676043Y-16025957D01*
X19661757Y-15954529D01*
X19647471Y-15911671D01*
X19633186Y-15883100D01*
X19604614Y-15840243D01*
X19590328Y-15825957D01*
M02*
